G04*
G04 #@! TF.GenerationSoftware,Altium Limited,Altium Designer,20.0.10 (225)*
G04*
G04 Layer_Color=16711935*
%FSLAX25Y25*%
%MOIN*%
G70*
G01*
G75*
%ADD14C,0.01181*%
%ADD17C,0.06312*%
%ADD18R,0.05118X0.05118*%
%ADD19C,0.05118*%
%ADD20C,0.07296*%
%ADD21R,0.07296X0.07296*%
%ADD22R,0.06902X0.06902*%
%ADD23C,0.06902*%
%ADD24C,0.06981*%
%ADD25R,0.06981X0.06981*%
%ADD26C,0.12611*%
D14*
X486500Y401126D02*
G03*
X494374Y409000I0J7874D01*
G01*
X494424Y493057D02*
G03*
X487481Y500000I-6943J0D01*
G01*
X272400Y499974D02*
G03*
X264526Y492100I0J-7874D01*
G01*
X264500Y409000D02*
G03*
X272374Y401126I7874J0D01*
G01*
X486500Y401100D01*
Y401126D01*
X494374Y409000D02*
X494400Y408900D01*
Y492100D01*
X494402Y493045D01*
X494424Y493057D01*
X272500Y500000D02*
X487481D01*
X272400Y499974D02*
X272500Y500000D01*
X264500Y492200D02*
X264526Y492100D01*
X264500Y409000D02*
Y492200D01*
D17*
X346500Y488300D02*
D03*
X376500D02*
D03*
X415500Y466400D02*
D03*
Y426400D02*
D03*
X391300Y488300D02*
D03*
X421300D02*
D03*
X350800Y409400D02*
D03*
X380800D02*
D03*
X354600Y466400D02*
D03*
Y426400D02*
D03*
X370200Y466400D02*
D03*
Y426400D02*
D03*
D18*
X321900Y487600D02*
D03*
D19*
Y473820D02*
D03*
D20*
X312300Y460547D02*
D03*
Y450547D02*
D03*
D21*
Y440547D02*
D03*
D22*
X336920Y446181D02*
D03*
X388888D02*
D03*
X442746D02*
D03*
D23*
X336920Y456181D02*
D03*
X388888D02*
D03*
X442746D02*
D03*
D24*
X460937Y477696D02*
D03*
Y469822D02*
D03*
Y461948D02*
D03*
Y454074D02*
D03*
Y446200D02*
D03*
Y438326D02*
D03*
Y430452D02*
D03*
Y422578D02*
D03*
D25*
Y414704D02*
D03*
D26*
X482590Y488189D02*
D03*
X276538Y412910D02*
D03*
M02*
