G04*
G04 #@! TF.GenerationSoftware,Altium Limited,Altium Designer,20.0.10 (225)*
G04*
G04 Layer_Physical_Order=2*
G04 Layer_Color=16711680*
%FSLAX25Y25*%
%MOIN*%
G70*
G01*
G75*
%ADD14C,0.01181*%
%ADD18R,0.05118X0.05118*%
%ADD19C,0.05118*%
%ADD27C,0.03937*%
%ADD28C,0.05512*%
%ADD29C,0.06496*%
%ADD30R,0.06496X0.06496*%
%ADD31R,0.06102X0.06102*%
%ADD32C,0.06102*%
%ADD33C,0.06181*%
%ADD34R,0.06181X0.06181*%
%ADD35C,0.11811*%
G36*
X489506Y499733D02*
X490770Y499210D01*
X491907Y498450D01*
X492874Y497483D01*
X493634Y496346D01*
X494158Y495082D01*
X494424Y493741D01*
Y493057D01*
X494402Y493045D01*
X494400Y492100D01*
Y409003D01*
X494374Y409000D01*
X494374Y409000D01*
Y408581D01*
X494325Y407978D01*
X494071Y406703D01*
X493478Y405270D01*
X492616Y403981D01*
X491519Y402884D01*
X490230Y402022D01*
X488797Y401429D01*
X487483Y401167D01*
X486500Y401126D01*
D01*
X485518Y401100D01*
X272374Y401126D01*
X271599D01*
X270077Y401429D01*
X268644Y402022D01*
X267355Y402884D01*
X266258Y403981D01*
X265396Y405270D01*
X264803Y406703D01*
X264500Y408224D01*
Y409000D01*
Y492097D01*
X264526Y492100D01*
X264526Y492100D01*
Y492519D01*
X264575Y493122D01*
X264829Y494397D01*
X265422Y495830D01*
X266284Y497119D01*
X267381Y498216D01*
X268670Y499078D01*
X270103Y499671D01*
X271624Y499974D01*
X272400D01*
X272500Y500000D01*
X488165D01*
X489506Y499733D01*
D02*
G37*
%LPC*%
G36*
X347000Y492023D02*
Y488800D01*
X350222D01*
X350159Y489281D01*
X349781Y490194D01*
X349179Y490979D01*
X348394Y491581D01*
X347481Y491959D01*
X347000Y492023D01*
D02*
G37*
G36*
X346000D02*
X345519Y491959D01*
X344606Y491581D01*
X343821Y490979D01*
X343219Y490194D01*
X342841Y489281D01*
X342777Y488800D01*
X346000D01*
Y492023D01*
D02*
G37*
G36*
X325459Y491159D02*
X322400D01*
Y488100D01*
X325459D01*
Y491159D01*
D02*
G37*
G36*
X321400D02*
X318341D01*
Y488100D01*
X321400D01*
Y491159D01*
D02*
G37*
G36*
X350222Y487800D02*
X347000D01*
Y484578D01*
X347481Y484641D01*
X348394Y485019D01*
X349179Y485621D01*
X349781Y486406D01*
X350159Y487320D01*
X350222Y487800D01*
D02*
G37*
G36*
X346000D02*
X342777D01*
X342841Y487320D01*
X343219Y486406D01*
X343821Y485621D01*
X344606Y485019D01*
X345519Y484641D01*
X346000Y484578D01*
Y487800D01*
D02*
G37*
G36*
X325459Y487100D02*
X322400D01*
Y484041D01*
X325459D01*
Y487100D01*
D02*
G37*
G36*
X321400D02*
X318341D01*
Y484041D01*
X321400D01*
Y487100D01*
D02*
G37*
G36*
X398000Y497520D02*
X368500Y497520D01*
X368110Y497442D01*
X367779Y497221D01*
X367558Y496890D01*
X367480Y496500D01*
X367480Y491922D01*
X357078Y481520D01*
X313000Y481520D01*
X312610Y481442D01*
X312279Y481221D01*
X303779Y472721D01*
X303558Y472390D01*
X303480Y472000D01*
Y458000D01*
X303558Y457610D01*
X303779Y457279D01*
X304110Y457058D01*
X304500Y456980D01*
X308341D01*
X308535Y457019D01*
X308728Y457057D01*
X308730Y457058D01*
X308731Y457058D01*
X308894Y457167D01*
X309060Y457277D01*
X309148Y457249D01*
X310001Y456951D01*
X310033Y456932D01*
X310158Y456837D01*
X311191Y456409D01*
X312300Y456263D01*
X313409Y456409D01*
X314442Y456837D01*
X314567Y456932D01*
X314599Y456951D01*
X315452Y457249D01*
X315540Y457277D01*
X315706Y457167D01*
X315869Y457058D01*
X315870Y457058D01*
X315872Y457057D01*
X316066Y457019D01*
X316259Y456980D01*
X325500D01*
X325890Y457058D01*
X326221Y457279D01*
X330422Y461480D01*
X335800Y461480D01*
X336347Y460480D01*
X336145Y460165D01*
X335862Y460128D01*
X334877Y459720D01*
X334030Y459070D01*
X333381Y458224D01*
X332973Y457239D01*
X332834Y456181D01*
X332973Y455124D01*
X333381Y454138D01*
X334030Y453292D01*
X334877Y452642D01*
X335862Y452234D01*
X336920Y452095D01*
X337977Y452234D01*
X338963Y452642D01*
X339809Y453292D01*
X340458Y454138D01*
X340867Y455124D01*
X340983Y456010D01*
X347979Y463006D01*
X352979D01*
X353620Y462741D01*
X354600Y462612D01*
X355580Y462741D01*
X356494Y463119D01*
X357279Y463721D01*
X357881Y464506D01*
X358259Y465419D01*
X358388Y466400D01*
X358259Y467381D01*
X357881Y468294D01*
X357279Y469079D01*
X356494Y469681D01*
X355580Y470059D01*
X354600Y470188D01*
X353620Y470059D01*
X353271Y469915D01*
X352705Y470763D01*
X357922Y475980D01*
X398000D01*
X398390Y476058D01*
X398721Y476279D01*
X398942Y476610D01*
X399020Y477000D01*
X399020Y496500D01*
X398942Y496890D01*
X398721Y497221D01*
X398390Y497442D01*
X398000Y497520D01*
D02*
G37*
G36*
X482590Y495128D02*
X481237Y494995D01*
X479935Y494600D01*
X478735Y493959D01*
X477684Y493095D01*
X476821Y492044D01*
X476180Y490844D01*
X475785Y489543D01*
X475652Y488189D01*
X475785Y486835D01*
X476180Y485534D01*
X476821Y484334D01*
X477684Y483282D01*
X478735Y482419D01*
X479935Y481778D01*
X481237Y481383D01*
X482590Y481250D01*
X483944Y481383D01*
X485246Y481778D01*
X486446Y482419D01*
X487497Y483282D01*
X488360Y484334D01*
X489001Y485534D01*
X489396Y486835D01*
X489530Y488189D01*
X489396Y489543D01*
X489001Y490844D01*
X488360Y492044D01*
X487497Y493095D01*
X486446Y493959D01*
X485246Y494600D01*
X483944Y494995D01*
X482590Y495128D01*
D02*
G37*
G36*
X461437Y481756D02*
Y478196D01*
X464997D01*
X464922Y478764D01*
X464510Y479759D01*
X463854Y480614D01*
X463000Y481269D01*
X462005Y481681D01*
X461437Y481756D01*
D02*
G37*
G36*
X460437D02*
X459869Y481681D01*
X458874Y481269D01*
X458020Y480614D01*
X457364Y479759D01*
X456952Y478764D01*
X456877Y478196D01*
X460437D01*
Y481756D01*
D02*
G37*
G36*
X462000Y494494D02*
X424394D01*
X423619Y494392D01*
X423196Y494217D01*
X422897Y494093D01*
X422276Y493617D01*
X420664Y492005D01*
X420320Y491959D01*
X419406Y491581D01*
X418621Y490979D01*
X418019Y490194D01*
X417641Y489281D01*
X417579Y488814D01*
X404633Y475867D01*
X404157Y475247D01*
X403858Y474525D01*
X403756Y473750D01*
Y453490D01*
X399760Y449494D01*
X392939D01*
Y450232D01*
X384837D01*
Y450232D01*
X384247Y449988D01*
X379617Y454617D01*
X378997Y455093D01*
X378275Y455392D01*
X377500Y455494D01*
X348000D01*
X347225Y455392D01*
X346503Y455093D01*
X345883Y454617D01*
X341344Y450078D01*
X340971Y450232D01*
Y450232D01*
X332869D01*
Y442130D01*
X340971D01*
Y443006D01*
X341500D01*
X342275Y443108D01*
X342997Y443407D01*
X343617Y443883D01*
X349240Y449506D01*
X376260D01*
X381702Y444064D01*
X382322Y443588D01*
X383044Y443289D01*
X383819Y443187D01*
X384837D01*
Y442130D01*
X392939D01*
Y443506D01*
X401000D01*
X401775Y443608D01*
X402497Y443907D01*
X403117Y444383D01*
X407240Y448506D01*
X436187D01*
X438695Y445998D01*
Y442130D01*
X446798D01*
Y450232D01*
X442930D01*
X441974Y451188D01*
X442441Y452135D01*
X442746Y452095D01*
X443804Y452234D01*
X444790Y452642D01*
X445636Y453292D01*
X446285Y454138D01*
X446693Y455124D01*
X446833Y456181D01*
X446693Y457239D01*
X446285Y458224D01*
X445636Y459070D01*
X444790Y459720D01*
X443804Y460128D01*
X442746Y460267D01*
X441689Y460128D01*
X440703Y459720D01*
X440409Y459494D01*
X428740D01*
X420018Y468216D01*
X419398Y468692D01*
X418676Y468991D01*
X418198Y469054D01*
X418179Y469079D01*
X417394Y469681D01*
X416480Y470059D01*
X415500Y470188D01*
X414520Y470059D01*
X413606Y469681D01*
X412821Y469079D01*
X412219Y468294D01*
X411841Y467381D01*
X411712Y466400D01*
X411841Y465419D01*
X412219Y464506D01*
X412821Y463721D01*
X413606Y463119D01*
X414520Y462741D01*
X415500Y462612D01*
X416480Y462741D01*
X416865Y462900D01*
X424348Y455418D01*
X423965Y454494D01*
X409744D01*
Y472510D01*
X421814Y484579D01*
X422281Y484641D01*
X423194Y485019D01*
X423979Y485621D01*
X424581Y486406D01*
X424959Y487320D01*
X425037Y487909D01*
X425634Y488506D01*
X460760D01*
X470506Y478760D01*
Y458060D01*
X464231D01*
X463896Y458923D01*
X463877Y459059D01*
X464510Y459885D01*
X464922Y460880D01*
X465063Y461948D01*
X464922Y463016D01*
X464510Y464011D01*
X463931Y464766D01*
Y467005D01*
X464510Y467759D01*
X464922Y468754D01*
X465063Y469822D01*
X464922Y470890D01*
X464510Y471885D01*
X463854Y472740D01*
X463300Y473165D01*
X463221Y473418D01*
Y474100D01*
X463300Y474353D01*
X463854Y474779D01*
X464510Y475633D01*
X464922Y476628D01*
X464997Y477196D01*
X456877D01*
X456952Y476628D01*
X457364Y475633D01*
X458020Y474779D01*
X458574Y474353D01*
X458653Y474100D01*
Y473418D01*
X458574Y473165D01*
X458020Y472740D01*
X457364Y471885D01*
X456952Y470890D01*
X456811Y469822D01*
X456952Y468754D01*
X457364Y467759D01*
X457943Y467005D01*
Y464766D01*
X457364Y464011D01*
X456952Y463016D01*
X456811Y461948D01*
X456952Y460880D01*
X457364Y459885D01*
X458020Y459031D01*
X458574Y458605D01*
X458653Y458352D01*
Y457670D01*
X458574Y457417D01*
X458020Y456991D01*
X457364Y456137D01*
X456952Y455142D01*
X456811Y454074D01*
X456952Y453006D01*
X457364Y452011D01*
X458020Y451157D01*
X458574Y450731D01*
X458653Y450478D01*
Y449796D01*
X458574Y449543D01*
X458020Y449117D01*
X457364Y448263D01*
X456952Y447268D01*
X456811Y446200D01*
X456952Y445132D01*
X457364Y444137D01*
X458020Y443283D01*
X458574Y442857D01*
X458653Y442604D01*
Y441922D01*
X458574Y441669D01*
X458020Y441243D01*
X457364Y440389D01*
X456952Y439394D01*
X456877Y438826D01*
X464997D01*
X464922Y439394D01*
X464510Y440389D01*
X463854Y441243D01*
X463479Y441532D01*
X463389Y442601D01*
X463972Y443206D01*
X465560D01*
X468506Y440260D01*
Y410494D01*
X465978D01*
X465028Y410613D01*
Y418794D01*
X464368D01*
X464085Y419272D01*
X463957Y419795D01*
X464510Y420515D01*
X464922Y421510D01*
X465063Y422578D01*
X464922Y423646D01*
X464510Y424641D01*
X463854Y425495D01*
X463300Y425921D01*
X463221Y426174D01*
Y426856D01*
X463300Y427109D01*
X463854Y427534D01*
X464510Y428389D01*
X464922Y429384D01*
X465063Y430452D01*
X464922Y431520D01*
X464510Y432515D01*
X463854Y433369D01*
X463300Y433795D01*
X463221Y434048D01*
Y434730D01*
X463300Y434983D01*
X463854Y435409D01*
X464510Y436263D01*
X464922Y437258D01*
X464997Y437826D01*
X456877D01*
X456952Y437258D01*
X457364Y436263D01*
X458020Y435409D01*
X458395Y435120D01*
X458485Y434051D01*
X457902Y433446D01*
X419552D01*
X418777Y433344D01*
X418354Y433169D01*
X418055Y433045D01*
X417435Y432569D01*
X414986Y430121D01*
X414520Y430059D01*
X413606Y429681D01*
X412821Y429079D01*
X412219Y428294D01*
X411841Y427381D01*
X411712Y426400D01*
X411841Y425420D01*
X412219Y424506D01*
X412228Y424494D01*
X411735Y423494D01*
X377340D01*
X373921Y426914D01*
X373859Y427381D01*
X373481Y428294D01*
X372879Y429079D01*
X372094Y429681D01*
X371181Y430059D01*
X370200Y430188D01*
X369219Y430059D01*
X368306Y429681D01*
X367521Y429079D01*
X366919Y428294D01*
X366541Y427381D01*
X366412Y426400D01*
X366541Y425420D01*
X366919Y424506D01*
X367521Y423721D01*
X368306Y423119D01*
X369219Y422741D01*
X369686Y422679D01*
X373247Y419118D01*
X372833Y418118D01*
X367116D01*
X358321Y426914D01*
X358259Y427381D01*
X357881Y428294D01*
X357279Y429079D01*
X356494Y429681D01*
X355580Y430059D01*
X354600Y430188D01*
X353620Y430059D01*
X352706Y429681D01*
X351921Y429079D01*
X351319Y428294D01*
X350941Y427381D01*
X350812Y426400D01*
X350941Y425420D01*
X351319Y424506D01*
X351921Y423721D01*
X352706Y423119D01*
X353620Y422741D01*
X354086Y422679D01*
X363758Y413007D01*
X364378Y412531D01*
X364678Y412407D01*
X365101Y412232D01*
X365876Y412130D01*
X376900D01*
X377226Y411691D01*
X377451Y411130D01*
X377141Y410381D01*
X377012Y409400D01*
X377141Y408420D01*
X377519Y407506D01*
X378121Y406721D01*
X378906Y406119D01*
X379819Y405741D01*
X380800Y405612D01*
X381781Y405741D01*
X382694Y406119D01*
X383068Y406406D01*
X410860D01*
X411883Y405383D01*
X412503Y404907D01*
X413225Y404608D01*
X414000Y404506D01*
X470914D01*
X471689Y404608D01*
X472411Y404907D01*
X473031Y405383D01*
X473617Y405969D01*
X474093Y406589D01*
X474217Y406888D01*
X474392Y407311D01*
X474494Y408086D01*
Y441500D01*
X474392Y442275D01*
X474093Y442997D01*
X473617Y443617D01*
X468917Y448317D01*
X468297Y448793D01*
X467575Y449092D01*
X466800Y449194D01*
X463755D01*
X463300Y449543D01*
X463221Y449796D01*
Y450478D01*
X463300Y450731D01*
X463854Y451157D01*
X464510Y452011D01*
X464535Y452071D01*
X472065D01*
X472840Y452173D01*
X473562Y452472D01*
X474183Y452948D01*
X475617Y454383D01*
X476093Y455003D01*
X476392Y455725D01*
X476494Y456500D01*
Y480000D01*
X476392Y480775D01*
X476093Y481497D01*
X475617Y482117D01*
X464117Y493617D01*
X463497Y494093D01*
X462775Y494392D01*
X462000Y494494D01*
D02*
G37*
G36*
X370200Y470188D02*
X369219Y470059D01*
X368306Y469681D01*
X367521Y469079D01*
X366919Y468294D01*
X366541Y467381D01*
X366412Y466400D01*
X366541Y465419D01*
X366919Y464506D01*
X367521Y463721D01*
X368306Y463119D01*
X369219Y462741D01*
X370200Y462612D01*
X371181Y462741D01*
X372094Y463119D01*
X372468Y463406D01*
X377429D01*
X384824Y456010D01*
X384941Y455124D01*
X385349Y454138D01*
X385999Y453292D01*
X386845Y452642D01*
X387831Y452234D01*
X388888Y452095D01*
X389946Y452234D01*
X390931Y452642D01*
X391777Y453292D01*
X392427Y454138D01*
X392835Y455124D01*
X392974Y456181D01*
X392835Y457239D01*
X392427Y458224D01*
X391777Y459070D01*
X390931Y459720D01*
X389946Y460128D01*
X389059Y460245D01*
X380786Y468517D01*
X380166Y468993D01*
X379444Y469292D01*
X378669Y469394D01*
X372468D01*
X372094Y469681D01*
X371181Y470059D01*
X370200Y470188D01*
D02*
G37*
G36*
X312800Y454766D02*
Y451047D01*
X316519D01*
X316439Y451656D01*
X316011Y452690D01*
X315330Y453577D01*
X314442Y454258D01*
X313409Y454686D01*
X312800Y454766D01*
D02*
G37*
G36*
X311800D02*
X311191Y454686D01*
X310158Y454258D01*
X309270Y453577D01*
X308589Y452690D01*
X308161Y451656D01*
X308081Y451047D01*
X311800D01*
Y454766D01*
D02*
G37*
G36*
X316519Y450047D02*
X312800D01*
Y446328D01*
X313409Y446409D01*
X314442Y446837D01*
X315330Y447517D01*
X316011Y448405D01*
X316439Y449438D01*
X316519Y450047D01*
D02*
G37*
G36*
X311800D02*
X308081D01*
X308161Y449438D01*
X308589Y448405D01*
X309270Y447517D01*
X310158Y446837D01*
X311191Y446409D01*
X311800Y446328D01*
Y450047D01*
D02*
G37*
G36*
X326000Y446020D02*
X316963D01*
X316930Y446013D01*
X316897Y446017D01*
X316736Y445974D01*
X316573Y445942D01*
X316545Y445923D01*
X316512Y445915D01*
X316097Y445710D01*
X315965Y445609D01*
X315827Y445516D01*
X315808Y445488D01*
X315781Y445468D01*
X315698Y445324D01*
X315606Y445186D01*
X315599Y445152D01*
X315583Y445123D01*
X315561Y444958D01*
X315528Y444795D01*
X309071D01*
X309039Y444958D01*
X309017Y445123D01*
X309000Y445152D01*
X308994Y445186D01*
X308902Y445324D01*
X308819Y445468D01*
X308792Y445488D01*
X308773Y445516D01*
X308635Y445609D01*
X308503Y445710D01*
X308088Y445915D01*
X308055Y445923D01*
X308027Y445942D01*
X307864Y445974D01*
X307703Y446017D01*
X307670Y446013D01*
X307637Y446020D01*
X304000D01*
X303610Y445942D01*
X303279Y445721D01*
X303058Y445390D01*
X302980Y445000D01*
Y405000D01*
X303058Y404610D01*
X303279Y404279D01*
X303610Y404058D01*
X304000Y403980D01*
X355500Y403980D01*
X355890Y404058D01*
X356221Y404279D01*
X356442Y404610D01*
X356520Y405000D01*
X356520Y415000D01*
X356442Y415390D01*
X356221Y415721D01*
X355890Y415942D01*
X355500Y416020D01*
X329922D01*
X327020Y418922D01*
Y445000D01*
X326942Y445390D01*
X326721Y445721D01*
X326390Y445942D01*
X326000Y446020D01*
D02*
G37*
G36*
X276538Y419848D02*
X275184Y419715D01*
X273882Y419320D01*
X272683Y418679D01*
X271631Y417816D01*
X270768Y416764D01*
X270127Y415565D01*
X269732Y414263D01*
X269599Y412910D01*
X269732Y411556D01*
X270127Y410254D01*
X270768Y409054D01*
X271631Y408003D01*
X272683Y407140D01*
X273882Y406499D01*
X275184Y406104D01*
X276538Y405970D01*
X277891Y406104D01*
X279193Y406499D01*
X280393Y407140D01*
X281444Y408003D01*
X282307Y409054D01*
X282948Y410254D01*
X283343Y411556D01*
X283477Y412910D01*
X283343Y414263D01*
X282948Y415565D01*
X282307Y416764D01*
X281444Y417816D01*
X280393Y418679D01*
X279193Y419320D01*
X277891Y419715D01*
X276538Y419848D01*
D02*
G37*
%LPD*%
G36*
X398000Y477000D02*
X357500D01*
X349494Y468994D01*
X346739D01*
X345964Y468892D01*
X345541Y468717D01*
X345241Y468593D01*
X344621Y468117D01*
X339004Y462500D01*
X330000Y462500D01*
X325500Y458000D01*
X316259D01*
X316050Y458500D01*
X316439Y459438D01*
X316519Y460047D01*
X308081D01*
X308161Y459438D01*
X308550Y458500D01*
X308341Y458000D01*
X304500D01*
Y472000D01*
X313000Y480500D01*
X357500Y480500D01*
X368500Y491500D01*
X368500Y496500D01*
X398000Y496500D01*
X398000Y477000D01*
D02*
G37*
%LPC*%
G36*
X391800Y492023D02*
Y488800D01*
X395023D01*
X394959Y489281D01*
X394581Y490194D01*
X393979Y490979D01*
X393194Y491581D01*
X392281Y491959D01*
X391800Y492023D01*
D02*
G37*
G36*
X390800D02*
X390319Y491959D01*
X389406Y491581D01*
X388621Y490979D01*
X388019Y490194D01*
X387641Y489281D01*
X387578Y488800D01*
X390800D01*
Y492023D01*
D02*
G37*
G36*
X377000D02*
Y488800D01*
X380223D01*
X380159Y489281D01*
X379781Y490194D01*
X379179Y490979D01*
X378394Y491581D01*
X377481Y491959D01*
X377000Y492023D01*
D02*
G37*
G36*
X376000D02*
X375519Y491959D01*
X374606Y491581D01*
X373821Y490979D01*
X373219Y490194D01*
X372841Y489281D01*
X372778Y488800D01*
X376000D01*
Y492023D01*
D02*
G37*
G36*
X395023Y487800D02*
X391800D01*
Y484578D01*
X392281Y484641D01*
X393194Y485019D01*
X393979Y485621D01*
X394581Y486406D01*
X394959Y487320D01*
X395023Y487800D01*
D02*
G37*
G36*
X390800D02*
X387578D01*
X387641Y487320D01*
X388019Y486406D01*
X388621Y485621D01*
X389406Y485019D01*
X390319Y484641D01*
X390800Y484578D01*
Y487800D01*
D02*
G37*
G36*
X380223D02*
X377000D01*
Y484578D01*
X377481Y484641D01*
X378394Y485019D01*
X379179Y485621D01*
X379781Y486406D01*
X380159Y487320D01*
X380223Y487800D01*
D02*
G37*
G36*
X376000D02*
X372778D01*
X372841Y487320D01*
X373219Y486406D01*
X373821Y485621D01*
X374606Y485019D01*
X375519Y484641D01*
X376000Y484578D01*
Y487800D01*
D02*
G37*
G36*
X322400Y477344D02*
Y474321D01*
X325424D01*
X325367Y474750D01*
X325009Y475615D01*
X324438Y476359D01*
X323695Y476929D01*
X322829Y477288D01*
X322400Y477344D01*
D02*
G37*
G36*
X321400D02*
X320971Y477288D01*
X320105Y476929D01*
X319362Y476359D01*
X318791Y475615D01*
X318433Y474750D01*
X318376Y474321D01*
X321400D01*
Y477344D01*
D02*
G37*
G36*
X325424Y473320D02*
X322400D01*
Y470297D01*
X322829Y470353D01*
X323695Y470712D01*
X324438Y471282D01*
X325009Y472026D01*
X325367Y472891D01*
X325424Y473320D01*
D02*
G37*
G36*
X321400D02*
X318376D01*
X318433Y472891D01*
X318791Y472026D01*
X319362Y471282D01*
X320105Y470712D01*
X320971Y470353D01*
X321400Y470297D01*
Y473320D01*
D02*
G37*
G36*
X312800Y464766D02*
Y461047D01*
X316519D01*
X316439Y461656D01*
X316011Y462690D01*
X315330Y463577D01*
X314442Y464258D01*
X313409Y464686D01*
X312800Y464766D01*
D02*
G37*
G36*
X311800D02*
X311191Y464686D01*
X310158Y464258D01*
X309270Y463577D01*
X308589Y462690D01*
X308161Y461656D01*
X308081Y461047D01*
X311800D01*
Y464766D01*
D02*
G37*
%LPD*%
G36*
X326000Y418500D02*
X329500Y415000D01*
X355500D01*
X355500Y405000D01*
X304000Y405000D01*
Y445000D01*
X307637D01*
X308052Y444795D01*
X308052Y444500D01*
Y441047D01*
X316548D01*
Y444500D01*
X316548Y444795D01*
X316963Y445000D01*
X326000D01*
Y418500D01*
D02*
G37*
%LPC*%
G36*
X316548Y440047D02*
X312800D01*
Y436299D01*
X316548D01*
Y440047D01*
D02*
G37*
G36*
X311800D02*
X308052D01*
Y436299D01*
X311800D01*
Y440047D01*
D02*
G37*
G36*
X351300Y413123D02*
Y409900D01*
X354522D01*
X354459Y410381D01*
X354081Y411294D01*
X353479Y412079D01*
X352694Y412681D01*
X351781Y413059D01*
X351300Y413123D01*
D02*
G37*
G36*
X350300D02*
X349819Y413059D01*
X348906Y412681D01*
X348121Y412079D01*
X347519Y411294D01*
X347141Y410381D01*
X347077Y409900D01*
X350300D01*
Y413123D01*
D02*
G37*
G36*
X354522Y408900D02*
X351300D01*
Y405678D01*
X351781Y405741D01*
X352694Y406119D01*
X353479Y406721D01*
X354081Y407506D01*
X354459Y408420D01*
X354522Y408900D01*
D02*
G37*
G36*
X350300D02*
X347077D01*
X347141Y408420D01*
X347519Y407506D01*
X348121Y406721D01*
X348906Y406119D01*
X349819Y405741D01*
X350300Y405678D01*
Y408900D01*
D02*
G37*
%LPD*%
D14*
X486500Y401126D02*
G03*
X494374Y409000I0J7874D01*
G01*
X494424Y493057D02*
G03*
X487481Y500000I-6943J0D01*
G01*
X272400Y499974D02*
G03*
X264526Y492100I0J-7874D01*
G01*
X264500Y409000D02*
G03*
X272374Y401126I7874J0D01*
G01*
X486500Y401100D01*
Y401126D01*
X494374Y409000D02*
X494400Y408900D01*
Y492100D01*
X494402Y493045D01*
X494424Y493057D01*
X272500Y500000D02*
X487481D01*
X272400Y499974D02*
X272500Y500000D01*
X264500Y492200D02*
X264526Y492100D01*
X264500Y409000D02*
Y492200D01*
D18*
X321900Y487600D02*
D03*
D19*
Y473820D02*
D03*
D27*
X406750Y452250D02*
Y473750D01*
X421500Y488500D01*
X421300Y488300D02*
Y488406D01*
X424394Y491500D01*
X462000D01*
X417901Y466099D02*
X427500Y456500D01*
X442428D01*
X442746Y456181D01*
X406000Y451500D02*
X437428D01*
X442746Y446181D01*
X415500Y466400D02*
X415801Y466099D01*
X417901D01*
X383171Y415124D02*
X383295Y415000D01*
X460641D02*
X460937Y414704D01*
X383295Y415000D02*
X460641D01*
X381600Y409400D02*
X412100D01*
X414000Y407500D01*
X470914D01*
X376100Y420500D02*
X420000D01*
X422078Y422578D01*
X370500Y426100D02*
X376100Y420500D01*
X365876Y415124D02*
X383171D01*
X460937Y462063D02*
X461000Y462000D01*
X460937Y462063D02*
Y469822D01*
X354600Y426400D02*
X365876Y415124D01*
X350400Y409400D02*
X351000Y410000D01*
X330600Y409400D02*
X350400D01*
X312300Y427700D02*
X330600Y409400D01*
X312300Y427700D02*
Y440547D01*
X473500Y456500D02*
Y480000D01*
X461928Y455065D02*
X472065D01*
X473500Y456500D01*
X460937Y454074D02*
X461928Y455065D01*
X462000Y491500D02*
X473500Y480000D01*
X419552Y430452D02*
X460937D01*
X416600Y427500D02*
X419552Y430452D01*
X416500Y427500D02*
X416600D01*
X370500Y426100D02*
Y426500D01*
X422078Y422578D02*
X460937D01*
X471500Y408086D02*
Y441500D01*
X470914Y407500D02*
X471500Y408086D01*
X460937Y446200D02*
X466800D01*
X471500Y441500D01*
X370200Y466400D02*
X378669D01*
X388500Y456569D01*
Y456500D02*
Y456569D01*
X346739Y466000D02*
X354500D01*
X336920Y456181D02*
X346739Y466000D01*
X401000Y446500D02*
X406750Y452250D01*
X338000Y446000D02*
X341500D01*
X348000Y452500D02*
X377500D01*
X341500Y446000D02*
X348000Y452500D01*
X383819Y446181D02*
X388888D01*
X377500Y452500D02*
X383819Y446181D01*
X389000Y446500D02*
X401000D01*
D28*
X346500Y488300D02*
D03*
X376500D02*
D03*
X415500Y466400D02*
D03*
Y426400D02*
D03*
X391300Y488300D02*
D03*
X421300D02*
D03*
X350800Y409400D02*
D03*
X380800D02*
D03*
X354600Y466400D02*
D03*
Y426400D02*
D03*
X370200Y466400D02*
D03*
Y426400D02*
D03*
D29*
X312300Y460547D02*
D03*
Y450547D02*
D03*
D30*
Y440547D02*
D03*
D31*
X336920Y446181D02*
D03*
X388888D02*
D03*
X442746D02*
D03*
D32*
X336920Y456181D02*
D03*
X388888D02*
D03*
X442746D02*
D03*
D33*
X460937Y477696D02*
D03*
Y469822D02*
D03*
Y461948D02*
D03*
Y454074D02*
D03*
Y446200D02*
D03*
Y438326D02*
D03*
Y430452D02*
D03*
Y422578D02*
D03*
D34*
Y414704D02*
D03*
D35*
X482590Y488189D02*
D03*
X276538Y412910D02*
D03*
M02*
