G04*
G04 #@! TF.GenerationSoftware,Altium Limited,Altium Designer,20.0.10 (225)*
G04*
G04 Layer_Color=65535*
%FSLAX25Y25*%
%MOIN*%
G70*
G01*
G75*
%ADD10C,0.00591*%
%ADD11C,0.00984*%
%ADD12C,0.00787*%
%ADD13C,0.01000*%
%ADD14C,0.01181*%
G36*
X453245Y412423D02*
X452612D01*
Y416437D01*
X452605Y416429D01*
X452573Y416398D01*
X452519Y416359D01*
X452448Y416304D01*
X452362Y416234D01*
X452261Y416164D01*
X452144Y416078D01*
X452011Y416000D01*
X452003D01*
X451995Y415992D01*
X451948Y415961D01*
X451878Y415922D01*
X451792Y415875D01*
X451691Y415820D01*
X451581Y415773D01*
X451464Y415719D01*
X451355Y415672D01*
Y416289D01*
X451363D01*
X451378Y416296D01*
X451410Y416312D01*
X451441Y416335D01*
X451488Y416359D01*
X451542Y416382D01*
X451667Y416453D01*
X451808Y416539D01*
X451964Y416640D01*
X452120Y416757D01*
X452269Y416882D01*
X452277Y416890D01*
X452284Y416898D01*
X452331Y416945D01*
X452401Y417015D01*
X452487Y417101D01*
X452581Y417210D01*
X452675Y417327D01*
X452761Y417452D01*
X452831Y417577D01*
X453245D01*
Y412423D01*
D02*
G37*
G36*
X447161Y402880D02*
X399839D01*
Y411120D01*
X447161D01*
Y402880D01*
D02*
G37*
G36*
X479679Y488048D02*
X423321D01*
Y498952D01*
X479679D01*
Y488048D01*
D02*
G37*
G36*
X451908Y481212D02*
X451947D01*
X452001Y481205D01*
X452127Y481189D01*
X452267Y481150D01*
X452416Y481103D01*
X452579Y481041D01*
X452736Y480947D01*
X452743D01*
X452751Y480931D01*
X452775Y480916D01*
X452806Y480900D01*
X452876Y480838D01*
X452970Y480752D01*
X453071Y480634D01*
X453181Y480510D01*
X453282Y480353D01*
X453368Y480174D01*
Y480166D01*
X453376Y480150D01*
X453392Y480119D01*
X453400Y480080D01*
X453423Y480033D01*
X453439Y479971D01*
X453454Y479893D01*
X453478Y479807D01*
X453501Y479713D01*
X453517Y479604D01*
X453540Y479486D01*
X453556Y479361D01*
X453563Y479221D01*
X453579Y479073D01*
X453587Y478908D01*
Y478737D01*
Y478729D01*
Y478690D01*
Y478643D01*
Y478573D01*
X453579Y478495D01*
Y478393D01*
X453571Y478292D01*
X453563Y478174D01*
X453532Y477924D01*
X453493Y477659D01*
X453439Y477401D01*
X453407Y477284D01*
X453368Y477167D01*
Y477159D01*
X453361Y477143D01*
X453345Y477112D01*
X453329Y477073D01*
X453306Y477018D01*
X453282Y476964D01*
X453212Y476839D01*
X453118Y476690D01*
X453009Y476542D01*
X452884Y476402D01*
X452736Y476276D01*
X452728D01*
X452720Y476261D01*
X452697Y476253D01*
X452658Y476230D01*
X452619Y476206D01*
X452572Y476183D01*
X452455Y476128D01*
X452306Y476074D01*
X452142Y476027D01*
X451947Y475995D01*
X451744Y475980D01*
X451689D01*
X451642Y475988D01*
X451595D01*
X451533Y475995D01*
X451392Y476019D01*
X451236Y476058D01*
X451072Y476120D01*
X450916Y476198D01*
X450760Y476308D01*
X450752Y476316D01*
X450744Y476323D01*
X450697Y476370D01*
X450635Y476448D01*
X450557Y476550D01*
X450479Y476683D01*
X450408Y476847D01*
X450346Y477034D01*
X450307Y477253D01*
X450908Y477300D01*
Y477292D01*
Y477284D01*
X450916Y477261D01*
X450924Y477229D01*
X450939Y477151D01*
X450971Y477065D01*
X451010Y476964D01*
X451056Y476862D01*
X451119Y476761D01*
X451197Y476683D01*
X451205Y476675D01*
X451236Y476651D01*
X451283Y476620D01*
X451353Y476589D01*
X451431Y476558D01*
X451525Y476526D01*
X451635Y476503D01*
X451759Y476495D01*
X451806D01*
X451861Y476503D01*
X451931Y476511D01*
X452009Y476526D01*
X452095Y476550D01*
X452181Y476581D01*
X452267Y476628D01*
X452275Y476636D01*
X452306Y476651D01*
X452345Y476683D01*
X452392Y476722D01*
X452455Y476769D01*
X452509Y476831D01*
X452572Y476901D01*
X452626Y476979D01*
X452634Y476987D01*
X452650Y477018D01*
X452673Y477073D01*
X452712Y477143D01*
X452743Y477229D01*
X452782Y477331D01*
X452822Y477448D01*
X452861Y477581D01*
Y477589D01*
X452868Y477596D01*
Y477620D01*
X452876Y477643D01*
X452892Y477721D01*
X452908Y477823D01*
X452923Y477940D01*
X452939Y478065D01*
X452954Y478206D01*
Y478354D01*
Y478362D01*
Y478385D01*
Y478424D01*
Y478479D01*
X452947Y478463D01*
X452915Y478432D01*
X452876Y478370D01*
X452814Y478307D01*
X452743Y478229D01*
X452650Y478143D01*
X452548Y478065D01*
X452431Y477987D01*
X452416Y477979D01*
X452376Y477956D01*
X452306Y477932D01*
X452220Y477901D01*
X452119Y477862D01*
X452001Y477839D01*
X451869Y477815D01*
X451728Y477807D01*
X451666D01*
X451619Y477815D01*
X451564Y477823D01*
X451502Y477831D01*
X451353Y477862D01*
X451182Y477917D01*
X451096Y477956D01*
X451002Y478003D01*
X450916Y478057D01*
X450822Y478120D01*
X450736Y478190D01*
X450650Y478268D01*
X450643Y478276D01*
X450635Y478292D01*
X450611Y478315D01*
X450580Y478354D01*
X450549Y478401D01*
X450510Y478455D01*
X450471Y478518D01*
X450432Y478596D01*
X450393Y478674D01*
X450354Y478768D01*
X450315Y478869D01*
X450283Y478979D01*
X450252Y479096D01*
X450229Y479213D01*
X450221Y479346D01*
X450213Y479486D01*
Y479494D01*
Y479518D01*
Y479565D01*
X450221Y479619D01*
X450229Y479682D01*
X450237Y479760D01*
X450252Y479846D01*
X450268Y479939D01*
X450322Y480135D01*
X450361Y480244D01*
X450408Y480345D01*
X450455Y480455D01*
X450518Y480556D01*
X450588Y480650D01*
X450666Y480744D01*
X450674Y480752D01*
X450690Y480767D01*
X450713Y480791D01*
X450752Y480822D01*
X450791Y480853D01*
X450846Y480892D01*
X450908Y480939D01*
X450986Y480986D01*
X451064Y481025D01*
X451150Y481072D01*
X451345Y481150D01*
X451455Y481173D01*
X451572Y481197D01*
X451697Y481212D01*
X451822Y481220D01*
X451869D01*
X451908Y481212D01*
D02*
G37*
G36*
X302320Y408524D02*
X302347D01*
X302384Y408519D01*
X302467Y408505D01*
X302560Y408477D01*
X302656Y408441D01*
X302753Y408394D01*
X302799Y408362D01*
X302845Y408325D01*
X302850D01*
X302855Y408316D01*
X302882Y408288D01*
X302919Y408242D01*
X302965Y408182D01*
X303016Y408104D01*
X303057Y408012D01*
X303099Y407901D01*
X303122Y407777D01*
X302753Y407749D01*
Y407754D01*
Y407758D01*
X302744Y407786D01*
X302730Y407823D01*
X302716Y407869D01*
X302670Y407975D01*
X302642Y408021D01*
X302610Y408063D01*
X302606Y408072D01*
X302583Y408090D01*
X302550Y408113D01*
X302509Y408146D01*
X302453Y408173D01*
X302389Y408201D01*
X302315Y408219D01*
X302237Y408224D01*
X302205D01*
X302172Y408219D01*
X302131Y408210D01*
X302080Y408201D01*
X302025Y408182D01*
X301974Y408155D01*
X301919Y408122D01*
X301909Y408118D01*
X301891Y408100D01*
X301859Y408067D01*
X301822Y408026D01*
X301776Y407975D01*
X301730Y407910D01*
X301684Y407832D01*
X301642Y407745D01*
Y407740D01*
X301638Y407735D01*
X301633Y407717D01*
X301628Y407698D01*
X301619Y407675D01*
X301610Y407643D01*
X301601Y407606D01*
X301591Y407565D01*
X301582Y407519D01*
X301573Y407468D01*
X301564Y407408D01*
X301555Y407348D01*
X301550Y407279D01*
X301545Y407205D01*
X301541Y407127D01*
Y407048D01*
X301545Y407053D01*
X301564Y407076D01*
X301591Y407113D01*
X301633Y407159D01*
X301679Y407210D01*
X301734Y407261D01*
X301799Y407307D01*
X301868Y407348D01*
X301877Y407353D01*
X301900Y407362D01*
X301942Y407380D01*
X301993Y407399D01*
X302052Y407417D01*
X302122Y407436D01*
X302195Y407445D01*
X302274Y407449D01*
X302311D01*
X302338Y407445D01*
X302371Y407440D01*
X302407Y407436D01*
X302495Y407417D01*
X302592Y407380D01*
X302647Y407362D01*
X302698Y407334D01*
X302753Y407302D01*
X302808Y407265D01*
X302859Y407224D01*
X302910Y407173D01*
X302915Y407168D01*
X302919Y407159D01*
X302933Y407145D01*
X302951Y407122D01*
X302970Y407094D01*
X302993Y407062D01*
X303016Y407025D01*
X303044Y406984D01*
X303067Y406933D01*
X303090Y406882D01*
X303113Y406822D01*
X303131Y406763D01*
X303150Y406693D01*
X303164Y406624D01*
X303168Y406546D01*
X303173Y406467D01*
Y406463D01*
Y406454D01*
Y406440D01*
Y406422D01*
X303168Y406394D01*
Y406366D01*
X303159Y406292D01*
X303140Y406214D01*
X303122Y406122D01*
X303090Y406030D01*
X303048Y405937D01*
Y405933D01*
X303044Y405928D01*
X303034Y405914D01*
X303025Y405896D01*
X302997Y405854D01*
X302961Y405799D01*
X302910Y405739D01*
X302850Y405679D01*
X302785Y405619D01*
X302707Y405564D01*
X302698Y405559D01*
X302670Y405546D01*
X302624Y405522D01*
X302569Y405499D01*
X302495Y405476D01*
X302412Y405453D01*
X302320Y405440D01*
X302223Y405435D01*
X302205D01*
X302177Y405440D01*
X302145D01*
X302108Y405444D01*
X302062Y405453D01*
X302011Y405463D01*
X301956Y405476D01*
X301896Y405495D01*
X301831Y405518D01*
X301771Y405546D01*
X301707Y405578D01*
X301642Y405619D01*
X301578Y405665D01*
X301518Y405716D01*
X301462Y405776D01*
X301458Y405781D01*
X301448Y405794D01*
X301435Y405813D01*
X301416Y405841D01*
X301393Y405877D01*
X301370Y405924D01*
X301343Y405979D01*
X301320Y406043D01*
X301292Y406117D01*
X301264Y406200D01*
X301241Y406292D01*
X301218Y406394D01*
X301200Y406504D01*
X301186Y406629D01*
X301177Y406758D01*
X301172Y406901D01*
Y406906D01*
Y406910D01*
Y406924D01*
Y406938D01*
Y406984D01*
X301177Y407044D01*
X301181Y407118D01*
X301190Y407200D01*
X301200Y407293D01*
X301213Y407390D01*
X301227Y407496D01*
X301250Y407602D01*
X301278Y407708D01*
X301310Y407809D01*
X301347Y407915D01*
X301389Y408007D01*
X301439Y408100D01*
X301495Y408178D01*
X301499Y408182D01*
X301508Y408192D01*
X301522Y408210D01*
X301545Y408233D01*
X301578Y408261D01*
X301610Y408288D01*
X301651Y408321D01*
X301697Y408353D01*
X301748Y408385D01*
X301808Y408418D01*
X301868Y408445D01*
X301937Y408473D01*
X302011Y408496D01*
X302089Y408514D01*
X302172Y408524D01*
X302260Y408528D01*
X302292D01*
X302320Y408524D01*
D02*
G37*
G36*
X312808Y408524D02*
X312867Y408514D01*
X312937Y408501D01*
X313015Y408482D01*
X313093Y408455D01*
X313172Y408418D01*
X313176D01*
X313181Y408413D01*
X313209Y408399D01*
X313246Y408376D01*
X313292Y408344D01*
X313342Y408302D01*
X313398Y408252D01*
X313448Y408192D01*
X313494Y408127D01*
X313499Y408118D01*
X313513Y408095D01*
X313531Y408058D01*
X313550Y408012D01*
X313568Y407952D01*
X313587Y407887D01*
X313600Y407818D01*
X313605Y407740D01*
Y407731D01*
Y407708D01*
X313600Y407671D01*
X313591Y407625D01*
X313578Y407569D01*
X313559Y407509D01*
X313536Y407445D01*
X313499Y407385D01*
X313494Y407376D01*
X313481Y407357D01*
X313453Y407330D01*
X313421Y407293D01*
X313375Y407251D01*
X313324Y407210D01*
X313259Y407164D01*
X313186Y407127D01*
X313190D01*
X313199Y407122D01*
X313213D01*
X313232Y407113D01*
X313278Y407099D01*
X313338Y407071D01*
X313402Y407039D01*
X313471Y406993D01*
X313541Y406938D01*
X313600Y406869D01*
X313605Y406859D01*
X313624Y406832D01*
X313647Y406790D01*
X313679Y406735D01*
X313706Y406666D01*
X313730Y406583D01*
X313748Y406486D01*
X313753Y406380D01*
Y406375D01*
Y406361D01*
Y406343D01*
X313748Y406315D01*
X313743Y406279D01*
X313739Y406242D01*
X313730Y406196D01*
X313716Y406149D01*
X313684Y406043D01*
X313660Y405983D01*
X313628Y405928D01*
X313596Y405873D01*
X313559Y405818D01*
X313513Y405762D01*
X313462Y405707D01*
X313458Y405702D01*
X313448Y405693D01*
X313435Y405684D01*
X313411Y405665D01*
X313384Y405642D01*
X313347Y405619D01*
X313305Y405596D01*
X313264Y405573D01*
X313213Y405546D01*
X313158Y405522D01*
X313098Y405500D01*
X313034Y405476D01*
X312964Y405458D01*
X312891Y405449D01*
X312812Y405440D01*
X312734Y405435D01*
X312697D01*
X312669Y405440D01*
X312632Y405444D01*
X312596Y405449D01*
X312549Y405453D01*
X312503Y405463D01*
X312397Y405490D01*
X312287Y405536D01*
X312231Y405559D01*
X312181Y405592D01*
X312125Y405628D01*
X312075Y405670D01*
X312070Y405675D01*
X312065Y405679D01*
X312052Y405693D01*
X312033Y405712D01*
X312015Y405739D01*
X311992Y405767D01*
X311964Y405799D01*
X311941Y405836D01*
X311886Y405928D01*
X311840Y406034D01*
X311798Y406154D01*
X311784Y406219D01*
X311775Y406288D01*
X312148Y406339D01*
Y406334D01*
X312153Y406325D01*
Y406306D01*
X312162Y406288D01*
X312176Y406233D01*
X312199Y406163D01*
X312227Y406089D01*
X312264Y406011D01*
X312310Y405942D01*
X312360Y405882D01*
X312370Y405877D01*
X312388Y405859D01*
X312420Y405841D01*
X312466Y405813D01*
X312517Y405790D01*
X312582Y405767D01*
X312655Y405748D01*
X312734Y405744D01*
X312761D01*
X312780Y405748D01*
X312826Y405753D01*
X312886Y405767D01*
X312960Y405790D01*
X313034Y405818D01*
X313107Y405864D01*
X313176Y405924D01*
X313186Y405933D01*
X313204Y405956D01*
X313232Y405993D01*
X313269Y406048D01*
X313301Y406113D01*
X313329Y406191D01*
X313347Y406279D01*
X313356Y406375D01*
Y406380D01*
Y406385D01*
Y406398D01*
X313352Y406417D01*
X313347Y406463D01*
X313333Y406523D01*
X313315Y406587D01*
X313282Y406661D01*
X313241Y406730D01*
X313186Y406795D01*
X313176Y406804D01*
X313158Y406822D01*
X313121Y406846D01*
X313070Y406878D01*
X313010Y406910D01*
X312937Y406933D01*
X312858Y406952D01*
X312766Y406961D01*
X312725D01*
X312692Y406956D01*
X312655Y406952D01*
X312609Y406947D01*
X312559Y406938D01*
X312503Y406924D01*
X312545Y407251D01*
X312568D01*
X312586Y407247D01*
X312646D01*
X312688Y407251D01*
X312748Y407261D01*
X312812Y407274D01*
X312881Y407297D01*
X312955Y407325D01*
X313029Y407367D01*
X313038Y407371D01*
X313061Y407390D01*
X313089Y407422D01*
X313126Y407463D01*
X313163Y407514D01*
X313190Y407579D01*
X313213Y407657D01*
X313223Y407749D01*
Y407754D01*
Y407758D01*
Y407781D01*
X313213Y407818D01*
X313204Y407869D01*
X313190Y407920D01*
X313163Y407975D01*
X313130Y408035D01*
X313084Y408086D01*
X313080Y408090D01*
X313061Y408109D01*
X313029Y408132D01*
X312987Y408155D01*
X312937Y408182D01*
X312877Y408201D01*
X312808Y408219D01*
X312729Y408224D01*
X312692D01*
X312651Y408215D01*
X312605Y408206D01*
X312545Y408192D01*
X312485Y408164D01*
X312425Y408132D01*
X312365Y408086D01*
X312360Y408081D01*
X312342Y408063D01*
X312319Y408030D01*
X312291Y407984D01*
X312259Y407929D01*
X312231Y407860D01*
X312204Y407777D01*
X312185Y407680D01*
X311812Y407745D01*
Y407749D01*
X311816Y407763D01*
X311821Y407781D01*
X311826Y407804D01*
X311835Y407837D01*
X311844Y407874D01*
X311876Y407957D01*
X311913Y408049D01*
X311969Y408146D01*
X312033Y408238D01*
X312116Y408321D01*
X312121Y408325D01*
X312125Y408330D01*
X312139Y408339D01*
X312162Y408353D01*
X312185Y408367D01*
X312213Y408385D01*
X312282Y408427D01*
X312370Y408464D01*
X312476Y408496D01*
X312591Y408519D01*
X312655Y408528D01*
X312761D01*
X312808Y408524D01*
D02*
G37*
G36*
X297175Y408113D02*
X295967D01*
X295801Y407297D01*
X295806Y407302D01*
X295815Y407307D01*
X295829Y407316D01*
X295847Y407330D01*
X295875Y407343D01*
X295903Y407357D01*
X295976Y407394D01*
X296059Y407431D01*
X296156Y407459D01*
X296262Y407482D01*
X296373Y407491D01*
X296410D01*
X296438Y407486D01*
X296474Y407482D01*
X296511Y407477D01*
X296557Y407468D01*
X296603Y407459D01*
X296709Y407422D01*
X296765Y407403D01*
X296820Y407376D01*
X296880Y407343D01*
X296935Y407307D01*
X296991Y407265D01*
X297041Y407214D01*
X297046Y407210D01*
X297055Y407200D01*
X297069Y407187D01*
X297083Y407164D01*
X297106Y407136D01*
X297129Y407104D01*
X297152Y407067D01*
X297180Y407025D01*
X297207Y406975D01*
X297230Y406924D01*
X297253Y406864D01*
X297276Y406804D01*
X297290Y406735D01*
X297304Y406666D01*
X297313Y406587D01*
X297318Y406509D01*
Y406504D01*
Y406491D01*
Y406467D01*
X297313Y406440D01*
X297309Y406403D01*
X297304Y406361D01*
X297300Y406315D01*
X297290Y406265D01*
X297258Y406154D01*
X297217Y406039D01*
X297189Y405974D01*
X297157Y405914D01*
X297120Y405854D01*
X297078Y405799D01*
X297074Y405794D01*
X297064Y405785D01*
X297046Y405767D01*
X297023Y405744D01*
X296995Y405716D01*
X296958Y405684D01*
X296917Y405652D01*
X296866Y405619D01*
X296815Y405582D01*
X296756Y405550D01*
X296686Y405518D01*
X296617Y405490D01*
X296539Y405467D01*
X296461Y405449D01*
X296373Y405440D01*
X296281Y405435D01*
X296239D01*
X296212Y405440D01*
X296179Y405444D01*
X296138Y405449D01*
X296092Y405453D01*
X296041Y405463D01*
X295935Y405490D01*
X295824Y405532D01*
X295769Y405559D01*
X295714Y405592D01*
X295658Y405624D01*
X295608Y405665D01*
X295603Y405670D01*
X295599Y405675D01*
X295585Y405688D01*
X295566Y405707D01*
X295548Y405730D01*
X295525Y405758D01*
X295502Y405790D01*
X295474Y405827D01*
X295423Y405914D01*
X295373Y406020D01*
X295336Y406140D01*
X295322Y406209D01*
X295313Y406279D01*
X295705Y406306D01*
Y406302D01*
Y406292D01*
X295709Y406279D01*
X295714Y406260D01*
X295727Y406209D01*
X295746Y406145D01*
X295769Y406076D01*
X295806Y406007D01*
X295847Y405937D01*
X295903Y405877D01*
X295912Y405873D01*
X295930Y405854D01*
X295963Y405836D01*
X296009Y405808D01*
X296064Y405785D01*
X296129Y405762D01*
X296202Y405744D01*
X296281Y405739D01*
X296308D01*
X296327Y405744D01*
X296378Y405748D01*
X296442Y405762D01*
X296511Y405790D01*
X296590Y405822D01*
X296663Y405873D01*
X296700Y405900D01*
X296737Y405937D01*
Y405942D01*
X296746Y405947D01*
X296765Y405974D01*
X296797Y406020D01*
X296829Y406080D01*
X296862Y406159D01*
X296894Y406251D01*
X296912Y406357D01*
X296921Y406477D01*
Y406481D01*
Y406491D01*
Y406509D01*
X296917Y406528D01*
Y406555D01*
X296912Y406587D01*
X296899Y406661D01*
X296880Y406740D01*
X296848Y406822D01*
X296802Y406906D01*
X296742Y406979D01*
X296732Y406988D01*
X296709Y407007D01*
X296673Y407039D01*
X296617Y407071D01*
X296553Y407104D01*
X296470Y407136D01*
X296378Y407154D01*
X296276Y407164D01*
X296244D01*
X296212Y407159D01*
X296165Y407154D01*
X296115Y407141D01*
X296059Y407127D01*
X296004Y407104D01*
X295949Y407076D01*
X295944Y407071D01*
X295926Y407062D01*
X295898Y407044D01*
X295866Y407021D01*
X295834Y406988D01*
X295797Y406952D01*
X295760Y406910D01*
X295727Y406864D01*
X295377Y406915D01*
X295672Y408468D01*
X297175D01*
Y408113D01*
D02*
G37*
G36*
X310493Y408524D02*
X310530Y408519D01*
X310572Y408514D01*
X310618Y408510D01*
X310669Y408496D01*
X310779Y408468D01*
X310894Y408427D01*
X310954Y408399D01*
X311010Y408367D01*
X311060Y408325D01*
X311111Y408284D01*
X311116Y408279D01*
X311120Y408275D01*
X311134Y408261D01*
X311153Y408242D01*
X311171Y408215D01*
X311194Y408187D01*
X311240Y408118D01*
X311286Y408030D01*
X311328Y407929D01*
X311360Y407814D01*
X311365Y407749D01*
X311369Y407685D01*
Y407675D01*
Y407652D01*
X311365Y407616D01*
X311360Y407569D01*
X311351Y407514D01*
X311337Y407454D01*
X311319Y407390D01*
X311291Y407325D01*
X311286Y407316D01*
X311277Y407293D01*
X311259Y407261D01*
X311231Y407214D01*
X311199Y407159D01*
X311157Y407094D01*
X311102Y407030D01*
X311042Y406956D01*
X311033Y406947D01*
X311010Y406919D01*
X310968Y406878D01*
X310941Y406850D01*
X310908Y406818D01*
X310871Y406781D01*
X310825Y406740D01*
X310779Y406698D01*
X310729Y406647D01*
X310673Y406597D01*
X310609Y406541D01*
X310544Y406486D01*
X310470Y406422D01*
X310466Y406417D01*
X310456Y406408D01*
X310438Y406394D01*
X310415Y406375D01*
X310360Y406329D01*
X310291Y406269D01*
X310221Y406205D01*
X310148Y406140D01*
X310088Y406085D01*
X310065Y406062D01*
X310042Y406039D01*
X310037Y406034D01*
X310028Y406020D01*
X310009Y406002D01*
X309986Y405974D01*
X309936Y405914D01*
X309885Y405841D01*
X311374D01*
Y405486D01*
X309368D01*
Y405490D01*
Y405509D01*
Y405536D01*
X309373Y405569D01*
X309378Y405606D01*
X309382Y405647D01*
X309396Y405693D01*
X309410Y405739D01*
Y405744D01*
X309415Y405748D01*
X309424Y405776D01*
X309442Y405813D01*
X309470Y405868D01*
X309502Y405928D01*
X309548Y405997D01*
X309594Y406067D01*
X309654Y406140D01*
Y406145D01*
X309664Y406149D01*
X309687Y406177D01*
X309723Y406219D01*
X309779Y406274D01*
X309848Y406339D01*
X309931Y406417D01*
X310032Y406504D01*
X310143Y406601D01*
X310148Y406606D01*
X310166Y406620D01*
X310189Y406638D01*
X310221Y406670D01*
X310263Y406703D01*
X310309Y406744D01*
X310410Y406832D01*
X310521Y406938D01*
X310632Y407044D01*
X310687Y407094D01*
X310733Y407145D01*
X310775Y407196D01*
X310811Y407242D01*
Y407247D01*
X310821Y407251D01*
X310830Y407265D01*
X310839Y407283D01*
X310867Y407330D01*
X310899Y407390D01*
X310931Y407459D01*
X310959Y407533D01*
X310977Y407616D01*
X310987Y407694D01*
Y407698D01*
Y407703D01*
X310982Y407731D01*
X310977Y407772D01*
X310968Y407823D01*
X310945Y407883D01*
X310917Y407943D01*
X310881Y408007D01*
X310825Y408067D01*
X310816Y408072D01*
X310798Y408090D01*
X310761Y408113D01*
X310715Y408146D01*
X310655Y408173D01*
X310586Y408196D01*
X310503Y408215D01*
X310410Y408219D01*
X310383D01*
X310364Y408215D01*
X310318Y408210D01*
X310258Y408201D01*
X310189Y408178D01*
X310115Y408150D01*
X310046Y408109D01*
X309982Y408053D01*
X309977Y408044D01*
X309959Y408026D01*
X309931Y407989D01*
X309903Y407938D01*
X309871Y407874D01*
X309848Y407800D01*
X309829Y407712D01*
X309820Y407611D01*
X309438Y407652D01*
Y407657D01*
Y407671D01*
X309442Y407694D01*
X309447Y407722D01*
X309456Y407758D01*
X309461Y407800D01*
X309488Y407892D01*
X309525Y407998D01*
X309576Y408104D01*
X309645Y408210D01*
X309682Y408256D01*
X309728Y408302D01*
X309733Y408307D01*
X309742Y408312D01*
X309756Y408325D01*
X309774Y408339D01*
X309802Y408353D01*
X309834Y408376D01*
X309871Y408394D01*
X309912Y408418D01*
X309959Y408436D01*
X310009Y408459D01*
X310069Y408477D01*
X310129Y408491D01*
X310267Y408519D01*
X310341Y408524D01*
X310420Y408528D01*
X310461D01*
X310493Y408524D01*
D02*
G37*
G36*
X305791Y408524D02*
X305828Y408519D01*
X305870Y408514D01*
X305916Y408510D01*
X305966Y408496D01*
X306077Y408468D01*
X306192Y408427D01*
X306252Y408399D01*
X306308Y408367D01*
X306358Y408325D01*
X306409Y408284D01*
X306414Y408279D01*
X306418Y408275D01*
X306432Y408261D01*
X306450Y408242D01*
X306469Y408215D01*
X306492Y408187D01*
X306538Y408118D01*
X306584Y408030D01*
X306626Y407929D01*
X306658Y407814D01*
X306663Y407749D01*
X306667Y407685D01*
Y407675D01*
Y407652D01*
X306663Y407615D01*
X306658Y407569D01*
X306649Y407514D01*
X306635Y407454D01*
X306616Y407390D01*
X306589Y407325D01*
X306584Y407316D01*
X306575Y407293D01*
X306556Y407261D01*
X306529Y407214D01*
X306497Y407159D01*
X306455Y407094D01*
X306400Y407030D01*
X306340Y406956D01*
X306330Y406947D01*
X306308Y406919D01*
X306266Y406878D01*
X306238Y406850D01*
X306206Y406818D01*
X306169Y406781D01*
X306123Y406740D01*
X306077Y406698D01*
X306026Y406647D01*
X305971Y406597D01*
X305906Y406541D01*
X305842Y406486D01*
X305768Y406422D01*
X305764Y406417D01*
X305754Y406408D01*
X305736Y406394D01*
X305713Y406375D01*
X305658Y406329D01*
X305588Y406269D01*
X305519Y406205D01*
X305445Y406140D01*
X305385Y406085D01*
X305362Y406062D01*
X305339Y406039D01*
X305335Y406034D01*
X305326Y406020D01*
X305307Y406002D01*
X305284Y405974D01*
X305233Y405914D01*
X305183Y405841D01*
X306672D01*
Y405486D01*
X304666D01*
Y405490D01*
Y405509D01*
Y405536D01*
X304671Y405569D01*
X304676Y405606D01*
X304680Y405647D01*
X304694Y405693D01*
X304708Y405739D01*
Y405744D01*
X304712Y405748D01*
X304722Y405776D01*
X304740Y405813D01*
X304768Y405868D01*
X304800Y405928D01*
X304846Y405997D01*
X304892Y406067D01*
X304952Y406140D01*
Y406145D01*
X304961Y406149D01*
X304984Y406177D01*
X305021Y406219D01*
X305077Y406274D01*
X305146Y406339D01*
X305229Y406417D01*
X305330Y406504D01*
X305441Y406601D01*
X305445Y406606D01*
X305464Y406620D01*
X305487Y406638D01*
X305519Y406670D01*
X305561Y406703D01*
X305607Y406744D01*
X305708Y406832D01*
X305819Y406938D01*
X305929Y407044D01*
X305985Y407094D01*
X306031Y407145D01*
X306072Y407196D01*
X306109Y407242D01*
Y407247D01*
X306118Y407251D01*
X306128Y407265D01*
X306137Y407283D01*
X306165Y407330D01*
X306197Y407390D01*
X306229Y407459D01*
X306257Y407533D01*
X306275Y407615D01*
X306284Y407694D01*
Y407698D01*
Y407703D01*
X306280Y407731D01*
X306275Y407772D01*
X306266Y407823D01*
X306243Y407883D01*
X306215Y407943D01*
X306178Y408007D01*
X306123Y408067D01*
X306114Y408072D01*
X306095Y408090D01*
X306059Y408113D01*
X306012Y408146D01*
X305953Y408173D01*
X305883Y408196D01*
X305800Y408215D01*
X305708Y408219D01*
X305680D01*
X305662Y408215D01*
X305616Y408210D01*
X305556Y408201D01*
X305487Y408178D01*
X305413Y408150D01*
X305344Y408109D01*
X305279Y408053D01*
X305275Y408044D01*
X305256Y408026D01*
X305229Y407989D01*
X305201Y407938D01*
X305169Y407874D01*
X305146Y407800D01*
X305127Y407712D01*
X305118Y407611D01*
X304735Y407652D01*
Y407657D01*
Y407671D01*
X304740Y407694D01*
X304745Y407722D01*
X304754Y407758D01*
X304759Y407800D01*
X304786Y407892D01*
X304823Y407998D01*
X304874Y408104D01*
X304943Y408210D01*
X304980Y408256D01*
X305026Y408302D01*
X305030Y408307D01*
X305040Y408312D01*
X305054Y408325D01*
X305072Y408339D01*
X305100Y408353D01*
X305132Y408376D01*
X305169Y408394D01*
X305210Y408418D01*
X305256Y408436D01*
X305307Y408459D01*
X305367Y408477D01*
X305427Y408491D01*
X305565Y408519D01*
X305639Y408524D01*
X305717Y408528D01*
X305759D01*
X305791Y408524D01*
D02*
G37*
G36*
X294363Y405486D02*
X293990D01*
Y407855D01*
X293985Y407851D01*
X293967Y407832D01*
X293934Y407809D01*
X293893Y407777D01*
X293842Y407735D01*
X293782Y407694D01*
X293713Y407643D01*
X293635Y407597D01*
X293630D01*
X293625Y407592D01*
X293598Y407574D01*
X293556Y407551D01*
X293506Y407523D01*
X293446Y407491D01*
X293381Y407463D01*
X293312Y407431D01*
X293247Y407403D01*
Y407768D01*
X293252D01*
X293261Y407772D01*
X293280Y407781D01*
X293298Y407795D01*
X293326Y407809D01*
X293358Y407823D01*
X293432Y407864D01*
X293515Y407915D01*
X293607Y407975D01*
X293699Y408044D01*
X293787Y408118D01*
X293791Y408122D01*
X293796Y408127D01*
X293824Y408155D01*
X293865Y408196D01*
X293916Y408247D01*
X293971Y408312D01*
X294026Y408381D01*
X294077Y408455D01*
X294119Y408528D01*
X294363D01*
Y405486D01*
D02*
G37*
G36*
X308142Y408524D02*
X308198Y408514D01*
X308262Y408505D01*
X308336Y408487D01*
X308410Y408459D01*
X308479Y408427D01*
X308488Y408422D01*
X308511Y408408D01*
X308543Y408385D01*
X308589Y408358D01*
X308635Y408316D01*
X308686Y408265D01*
X308737Y408210D01*
X308783Y408146D01*
X308788Y408136D01*
X308802Y408113D01*
X308824Y408072D01*
X308852Y408021D01*
X308880Y407957D01*
X308912Y407878D01*
X308944Y407791D01*
X308972Y407694D01*
Y407689D01*
X308977Y407680D01*
Y407666D01*
X308981Y407643D01*
X308991Y407620D01*
X308995Y407588D01*
X309000Y407546D01*
X309009Y407505D01*
X309014Y407454D01*
X309018Y407403D01*
X309027Y407343D01*
X309032Y407279D01*
X309037Y407210D01*
Y407141D01*
X309041Y406979D01*
Y406975D01*
Y406956D01*
Y406929D01*
Y406892D01*
X309037Y406846D01*
Y406795D01*
X309032Y406735D01*
X309027Y406670D01*
X309014Y406532D01*
X308995Y406389D01*
X308967Y406246D01*
X308949Y406182D01*
X308931Y406117D01*
Y406113D01*
X308926Y406103D01*
X308921Y406085D01*
X308912Y406062D01*
X308898Y406034D01*
X308885Y406007D01*
X308848Y405933D01*
X308802Y405850D01*
X308746Y405767D01*
X308682Y405684D01*
X308603Y405610D01*
X308599D01*
X308594Y405601D01*
X308580Y405596D01*
X308566Y405582D01*
X308516Y405555D01*
X308456Y405522D01*
X308373Y405490D01*
X308281Y405463D01*
X308174Y405444D01*
X308055Y405435D01*
X308013D01*
X307981Y405440D01*
X307944Y405444D01*
X307903Y405453D01*
X307856Y405463D01*
X307806Y405472D01*
X307695Y405509D01*
X307635Y405536D01*
X307580Y405564D01*
X307520Y405601D01*
X307465Y405642D01*
X307414Y405688D01*
X307363Y405744D01*
X307359Y405748D01*
X307349Y405762D01*
X307335Y405785D01*
X307317Y405818D01*
X307294Y405859D01*
X307271Y405910D01*
X307243Y405970D01*
X307216Y406043D01*
X307188Y406122D01*
X307160Y406214D01*
X307137Y406315D01*
X307114Y406426D01*
X307096Y406551D01*
X307082Y406680D01*
X307073Y406827D01*
X307068Y406979D01*
Y406984D01*
Y407002D01*
Y407030D01*
Y407067D01*
X307073Y407113D01*
Y407164D01*
X307077Y407224D01*
X307082Y407288D01*
X307096Y407426D01*
X307114Y407569D01*
X307137Y407712D01*
X307156Y407777D01*
X307174Y407841D01*
Y407846D01*
X307179Y407855D01*
X307188Y407874D01*
X307197Y407897D01*
X307206Y407924D01*
X307220Y407957D01*
X307257Y408030D01*
X307303Y408113D01*
X307359Y408196D01*
X307423Y408275D01*
X307502Y408348D01*
X307506D01*
X307511Y408358D01*
X307524Y408367D01*
X307543Y408376D01*
X307589Y408404D01*
X307654Y408441D01*
X307732Y408473D01*
X307829Y408501D01*
X307935Y408519D01*
X308055Y408528D01*
X308096D01*
X308142Y408524D01*
D02*
G37*
G36*
X303661Y405435D02*
X303366D01*
X304242Y408565D01*
X304537D01*
X303661Y405435D01*
D02*
G37*
G36*
X299913Y408524D02*
X299969Y408514D01*
X300033Y408505D01*
X300107Y408487D01*
X300181Y408459D01*
X300250Y408427D01*
X300259Y408422D01*
X300282Y408408D01*
X300314Y408385D01*
X300361Y408358D01*
X300407Y408316D01*
X300457Y408265D01*
X300508Y408210D01*
X300554Y408146D01*
X300559Y408136D01*
X300573Y408113D01*
X300596Y408072D01*
X300623Y408021D01*
X300651Y407957D01*
X300683Y407878D01*
X300716Y407791D01*
X300743Y407694D01*
Y407689D01*
X300748Y407680D01*
Y407666D01*
X300752Y407643D01*
X300762Y407620D01*
X300766Y407588D01*
X300771Y407546D01*
X300780Y407505D01*
X300785Y407454D01*
X300789Y407403D01*
X300799Y407343D01*
X300803Y407279D01*
X300808Y407210D01*
Y407141D01*
X300812Y406979D01*
Y406975D01*
Y406956D01*
Y406928D01*
Y406892D01*
X300808Y406846D01*
Y406795D01*
X300803Y406735D01*
X300799Y406670D01*
X300785Y406532D01*
X300766Y406389D01*
X300739Y406246D01*
X300720Y406182D01*
X300702Y406117D01*
Y406113D01*
X300697Y406103D01*
X300693Y406085D01*
X300683Y406062D01*
X300670Y406034D01*
X300656Y406007D01*
X300619Y405933D01*
X300573Y405850D01*
X300517Y405767D01*
X300453Y405684D01*
X300374Y405610D01*
X300370D01*
X300365Y405601D01*
X300351Y405596D01*
X300338Y405582D01*
X300287Y405555D01*
X300227Y405522D01*
X300144Y405490D01*
X300052Y405463D01*
X299946Y405444D01*
X299826Y405435D01*
X299784D01*
X299752Y405440D01*
X299715Y405444D01*
X299674Y405453D01*
X299628Y405463D01*
X299577Y405472D01*
X299466Y405509D01*
X299406Y405536D01*
X299351Y405564D01*
X299291Y405601D01*
X299236Y405642D01*
X299185Y405688D01*
X299134Y405744D01*
X299130Y405748D01*
X299120Y405762D01*
X299107Y405785D01*
X299088Y405818D01*
X299065Y405859D01*
X299042Y405910D01*
X299014Y405970D01*
X298987Y406043D01*
X298959Y406122D01*
X298932Y406214D01*
X298908Y406315D01*
X298885Y406426D01*
X298867Y406551D01*
X298853Y406680D01*
X298844Y406827D01*
X298839Y406979D01*
Y406984D01*
Y407002D01*
Y407030D01*
Y407067D01*
X298844Y407113D01*
Y407164D01*
X298849Y407224D01*
X298853Y407288D01*
X298867Y407426D01*
X298885Y407569D01*
X298908Y407712D01*
X298927Y407777D01*
X298945Y407841D01*
Y407846D01*
X298950Y407855D01*
X298959Y407874D01*
X298968Y407897D01*
X298978Y407924D01*
X298991Y407957D01*
X299028Y408030D01*
X299074Y408113D01*
X299130Y408196D01*
X299194Y408275D01*
X299273Y408348D01*
X299277D01*
X299282Y408358D01*
X299296Y408367D01*
X299314Y408376D01*
X299360Y408404D01*
X299425Y408441D01*
X299503Y408473D01*
X299600Y408501D01*
X299706Y408519D01*
X299826Y408528D01*
X299867D01*
X299913Y408524D01*
D02*
G37*
G36*
X297784Y405435D02*
X297489D01*
X298364Y408565D01*
X298659D01*
X297784Y405435D01*
D02*
G37*
%LPC*%
G36*
X439844Y408932D02*
X439539D01*
X439487Y408840D01*
X439424Y408748D01*
X439354Y408662D01*
X439285Y408581D01*
X439222Y408518D01*
X439170Y408466D01*
X439136Y408431D01*
X439130Y408426D01*
X439124Y408420D01*
X439015Y408328D01*
X438899Y408241D01*
X438784Y408166D01*
X438681Y408103D01*
X438588Y408051D01*
X438548Y408034D01*
X438513Y408017D01*
X438490Y407999D01*
X438467Y407988D01*
X438456Y407982D01*
X438450D01*
Y408932D01*
D01*
Y405131D01*
X439844D01*
Y408932D01*
D02*
G37*
G36*
X422218Y408932D02*
X421913D01*
X421861Y408840D01*
X421798Y408748D01*
X421729Y408662D01*
X421660Y408581D01*
X421596Y408518D01*
X421545Y408466D01*
X421510Y408431D01*
X421504Y408426D01*
X421498Y408420D01*
X421389Y408328D01*
X421274Y408241D01*
X421159Y408166D01*
X421055Y408103D01*
X420963Y408051D01*
X420922Y408034D01*
X420888Y408017D01*
X420865Y407999D01*
X420842Y407988D01*
X420830Y407982D01*
X420824D01*
Y408932D01*
D01*
Y405131D01*
X422218D01*
Y408932D01*
D02*
G37*
G36*
X417173Y408915D02*
X416625D01*
X415865Y407901D01*
X415802Y407821D01*
X415744Y407746D01*
X415692Y407671D01*
X415652Y407608D01*
X415617Y407556D01*
X415589Y407515D01*
X415571Y407492D01*
X415566Y407481D01*
X415525Y407550D01*
X415485Y407619D01*
X415433Y407700D01*
X415381Y407775D01*
X415341Y407838D01*
X415301Y407890D01*
X415278Y407930D01*
X415266Y407936D01*
Y407942D01*
X414575Y408915D01*
X415783D01*
X413809D01*
X413982D01*
X415272Y407089D01*
X413809Y405131D01*
X414408D01*
X415364Y406438D01*
X415387Y406473D01*
X415416Y406513D01*
X415479Y406600D01*
X415508Y406646D01*
X415525Y406680D01*
X415543Y406703D01*
X415548Y406709D01*
X415606Y406623D01*
X415652Y406554D01*
X415675Y406519D01*
X415692Y406496D01*
X415698Y406485D01*
X415704Y406479D01*
X416660Y405131D01*
X417276D01*
X415854Y407112D01*
X417173Y408915D01*
D02*
G37*
G36*
X433594Y408932D02*
X433554D01*
X433445Y408927D01*
X433341Y408915D01*
X433243Y408892D01*
X433151Y408863D01*
X433065Y408829D01*
X432990Y408794D01*
X432915Y408754D01*
X432851Y408714D01*
X432794Y408673D01*
X432742Y408633D01*
X432702Y408598D01*
X432661Y408564D01*
X432632Y408535D01*
X432615Y408512D01*
X432604Y408500D01*
X432598Y408495D01*
X432529Y408397D01*
X432465Y408282D01*
X432414Y408166D01*
X432368Y408034D01*
X432327Y407907D01*
X432293Y407775D01*
X432264Y407642D01*
X432247Y407510D01*
X432229Y407389D01*
X432218Y407274D01*
X432206Y407170D01*
X432200Y407078D01*
X432195Y407003D01*
Y408932D01*
D01*
D01*
Y405067D01*
Y406899D01*
X432200Y406721D01*
X432212Y406559D01*
X432229Y406404D01*
X432252Y406266D01*
X432281Y406139D01*
X432310Y406024D01*
X432344Y405920D01*
X432379Y405828D01*
X432408Y405747D01*
X432442Y405678D01*
X432471Y405620D01*
X432500Y405574D01*
X432523Y405540D01*
X432540Y405517D01*
X432552Y405500D01*
X432558Y405494D01*
X432627Y405419D01*
X432702Y405356D01*
X432782Y405298D01*
X432863Y405246D01*
X432943Y405206D01*
X433018Y405171D01*
X433099Y405142D01*
X433174Y405119D01*
X433243Y405102D01*
X433306Y405091D01*
X433364Y405079D01*
X433410Y405073D01*
X433450D01*
X433485Y405067D01*
X432195D01*
X434695D01*
D01*
X433508D01*
X433629Y405073D01*
X433744Y405091D01*
X433848Y405119D01*
X433940Y405148D01*
X434009Y405177D01*
X434067Y405206D01*
X434101Y405223D01*
X434113Y405229D01*
X434211Y405298D01*
X434291Y405373D01*
X434366Y405448D01*
X434430Y405523D01*
X434476Y405592D01*
X434510Y405644D01*
X434522Y405667D01*
X434533Y405684D01*
X434539Y405690D01*
Y405695D01*
X434591Y405811D01*
X434631Y405926D01*
X434654Y406041D01*
X434677Y406139D01*
X434689Y406231D01*
Y406266D01*
X434695Y406300D01*
Y406358D01*
X434689Y406456D01*
X434683Y406554D01*
X434666Y406640D01*
X434643Y406726D01*
X434620Y406801D01*
X434591Y406876D01*
X434562Y406940D01*
X434533Y407003D01*
X434499Y407055D01*
X434470Y407101D01*
X434441Y407141D01*
X434418Y407176D01*
X434395Y407204D01*
X434378Y407222D01*
X434372Y407233D01*
X434366Y407239D01*
X434303Y407302D01*
X434239Y407354D01*
X434170Y407400D01*
X434101Y407441D01*
X434038Y407475D01*
X433969Y407498D01*
X433848Y407544D01*
X433738Y407567D01*
X433692Y407573D01*
X433652Y407579D01*
X433617Y407585D01*
X433571D01*
X433473Y407579D01*
X433381Y407567D01*
X433295Y407544D01*
X433220Y407521D01*
X433157Y407498D01*
X433105Y407475D01*
X433076Y407464D01*
X433065Y407458D01*
X432978Y407406D01*
X432897Y407348D01*
X432828Y407285D01*
X432771Y407222D01*
X432719Y407164D01*
X432684Y407118D01*
X432661Y407089D01*
X432655Y407084D01*
Y407181D01*
X432661Y407279D01*
X432667Y407372D01*
X432673Y407458D01*
X432684Y407533D01*
X432696Y407608D01*
X432707Y407671D01*
X432719Y407729D01*
X432730Y407781D01*
X432742Y407827D01*
X432753Y407867D01*
X432765Y407896D01*
X432771Y407919D01*
X432776Y407942D01*
X432782Y407947D01*
Y407953D01*
X432834Y408063D01*
X432892Y408161D01*
X432949Y408241D01*
X433007Y408305D01*
X433053Y408357D01*
X433093Y408397D01*
X433116Y408420D01*
X433128Y408426D01*
X433197Y408466D01*
X433260Y408500D01*
X433329Y408524D01*
X433393Y408535D01*
X433445Y408547D01*
X433485Y408552D01*
X433525D01*
X433623Y408547D01*
X433715Y408524D01*
X433796Y408489D01*
X433865Y408454D01*
X433917Y408414D01*
X433957Y408385D01*
X433986Y408362D01*
X433992Y408351D01*
X434032Y408299D01*
X434067Y408241D01*
X434124Y408109D01*
X434142Y408051D01*
X434159Y408005D01*
X434170Y407971D01*
Y407965D01*
Y407959D01*
X434631Y407994D01*
X434602Y408149D01*
X434551Y408287D01*
X434499Y408403D01*
X434435Y408500D01*
X434378Y408575D01*
X434332Y408633D01*
X434297Y408668D01*
X434291Y408679D01*
X434286D01*
X434228Y408725D01*
X434170Y408766D01*
X434049Y408823D01*
X433928Y408869D01*
X433813Y408904D01*
X433710Y408921D01*
X433664Y408927D01*
X433629D01*
X433594Y408932D01*
D02*
G37*
G36*
X420007Y408932D02*
X418866D01*
X418757Y408927D01*
X418653Y408915D01*
X418555Y408892D01*
X418463Y408863D01*
X418376Y408829D01*
X418302Y408794D01*
X418227Y408754D01*
X418163Y408714D01*
X418106Y408673D01*
X418054Y408633D01*
X418014Y408598D01*
X417973Y408564D01*
X417944Y408535D01*
X417927Y408512D01*
X417916Y408500D01*
X417910Y408495D01*
X417841Y408397D01*
X417777Y408282D01*
X417726Y408166D01*
X417680Y408034D01*
X417639Y407907D01*
X417605Y407775D01*
X417576Y407642D01*
X417559Y407510D01*
X417541Y407389D01*
X417530Y407274D01*
X417518Y407170D01*
X417513Y407078D01*
X417507Y407003D01*
Y408932D01*
D01*
D01*
Y405067D01*
Y406899D01*
X417513Y406721D01*
X417524Y406559D01*
X417541Y406404D01*
X417564Y406266D01*
X417593Y406139D01*
X417622Y406024D01*
X417657Y405920D01*
X417691Y405828D01*
X417720Y405747D01*
X417754Y405678D01*
X417783Y405620D01*
X417812Y405574D01*
X417835Y405540D01*
X417852Y405517D01*
X417864Y405500D01*
X417870Y405494D01*
X417939Y405419D01*
X418014Y405356D01*
X418094Y405298D01*
X418175Y405246D01*
X418256Y405206D01*
X418330Y405171D01*
X418411Y405142D01*
X418486Y405119D01*
X418555Y405102D01*
X418618Y405091D01*
X418676Y405079D01*
X418722Y405073D01*
X418762D01*
X418797Y405067D01*
X418820D01*
X418941Y405073D01*
X419056Y405091D01*
X419160Y405119D01*
X419252Y405148D01*
X419321Y405177D01*
X419379Y405206D01*
X419413Y405223D01*
X419425Y405229D01*
X419523Y405298D01*
X419603Y405373D01*
X419678Y405448D01*
X419742Y405523D01*
X419788Y405592D01*
X419822Y405644D01*
X419834Y405667D01*
X419845Y405684D01*
X419851Y405690D01*
Y405695D01*
X419903Y405811D01*
X419943Y405926D01*
X419966Y406041D01*
X419989Y406139D01*
X420001Y406231D01*
Y406266D01*
X420007Y406300D01*
Y406358D01*
X420001Y406456D01*
X419995Y406554D01*
X419978Y406640D01*
X419955Y406726D01*
X419932Y406801D01*
X419903Y406876D01*
X419874Y406940D01*
X419845Y407003D01*
X419811Y407055D01*
X419782Y407101D01*
X419753Y407141D01*
X419730Y407176D01*
X419707Y407204D01*
X419690Y407222D01*
X419684Y407233D01*
X419678Y407239D01*
X419615Y407302D01*
X419552Y407354D01*
X419482Y407400D01*
X419413Y407441D01*
X419350Y407475D01*
X419281Y407498D01*
X419160Y407544D01*
X419050Y407567D01*
X419004Y407573D01*
X418964Y407579D01*
X418929Y407585D01*
X418883D01*
X418785Y407579D01*
X418693Y407567D01*
X418607Y407544D01*
X418532Y407521D01*
X418469Y407498D01*
X418417Y407475D01*
X418388Y407464D01*
X418376Y407458D01*
X418290Y407406D01*
X418209Y407348D01*
X418140Y407285D01*
X418083Y407222D01*
X418031Y407164D01*
X417996Y407118D01*
X417973Y407089D01*
X417968Y407084D01*
Y407181D01*
X417973Y407279D01*
X417979Y407372D01*
X417985Y407458D01*
X417996Y407533D01*
X418008Y407608D01*
X418019Y407671D01*
X418031Y407729D01*
X418042Y407781D01*
X418054Y407827D01*
X418065Y407867D01*
X418077Y407896D01*
X418083Y407919D01*
X418088Y407942D01*
X418094Y407947D01*
Y407953D01*
X418146Y408063D01*
X418204Y408161D01*
X418261Y408241D01*
X418319Y408305D01*
X418365Y408357D01*
X418405Y408397D01*
X418428Y408420D01*
X418440Y408426D01*
X418509Y408466D01*
X418572Y408500D01*
X418641Y408524D01*
X418705Y408535D01*
X418757Y408547D01*
X418797Y408552D01*
X418837D01*
X418935Y408547D01*
X419027Y408524D01*
X419108Y408489D01*
X419177Y408454D01*
X419229Y408414D01*
X419269Y408385D01*
X419298Y408362D01*
X419304Y408351D01*
X419344Y408299D01*
X419379Y408241D01*
X419436Y408109D01*
X419454Y408051D01*
X419471Y408005D01*
X419482Y407971D01*
Y407965D01*
Y407959D01*
X419943Y407994D01*
X419914Y408149D01*
X419863Y408287D01*
X419811Y408403D01*
X419747Y408500D01*
X419690Y408575D01*
X419644Y408633D01*
X419609Y408668D01*
X419603Y408679D01*
X419598D01*
X419540Y408725D01*
X419482Y408765D01*
X419361Y408823D01*
X419241Y408869D01*
X419125Y408904D01*
X419022Y408921D01*
X418975Y408927D01*
X418941D01*
X418906Y408932D01*
X420007D01*
D02*
G37*
G36*
X428295Y408909D02*
X427915D01*
X426187Y406461D01*
D01*
Y405131D01*
Y406035D01*
X427829D01*
Y405131D01*
X426187D01*
X428808Y405131D01*
X428295Y405131D01*
Y406035D01*
X428808Y406035D01*
Y406461D01*
D01*
X428295Y406461D01*
Y408909D01*
D02*
G37*
G36*
X409978Y408915D02*
Y405574D01*
X407657D01*
Y406865D01*
X409748D01*
Y407308D01*
X407657D01*
Y408472D01*
X409892D01*
Y408915D01*
X407156D01*
Y405131D01*
X409978D01*
Y408915D01*
D02*
G37*
G36*
X430501Y408932D02*
X429280D01*
Y405067D01*
Y407654D01*
X429286Y407550D01*
X429292Y407452D01*
X429309Y407366D01*
X429332Y407279D01*
X429355Y407199D01*
X429384Y407124D01*
X429413Y407055D01*
X429441Y406997D01*
X429470Y406940D01*
X429499Y406893D01*
X429528Y406853D01*
X429551Y406819D01*
X429574Y406790D01*
X429591Y406773D01*
X429597Y406761D01*
X429603Y406755D01*
X429666Y406698D01*
X429729Y406646D01*
X429799Y406600D01*
X429862Y406559D01*
X429931Y406525D01*
X429994Y406496D01*
X430121Y406456D01*
X430231Y406433D01*
X430277Y406427D01*
X430317Y406421D01*
X430351Y406415D01*
X430398D01*
X430501Y406421D01*
X430599Y406438D01*
X430686Y406456D01*
X430760Y406485D01*
X430824Y406507D01*
X430876Y406525D01*
X430904Y406542D01*
X430916Y406548D01*
X431002Y406605D01*
X431077Y406663D01*
X431146Y406726D01*
X431198Y406784D01*
X431244Y406830D01*
X431273Y406876D01*
X431296Y406899D01*
X431302Y406911D01*
Y406870D01*
Y406842D01*
Y406824D01*
Y406819D01*
Y406709D01*
X431290Y406605D01*
X431279Y406513D01*
X431267Y406427D01*
X431256Y406352D01*
X431244Y406294D01*
X431239Y406277D01*
Y406260D01*
X431233Y406254D01*
Y406248D01*
X431204Y406150D01*
X431175Y406064D01*
X431146Y405989D01*
X431123Y405926D01*
X431095Y405874D01*
X431077Y405834D01*
X431066Y405811D01*
X431060Y405805D01*
X431020Y405747D01*
X430974Y405695D01*
X430933Y405649D01*
X430887Y405615D01*
X430853Y405586D01*
X430824Y405563D01*
X430801Y405551D01*
X430795Y405546D01*
X430732Y405511D01*
X430668Y405488D01*
X430605Y405471D01*
X430547Y405459D01*
X430496Y405453D01*
X430455Y405448D01*
X430421D01*
X430329Y405453D01*
X430248Y405471D01*
X430179Y405494D01*
X430121Y405517D01*
X430069Y405540D01*
X430035Y405563D01*
X430012Y405580D01*
X430006Y405586D01*
X429948Y405644D01*
X429902Y405718D01*
X429868Y405793D01*
X429839Y405868D01*
X429816Y405932D01*
X429804Y405989D01*
X429799Y406012D01*
X429793Y406029D01*
Y406035D01*
Y406041D01*
X429349Y406006D01*
X429378Y405845D01*
X429424Y405707D01*
X429476Y405586D01*
X429534Y405488D01*
X429591Y405413D01*
X429637Y405356D01*
X429672Y405321D01*
X429678Y405315D01*
X429683Y405309D01*
X429799Y405229D01*
X429914Y405171D01*
X430035Y405125D01*
X430150Y405096D01*
X430254Y405079D01*
X430300Y405073D01*
X430334D01*
X430369Y405067D01*
X429280D01*
X430409D01*
X430559Y405079D01*
X430703Y405102D01*
X430824Y405137D01*
X430933Y405177D01*
X431020Y405217D01*
X431054Y405235D01*
X431083Y405252D01*
X431112Y405269D01*
X431129Y405275D01*
X431135Y405286D01*
X431141D01*
X431250Y405379D01*
X431342Y405482D01*
X431423Y405592D01*
X431492Y405701D01*
X431544Y405793D01*
X431561Y405834D01*
X431578Y405874D01*
X431590Y405903D01*
X431601Y405926D01*
X431607Y405937D01*
Y405943D01*
X431636Y406029D01*
X431659Y406116D01*
X431699Y406306D01*
X431728Y406502D01*
X431751Y406686D01*
X431757Y406773D01*
X431763Y406847D01*
Y406922D01*
X431769Y406980D01*
Y407228D01*
X431763Y407348D01*
X431751Y407458D01*
X431745Y407562D01*
X431734Y407654D01*
X431717Y407740D01*
X431705Y407821D01*
X431688Y407890D01*
X431671Y407953D01*
X431659Y408011D01*
X431647Y408057D01*
X431630Y408091D01*
X431625Y408120D01*
X431613Y408143D01*
X431607Y408155D01*
Y408161D01*
X431544Y408293D01*
X431469Y408408D01*
X431388Y408500D01*
X431313Y408587D01*
X431244Y408650D01*
X431192Y408696D01*
X431169Y408708D01*
X431152Y408719D01*
X431146Y408731D01*
X431141D01*
X431025Y408800D01*
X430904Y408846D01*
X430795Y408881D01*
X430691Y408910D01*
X430599Y408921D01*
X430559Y408927D01*
X430530D01*
X430501Y408932D01*
D02*
G37*
G36*
X425911Y408858D02*
X423405D01*
X423854D01*
X423486Y406917D01*
X423923Y406853D01*
X423964Y406911D01*
X424010Y406963D01*
X424056Y407009D01*
X424096Y407049D01*
X424136Y407078D01*
X424171Y407101D01*
X424194Y407112D01*
X424200Y407118D01*
X424269Y407153D01*
X424338Y407181D01*
X424407Y407199D01*
X424471Y407216D01*
X424528Y407222D01*
X424569Y407228D01*
X424609D01*
X424735Y407216D01*
X424851Y407193D01*
X424954Y407153D01*
X425035Y407112D01*
X425104Y407072D01*
X425150Y407032D01*
X425179Y407009D01*
X425191Y406997D01*
X425265Y406905D01*
X425323Y406801D01*
X425363Y406698D01*
X425386Y406600D01*
X425404Y406507D01*
X425409Y406467D01*
Y406433D01*
X425415Y406410D01*
Y406387D01*
Y406375D01*
Y406369D01*
X425404Y406219D01*
X425381Y406087D01*
X425340Y405972D01*
X425300Y405874D01*
X425260Y405799D01*
X425219Y405741D01*
X425196Y405707D01*
X425185Y405701D01*
Y405695D01*
X425139Y405649D01*
X425093Y405615D01*
X425000Y405551D01*
X424903Y405511D01*
X424816Y405477D01*
X424735Y405459D01*
X424672Y405453D01*
X424649Y405448D01*
X424615D01*
X424517Y405453D01*
X424425Y405477D01*
X424344Y405505D01*
X424275Y405534D01*
X424217Y405569D01*
X424177Y405592D01*
X424154Y405615D01*
X424142Y405620D01*
X424073Y405695D01*
X424021Y405782D01*
X423975Y405868D01*
X423946Y405955D01*
X423923Y406035D01*
X423906Y406099D01*
X423900Y406122D01*
X423895Y406139D01*
Y406150D01*
Y406156D01*
X423405Y406122D01*
X423417Y406035D01*
X423434Y405949D01*
X423480Y405799D01*
X423543Y405667D01*
X423607Y405557D01*
X423641Y405511D01*
X423670Y405471D01*
X423699Y405436D01*
X423722Y405407D01*
X423745Y405384D01*
X423762Y405367D01*
X423768Y405361D01*
X423774Y405356D01*
X423837Y405304D01*
X423906Y405263D01*
X423975Y405223D01*
X424044Y405189D01*
X424183Y405137D01*
X424315Y405102D01*
X424378Y405091D01*
X424436Y405085D01*
X424488Y405079D01*
X424528Y405073D01*
X424563Y405067D01*
X424615D01*
X424730Y405073D01*
X424839Y405085D01*
X424937Y405108D01*
X425035Y405137D01*
X425121Y405171D01*
X425208Y405211D01*
X425283Y405252D01*
X425346Y405298D01*
X425409Y405338D01*
X425461Y405379D01*
X425507Y405419D01*
X425542Y405453D01*
X425571Y405482D01*
X425594Y405505D01*
X425605Y405517D01*
X425611Y405523D01*
X425663Y405592D01*
X425709Y405667D01*
X425749Y405741D01*
X425784Y405822D01*
X425836Y405966D01*
X425876Y406104D01*
X425887Y406168D01*
X425893Y406225D01*
X425899Y406277D01*
X425905Y406323D01*
X425911Y406358D01*
Y406410D01*
X425905Y406507D01*
X425893Y406605D01*
X425876Y406692D01*
X425859Y406778D01*
X425830Y406853D01*
X425801Y406928D01*
X425772Y406991D01*
X425738Y407055D01*
X425703Y407107D01*
X425674Y407153D01*
X425646Y407193D01*
X425617Y407228D01*
X425599Y407256D01*
X425582Y407274D01*
X425571Y407285D01*
X425565Y407291D01*
X425502Y407354D01*
X425432Y407406D01*
X425363Y407452D01*
X425288Y407492D01*
X425219Y407527D01*
X425150Y407550D01*
X425018Y407596D01*
X424960Y407608D01*
X424903Y407619D01*
X424857Y407625D01*
X424810Y407631D01*
X424776Y407636D01*
X424730D01*
X424591Y407625D01*
X424459Y407596D01*
X424338Y407562D01*
X424234Y407515D01*
X424142Y407469D01*
X424108Y407452D01*
X424073Y407435D01*
X424050Y407418D01*
X424033Y407406D01*
X424021Y407400D01*
X424016Y407395D01*
X424223Y408414D01*
X425732D01*
Y408858D01*
X425911D01*
D02*
G37*
G36*
X413786Y408915D02*
X410255D01*
X411701D01*
X410255Y405131D01*
X410785D01*
X411194Y406277D01*
X412783D01*
X413221Y405131D01*
X413786D01*
X412248Y408915D01*
X413786D01*
D02*
G37*
G36*
X436440Y408932D02*
X435155D01*
Y405067D01*
Y406997D01*
X435161Y406807D01*
X435173Y406623D01*
X435190Y406461D01*
X435213Y406306D01*
X435242Y406168D01*
X435271Y406041D01*
X435305Y405926D01*
X435340Y405828D01*
X435374Y405736D01*
X435409Y405661D01*
X435438Y405597D01*
X435466Y405546D01*
X435489Y405505D01*
X435507Y405477D01*
X435518Y405459D01*
X435524Y405453D01*
X435587Y405384D01*
X435651Y405327D01*
X435720Y405275D01*
X435795Y405229D01*
X435864Y405194D01*
X435939Y405160D01*
X436077Y405114D01*
X436140Y405102D01*
X436198Y405091D01*
X436250Y405079D01*
X436296Y405073D01*
X436336Y405067D01*
X436388D01*
X436538Y405079D01*
X436670Y405102D01*
X436785Y405137D01*
X436889Y405177D01*
X436964Y405217D01*
X437027Y405252D01*
X437045Y405269D01*
X437062Y405275D01*
X437068Y405286D01*
X437073D01*
X437171Y405379D01*
X437252Y405482D01*
X437321Y405586D01*
X437379Y405690D01*
X437425Y405782D01*
X437442Y405816D01*
X437459Y405851D01*
X437471Y405880D01*
X437477Y405903D01*
X437482Y405914D01*
Y405920D01*
X437505Y406001D01*
X437529Y406081D01*
X437563Y406260D01*
X437586Y406438D01*
X437603Y406611D01*
X437609Y406692D01*
X437615Y406767D01*
Y406830D01*
X437621Y406888D01*
Y406997D01*
X437615Y407199D01*
Y407285D01*
X437609Y407372D01*
X437603Y407452D01*
X437592Y407527D01*
X437586Y407590D01*
X437580Y407654D01*
X437569Y407706D01*
X437563Y407758D01*
X437557Y407798D01*
X437546Y407827D01*
X437540Y407855D01*
Y407873D01*
X437534Y407884D01*
Y407890D01*
X437500Y408011D01*
X437459Y408120D01*
X437419Y408218D01*
X437385Y408299D01*
X437350Y408362D01*
X437321Y408414D01*
X437304Y408443D01*
X437298Y408454D01*
X437241Y408535D01*
X437177Y408604D01*
X437114Y408668D01*
X437056Y408719D01*
X436999Y408754D01*
X436958Y408783D01*
X436929Y408800D01*
X436918Y408806D01*
X436832Y408846D01*
X436739Y408881D01*
X436647Y408904D01*
X436567Y408915D01*
X436497Y408927D01*
X436440Y408932D01*
D02*
G37*
%LPD*%
G36*
X439377Y405131D02*
X438450D01*
Y407527D01*
X438531Y407562D01*
X438617Y407602D01*
X438698Y407636D01*
X438773Y407677D01*
X438836Y407711D01*
X438888Y407740D01*
X438922Y407763D01*
X438928Y407769D01*
X438934D01*
X439032Y407827D01*
X439118Y407890D01*
X439193Y407942D01*
X439256Y407994D01*
X439308Y408034D01*
X439349Y408063D01*
X439372Y408086D01*
X439377Y408091D01*
Y405131D01*
D02*
G37*
G36*
X421752Y405131D02*
X420824D01*
Y407527D01*
X420905Y407562D01*
X420992Y407602D01*
X421072Y407636D01*
X421147Y407677D01*
X421210Y407711D01*
X421262Y407740D01*
X421297Y407763D01*
X421303Y407769D01*
X421308D01*
X421406Y407827D01*
X421493Y407890D01*
X421567Y407942D01*
X421631Y407994D01*
X421683Y408034D01*
X421723Y408063D01*
X421746Y408086D01*
X421752Y408091D01*
Y405131D01*
D02*
G37*
G36*
X433594Y407164D02*
X433698Y407141D01*
X433790Y407101D01*
X433865Y407060D01*
X433928Y407020D01*
X433975Y406980D01*
X433998Y406957D01*
X434009Y406945D01*
X434078Y406853D01*
X434130Y406755D01*
X434165Y406651D01*
X434193Y406554D01*
X434205Y406467D01*
X434211Y406427D01*
Y406392D01*
X434216Y406369D01*
Y406346D01*
Y406335D01*
Y406329D01*
X434205Y406185D01*
X434182Y406058D01*
X434147Y405943D01*
X434113Y405851D01*
X434072Y405782D01*
X434038Y405730D01*
X434015Y405695D01*
X434003Y405684D01*
X433923Y405603D01*
X433836Y405546D01*
X433750Y405505D01*
X433675Y405477D01*
X433600Y405459D01*
X433548Y405453D01*
X433525Y405448D01*
X433497D01*
X433422Y405453D01*
X433353Y405465D01*
X433283Y405482D01*
X433226Y405505D01*
X433180Y405523D01*
X433145Y405540D01*
X433116Y405551D01*
X433111Y405557D01*
X433047Y405603D01*
X432990Y405661D01*
X432943Y405713D01*
X432903Y405770D01*
X432869Y405816D01*
X432846Y405857D01*
X432834Y405880D01*
X432828Y405891D01*
X432794Y405978D01*
X432771Y406058D01*
X432753Y406133D01*
X432742Y406208D01*
X432736Y406266D01*
X432730Y406312D01*
Y406341D01*
Y406352D01*
X432742Y406485D01*
X432765Y406600D01*
X432799Y406703D01*
X432840Y406790D01*
X432880Y406853D01*
X432915Y406905D01*
X432938Y406934D01*
X432949Y406945D01*
X433036Y407020D01*
X433122Y407078D01*
X433214Y407118D01*
X433295Y407147D01*
X433370Y407164D01*
X433427Y407170D01*
X433450Y407176D01*
X433479D01*
X433594Y407164D01*
D02*
G37*
G36*
X418906Y407164D02*
X419010Y407141D01*
X419102Y407101D01*
X419177Y407060D01*
X419241Y407020D01*
X419287Y406980D01*
X419310Y406957D01*
X419321Y406945D01*
X419390Y406853D01*
X419442Y406755D01*
X419477Y406651D01*
X419505Y406554D01*
X419517Y406467D01*
X419523Y406427D01*
Y406392D01*
X419528Y406369D01*
Y406346D01*
Y406335D01*
Y406329D01*
X419517Y406185D01*
X419494Y406058D01*
X419459Y405943D01*
X419425Y405851D01*
X419384Y405782D01*
X419350Y405730D01*
X419327Y405695D01*
X419315Y405684D01*
X419235Y405603D01*
X419148Y405546D01*
X419062Y405505D01*
X418987Y405477D01*
X418912Y405459D01*
X418860Y405453D01*
X418837Y405448D01*
X418809D01*
X418734Y405453D01*
X418665Y405465D01*
X418595Y405482D01*
X418538Y405505D01*
X418492Y405523D01*
X418457Y405540D01*
X418428Y405551D01*
X418423Y405557D01*
X418359Y405603D01*
X418302Y405661D01*
X418256Y405713D01*
X418215Y405770D01*
X418181Y405816D01*
X418158Y405857D01*
X418146Y405880D01*
X418140Y405891D01*
X418106Y405978D01*
X418083Y406058D01*
X418065Y406133D01*
X418054Y406208D01*
X418048Y406266D01*
X418042Y406312D01*
Y406341D01*
Y406352D01*
X418054Y406485D01*
X418077Y406600D01*
X418112Y406703D01*
X418152Y406790D01*
X418192Y406853D01*
X418227Y406905D01*
X418250Y406934D01*
X418261Y406945D01*
X418348Y407020D01*
X418434Y407078D01*
X418526Y407118D01*
X418607Y407147D01*
X418682Y407164D01*
X418739Y407170D01*
X418762Y407176D01*
X418791D01*
X418906Y407164D01*
D02*
G37*
G36*
X427829Y406461D02*
X426642D01*
X427829Y408155D01*
Y406461D01*
D02*
G37*
G36*
X430375Y408927D02*
X430282Y408915D01*
X430196Y408898D01*
X430115Y408881D01*
X429971Y408823D01*
X429908Y408788D01*
X429850Y408760D01*
X429793Y408725D01*
X429747Y408691D01*
X429706Y408662D01*
X429678Y408639D01*
X429649Y408616D01*
X429632Y408598D01*
X429620Y408587D01*
X429614Y408581D01*
X429557Y408512D01*
X429505Y408443D01*
X429459Y408368D01*
X429424Y408287D01*
X429390Y408213D01*
X429361Y408132D01*
X429320Y407988D01*
X429309Y407919D01*
X429297Y407855D01*
X429292Y407798D01*
X429286Y407752D01*
X429280Y407711D01*
Y408932D01*
X430467D01*
X430375Y408927D01*
D02*
G37*
G36*
X430634Y408535D02*
X430732Y408512D01*
X430818Y408472D01*
X430893Y408431D01*
X430956Y408385D01*
X430997Y408345D01*
X431025Y408322D01*
X431037Y408310D01*
X431106Y408213D01*
X431158Y408109D01*
X431198Y408005D01*
X431221Y407901D01*
X431239Y407809D01*
X431244Y407775D01*
Y407740D01*
X431250Y407711D01*
Y407688D01*
Y407677D01*
Y407671D01*
X431239Y407533D01*
X431215Y407406D01*
X431181Y407302D01*
X431146Y407210D01*
X431106Y407141D01*
X431072Y407089D01*
X431048Y407060D01*
X431037Y407049D01*
X430956Y406974D01*
X430870Y406917D01*
X430778Y406882D01*
X430697Y406853D01*
X430622Y406836D01*
X430565Y406830D01*
X430542Y406824D01*
X430513D01*
X430398Y406836D01*
X430294Y406859D01*
X430202Y406893D01*
X430121Y406940D01*
X430058Y406980D01*
X430012Y407014D01*
X429983Y407037D01*
X429971Y407049D01*
X429902Y407141D01*
X429850Y407233D01*
X429810Y407331D01*
X429787Y407429D01*
X429770Y407510D01*
X429764Y407579D01*
X429758Y407602D01*
Y407619D01*
Y407631D01*
Y407636D01*
X429770Y407781D01*
X429793Y407907D01*
X429827Y408022D01*
X429873Y408115D01*
X429914Y408189D01*
X429948Y408247D01*
X429971Y408282D01*
X429983Y408293D01*
X430029Y408339D01*
X430075Y408380D01*
X430167Y408437D01*
X430254Y408483D01*
X430340Y408518D01*
X430415Y408535D01*
X430473Y408541D01*
X430496Y408547D01*
X430524D01*
X430634Y408535D01*
D02*
G37*
G36*
X412000Y408397D02*
X412041Y408264D01*
X412087Y408132D01*
X412133Y408005D01*
X412167Y407896D01*
X412184Y407850D01*
X412202Y407809D01*
X412213Y407775D01*
X412225Y407752D01*
X412231Y407734D01*
Y407729D01*
X412622Y406686D01*
X411338D01*
X411753Y407792D01*
X411799Y407925D01*
X411839Y408057D01*
X411873Y408178D01*
X411902Y408293D01*
X411925Y408385D01*
X411937Y408426D01*
X411948Y408460D01*
X411954Y408489D01*
Y408506D01*
X411960Y408518D01*
Y408524D01*
X412000Y408397D01*
D02*
G37*
G36*
X436238Y408921D02*
X436106Y408898D01*
X435985Y408863D01*
X435887Y408823D01*
X435806Y408777D01*
X435749Y408742D01*
X435726Y408731D01*
X435708Y408719D01*
X435703Y408708D01*
X435697D01*
X435599Y408616D01*
X435518Y408518D01*
X435449Y408414D01*
X435392Y408310D01*
X435345Y408218D01*
X435328Y408178D01*
X435317Y408143D01*
X435305Y408115D01*
X435294Y408091D01*
X435288Y408080D01*
Y408074D01*
X435265Y407994D01*
X435242Y407913D01*
X435213Y407734D01*
X435190Y407556D01*
X435173Y407383D01*
X435167Y407302D01*
X435161Y407228D01*
Y407164D01*
X435155Y407107D01*
Y408932D01*
X436388D01*
X436238Y408921D01*
D02*
G37*
G36*
X436440Y408541D02*
X436497Y408535D01*
X436601Y408500D01*
X436693Y408449D01*
X436774Y408391D01*
X436837Y408333D01*
X436883Y408282D01*
X436912Y408247D01*
X436924Y408241D01*
Y408236D01*
X436964Y408172D01*
X436999Y408097D01*
X437027Y408011D01*
X437050Y407913D01*
X437091Y407711D01*
X437114Y407504D01*
X437125Y407400D01*
X437131Y407308D01*
X437137Y407222D01*
Y407147D01*
X437143Y407084D01*
Y407037D01*
Y407009D01*
Y406997D01*
Y406830D01*
X437131Y406675D01*
X437125Y406536D01*
X437108Y406410D01*
X437091Y406294D01*
X437073Y406191D01*
X437056Y406104D01*
X437033Y406024D01*
X437010Y405960D01*
X436993Y405903D01*
X436975Y405851D01*
X436958Y405816D01*
X436947Y405788D01*
X436935Y405770D01*
X436924Y405759D01*
Y405753D01*
X436883Y405701D01*
X436837Y405655D01*
X436791Y405609D01*
X436745Y405574D01*
X436659Y405523D01*
X436572Y405488D01*
X436497Y405465D01*
X436440Y405453D01*
X436417Y405448D01*
X436388D01*
X436330Y405453D01*
X436273Y405459D01*
X436169Y405494D01*
X436077Y405546D01*
X435996Y405603D01*
X435933Y405655D01*
X435887Y405707D01*
X435858Y405741D01*
X435847Y405747D01*
Y405753D01*
X435812Y405816D01*
X435777Y405897D01*
X435749Y405983D01*
X435726Y406075D01*
X435685Y406283D01*
X435662Y406490D01*
X435651Y406588D01*
X435645Y406686D01*
X435639Y406773D01*
Y406847D01*
X435633Y406911D01*
Y406957D01*
Y406986D01*
Y406997D01*
Y407164D01*
X435645Y407320D01*
X435656Y407458D01*
X435668Y407585D01*
X435691Y407706D01*
X435708Y407809D01*
X435731Y407901D01*
X435754Y407982D01*
X435772Y408051D01*
X435795Y408115D01*
X435818Y408161D01*
X435835Y408201D01*
X435847Y408230D01*
X435858Y408253D01*
X435870Y408264D01*
Y408270D01*
X435904Y408316D01*
X435945Y408362D01*
X436031Y408431D01*
X436117Y408477D01*
X436198Y408512D01*
X436273Y408535D01*
X436330Y408541D01*
X436353Y408547D01*
X436382D01*
X436440Y408541D01*
D02*
G37*
%LPC*%
G36*
X448899Y495456D02*
X445893D01*
X447361D01*
X447223Y495450D01*
X447091Y495433D01*
X446976Y495415D01*
X446872Y495392D01*
X446791Y495363D01*
X446757Y495352D01*
X446728Y495346D01*
X446699Y495335D01*
X446682Y495329D01*
X446676Y495323D01*
X446670D01*
X446561Y495271D01*
X446463Y495208D01*
X446382Y495145D01*
X446319Y495087D01*
X446267Y495029D01*
X446227Y494983D01*
X446204Y494954D01*
X446198Y494949D01*
Y494943D01*
X446146Y494851D01*
X446106Y494753D01*
X446077Y494666D01*
X446060Y494580D01*
X446048Y494511D01*
X446037Y494459D01*
Y494436D01*
Y494419D01*
Y494413D01*
Y494407D01*
X446042Y494315D01*
X446060Y494223D01*
X446077Y494142D01*
X446106Y494073D01*
X446129Y494016D01*
X446146Y493975D01*
X446163Y493946D01*
X446169Y493935D01*
X446227Y493860D01*
X446290Y493791D01*
X446353Y493733D01*
X446423Y493681D01*
X446480Y493641D01*
X446526Y493612D01*
X446561Y493589D01*
X446567Y493583D01*
X446572D01*
X446613Y493561D01*
X446664Y493543D01*
X446774Y493503D01*
X446895Y493463D01*
X447016Y493422D01*
X447125Y493393D01*
X447171Y493382D01*
X447212Y493370D01*
X447246Y493359D01*
X447275Y493353D01*
X447292Y493347D01*
X447298D01*
X447390Y493324D01*
X447477Y493301D01*
X447557Y493284D01*
X447626Y493267D01*
X447684Y493249D01*
X447742Y493232D01*
X447788Y493221D01*
X447834Y493209D01*
X447868Y493198D01*
X447897Y493186D01*
X447943Y493175D01*
X447966Y493169D01*
X447972Y493163D01*
X448053Y493128D01*
X448128Y493088D01*
X448185Y493054D01*
X448231Y493019D01*
X448266Y492984D01*
X448295Y492961D01*
X448306Y492944D01*
X448312Y492938D01*
X448346Y492887D01*
X448369Y492835D01*
X448392Y492783D01*
X448404Y492731D01*
X448410Y492691D01*
X448416Y492656D01*
Y492633D01*
Y492627D01*
X448410Y492564D01*
X448398Y492506D01*
X448381Y492449D01*
X448364Y492403D01*
X448341Y492362D01*
X448323Y492334D01*
X448312Y492311D01*
X448306Y492305D01*
X448260Y492253D01*
X448208Y492207D01*
X448156Y492167D01*
X448099Y492132D01*
X448053Y492103D01*
X448012Y492086D01*
X447989Y492074D01*
X447978Y492069D01*
X447891Y492040D01*
X447805Y492023D01*
X447724Y492005D01*
X447644Y491999D01*
X447580Y491994D01*
X447523Y491988D01*
X447477D01*
X447361Y491994D01*
X447252Y492005D01*
X447148Y492023D01*
X447068Y492046D01*
X446993Y492063D01*
X446941Y492080D01*
X446906Y492092D01*
X446901Y492097D01*
X446895D01*
X446808Y492143D01*
X446728Y492190D01*
X446664Y492241D01*
X446613Y492287D01*
X446567Y492328D01*
X446538Y492362D01*
X446521Y492385D01*
X446515Y492391D01*
X446474Y492466D01*
X446440Y492541D01*
X446417Y492622D01*
X446394Y492697D01*
X446382Y492766D01*
X446371Y492817D01*
X446365Y492852D01*
Y492858D01*
Y492864D01*
X445893Y492823D01*
D01*
X445904Y492685D01*
X445927Y492558D01*
X445962Y492437D01*
X445996Y492339D01*
X446031Y492253D01*
X446048Y492218D01*
X446065Y492190D01*
X446077Y492167D01*
X446089Y492149D01*
X446094Y492143D01*
Y492138D01*
X446175Y492034D01*
X446267Y491942D01*
X446353Y491867D01*
X446446Y491804D01*
X446521Y491752D01*
X446584Y491717D01*
X446607Y491706D01*
X446624Y491694D01*
X446636Y491688D01*
X446641D01*
X446780Y491642D01*
X446924Y491608D01*
X447068Y491579D01*
X447200Y491562D01*
X447263Y491556D01*
X447321Y491550D01*
X447373D01*
X447413Y491544D01*
X447500D01*
X447649Y491550D01*
X447782Y491568D01*
X447909Y491591D01*
X448012Y491619D01*
X448104Y491642D01*
X448139Y491654D01*
X448168Y491665D01*
X448191Y491677D01*
X448208Y491683D01*
X448220Y491688D01*
X448225D01*
X448341Y491752D01*
X448444Y491815D01*
X448531Y491884D01*
X448600Y491953D01*
X448657Y492011D01*
X448692Y492057D01*
X448721Y492092D01*
X448727Y492103D01*
X448784Y492201D01*
X448825Y492305D01*
X448859Y492403D01*
X448876Y492489D01*
X448888Y492564D01*
X448899Y492622D01*
Y492564D01*
Y492622D01*
Y492673D01*
X448894Y492783D01*
X448876Y492887D01*
X448847Y492979D01*
X448819Y493054D01*
X448790Y493123D01*
X448761Y493169D01*
X448744Y493198D01*
X448738Y493209D01*
X448675Y493290D01*
X448600Y493365D01*
X448519Y493434D01*
X448439Y493491D01*
X448364Y493532D01*
X448306Y493566D01*
X448283Y493578D01*
X448272Y493589D01*
X448260Y493595D01*
X448254D01*
X448208Y493612D01*
X448151Y493635D01*
X448093Y493658D01*
X448024Y493676D01*
X447886Y493716D01*
X447747Y493756D01*
X447621Y493785D01*
X447563Y493802D01*
X447511Y493814D01*
X447471Y493825D01*
X447442Y493831D01*
X447419Y493837D01*
X447413D01*
X447304Y493866D01*
X447206Y493889D01*
X447120Y493912D01*
X447039Y493941D01*
X446970Y493964D01*
X446912Y493981D01*
X446860Y494004D01*
X446814Y494027D01*
X446774Y494044D01*
X446739Y494056D01*
X446716Y494073D01*
X446699Y494085D01*
X446670Y494102D01*
X446664Y494108D01*
X446618Y494160D01*
X446584Y494211D01*
X446555Y494269D01*
X446538Y494321D01*
X446526Y494367D01*
X446521Y494407D01*
Y494430D01*
Y494442D01*
X446532Y494528D01*
X446555Y494603D01*
X446584Y494672D01*
X446624Y494730D01*
X446659Y494782D01*
X446693Y494816D01*
X446716Y494839D01*
X446722Y494845D01*
X446762Y494874D01*
X446808Y494903D01*
X446912Y494943D01*
X447022Y494972D01*
X447131Y494989D01*
X447229Y495006D01*
X447275D01*
X447310Y495012D01*
X447385D01*
X447540Y495006D01*
X447673Y494983D01*
X447788Y494954D01*
X447880Y494920D01*
X447949Y494885D01*
X448001Y494857D01*
X448030Y494833D01*
X448041Y494828D01*
X448116Y494753D01*
X448179Y494666D01*
X448225Y494580D01*
X448260Y494494D01*
X448283Y494413D01*
X448295Y494350D01*
X448300Y494327D01*
X448306Y494309D01*
Y494298D01*
Y494292D01*
X448784Y494327D01*
X448773Y494448D01*
X448750Y494557D01*
X448715Y494661D01*
X448680Y494747D01*
X448652Y494816D01*
X448623Y494874D01*
X448600Y494908D01*
X448594Y494920D01*
X448525Y495012D01*
X448444Y495093D01*
X448364Y495162D01*
X448283Y495219D01*
X448208Y495260D01*
X448151Y495294D01*
X448128Y495306D01*
X448110Y495311D01*
X448104Y495317D01*
X448099D01*
X447978Y495363D01*
X447851Y495398D01*
X447724Y495421D01*
X447609Y495438D01*
X447511Y495450D01*
X447471D01*
X447431Y495456D01*
X448899D01*
D02*
G37*
G36*
X472417Y495456D02*
Y493491D01*
X472406Y493699D01*
X472383Y493889D01*
X472348Y494062D01*
X472325Y494136D01*
X472308Y494211D01*
X472285Y494275D01*
X472262Y494332D01*
X472245Y494384D01*
X472227Y494424D01*
X472216Y494459D01*
X472204Y494482D01*
X472193Y494499D01*
Y494505D01*
X472101Y494666D01*
X472003Y494805D01*
X471893Y494926D01*
X471790Y495023D01*
X471697Y495098D01*
X471657Y495133D01*
X471623Y495156D01*
X471594Y495179D01*
X471571Y495191D01*
X471559Y495202D01*
X471553D01*
X471473Y495248D01*
X471392Y495289D01*
X471231Y495346D01*
X471070Y495392D01*
X470926Y495427D01*
X470857Y495433D01*
X470799Y495444D01*
X470741Y495450D01*
X470695D01*
X470661Y495456D01*
X470609D01*
X470465Y495450D01*
X470321Y495433D01*
X470188Y495404D01*
X470067Y495375D01*
X469952Y495329D01*
X469843Y495289D01*
X469745Y495237D01*
X469653Y495191D01*
X469572Y495139D01*
X469503Y495087D01*
X469445Y495047D01*
X469393Y495006D01*
X469353Y494972D01*
X469324Y494943D01*
X469307Y494926D01*
X469301Y494920D01*
X469215Y494816D01*
X469134Y494707D01*
X469071Y494586D01*
X469013Y494465D01*
X468961Y494344D01*
X468921Y494223D01*
X468892Y494102D01*
X468863Y493987D01*
X468841Y493871D01*
X468829Y493774D01*
X468817Y493681D01*
X468806Y493601D01*
Y493537D01*
X468800Y493486D01*
Y493445D01*
X468812Y493261D01*
X468835Y493088D01*
X468869Y492927D01*
X468887Y492858D01*
X468910Y492789D01*
X468927Y492725D01*
X468944Y492668D01*
X468961Y492622D01*
X468979Y492581D01*
X468996Y492547D01*
X469002Y492524D01*
X469013Y492506D01*
Y492501D01*
X469105Y492345D01*
X469203Y492201D01*
X469313Y492086D01*
X469417Y491982D01*
X469509Y491902D01*
X469549Y491873D01*
X469584Y491844D01*
X469612Y491827D01*
X469635Y491810D01*
X469647Y491804D01*
X469653Y491798D01*
X469733Y491752D01*
X469814Y491717D01*
X469981Y491654D01*
X470142Y491608D01*
X470286Y491579D01*
X470355Y491568D01*
X470419Y491556D01*
X470471Y491550D01*
X470517D01*
X470557Y491544D01*
X472417D01*
Y495456D01*
D02*
G37*
G36*
X451871Y495409D02*
X449372D01*
D01*
X450731D01*
X450622Y495404D01*
X450518Y495392D01*
X450420Y495369D01*
X450328Y495340D01*
X450241Y495306D01*
X450167Y495271D01*
X450092Y495231D01*
X450028Y495191D01*
X449971Y495150D01*
X449919Y495110D01*
X449879Y495075D01*
X449838Y495041D01*
X449809Y495012D01*
X449792Y494989D01*
X449781Y494977D01*
X449775Y494972D01*
X449706Y494874D01*
X449642Y494759D01*
X449591Y494643D01*
X449544Y494511D01*
X449504Y494384D01*
X449470Y494252D01*
X449441Y494119D01*
X449424Y493987D01*
X449406Y493866D01*
X449395Y493751D01*
X449383Y493647D01*
X449377Y493555D01*
X449372Y493480D01*
D01*
Y493376D01*
X449377Y493198D01*
X449389Y493036D01*
X449406Y492881D01*
X449429Y492743D01*
X449458Y492616D01*
X449487Y492501D01*
X449521Y492397D01*
X449556Y492305D01*
X449585Y492224D01*
X449619Y492155D01*
X449648Y492097D01*
X449677Y492051D01*
X449700Y492017D01*
X449717Y491994D01*
X449729Y491976D01*
X449735Y491971D01*
X449804Y491896D01*
X449879Y491832D01*
X449959Y491775D01*
X450040Y491723D01*
X450120Y491683D01*
X450195Y491648D01*
X450276Y491619D01*
X450351Y491596D01*
X450420Y491579D01*
X450483Y491568D01*
X450541Y491556D01*
X450587Y491550D01*
X450627D01*
X450662Y491544D01*
X450685D01*
X450806Y491550D01*
X450921Y491568D01*
X451025Y491596D01*
X451117Y491625D01*
X451186Y491654D01*
X451244Y491683D01*
X451278Y491700D01*
X451290Y491706D01*
X451388Y491775D01*
X451468Y491850D01*
X451543Y491925D01*
X451607Y491999D01*
X451653Y492069D01*
X451687Y492121D01*
X451699Y492143D01*
X451710Y492161D01*
X451716Y492167D01*
Y492172D01*
X451768Y492287D01*
X451808Y492403D01*
X451831Y492518D01*
X451854Y492616D01*
X451866Y492708D01*
Y492743D01*
X451871Y492777D01*
Y491544D01*
D01*
D01*
Y495409D01*
D02*
G37*
G36*
X459342Y495392D02*
X456653D01*
X458663D01*
X457758Y492760D01*
X457712Y492616D01*
X457666Y492495D01*
X457631Y492391D01*
X457609Y492305D01*
X457585Y492241D01*
X457568Y492195D01*
X457562Y492167D01*
X457557Y492155D01*
X457534Y492230D01*
X457505Y492322D01*
X457476Y492414D01*
X457447Y492506D01*
X457418Y492587D01*
X457395Y492650D01*
X457390Y492679D01*
X457384Y492697D01*
X457378Y492708D01*
Y492714D01*
X456480Y495392D01*
X455731D01*
Y491608D01*
X456215D01*
Y494828D01*
X457303Y491608D01*
X456772D01*
X458060D01*
X457753D01*
X458858Y494776D01*
Y491608D01*
X459342D01*
Y495392D01*
D02*
G37*
G36*
X476657D02*
X473045D01*
Y491608D01*
X473529D01*
Y494828D01*
X474618Y491608D01*
X475067D01*
X476173Y494776D01*
Y491608D01*
X476657D01*
Y495392D01*
D02*
G37*
G36*
X464273Y492138D02*
X463743D01*
Y491608D01*
X464273D01*
Y492138D01*
D02*
G37*
G36*
X463034Y495392D02*
X460149D01*
Y491608D01*
X460650D01*
Y493152D01*
X461617D01*
X461761Y493157D01*
X461894Y493163D01*
X462015Y493180D01*
X462130Y493203D01*
X462228Y493226D01*
X462320Y493255D01*
X462401Y493284D01*
X462470Y493319D01*
X462533Y493347D01*
X462585Y493376D01*
X462625Y493405D01*
X462666Y493428D01*
X462689Y493451D01*
X462706Y493468D01*
X462718Y493474D01*
X462723Y493480D01*
X462781Y493543D01*
X462827Y493612D01*
X462867Y493681D01*
X462902Y493751D01*
X462959Y493883D01*
X462994Y494016D01*
X463011Y494073D01*
X463017Y494125D01*
X463023Y494177D01*
X463029Y494217D01*
X463034Y494252D01*
Y494298D01*
X463029Y494402D01*
X463017Y494499D01*
X463000Y494586D01*
X462977Y494661D01*
X462954Y494724D01*
X462936Y494770D01*
X462925Y494799D01*
X462919Y494810D01*
X462873Y494897D01*
X462821Y494966D01*
X462769Y495029D01*
X462723Y495081D01*
X462683Y495121D01*
X462648Y495150D01*
X462620Y495167D01*
X462614Y495173D01*
X462539Y495219D01*
X462458Y495260D01*
X462384Y495289D01*
X462309Y495311D01*
X462245Y495329D01*
X462193Y495340D01*
X462159Y495352D01*
X462147D01*
X462067Y495363D01*
X461975Y495375D01*
X461877Y495381D01*
X461785Y495386D01*
X461698Y495392D01*
X463034D01*
D01*
D02*
G37*
G36*
X455230D02*
X452240D01*
Y491608D01*
Y494949D01*
X453484D01*
Y491608D01*
X453985D01*
Y494949D01*
X455230D01*
Y495392D01*
D02*
G37*
G36*
X445397Y495386D02*
X442776D01*
D01*
X444504D01*
X442776Y492938D01*
Y491608D01*
Y492512D01*
X444418D01*
Y491608D01*
X444885D01*
Y492512D01*
X445397D01*
Y495386D01*
D02*
G37*
G36*
X442252Y492138D02*
X441722D01*
Y491608D01*
X442252D01*
Y492138D01*
D02*
G37*
G36*
X441181Y495392D02*
X436319D01*
D01*
X437310Y491608D01*
X437834D01*
X438629Y494488D01*
X438647Y494563D01*
X438670Y494638D01*
X438687Y494707D01*
X438704Y494782D01*
X438721Y494839D01*
X438733Y494891D01*
X438744Y494920D01*
Y494931D01*
X438750Y494914D01*
X438756Y494891D01*
X438773Y494828D01*
X438791Y494759D01*
X438814Y494678D01*
X438831Y494609D01*
X438848Y494545D01*
X438854Y494522D01*
X438860Y494505D01*
X438865Y494494D01*
Y494488D01*
X439660Y491608D01*
X440150D01*
X441181Y495392D01*
D01*
D02*
G37*
G36*
X436193D02*
X431331D01*
D01*
X432322Y491608D01*
X432846D01*
X433641Y494488D01*
X433658Y494563D01*
X433681Y494638D01*
X433699Y494707D01*
X433716Y494782D01*
X433733Y494839D01*
X433745Y494891D01*
X433756Y494920D01*
Y494931D01*
X433762Y494914D01*
X433768Y494891D01*
X433785Y494828D01*
X433802Y494759D01*
X433825Y494678D01*
X433843Y494609D01*
X433860Y494545D01*
X433866Y494522D01*
X433872Y494505D01*
X433877Y494494D01*
Y494488D01*
X434672Y491608D01*
X435162D01*
X436193Y495392D01*
D01*
D02*
G37*
G36*
X431205D02*
X426343D01*
D01*
X427334Y491608D01*
X427858D01*
X428653Y494488D01*
X428670Y494563D01*
X428693Y494638D01*
X428711Y494707D01*
X428728Y494782D01*
X428745Y494839D01*
X428757Y494891D01*
X428768Y494920D01*
Y494931D01*
X428774Y494914D01*
X428780Y494891D01*
X428797Y494828D01*
X428814Y494759D01*
X428837Y494678D01*
X428855Y494609D01*
X428872Y494545D01*
X428878Y494522D01*
X428883Y494505D01*
X428889Y494494D01*
Y494488D01*
X429684Y491608D01*
X430174D01*
X431205Y495392D01*
D01*
D02*
G37*
G36*
X468339Y495456D02*
X464999D01*
X466778D01*
X466594Y495444D01*
X466421Y495421D01*
X466266Y495381D01*
X466197Y495363D01*
X466133Y495340D01*
X466076Y495317D01*
X466018Y495300D01*
X465972Y495277D01*
X465937Y495260D01*
X465903Y495248D01*
X465880Y495237D01*
X465868Y495225D01*
X465863D01*
X465719Y495133D01*
X465586Y495023D01*
X465477Y494914D01*
X465390Y494805D01*
X465315Y494707D01*
X465287Y494666D01*
X465264Y494632D01*
X465246Y494597D01*
X465235Y494574D01*
X465223Y494563D01*
Y494557D01*
X465148Y494390D01*
X465091Y494211D01*
X465056Y494039D01*
X465027Y493877D01*
X465016Y493802D01*
X465010Y493739D01*
X465004Y493676D01*
Y493624D01*
X464999Y493583D01*
Y493526D01*
X465004Y493324D01*
X465027Y493140D01*
X465062Y492967D01*
X465079Y492887D01*
X465097Y492817D01*
X465114Y492748D01*
X465131Y492691D01*
X465148Y492639D01*
X465166Y492593D01*
X465177Y492558D01*
X465189Y492535D01*
X465194Y492518D01*
Y492512D01*
X465275Y492345D01*
X465373Y492201D01*
X465465Y492074D01*
X465563Y491976D01*
X465644Y491896D01*
X465713Y491838D01*
X465742Y491821D01*
X465759Y491804D01*
X465770Y491798D01*
X465776Y491792D01*
X465851Y491746D01*
X465932Y491712D01*
X466093Y491648D01*
X466260Y491608D01*
X466421Y491573D01*
X466490Y491568D01*
X466560Y491556D01*
X466617Y491550D01*
X466669D01*
X466715Y491544D01*
X466773D01*
X466882Y491550D01*
X466986Y491556D01*
X467176Y491596D01*
X467262Y491619D01*
X467349Y491648D01*
X467423Y491677D01*
X467493Y491706D01*
X467556Y491735D01*
X467608Y491763D01*
X467654Y491792D01*
X467694Y491815D01*
X467729Y491838D01*
X467752Y491855D01*
X467763Y491861D01*
X467769Y491867D01*
X467844Y491930D01*
X467913Y491999D01*
X468028Y492149D01*
X468132Y492305D01*
X468207Y492460D01*
X468241Y492529D01*
X468264Y492593D01*
X468288Y492656D01*
X468311Y492702D01*
X468322Y492748D01*
X468334Y492777D01*
X468339Y492800D01*
Y491544D01*
D01*
Y495456D01*
D02*
G37*
G36*
X448899Y492564D02*
Y491544D01*
D01*
D01*
Y492564D01*
D02*
G37*
%LPD*%
G36*
X470747Y495018D02*
X470874Y494995D01*
X470989Y494966D01*
X471087Y494931D01*
X471168Y494891D01*
X471231Y494862D01*
X471254Y494851D01*
X471271Y494839D01*
X471277Y494833D01*
X471283D01*
X471386Y494759D01*
X471479Y494672D01*
X471559Y494580D01*
X471623Y494494D01*
X471674Y494419D01*
X471709Y494355D01*
X471721Y494332D01*
X471732Y494315D01*
X471738Y494304D01*
Y494298D01*
X471790Y494165D01*
X471830Y494027D01*
X471859Y493889D01*
X471882Y493768D01*
X471893Y493658D01*
Y493607D01*
X471899Y493566D01*
Y493537D01*
Y493514D01*
Y493497D01*
Y493491D01*
X471893Y493359D01*
X471882Y493232D01*
X471865Y493117D01*
X471841Y493008D01*
X471813Y492904D01*
X471784Y492812D01*
X471749Y492731D01*
X471715Y492650D01*
X471680Y492587D01*
X471646Y492529D01*
X471617Y492478D01*
X471588Y492437D01*
X471565Y492403D01*
X471548Y492380D01*
X471536Y492368D01*
X471530Y492362D01*
X471461Y492293D01*
X471386Y492236D01*
X471312Y492184D01*
X471231Y492138D01*
X471156Y492098D01*
X471075Y492069D01*
X470931Y492023D01*
X470862Y492005D01*
X470799Y491994D01*
X470747Y491982D01*
X470695Y491976D01*
X470655Y491971D01*
X470603D01*
X470499Y491976D01*
X470407Y491988D01*
X470315Y492005D01*
X470229Y492034D01*
X470142Y492063D01*
X470067Y492098D01*
X469998Y492132D01*
X469935Y492167D01*
X469877Y492201D01*
X469825Y492241D01*
X469785Y492270D01*
X469751Y492299D01*
X469722Y492328D01*
X469699Y492345D01*
X469687Y492357D01*
X469681Y492362D01*
X469618Y492437D01*
X469560Y492524D01*
X469514Y492610D01*
X469474Y492697D01*
X469440Y492789D01*
X469405Y492875D01*
X469365Y493048D01*
X469347Y493128D01*
X469336Y493203D01*
X469330Y493267D01*
X469324Y493324D01*
X469319Y493376D01*
Y493411D01*
Y493434D01*
Y493439D01*
X469324Y493595D01*
X469336Y493739D01*
X469353Y493866D01*
X469376Y493987D01*
X469405Y494102D01*
X469440Y494200D01*
X469474Y494286D01*
X469509Y494367D01*
X469543Y494436D01*
X469578Y494494D01*
X469612Y494545D01*
X469641Y494586D01*
X469664Y494615D01*
X469681Y494638D01*
X469693Y494649D01*
X469699Y494655D01*
X469774Y494718D01*
X469848Y494776D01*
X469923Y494828D01*
X470004Y494868D01*
X470079Y494903D01*
X470154Y494931D01*
X470298Y494978D01*
X470361Y494995D01*
X470419Y495006D01*
X470476Y495012D01*
X470522Y495018D01*
X470557Y495023D01*
X470609D01*
X470747Y495018D01*
D02*
G37*
G36*
X472417Y491544D02*
X470609D01*
X470787Y491556D01*
X470960Y491579D01*
X471116Y491619D01*
X471248Y491660D01*
X471312Y491683D01*
X471363Y491700D01*
X471409Y491723D01*
X471450Y491740D01*
X471484Y491752D01*
X471507Y491763D01*
X471519Y491775D01*
X471525D01*
X471674Y491873D01*
X471807Y491982D01*
X471922Y492098D01*
X472014Y492207D01*
X472083Y492305D01*
X472112Y492351D01*
X472141Y492385D01*
X472158Y492420D01*
X472170Y492443D01*
X472181Y492455D01*
Y492460D01*
X472262Y492633D01*
X472320Y492812D01*
X472360Y492984D01*
X472389Y493146D01*
X472400Y493221D01*
X472406Y493284D01*
X472412Y493342D01*
Y493394D01*
X472417Y493434D01*
Y491544D01*
D02*
G37*
G36*
X451871Y492835D02*
X451866Y492933D01*
X451860Y493031D01*
X451843Y493117D01*
X451820Y493203D01*
X451797Y493278D01*
X451768Y493353D01*
X451739Y493417D01*
X451710Y493480D01*
X451676Y493532D01*
X451647Y493578D01*
X451618Y493618D01*
X451595Y493653D01*
X451572Y493681D01*
X451555Y493699D01*
X451549Y493710D01*
X451543Y493716D01*
X451480Y493779D01*
X451416Y493831D01*
X451347Y493877D01*
X451278Y493918D01*
X451215Y493952D01*
X451146Y493975D01*
X451025Y494021D01*
X450915Y494044D01*
X450869Y494050D01*
X450829Y494056D01*
X450794Y494062D01*
X450748D01*
X450650Y494056D01*
X450558Y494044D01*
X450472Y494021D01*
X450397Y493998D01*
X450334Y493975D01*
X450282Y493952D01*
X450253Y493941D01*
X450241Y493935D01*
X450155Y493883D01*
X450074Y493825D01*
X450005Y493762D01*
X449948Y493699D01*
X449896Y493641D01*
X449861Y493595D01*
X449838Y493566D01*
X449832Y493561D01*
Y493658D01*
X449838Y493756D01*
X449844Y493849D01*
X449850Y493935D01*
X449861Y494010D01*
X449873Y494085D01*
X449884Y494148D01*
X449896Y494206D01*
X449907Y494257D01*
X449919Y494304D01*
X449930Y494344D01*
X449942Y494373D01*
X449948Y494396D01*
X449953Y494419D01*
X449959Y494424D01*
Y494430D01*
X450011Y494540D01*
X450069Y494638D01*
X450126Y494718D01*
X450184Y494782D01*
X450230Y494833D01*
X450270Y494874D01*
X450293Y494897D01*
X450305Y494903D01*
X450374Y494943D01*
X450437Y494977D01*
X450506Y495001D01*
X450570Y495012D01*
X450622Y495023D01*
X450662Y495029D01*
X450702D01*
X450800Y495023D01*
X450892Y495001D01*
X450973Y494966D01*
X451042Y494931D01*
X451094Y494891D01*
X451134Y494862D01*
X451163Y494839D01*
X451169Y494828D01*
X451209Y494776D01*
X451244Y494718D01*
X451301Y494586D01*
X451319Y494528D01*
X451336Y494482D01*
X451347Y494448D01*
Y494442D01*
Y494436D01*
X451808Y494471D01*
X451779Y494626D01*
X451727Y494764D01*
X451676Y494879D01*
X451612Y494977D01*
X451555Y495052D01*
X451509Y495110D01*
X451474Y495145D01*
X451468Y495156D01*
X451463D01*
X451405Y495202D01*
X451347Y495242D01*
X451226Y495300D01*
X451105Y495346D01*
X450990Y495381D01*
X450887Y495398D01*
X450841Y495404D01*
X450806D01*
X450771Y495409D01*
X451871D01*
Y492835D01*
D02*
G37*
G36*
X450771Y493641D02*
X450875Y493618D01*
X450967Y493578D01*
X451042Y493537D01*
X451105Y493497D01*
X451152Y493457D01*
X451175Y493434D01*
X451186Y493422D01*
X451255Y493330D01*
X451307Y493232D01*
X451342Y493128D01*
X451370Y493031D01*
X451382Y492944D01*
X451388Y492904D01*
Y492869D01*
X451393Y492846D01*
Y492823D01*
Y492812D01*
Y492806D01*
X451382Y492662D01*
X451359Y492535D01*
X451324Y492420D01*
X451290Y492328D01*
X451249Y492259D01*
X451215Y492207D01*
X451192Y492172D01*
X451180Y492161D01*
X451100Y492080D01*
X451013Y492023D01*
X450927Y491982D01*
X450852Y491953D01*
X450777Y491936D01*
X450725Y491930D01*
X450702Y491925D01*
X450673D01*
X450599Y491930D01*
X450529Y491942D01*
X450460Y491959D01*
X450403Y491982D01*
X450357Y491999D01*
X450322Y492017D01*
X450293Y492028D01*
X450287Y492034D01*
X450224Y492080D01*
X450167Y492138D01*
X450120Y492190D01*
X450080Y492247D01*
X450046Y492293D01*
X450023Y492334D01*
X450011Y492357D01*
X450005Y492368D01*
X449971Y492455D01*
X449948Y492535D01*
X449930Y492610D01*
X449919Y492685D01*
X449913Y492743D01*
X449907Y492789D01*
Y492817D01*
Y492829D01*
X449919Y492961D01*
X449942Y493077D01*
X449976Y493180D01*
X450017Y493267D01*
X450057Y493330D01*
X450092Y493382D01*
X450115Y493411D01*
X450126Y493422D01*
X450213Y493497D01*
X450299Y493555D01*
X450391Y493595D01*
X450472Y493624D01*
X450547Y493641D01*
X450604Y493647D01*
X450627Y493653D01*
X450656D01*
X450771Y493641D01*
D02*
G37*
G36*
X475073Y492760D02*
X475027Y492616D01*
X474981Y492495D01*
X474946Y492391D01*
X474923Y492305D01*
X474900Y492241D01*
X474883Y492195D01*
X474877Y492167D01*
X474871Y492155D01*
X474848Y492230D01*
X474819Y492322D01*
X474791Y492414D01*
X474762Y492506D01*
X474733Y492587D01*
X474710Y492650D01*
X474704Y492679D01*
X474698Y492697D01*
X474693Y492708D01*
Y492714D01*
X473794Y495392D01*
X475977D01*
X475073Y492760D01*
D02*
G37*
G36*
X461831Y494943D02*
X461911Y494937D01*
X461975Y494931D01*
X462021Y494926D01*
X462055Y494920D01*
X462073Y494914D01*
X462078D01*
X462147Y494885D01*
X462211Y494857D01*
X462263Y494816D01*
X462309Y494782D01*
X462349Y494747D01*
X462372Y494718D01*
X462389Y494695D01*
X462395Y494690D01*
X462435Y494626D01*
X462464Y494557D01*
X462487Y494488D01*
X462499Y494424D01*
X462510Y494367D01*
X462516Y494321D01*
Y494292D01*
Y494280D01*
X462504Y494165D01*
X462481Y494062D01*
X462453Y493975D01*
X462412Y493906D01*
X462372Y493849D01*
X462343Y493808D01*
X462320Y493779D01*
X462309Y493774D01*
X462268Y493745D01*
X462222Y493716D01*
X462119Y493670D01*
X462003Y493641D01*
X461888Y493618D01*
X461785Y493607D01*
X461744Y493601D01*
X461704D01*
X461669Y493595D01*
X460650D01*
Y494949D01*
X461727D01*
X461831Y494943D01*
D02*
G37*
G36*
X445397Y492938D02*
X444885D01*
Y495386D01*
X445397D01*
Y492938D01*
D02*
G37*
G36*
X444418D02*
X443231D01*
X444418Y494632D01*
Y492938D01*
D02*
G37*
G36*
X440087Y492956D02*
X440046Y492789D01*
X440006Y492633D01*
X439977Y492489D01*
X439948Y492368D01*
X439937Y492316D01*
X439925Y492270D01*
X439920Y492230D01*
X439908Y492195D01*
X439902Y492167D01*
Y492149D01*
X439896Y492138D01*
Y492132D01*
X439856Y492368D01*
X439810Y492604D01*
X439758Y492835D01*
X439735Y492938D01*
X439712Y493036D01*
X439689Y493128D01*
X439672Y493215D01*
X439649Y493290D01*
X439637Y493353D01*
X439620Y493405D01*
X439614Y493439D01*
X439603Y493468D01*
Y493474D01*
X439061Y495392D01*
X440674D01*
X440087Y492956D01*
D02*
G37*
G36*
X437737Y492835D02*
X437731Y492812D01*
X437725Y492777D01*
X437713Y492731D01*
X437702Y492685D01*
X437673Y492570D01*
X437644Y492449D01*
X437610Y492328D01*
X437598Y492276D01*
X437587Y492230D01*
X437575Y492190D01*
X437569Y492161D01*
X437564Y492138D01*
Y492132D01*
X437535Y492276D01*
X437512Y492414D01*
X437483Y492547D01*
X437460Y492662D01*
X437437Y492760D01*
X437425Y492800D01*
X437420Y492840D01*
X437414Y492864D01*
X437408Y492887D01*
X437402Y492898D01*
Y492904D01*
X436832Y495392D01*
X438456D01*
X437737Y492835D01*
D02*
G37*
G36*
X435098Y492956D02*
X435058Y492789D01*
X435018Y492633D01*
X434989Y492489D01*
X434960Y492368D01*
X434949Y492316D01*
X434937Y492270D01*
X434931Y492230D01*
X434920Y492195D01*
X434914Y492167D01*
Y492149D01*
X434908Y492138D01*
Y492132D01*
X434868Y492368D01*
X434822Y492604D01*
X434770Y492835D01*
X434747Y492938D01*
X434724Y493036D01*
X434701Y493128D01*
X434684Y493215D01*
X434661Y493290D01*
X434649Y493353D01*
X434632Y493405D01*
X434626Y493439D01*
X434615Y493468D01*
Y493474D01*
X434073Y495392D01*
X435686D01*
X435098Y492956D01*
D02*
G37*
G36*
X432748Y492835D02*
X432743Y492812D01*
X432737Y492777D01*
X432725Y492731D01*
X432714Y492685D01*
X432685Y492570D01*
X432656Y492449D01*
X432622Y492328D01*
X432610Y492276D01*
X432599Y492230D01*
X432587Y492190D01*
X432581Y492161D01*
X432576Y492138D01*
Y492132D01*
X432547Y492276D01*
X432524Y492414D01*
X432495Y492547D01*
X432472Y492662D01*
X432449Y492760D01*
X432437Y492800D01*
X432432Y492840D01*
X432426Y492864D01*
X432420Y492887D01*
X432414Y492898D01*
Y492904D01*
X431844Y495392D01*
X433468D01*
X432748Y492835D01*
D02*
G37*
G36*
X430110Y492956D02*
X430070Y492789D01*
X430030Y492633D01*
X430001Y492489D01*
X429972Y492368D01*
X429960Y492316D01*
X429949Y492270D01*
X429943Y492230D01*
X429932Y492195D01*
X429926Y492167D01*
Y492149D01*
X429920Y492138D01*
Y492132D01*
X429880Y492368D01*
X429834Y492604D01*
X429782Y492835D01*
X429759Y492938D01*
X429736Y493036D01*
X429713Y493128D01*
X429696Y493215D01*
X429672Y493290D01*
X429661Y493353D01*
X429644Y493405D01*
X429638Y493439D01*
X429626Y493468D01*
Y493474D01*
X429085Y495392D01*
X430698D01*
X430110Y492956D01*
D02*
G37*
G36*
X427760Y492835D02*
X427754Y492812D01*
X427749Y492777D01*
X427737Y492731D01*
X427726Y492685D01*
X427697Y492570D01*
X427668Y492449D01*
X427633Y492328D01*
X427622Y492276D01*
X427610Y492230D01*
X427599Y492190D01*
X427593Y492161D01*
X427587Y492138D01*
Y492132D01*
X427559Y492276D01*
X427535Y492414D01*
X427507Y492547D01*
X427484Y492662D01*
X427461Y492760D01*
X427449Y492800D01*
X427443Y492840D01*
X427438Y492864D01*
X427432Y492887D01*
X427426Y492898D01*
Y492904D01*
X426856Y495392D01*
X428480D01*
X427760Y492835D01*
D02*
G37*
G36*
X468339Y492806D02*
X467838Y492933D01*
X467792Y492766D01*
X467735Y492616D01*
X467665Y492495D01*
X467602Y492391D01*
X467539Y492316D01*
X467487Y492259D01*
X467452Y492224D01*
X467447Y492218D01*
X467441Y492213D01*
X467326Y492132D01*
X467210Y492074D01*
X467089Y492028D01*
X466980Y491999D01*
X466882Y491982D01*
X466836Y491976D01*
X466801D01*
X466773Y491971D01*
X466732D01*
X466606Y491976D01*
X466485Y491999D01*
X466375Y492028D01*
X466283Y492057D01*
X466202Y492092D01*
X466139Y492115D01*
X466116Y492126D01*
X466099Y492138D01*
X466093Y492143D01*
X466087D01*
X465983Y492218D01*
X465897Y492305D01*
X465822Y492391D01*
X465759Y492483D01*
X465713Y492558D01*
X465684Y492627D01*
X465672Y492650D01*
X465661Y492668D01*
X465655Y492679D01*
Y492685D01*
X465609Y492823D01*
X465575Y492967D01*
X465552Y493111D01*
X465534Y493244D01*
X465528Y493301D01*
X465523Y493353D01*
Y493405D01*
X465517Y493445D01*
Y493480D01*
Y493503D01*
Y493520D01*
Y493526D01*
X465523Y493664D01*
X465534Y493797D01*
X465552Y493918D01*
X465575Y494027D01*
X465598Y494119D01*
X465603Y494160D01*
X465615Y494188D01*
X465621Y494217D01*
X465626Y494234D01*
X465632Y494246D01*
Y494252D01*
X465684Y494378D01*
X465747Y494494D01*
X465816Y494586D01*
X465880Y494666D01*
X465943Y494730D01*
X465995Y494776D01*
X466030Y494805D01*
X466035Y494816D01*
X466041D01*
X466156Y494885D01*
X466277Y494937D01*
X466398Y494978D01*
X466513Y495001D01*
X466617Y495018D01*
X466657Y495023D01*
X466698D01*
X466727Y495029D01*
X466767D01*
X466905Y495023D01*
X467026Y495001D01*
X467135Y494972D01*
X467222Y494937D01*
X467297Y494897D01*
X467349Y494868D01*
X467383Y494845D01*
X467395Y494839D01*
X467487Y494759D01*
X467562Y494666D01*
X467631Y494563D01*
X467683Y494465D01*
X467723Y494378D01*
X467740Y494338D01*
X467758Y494304D01*
X467769Y494275D01*
X467775Y494252D01*
X467781Y494240D01*
Y494234D01*
X468276Y494350D01*
X468207Y494534D01*
X468167Y494620D01*
X468126Y494695D01*
X468080Y494770D01*
X468034Y494839D01*
X467994Y494897D01*
X467948Y494954D01*
X467907Y495001D01*
X467867Y495041D01*
X467827Y495081D01*
X467798Y495110D01*
X467769Y495133D01*
X467752Y495150D01*
X467740Y495156D01*
X467735Y495162D01*
X467660Y495214D01*
X467585Y495260D01*
X467504Y495300D01*
X467423Y495335D01*
X467262Y495386D01*
X467112Y495421D01*
X467043Y495433D01*
X466980Y495438D01*
X466922Y495444D01*
X466876Y495450D01*
X466836Y495456D01*
X468339D01*
Y492806D01*
D02*
G37*
%LPC*%
G36*
X451900Y480697D02*
X451861D01*
X451830Y480689D01*
X451752Y480681D01*
X451650Y480658D01*
X451533Y480611D01*
X451416Y480549D01*
X451291Y480471D01*
X451228Y480416D01*
X451166Y480353D01*
X451150Y480338D01*
X451119Y480291D01*
X451072Y480213D01*
X451018Y480111D01*
X450955Y479986D01*
X450908Y479830D01*
X450877Y479658D01*
X450861Y479463D01*
Y479455D01*
Y479440D01*
Y479416D01*
X450869Y479385D01*
X450877Y479291D01*
X450900Y479182D01*
X450932Y479049D01*
X450986Y478916D01*
X451056Y478791D01*
X451150Y478666D01*
X451166Y478651D01*
X451205Y478619D01*
X451267Y478573D01*
X451353Y478518D01*
X451463Y478455D01*
X451588Y478409D01*
X451728Y478377D01*
X451884Y478362D01*
X451923D01*
X451955Y478370D01*
X452033Y478377D01*
X452134Y478401D01*
X452244Y478440D01*
X452369Y478487D01*
X452486Y478565D01*
X452595Y478666D01*
X452611Y478682D01*
X452642Y478721D01*
X452689Y478791D01*
X452743Y478885D01*
X452790Y479010D01*
X452837Y479151D01*
X452868Y479322D01*
X452884Y479510D01*
Y479518D01*
Y479533D01*
Y479565D01*
X452876Y479604D01*
Y479650D01*
X452868Y479697D01*
X452845Y479822D01*
X452814Y479963D01*
X452759Y480103D01*
X452689Y480244D01*
X452595Y480377D01*
X452579Y480392D01*
X452540Y480424D01*
X452486Y480478D01*
X452400Y480541D01*
X452298Y480595D01*
X452181Y480650D01*
X452048Y480681D01*
X451900Y480697D01*
D02*
G37*
G36*
X302200Y407122D02*
X302177D01*
X302158Y407118D01*
X302112Y407113D01*
X302052Y407099D01*
X301988Y407076D01*
X301914Y407044D01*
X301845Y406998D01*
X301776Y406938D01*
X301767Y406928D01*
X301748Y406906D01*
X301720Y406864D01*
X301688Y406813D01*
X301656Y406744D01*
X301628Y406661D01*
X301610Y406569D01*
X301601Y406463D01*
Y406454D01*
Y406431D01*
X301605Y406394D01*
X301610Y406348D01*
X301619Y406288D01*
X301633Y406228D01*
X301651Y406163D01*
X301679Y406094D01*
X301684Y406085D01*
X301693Y406067D01*
X301711Y406034D01*
X301739Y405997D01*
X301771Y405951D01*
X301808Y405910D01*
X301854Y405864D01*
X301905Y405827D01*
X301909Y405822D01*
X301933Y405813D01*
X301960Y405799D01*
X301997Y405785D01*
X302043Y405767D01*
X302099Y405753D01*
X302154Y405744D01*
X302214Y405739D01*
X302237D01*
X302255Y405744D01*
X302297Y405748D01*
X302357Y405762D01*
X302417Y405785D01*
X302486Y405818D01*
X302555Y405864D01*
X302620Y405928D01*
X302629Y405937D01*
X302647Y405965D01*
X302675Y406007D01*
X302707Y406062D01*
X302735Y406136D01*
X302762Y406228D01*
X302781Y406329D01*
X302790Y406445D01*
Y406449D01*
Y406458D01*
Y406477D01*
X302785Y406495D01*
Y406523D01*
X302781Y406555D01*
X302772Y406624D01*
X302749Y406703D01*
X302721Y406786D01*
X302679Y406864D01*
X302624Y406938D01*
X302615Y406947D01*
X302596Y406965D01*
X302560Y406998D01*
X302509Y407030D01*
X302449Y407062D01*
X302375Y407094D01*
X302292Y407113D01*
X302200Y407122D01*
D02*
G37*
G36*
X308050Y408219D02*
X308027D01*
X308009Y408215D01*
X307962Y408210D01*
X307903Y408192D01*
X307838Y408164D01*
X307769Y408127D01*
X307700Y408072D01*
X307667Y408035D01*
X307640Y407998D01*
Y407994D01*
X307631Y407984D01*
X307621Y407966D01*
X307612Y407943D01*
X307598Y407910D01*
X307580Y407874D01*
X307561Y407823D01*
X307548Y407768D01*
X307529Y407703D01*
X307511Y407629D01*
X307497Y407546D01*
X307478Y407449D01*
X307469Y407348D01*
X307460Y407237D01*
X307451Y407113D01*
Y406979D01*
Y406970D01*
Y406947D01*
Y406910D01*
X307455Y406859D01*
Y406800D01*
X307460Y406730D01*
X307465Y406652D01*
X307474Y406574D01*
X307492Y406408D01*
X307524Y406242D01*
X307543Y406168D01*
X307566Y406099D01*
X307594Y406034D01*
X307621Y405983D01*
Y405979D01*
X307631Y405974D01*
X307654Y405947D01*
X307691Y405905D01*
X307741Y405864D01*
X307806Y405818D01*
X307879Y405776D01*
X307962Y405748D01*
X308009Y405744D01*
X308055Y405739D01*
X308078D01*
X308096Y405744D01*
X308142Y405753D01*
X308202Y405771D01*
X308271Y405799D01*
X308341Y405841D01*
X308377Y405868D01*
X308414Y405905D01*
X308451Y405942D01*
X308483Y405983D01*
Y405988D01*
X308493Y405997D01*
X308502Y406011D01*
X308511Y406034D01*
X308525Y406062D01*
X308539Y406103D01*
X308553Y406149D01*
X308571Y406200D01*
X308589Y406265D01*
X308603Y406334D01*
X308617Y406417D01*
X308631Y406509D01*
X308645Y406610D01*
X308649Y406721D01*
X308659Y406846D01*
Y406979D01*
Y406988D01*
Y407012D01*
Y407048D01*
X308654Y407099D01*
Y407159D01*
X308649Y407228D01*
X308645Y407302D01*
X308635Y407385D01*
X308617Y407551D01*
X308585Y407712D01*
X308566Y407791D01*
X308543Y407860D01*
X308516Y407920D01*
X308483Y407970D01*
Y407975D01*
X308474Y407980D01*
X308451Y408007D01*
X308414Y408049D01*
X308364Y408095D01*
X308299Y408141D01*
X308225Y408182D01*
X308142Y408210D01*
X308096Y408215D01*
X308050Y408219D01*
D02*
G37*
G36*
X299821Y408219D02*
X299798D01*
X299780Y408215D01*
X299734Y408210D01*
X299674Y408192D01*
X299609Y408164D01*
X299540Y408127D01*
X299471Y408072D01*
X299439Y408035D01*
X299411Y407998D01*
Y407994D01*
X299402Y407984D01*
X299393Y407966D01*
X299383Y407943D01*
X299369Y407910D01*
X299351Y407874D01*
X299333Y407823D01*
X299319Y407768D01*
X299300Y407703D01*
X299282Y407629D01*
X299268Y407546D01*
X299250Y407449D01*
X299240Y407348D01*
X299231Y407237D01*
X299222Y407113D01*
Y406979D01*
Y406970D01*
Y406947D01*
Y406910D01*
X299226Y406859D01*
Y406800D01*
X299231Y406730D01*
X299236Y406652D01*
X299245Y406574D01*
X299263Y406408D01*
X299296Y406242D01*
X299314Y406168D01*
X299337Y406099D01*
X299365Y406034D01*
X299393Y405983D01*
Y405979D01*
X299402Y405974D01*
X299425Y405947D01*
X299462Y405905D01*
X299512Y405864D01*
X299577Y405818D01*
X299651Y405776D01*
X299734Y405748D01*
X299780Y405744D01*
X299826Y405739D01*
X299849D01*
X299867Y405744D01*
X299913Y405753D01*
X299973Y405771D01*
X300043Y405799D01*
X300112Y405841D01*
X300149Y405868D01*
X300185Y405905D01*
X300222Y405942D01*
X300255Y405983D01*
Y405988D01*
X300264Y405997D01*
X300273Y406011D01*
X300282Y406034D01*
X300296Y406062D01*
X300310Y406103D01*
X300324Y406149D01*
X300342Y406200D01*
X300361Y406265D01*
X300374Y406334D01*
X300388Y406417D01*
X300402Y406509D01*
X300416Y406610D01*
X300420Y406721D01*
X300430Y406846D01*
Y406979D01*
Y406988D01*
Y407012D01*
Y407048D01*
X300425Y407099D01*
Y407159D01*
X300420Y407228D01*
X300416Y407302D01*
X300407Y407385D01*
X300388Y407551D01*
X300356Y407712D01*
X300338Y407791D01*
X300314Y407860D01*
X300287Y407920D01*
X300255Y407970D01*
Y407975D01*
X300245Y407980D01*
X300222Y408007D01*
X300185Y408049D01*
X300135Y408095D01*
X300070Y408141D01*
X299996Y408182D01*
X299913Y408210D01*
X299867Y408215D01*
X299821Y408219D01*
D02*
G37*
%LPD*%
D10*
X338632Y480710D02*
G03*
X338632Y480710I-16732J0D01*
G01*
X354440Y489812D02*
X355096Y490468D01*
X356408D01*
X357064Y489812D01*
Y487188D01*
X356408Y486532D01*
X355096D01*
X354440Y487188D01*
Y489812D01*
X358376Y486532D02*
Y487188D01*
X359032D01*
Y486532D01*
X358376D01*
X361656D02*
X362968D01*
X362312D01*
Y490468D01*
X361656Y489812D01*
X364936Y489156D02*
Y487188D01*
X365592Y486532D01*
X367560D01*
Y489156D01*
X355736Y475812D02*
X355080Y476468D01*
X353768D01*
X353113Y475812D01*
Y473188D01*
X353768Y472532D01*
X355080D01*
X355736Y473188D01*
X357048Y475812D02*
X357704Y476468D01*
X359016D01*
X359672Y475812D01*
Y473188D01*
X359016Y472532D01*
X357704D01*
X357048Y473188D01*
Y475812D01*
X360984Y472532D02*
X362296D01*
X361640D01*
Y476468D01*
X360984Y475812D01*
X364264Y476468D02*
Y472532D01*
X366232D01*
X366887Y473188D01*
Y473844D01*
X366232Y474500D01*
X364264D01*
X366232D01*
X366887Y475156D01*
Y475812D01*
X366232Y476468D01*
X364264D01*
X354440Y495812D02*
X355096Y496468D01*
X356408D01*
X357064Y495812D01*
Y493188D01*
X356408Y492532D01*
X355096D01*
X354440Y493188D01*
Y495812D01*
X358376Y492532D02*
Y493188D01*
X359032D01*
Y492532D01*
X358376D01*
X361656D02*
X362968D01*
X362312D01*
Y496468D01*
X361656Y495812D01*
X364936Y495156D02*
Y493188D01*
X365592Y492532D01*
X367560D01*
Y495156D01*
X416968Y443408D02*
Y444720D01*
Y444064D01*
X413032D01*
X413688Y443408D01*
Y446688D02*
X413032Y447344D01*
Y448656D01*
X413688Y449312D01*
X416312D01*
X416968Y448656D01*
Y447344D01*
X416312Y446688D01*
X413688D01*
X416968Y450624D02*
X413032D01*
X415656D02*
X414344Y452592D01*
X415656Y450624D02*
X416968Y452592D01*
X398784Y489812D02*
X399440Y490468D01*
X400752D01*
X401408Y489812D01*
Y489156D01*
X400752Y488500D01*
X400096D01*
X400752D01*
X401408Y487844D01*
Y487188D01*
X400752Y486532D01*
X399440D01*
X398784Y487188D01*
X402720Y489812D02*
X403376Y490468D01*
X404688D01*
X405344Y489812D01*
Y489156D01*
X404688Y488500D01*
X404032D01*
X404688D01*
X405344Y487844D01*
Y487188D01*
X404688Y486532D01*
X403376D01*
X402720Y487188D01*
X406656Y489812D02*
X407312Y490468D01*
X408624D01*
X409280Y489812D01*
Y487188D01*
X408624Y486532D01*
X407312D01*
X406656Y487188D01*
Y489812D01*
X410592Y486532D02*
Y490468D01*
X412560D01*
X413215Y489812D01*
Y488500D01*
X412560Y487844D01*
X410592D01*
X411904D02*
X413215Y486532D01*
X359113Y407532D02*
X360424D01*
X359768D01*
Y411468D01*
X359113Y410812D01*
X362392D02*
X363048Y411468D01*
X364360D01*
X365016Y410812D01*
Y408188D01*
X364360Y407532D01*
X363048D01*
X362392Y408188D01*
Y410812D01*
X366328D02*
X366984Y411468D01*
X368296D01*
X368952Y410812D01*
Y408188D01*
X368296Y407532D01*
X366984D01*
X366328Y408188D01*
Y410812D01*
X370264Y407532D02*
Y411468D01*
X372232D01*
X372887Y410812D01*
Y409500D01*
X372232Y408844D01*
X370264D01*
X371576D02*
X372887Y407532D01*
X332468Y474408D02*
Y471784D01*
X329844Y474408D01*
X329188D01*
X328532Y473752D01*
Y472440D01*
X329188Y471784D01*
X332468Y478344D02*
Y475720D01*
X329844Y478344D01*
X329188D01*
X328532Y477688D01*
Y476376D01*
X329188Y475720D01*
Y479656D02*
X328532Y480312D01*
Y481624D01*
X329188Y482280D01*
X331812D01*
X332468Y481624D01*
Y480312D01*
X331812Y479656D01*
X329188D01*
X329844Y483592D02*
X331812D01*
X332468Y484248D01*
Y486215D01*
X329844D01*
X356468Y443408D02*
Y444720D01*
Y444064D01*
X352532D01*
X353188Y443408D01*
Y446688D02*
X352532Y447344D01*
Y448656D01*
X353188Y449312D01*
X355812D01*
X356468Y448656D01*
Y447344D01*
X355812Y446688D01*
X353188D01*
X356468Y450624D02*
X352532D01*
X355156D02*
X353844Y452592D01*
X355156Y450624D02*
X356468Y452592D01*
X372468Y443408D02*
Y444720D01*
Y444064D01*
X368532D01*
X369188Y443408D01*
Y446688D02*
X368532Y447344D01*
Y448656D01*
X369188Y449312D01*
X371812D01*
X372468Y448656D01*
Y447344D01*
X371812Y446688D01*
X369188D01*
X372468Y450624D02*
X368532D01*
X371156D02*
X369844Y452592D01*
X371156Y450624D02*
X372468Y452592D01*
D11*
X312792Y435134D02*
G03*
X312792Y435134I-492J0D01*
G01*
D12*
X332344Y455510D02*
G03*
X332292Y446908I4576J-4329D01*
G01*
X341548D02*
G03*
X341496Y455510I-4628J4273D01*
G01*
X384312D02*
G03*
X384260Y446908I4576J-4329D01*
G01*
X393516D02*
G03*
X393464Y455510I-4628J4273D01*
G01*
X438170D02*
G03*
X438119Y446908I4576J-4329D01*
G01*
X447374D02*
G03*
X447323Y455510I-4628J4273D01*
G01*
X371500Y488300D02*
X372400D01*
X350600D02*
X351500D01*
X371500Y485300D02*
Y488300D01*
X351500Y485300D02*
X371500D01*
X351500D02*
Y491300D01*
X371500D01*
Y488300D02*
Y491300D01*
X415500Y458400D02*
Y462400D01*
Y430400D02*
Y434400D01*
X419500D02*
Y458400D01*
X411500D02*
X419500D01*
X411500Y434400D02*
Y458400D01*
Y434400D02*
X419500D01*
X416300Y488300D02*
X417200D01*
X395400D02*
X396300D01*
X416300Y485300D02*
Y488300D01*
X396300Y485300D02*
X416300D01*
X396300D02*
Y491300D01*
X416300D01*
Y488300D02*
Y491300D01*
X375800Y409400D02*
X376700D01*
X354900D02*
X355800D01*
X375800Y406400D02*
Y409400D01*
X355800Y406400D02*
X375800D01*
X355800D02*
Y412400D01*
X375800D01*
Y409400D02*
Y412400D01*
X312156Y493801D02*
X331841D01*
X306788Y440705D02*
Y460390D01*
X307477D01*
X306788Y440705D02*
X307477D01*
X325686Y442673D02*
Y458421D01*
X317812D02*
X325686D01*
X317812Y442673D02*
X325686D01*
X317123Y460390D02*
X317812D01*
X317123Y440705D02*
X317812D01*
Y458421D02*
Y460390D01*
X317812Y440705D02*
Y442673D01*
X354600Y458400D02*
Y462400D01*
Y430400D02*
Y434400D01*
X358600D02*
Y458400D01*
X350600D02*
X358600D01*
X350600Y434400D02*
Y458400D01*
Y434400D02*
X358600D01*
X370200Y458400D02*
Y462400D01*
Y430400D02*
Y434400D01*
X374200D02*
Y458400D01*
X366200D02*
X374200D01*
X366200Y434400D02*
Y458400D01*
Y434400D02*
X374200D01*
X335920Y439555D02*
X337920D01*
X336920Y437555D02*
Y441555D01*
X337920Y439555D02*
X338920D01*
X334920D02*
X335920D01*
X387888D02*
X389888D01*
X388888Y437555D02*
Y441555D01*
X389888Y439555D02*
X390888D01*
X386888D02*
X387888D01*
X441747D02*
X443747D01*
X442746Y437555D02*
Y441555D01*
X443747Y439555D02*
X444746D01*
X440746D02*
X441747D01*
D13*
X486500Y401126D02*
G03*
X494374Y409000I0J7874D01*
G01*
X264500D02*
G03*
X272374Y401126I7874J0D01*
G01*
X494424Y493057D02*
G03*
X487481Y500000I-6943J0D01*
G01*
X272400Y499974D02*
G03*
X264526Y492100I0J-7874D01*
G01*
X311300Y493300D02*
X332100D01*
X312748Y494440D02*
X331048D01*
X319141Y496915D02*
X324700D01*
X316841Y496415D02*
X326900D01*
X315340Y495815D02*
X328400D01*
X313841Y495115D02*
X330000D01*
X312700Y494400D02*
X331000D01*
X264500Y408700D02*
Y492200D01*
X272400Y401100D02*
X486500D01*
X494400Y408900D02*
Y492000D01*
Y492100D02*
X494402Y493045D01*
X272500Y500000D02*
X487481D01*
D14*
X486500Y401126D02*
G03*
X494374Y409000I0J7874D01*
G01*
X494424Y493057D02*
G03*
X487481Y500000I-6943J0D01*
G01*
X272400Y499974D02*
G03*
X264526Y492100I0J-7874D01*
G01*
X264500Y409000D02*
G03*
X272374Y401126I7874J0D01*
G01*
X486500Y401100D01*
Y401126D01*
X494374Y409000D02*
X494400Y408900D01*
Y492100D01*
X494402Y493045D01*
X494424Y493057D01*
X272500Y500000D02*
X487481D01*
X272400Y499974D02*
X272500Y500000D01*
X264500Y492200D02*
X264526Y492100D01*
X264500Y409000D02*
Y492200D01*
M02*
