G04*
G04 #@! TF.GenerationSoftware,Altium Limited,Altium Designer,20.0.10 (225)*
G04*
G04 Layer_Color=32896*
%FSLAX25Y25*%
%MOIN*%
G70*
G01*
G75*
%ADD10C,0.00591*%
%ADD14C,0.01181*%
%ADD36R,0.05000X0.05000*%
G36*
X276595Y477460D02*
X275249D01*
Y476944D01*
X275253Y476898D01*
Y476861D01*
X275258Y476828D01*
X275263Y476805D01*
Y476787D01*
X275267Y476778D01*
Y476773D01*
X275290Y476704D01*
X275318Y476649D01*
X275332Y476626D01*
X275341Y476607D01*
X275346Y476598D01*
X275350Y476593D01*
X275373Y476556D01*
X275406Y476524D01*
X275470Y476455D01*
X275502Y476432D01*
X275530Y476409D01*
X275548Y476395D01*
X275553Y476391D01*
X275613Y476344D01*
X275677Y476298D01*
X275747Y476248D01*
X275816Y476202D01*
X275876Y476160D01*
X275922Y476128D01*
X275940Y476119D01*
X275954Y476109D01*
X275963Y476100D01*
X275968D01*
X276595Y475699D01*
Y475197D01*
X275774Y475722D01*
X275687Y475782D01*
X275608Y475842D01*
X275539Y475897D01*
X275479Y475948D01*
X275433Y475989D01*
X275396Y476022D01*
X275378Y476045D01*
X275369Y476054D01*
X275341Y476086D01*
X275313Y476128D01*
X275263Y476206D01*
X275244Y476238D01*
X275230Y476266D01*
X275221Y476285D01*
X275217Y476294D01*
X275203Y476215D01*
X275189Y476142D01*
X275170Y476073D01*
X275147Y476013D01*
X275124Y475953D01*
X275101Y475902D01*
X275078Y475851D01*
X275055Y475810D01*
X275032Y475773D01*
X275014Y475741D01*
X274991Y475713D01*
X274977Y475690D01*
X274958Y475676D01*
X274949Y475662D01*
X274940Y475653D01*
X274898Y475616D01*
X274852Y475584D01*
X274760Y475528D01*
X274673Y475492D01*
X274585Y475469D01*
X274511Y475450D01*
X274479Y475446D01*
X274451D01*
X274428Y475441D01*
X274410D01*
X274400D01*
X274396D01*
X274304Y475446D01*
X274221Y475459D01*
X274142Y475482D01*
X274073Y475505D01*
X274018Y475528D01*
X273976Y475552D01*
X273949Y475565D01*
X273939Y475570D01*
X273866Y475621D01*
X273806Y475676D01*
X273755Y475731D01*
X273718Y475787D01*
X273686Y475833D01*
X273663Y475870D01*
X273654Y475897D01*
X273649Y475902D01*
Y475907D01*
X273635Y475948D01*
X273621Y475994D01*
X273603Y476091D01*
X273585Y476192D01*
X273575Y476289D01*
X273571Y476381D01*
Y476418D01*
X273566Y476455D01*
Y477861D01*
X276595D01*
Y477460D01*
D02*
G37*
G36*
X275618Y474980D02*
X275710Y474971D01*
X275797Y474957D01*
X275876Y474938D01*
X275950Y474920D01*
X276019Y474897D01*
X276079Y474869D01*
X276134Y474842D01*
X276185Y474819D01*
X276231Y474791D01*
X276268Y474768D01*
X276295Y474745D01*
X276318Y474731D01*
X276337Y474717D01*
X276346Y474708D01*
X276350Y474703D01*
X276401Y474648D01*
X276447Y474588D01*
X276489Y474528D01*
X276521Y474464D01*
X276549Y474404D01*
X276572Y474339D01*
X276609Y474219D01*
X276623Y474159D01*
X276632Y474109D01*
X276636Y474062D01*
X276641Y474021D01*
X276646Y473989D01*
Y473943D01*
X276636Y473804D01*
X276618Y473685D01*
X276586Y473574D01*
X276553Y473486D01*
X276535Y473445D01*
X276521Y473413D01*
X276503Y473385D01*
X276489Y473362D01*
X276480Y473339D01*
X276470Y473325D01*
X276461Y473320D01*
Y473316D01*
X276387Y473233D01*
X276300Y473159D01*
X276212Y473104D01*
X276129Y473058D01*
X276051Y473021D01*
X276019Y473007D01*
X275991Y472998D01*
X275968Y472988D01*
X275950Y472984D01*
X275940Y472979D01*
X275936D01*
X275885Y473362D01*
X275968Y473399D01*
X276042Y473436D01*
X276102Y473472D01*
X276148Y473509D01*
X276189Y473542D01*
X276212Y473569D01*
X276231Y473588D01*
X276235Y473592D01*
X276272Y473648D01*
X276295Y473708D01*
X276314Y473768D01*
X276327Y473823D01*
X276337Y473869D01*
X276341Y473906D01*
Y473943D01*
X276332Y474040D01*
X276314Y474127D01*
X276281Y474205D01*
X276244Y474275D01*
X276212Y474325D01*
X276180Y474367D01*
X276162Y474390D01*
X276152Y474399D01*
X276074Y474459D01*
X275982Y474510D01*
X275889Y474542D01*
X275802Y474570D01*
X275719Y474588D01*
X275687Y474593D01*
X275654Y474597D01*
X275631D01*
X275608Y474602D01*
X275599D01*
X275594D01*
Y472970D01*
X275553Y472965D01*
X275521D01*
X275502D01*
X275498D01*
X275396Y472970D01*
X275304Y472979D01*
X275217Y472993D01*
X275138Y473007D01*
X275060Y473030D01*
X274991Y473053D01*
X274931Y473081D01*
X274871Y473104D01*
X274820Y473131D01*
X274779Y473159D01*
X274742Y473182D01*
X274709Y473201D01*
X274686Y473219D01*
X274668Y473233D01*
X274659Y473242D01*
X274654Y473247D01*
X274599Y473302D01*
X274553Y473357D01*
X274511Y473417D01*
X274479Y473477D01*
X274447Y473537D01*
X274424Y473597D01*
X274387Y473708D01*
X274373Y473763D01*
X274364Y473809D01*
X274359Y473855D01*
X274354Y473892D01*
X274350Y473924D01*
Y473966D01*
X274354Y474049D01*
X274364Y474127D01*
X274377Y474201D01*
X274396Y474270D01*
X274424Y474339D01*
X274447Y474399D01*
X274474Y474454D01*
X274502Y474505D01*
X274534Y474551D01*
X274562Y474588D01*
X274585Y474625D01*
X274608Y474653D01*
X274631Y474676D01*
X274645Y474689D01*
X274654Y474699D01*
X274659Y474703D01*
X274719Y474754D01*
X274783Y474795D01*
X274852Y474832D01*
X274921Y474865D01*
X274995Y474892D01*
X275064Y474915D01*
X275203Y474948D01*
X275267Y474962D01*
X275327Y474971D01*
X275382Y474975D01*
X275429Y474980D01*
X275465Y474985D01*
X275498D01*
X275516D01*
X275521D01*
X275618Y474980D01*
D02*
G37*
G36*
X275687Y471518D02*
X275313D01*
Y472656D01*
X275687D01*
Y471518D01*
D02*
G37*
G36*
X275627Y471237D02*
X275737Y471223D01*
X275839Y471204D01*
X275926Y471181D01*
X276000Y471158D01*
X276032Y471149D01*
X276056Y471140D01*
X276074Y471131D01*
X276088Y471126D01*
X276097Y471121D01*
X276102D01*
X276194Y471071D01*
X276272Y471020D01*
X276341Y470960D01*
X276397Y470909D01*
X276443Y470859D01*
X276475Y470822D01*
X276498Y470794D01*
X276503Y470789D01*
Y470785D01*
X276549Y470702D01*
X276586Y470614D01*
X276609Y470536D01*
X276627Y470458D01*
X276636Y470398D01*
X276641Y470347D01*
X276646Y470328D01*
Y470301D01*
X276641Y470227D01*
X276632Y470158D01*
X276618Y470093D01*
X276595Y470033D01*
X276572Y469983D01*
X276544Y469932D01*
X276512Y469886D01*
X276484Y469844D01*
X276452Y469807D01*
X276424Y469775D01*
X276397Y469748D01*
X276374Y469729D01*
X276350Y469711D01*
X276337Y469697D01*
X276327Y469692D01*
X276323Y469688D01*
X276595D01*
Y469342D01*
X273566D01*
Y469715D01*
X274654D01*
X274608Y469752D01*
X274562Y469794D01*
X274525Y469840D01*
X274497Y469877D01*
X274470Y469913D01*
X274451Y469941D01*
X274442Y469960D01*
X274437Y469969D01*
X274410Y470029D01*
X274387Y470089D01*
X274373Y470149D01*
X274359Y470199D01*
X274354Y470250D01*
X274350Y470287D01*
Y470319D01*
X274354Y470416D01*
X274373Y470508D01*
X274396Y470591D01*
X274419Y470665D01*
X274447Y470725D01*
X274470Y470771D01*
X274488Y470799D01*
X274493Y470803D01*
Y470808D01*
X274553Y470886D01*
X274617Y470951D01*
X274686Y471006D01*
X274756Y471052D01*
X274815Y471089D01*
X274862Y471112D01*
X274880Y471121D01*
X274894Y471131D01*
X274903Y471135D01*
X274908D01*
X275009Y471172D01*
X275115Y471195D01*
X275212Y471214D01*
X275304Y471227D01*
X275382Y471237D01*
X275419D01*
X275447Y471241D01*
X275470D01*
X275488D01*
X275498D01*
X275502D01*
X275627Y471237D01*
D02*
G37*
G36*
X275618Y468872D02*
X275710Y468862D01*
X275797Y468849D01*
X275876Y468830D01*
X275950Y468812D01*
X276019Y468789D01*
X276079Y468761D01*
X276134Y468733D01*
X276185Y468710D01*
X276231Y468683D01*
X276268Y468660D01*
X276295Y468637D01*
X276318Y468623D01*
X276337Y468609D01*
X276346Y468600D01*
X276350Y468595D01*
X276401Y468540D01*
X276447Y468480D01*
X276489Y468420D01*
X276521Y468355D01*
X276549Y468295D01*
X276572Y468231D01*
X276609Y468111D01*
X276623Y468051D01*
X276632Y468000D01*
X276636Y467954D01*
X276641Y467913D01*
X276646Y467880D01*
Y467834D01*
X276636Y467696D01*
X276618Y467576D01*
X276586Y467466D01*
X276553Y467378D01*
X276535Y467337D01*
X276521Y467304D01*
X276503Y467277D01*
X276489Y467254D01*
X276480Y467231D01*
X276470Y467217D01*
X276461Y467212D01*
Y467207D01*
X276387Y467125D01*
X276300Y467051D01*
X276212Y466995D01*
X276129Y466949D01*
X276051Y466912D01*
X276019Y466899D01*
X275991Y466889D01*
X275968Y466880D01*
X275950Y466876D01*
X275940Y466871D01*
X275936D01*
X275885Y467254D01*
X275968Y467290D01*
X276042Y467327D01*
X276102Y467364D01*
X276148Y467401D01*
X276189Y467433D01*
X276212Y467461D01*
X276231Y467479D01*
X276235Y467484D01*
X276272Y467539D01*
X276295Y467599D01*
X276314Y467659D01*
X276327Y467715D01*
X276337Y467761D01*
X276341Y467798D01*
Y467834D01*
X276332Y467931D01*
X276314Y468019D01*
X276281Y468097D01*
X276244Y468166D01*
X276212Y468217D01*
X276180Y468258D01*
X276162Y468282D01*
X276152Y468291D01*
X276074Y468351D01*
X275982Y468401D01*
X275889Y468434D01*
X275802Y468461D01*
X275719Y468480D01*
X275687Y468484D01*
X275654Y468489D01*
X275631D01*
X275608Y468494D01*
X275599D01*
X275594D01*
Y466862D01*
X275553Y466857D01*
X275521D01*
X275502D01*
X275498D01*
X275396Y466862D01*
X275304Y466871D01*
X275217Y466885D01*
X275138Y466899D01*
X275060Y466922D01*
X274991Y466945D01*
X274931Y466972D01*
X274871Y466995D01*
X274820Y467023D01*
X274779Y467051D01*
X274742Y467074D01*
X274709Y467092D01*
X274686Y467111D01*
X274668Y467125D01*
X274659Y467134D01*
X274654Y467138D01*
X274599Y467194D01*
X274553Y467249D01*
X274511Y467309D01*
X274479Y467369D01*
X274447Y467429D01*
X274424Y467489D01*
X274387Y467599D01*
X274373Y467655D01*
X274364Y467701D01*
X274359Y467747D01*
X274354Y467784D01*
X274350Y467816D01*
Y467858D01*
X274354Y467940D01*
X274364Y468019D01*
X274377Y468093D01*
X274396Y468162D01*
X274424Y468231D01*
X274447Y468291D01*
X274474Y468346D01*
X274502Y468397D01*
X274534Y468443D01*
X274562Y468480D01*
X274585Y468517D01*
X274608Y468544D01*
X274631Y468567D01*
X274645Y468581D01*
X274654Y468590D01*
X274659Y468595D01*
X274719Y468646D01*
X274783Y468687D01*
X274852Y468724D01*
X274921Y468756D01*
X274995Y468784D01*
X275064Y468807D01*
X275203Y468839D01*
X275267Y468853D01*
X275327Y468862D01*
X275382Y468867D01*
X275429Y468872D01*
X275465Y468876D01*
X275498D01*
X275516D01*
X275521D01*
X275618Y468872D01*
D02*
G37*
G36*
X276065Y466525D02*
X276171Y466484D01*
X276263Y466438D01*
X276337Y466392D01*
X276397Y466345D01*
X276438Y466308D01*
X276461Y466281D01*
X276470Y466276D01*
Y466272D01*
X276503Y466225D01*
X276530Y466179D01*
X276572Y466073D01*
X276604Y465967D01*
X276623Y465861D01*
X276636Y465765D01*
X276641Y465723D01*
Y465686D01*
X276646Y465659D01*
Y465617D01*
X276641Y465525D01*
X276632Y465437D01*
X276618Y465359D01*
X276600Y465290D01*
X276586Y465234D01*
X276572Y465193D01*
X276563Y465165D01*
X276558Y465156D01*
X276521Y465082D01*
X276480Y465018D01*
X276438Y464962D01*
X276397Y464921D01*
X276360Y464884D01*
X276332Y464856D01*
X276314Y464843D01*
X276304Y464838D01*
X276240Y464801D01*
X276180Y464773D01*
X276120Y464755D01*
X276065Y464741D01*
X276023Y464732D01*
X275986Y464727D01*
X275963D01*
X275954D01*
X275885Y464732D01*
X275825Y464741D01*
X275770Y464755D01*
X275724Y464773D01*
X275687Y464792D01*
X275659Y464806D01*
X275641Y464815D01*
X275636Y464819D01*
X275590Y464856D01*
X275553Y464893D01*
X275516Y464935D01*
X275488Y464976D01*
X275470Y465008D01*
X275456Y465036D01*
X275447Y465055D01*
X275442Y465064D01*
X275429Y465096D01*
X275415Y465133D01*
X275387Y465216D01*
X275355Y465308D01*
X275327Y465400D01*
X275304Y465483D01*
X275295Y465520D01*
X275286Y465553D01*
X275276Y465580D01*
X275272Y465599D01*
X275267Y465612D01*
Y465617D01*
X275253Y465668D01*
X275239Y465709D01*
X275221Y465783D01*
X275203Y465843D01*
X275189Y465884D01*
X275180Y465917D01*
X275175Y465935D01*
X275170Y465944D01*
Y465949D01*
X275157Y465981D01*
X275138Y466013D01*
X275124Y466037D01*
X275106Y466055D01*
X275083Y466083D01*
X275078Y466087D01*
X275074Y466092D01*
X275027Y466115D01*
X274986Y466129D01*
X274968D01*
X274954Y466133D01*
X274944D01*
X274940D01*
X274898Y466129D01*
X274862Y466115D01*
X274825Y466101D01*
X274797Y466078D01*
X274774Y466060D01*
X274756Y466046D01*
X274746Y466032D01*
X274742Y466027D01*
X274714Y465981D01*
X274691Y465921D01*
X274677Y465861D01*
X274663Y465801D01*
X274659Y465746D01*
X274654Y465700D01*
Y465659D01*
X274659Y465580D01*
X274668Y465516D01*
X274686Y465456D01*
X274700Y465410D01*
X274719Y465373D01*
X274737Y465345D01*
X274746Y465327D01*
X274751Y465322D01*
X274788Y465280D01*
X274834Y465248D01*
X274875Y465221D01*
X274917Y465202D01*
X274954Y465188D01*
X274986Y465179D01*
X275004Y465174D01*
X275014D01*
X274963Y464810D01*
X274889Y464829D01*
X274825Y464847D01*
X274765Y464870D01*
X274719Y464889D01*
X274682Y464912D01*
X274654Y464930D01*
X274636Y464939D01*
X274631Y464944D01*
X274585Y464981D01*
X274543Y465027D01*
X274511Y465078D01*
X274479Y465124D01*
X274460Y465165D01*
X274442Y465202D01*
X274433Y465225D01*
X274428Y465230D01*
Y465234D01*
X274400Y465308D01*
X274382Y465386D01*
X274368Y465460D01*
X274359Y465534D01*
X274354Y465594D01*
X274350Y465645D01*
Y465751D01*
X274359Y465811D01*
X274364Y465861D01*
X274373Y465912D01*
X274382Y465953D01*
X274387Y465981D01*
X274396Y466000D01*
Y466009D01*
X274414Y466060D01*
X274433Y466106D01*
X274451Y466147D01*
X274470Y466179D01*
X274483Y466207D01*
X274497Y466225D01*
X274502Y466239D01*
X274506Y466244D01*
X274539Y466286D01*
X274576Y466322D01*
X274608Y466355D01*
X274640Y466378D01*
X274668Y466401D01*
X274691Y466414D01*
X274709Y466424D01*
X274714Y466428D01*
X274760Y466451D01*
X274811Y466465D01*
X274857Y466479D01*
X274898Y466484D01*
X274931Y466488D01*
X274963Y466493D01*
X274981D01*
X274986D01*
X275046Y466488D01*
X275101Y466479D01*
X275152Y466470D01*
X275193Y466451D01*
X275230Y466438D01*
X275258Y466428D01*
X275276Y466419D01*
X275281Y466414D01*
X275327Y466382D01*
X275369Y466341D01*
X275406Y466304D01*
X275433Y466262D01*
X275456Y466230D01*
X275475Y466202D01*
X275484Y466179D01*
X275488Y466175D01*
X275502Y466143D01*
X275516Y466106D01*
X275548Y466018D01*
X275576Y465921D01*
X275604Y465829D01*
X275631Y465741D01*
X275641Y465705D01*
X275650Y465668D01*
X275659Y465640D01*
X275664Y465622D01*
X275668Y465608D01*
Y465603D01*
X275682Y465548D01*
X275696Y465497D01*
X275705Y465456D01*
X275719Y465414D01*
X275742Y465350D01*
X275756Y465299D01*
X275774Y465262D01*
X275783Y465239D01*
X275788Y465225D01*
X275793Y465221D01*
X275820Y465184D01*
X275853Y465156D01*
X275889Y465138D01*
X275917Y465124D01*
X275950Y465114D01*
X275968Y465110D01*
X275986D01*
X275991D01*
X276042Y465114D01*
X276088Y465128D01*
X276134Y465151D01*
X276171Y465170D01*
X276198Y465193D01*
X276221Y465216D01*
X276235Y465230D01*
X276240Y465234D01*
X276272Y465285D01*
X276300Y465345D01*
X276318Y465410D01*
X276327Y465474D01*
X276337Y465529D01*
X276341Y465576D01*
Y465617D01*
X276337Y465705D01*
X276323Y465788D01*
X276304Y465852D01*
X276281Y465912D01*
X276263Y465953D01*
X276244Y465986D01*
X276231Y466009D01*
X276226Y466013D01*
X276175Y466060D01*
X276120Y466101D01*
X276065Y466129D01*
X276009Y466152D01*
X275959Y466166D01*
X275917Y466179D01*
X275889Y466184D01*
X275885D01*
X275880D01*
X275940Y466553D01*
X276065Y466525D01*
D02*
G37*
G36*
X276595Y463911D02*
X274400D01*
Y464285D01*
X276595D01*
Y463911D01*
D02*
G37*
G36*
X273990D02*
X273566D01*
Y464285D01*
X273990D01*
Y463911D01*
D02*
G37*
G36*
X275571Y463487D02*
X275654Y463483D01*
X275802Y463455D01*
X275871Y463432D01*
X275936Y463413D01*
X275996Y463390D01*
X276051Y463367D01*
X276102Y463344D01*
X276143Y463321D01*
X276180Y463298D01*
X276212Y463280D01*
X276240Y463266D01*
X276258Y463252D01*
X276268Y463247D01*
X276272Y463243D01*
X276327Y463192D01*
X276378Y463141D01*
X276420Y463086D01*
X276457Y463026D01*
X276489Y462971D01*
X276517Y462911D01*
X276540Y462856D01*
X276553Y462800D01*
X276567Y462745D01*
X276576Y462699D01*
X276586Y462653D01*
X276590Y462616D01*
X276595Y462584D01*
Y462542D01*
X276590Y462478D01*
X276581Y462413D01*
X276567Y462353D01*
X276549Y462298D01*
X276503Y462192D01*
X276452Y462104D01*
X276401Y462035D01*
X276374Y462007D01*
X276355Y461980D01*
X276337Y461961D01*
X276323Y461947D01*
X276314Y461943D01*
X276309Y461938D01*
X276374D01*
X276433D01*
X276484D01*
X276535D01*
X276576Y461943D01*
X276618D01*
X276682Y461952D01*
X276729Y461957D01*
X276761Y461961D01*
X276779Y461966D01*
X276784D01*
X276848Y461989D01*
X276908Y462017D01*
X276954Y462044D01*
X276996Y462077D01*
X277028Y462109D01*
X277051Y462132D01*
X277065Y462150D01*
X277070Y462155D01*
X277107Y462210D01*
X277130Y462275D01*
X277148Y462339D01*
X277162Y462404D01*
X277171Y462464D01*
X277176Y462510D01*
Y462551D01*
X277171Y462634D01*
X277157Y462713D01*
X277144Y462777D01*
X277120Y462828D01*
X277102Y462874D01*
X277088Y462902D01*
X277074Y462925D01*
X277070Y462929D01*
X277037Y462966D01*
X277001Y462994D01*
X276959Y463017D01*
X276918Y463035D01*
X276881Y463045D01*
X276853Y463054D01*
X276835Y463059D01*
X276825D01*
X276775Y463418D01*
X276839D01*
X276899Y463409D01*
X277005Y463386D01*
X277097Y463349D01*
X277171Y463307D01*
X277231Y463261D01*
X277273Y463224D01*
X277296Y463197D01*
X277305Y463192D01*
Y463188D01*
X277365Y463091D01*
X277411Y462985D01*
X277438Y462879D01*
X277462Y462777D01*
X277475Y462690D01*
X277480Y462648D01*
Y462616D01*
X277485Y462588D01*
Y462551D01*
X277480Y462431D01*
X277466Y462325D01*
X277443Y462229D01*
X277420Y462146D01*
X277402Y462081D01*
X277379Y462035D01*
X277369Y462017D01*
X277365Y462003D01*
X277360Y461998D01*
Y461994D01*
X277309Y461915D01*
X277254Y461846D01*
X277199Y461791D01*
X277144Y461745D01*
X277093Y461712D01*
X277056Y461685D01*
X277028Y461671D01*
X277024Y461666D01*
X277019D01*
X276977Y461648D01*
X276927Y461629D01*
X276816Y461606D01*
X276696Y461588D01*
X276581Y461574D01*
X276526Y461569D01*
X276470Y461565D01*
X276424D01*
X276383Y461560D01*
X276346D01*
X276323D01*
X276304D01*
X276300D01*
X274400D01*
Y461901D01*
X274668D01*
X274613Y461947D01*
X274562Y461998D01*
X274520Y462053D01*
X274483Y462104D01*
X274451Y462159D01*
X274428Y462215D01*
X274405Y462265D01*
X274391Y462316D01*
X274368Y462404D01*
X274359Y462445D01*
X274354Y462478D01*
X274350Y462505D01*
Y462542D01*
X274354Y462648D01*
X274373Y462745D01*
X274396Y462828D01*
X274424Y462906D01*
X274451Y462966D01*
X274474Y463012D01*
X274483Y463026D01*
X274493Y463040D01*
X274497Y463045D01*
Y463049D01*
X274557Y463128D01*
X274622Y463192D01*
X274691Y463247D01*
X274756Y463298D01*
X274815Y463335D01*
X274862Y463358D01*
X274880Y463367D01*
X274894Y463377D01*
X274903Y463381D01*
X274908D01*
X275009Y463418D01*
X275110Y463446D01*
X275207Y463464D01*
X275300Y463478D01*
X275373Y463487D01*
X275406D01*
X275433Y463492D01*
X275456D01*
X275475D01*
X275484D01*
X275488D01*
X275571Y463487D01*
D02*
G37*
G36*
X276595Y460624D02*
X275396D01*
X275323D01*
X275253Y460615D01*
X275189Y460610D01*
X275129Y460597D01*
X275078Y460583D01*
X275032Y460569D01*
X274991Y460555D01*
X274954Y460537D01*
X274921Y460523D01*
X274894Y460509D01*
X274857Y460482D01*
X274834Y460463D01*
X274825Y460454D01*
X274774Y460389D01*
X274737Y460316D01*
X274709Y460251D01*
X274691Y460186D01*
X274682Y460126D01*
X274673Y460085D01*
Y460043D01*
X274677Y459988D01*
X274682Y459942D01*
X274696Y459896D01*
X274705Y459859D01*
X274719Y459827D01*
X274732Y459804D01*
X274737Y459790D01*
X274742Y459785D01*
X274769Y459749D01*
X274802Y459716D01*
X274829Y459689D01*
X274862Y459665D01*
X274885Y459652D01*
X274908Y459643D01*
X274921Y459633D01*
X274926D01*
X274972Y459619D01*
X275023Y459606D01*
X275083Y459596D01*
X275133Y459592D01*
X275184Y459587D01*
X275226D01*
X275253D01*
X275258D01*
X275263D01*
X276595D01*
Y459214D01*
X275249D01*
X275157D01*
X275083Y459218D01*
X275018Y459223D01*
X274968D01*
X274931Y459228D01*
X274903Y459232D01*
X274889Y459237D01*
X274885D01*
X274829Y459251D01*
X274774Y459269D01*
X274728Y459288D01*
X274691Y459306D01*
X274659Y459324D01*
X274631Y459338D01*
X274617Y459347D01*
X274613Y459352D01*
X274571Y459384D01*
X274534Y459426D01*
X274502Y459467D01*
X274474Y459509D01*
X274451Y459546D01*
X274437Y459573D01*
X274428Y459592D01*
X274424Y459601D01*
X274400Y459665D01*
X274382Y459725D01*
X274368Y459790D01*
X274359Y459845D01*
X274354Y459891D01*
X274350Y459933D01*
Y459965D01*
X274354Y460048D01*
X274364Y460126D01*
X274382Y460200D01*
X274405Y460265D01*
X274433Y460329D01*
X274465Y460385D01*
X274497Y460435D01*
X274530Y460486D01*
X274567Y460528D01*
X274599Y460560D01*
X274631Y460592D01*
X274659Y460615D01*
X274682Y460638D01*
X274700Y460652D01*
X274709Y460657D01*
X274714Y460661D01*
X274400D01*
Y460998D01*
X276595D01*
Y460624D01*
D02*
G37*
G36*
X275618Y458762D02*
X275710Y458753D01*
X275797Y458739D01*
X275876Y458720D01*
X275950Y458702D01*
X276019Y458679D01*
X276079Y458651D01*
X276134Y458624D01*
X276185Y458601D01*
X276231Y458573D01*
X276268Y458550D01*
X276295Y458527D01*
X276318Y458513D01*
X276337Y458499D01*
X276346Y458490D01*
X276350Y458485D01*
X276401Y458430D01*
X276447Y458370D01*
X276489Y458310D01*
X276521Y458246D01*
X276549Y458186D01*
X276572Y458121D01*
X276609Y458001D01*
X276623Y457941D01*
X276632Y457891D01*
X276636Y457844D01*
X276641Y457803D01*
X276646Y457771D01*
Y457725D01*
X276636Y457586D01*
X276618Y457467D01*
X276586Y457356D01*
X276553Y457268D01*
X276535Y457227D01*
X276521Y457195D01*
X276503Y457167D01*
X276489Y457144D01*
X276480Y457121D01*
X276470Y457107D01*
X276461Y457102D01*
Y457098D01*
X276387Y457015D01*
X276300Y456941D01*
X276212Y456886D01*
X276129Y456840D01*
X276051Y456803D01*
X276019Y456789D01*
X275991Y456780D01*
X275968Y456770D01*
X275950Y456766D01*
X275940Y456761D01*
X275936D01*
X275885Y457144D01*
X275968Y457181D01*
X276042Y457218D01*
X276102Y457255D01*
X276148Y457291D01*
X276189Y457324D01*
X276212Y457351D01*
X276231Y457370D01*
X276235Y457374D01*
X276272Y457430D01*
X276295Y457490D01*
X276314Y457549D01*
X276327Y457605D01*
X276337Y457651D01*
X276341Y457688D01*
Y457725D01*
X276332Y457822D01*
X276314Y457909D01*
X276281Y457987D01*
X276244Y458057D01*
X276212Y458107D01*
X276180Y458149D01*
X276162Y458172D01*
X276152Y458181D01*
X276074Y458241D01*
X275982Y458292D01*
X275889Y458324D01*
X275802Y458352D01*
X275719Y458370D01*
X275687Y458375D01*
X275654Y458379D01*
X275631D01*
X275608Y458384D01*
X275599D01*
X275594D01*
Y456752D01*
X275553Y456747D01*
X275521D01*
X275502D01*
X275498D01*
X275396Y456752D01*
X275304Y456761D01*
X275217Y456775D01*
X275138Y456789D01*
X275060Y456812D01*
X274991Y456835D01*
X274931Y456863D01*
X274871Y456886D01*
X274820Y456913D01*
X274779Y456941D01*
X274742Y456964D01*
X274709Y456983D01*
X274686Y457001D01*
X274668Y457015D01*
X274659Y457024D01*
X274654Y457029D01*
X274599Y457084D01*
X274553Y457139D01*
X274511Y457199D01*
X274479Y457259D01*
X274447Y457319D01*
X274424Y457379D01*
X274387Y457490D01*
X274373Y457545D01*
X274364Y457591D01*
X274359Y457637D01*
X274354Y457674D01*
X274350Y457706D01*
Y457748D01*
X274354Y457831D01*
X274364Y457909D01*
X274377Y457983D01*
X274396Y458052D01*
X274424Y458121D01*
X274447Y458181D01*
X274474Y458236D01*
X274502Y458287D01*
X274534Y458333D01*
X274562Y458370D01*
X274585Y458407D01*
X274608Y458435D01*
X274631Y458458D01*
X274645Y458471D01*
X274654Y458481D01*
X274659Y458485D01*
X274719Y458536D01*
X274783Y458577D01*
X274852Y458614D01*
X274921Y458647D01*
X274995Y458674D01*
X275064Y458697D01*
X275203Y458730D01*
X275267Y458743D01*
X275327Y458753D01*
X275382Y458757D01*
X275429Y458762D01*
X275465Y458767D01*
X275498D01*
X275516D01*
X275521D01*
X275618Y458762D01*
D02*
G37*
G36*
X275627Y456425D02*
X275737Y456411D01*
X275839Y456392D01*
X275926Y456369D01*
X276000Y456346D01*
X276032Y456337D01*
X276056Y456328D01*
X276074Y456319D01*
X276088Y456314D01*
X276097Y456309D01*
X276102D01*
X276194Y456259D01*
X276272Y456208D01*
X276341Y456148D01*
X276397Y456097D01*
X276443Y456047D01*
X276475Y456010D01*
X276498Y455982D01*
X276503Y455977D01*
Y455973D01*
X276549Y455890D01*
X276586Y455802D01*
X276609Y455724D01*
X276627Y455646D01*
X276636Y455586D01*
X276641Y455535D01*
X276646Y455516D01*
Y455489D01*
X276641Y455415D01*
X276632Y455346D01*
X276618Y455281D01*
X276595Y455222D01*
X276572Y455171D01*
X276544Y455120D01*
X276512Y455074D01*
X276484Y455032D01*
X276452Y454996D01*
X276424Y454963D01*
X276397Y454936D01*
X276374Y454917D01*
X276350Y454899D01*
X276337Y454885D01*
X276327Y454880D01*
X276323Y454876D01*
X276595D01*
Y454530D01*
X273566D01*
Y454903D01*
X274654D01*
X274608Y454940D01*
X274562Y454982D01*
X274525Y455028D01*
X274497Y455065D01*
X274470Y455102D01*
X274451Y455129D01*
X274442Y455148D01*
X274437Y455157D01*
X274410Y455217D01*
X274387Y455277D01*
X274373Y455337D01*
X274359Y455387D01*
X274354Y455438D01*
X274350Y455475D01*
Y455507D01*
X274354Y455604D01*
X274373Y455696D01*
X274396Y455779D01*
X274419Y455853D01*
X274447Y455913D01*
X274470Y455959D01*
X274488Y455987D01*
X274493Y455991D01*
Y455996D01*
X274553Y456074D01*
X274617Y456139D01*
X274686Y456194D01*
X274756Y456240D01*
X274815Y456277D01*
X274862Y456300D01*
X274880Y456309D01*
X274894Y456319D01*
X274903Y456323D01*
X274908D01*
X275009Y456360D01*
X275115Y456383D01*
X275212Y456402D01*
X275304Y456415D01*
X275382Y456425D01*
X275419D01*
X275447Y456429D01*
X275470D01*
X275488D01*
X275498D01*
X275502D01*
X275627Y456425D01*
D02*
G37*
G36*
X276595Y452428D02*
X276323D01*
X276378Y452386D01*
X276429Y452340D01*
X276470Y452289D01*
X276507Y452243D01*
X276540Y452193D01*
X276567Y452142D01*
X276590Y452091D01*
X276604Y452045D01*
X276627Y451958D01*
X276636Y451921D01*
X276641Y451888D01*
X276646Y451861D01*
Y451824D01*
X276641Y451750D01*
X276632Y451681D01*
X276618Y451616D01*
X276600Y451552D01*
X276549Y451441D01*
X276493Y451344D01*
X276466Y451298D01*
X276438Y451262D01*
X276411Y451229D01*
X276387Y451206D01*
X276369Y451183D01*
X276355Y451169D01*
X276346Y451160D01*
X276341Y451155D01*
X276281Y451105D01*
X276217Y451063D01*
X276148Y451026D01*
X276074Y450994D01*
X276000Y450966D01*
X275926Y450943D01*
X275788Y450911D01*
X275724Y450897D01*
X275659Y450888D01*
X275608Y450883D01*
X275558Y450879D01*
X275521Y450874D01*
X275488D01*
X275470D01*
X275465D01*
X275378Y450879D01*
X275295Y450883D01*
X275221Y450897D01*
X275157Y450907D01*
X275101Y450920D01*
X275060Y450934D01*
X275032Y450939D01*
X275023Y450943D01*
X274944Y450971D01*
X274875Y450999D01*
X274815Y451031D01*
X274765Y451059D01*
X274723Y451086D01*
X274691Y451109D01*
X274668Y451123D01*
X274663Y451128D01*
X274613Y451174D01*
X274567Y451225D01*
X274525Y451271D01*
X274493Y451317D01*
X274465Y451358D01*
X274447Y451391D01*
X274437Y451414D01*
X274433Y451423D01*
X274405Y451492D01*
X274387Y451556D01*
X274368Y451621D01*
X274359Y451681D01*
X274354Y451732D01*
X274350Y451769D01*
Y451805D01*
X274354Y451870D01*
X274364Y451934D01*
X274377Y451995D01*
X274396Y452050D01*
X274442Y452156D01*
X274497Y452239D01*
X274553Y452308D01*
X274576Y452336D01*
X274599Y452359D01*
X274617Y452377D01*
X274631Y452391D01*
X274640Y452395D01*
X274645Y452400D01*
X273566D01*
Y452774D01*
X276595D01*
Y452428D01*
D02*
G37*
G36*
X276600Y449791D02*
X276641Y449805D01*
X276669Y449819D01*
X276687Y449823D01*
X276692Y449828D01*
X276765Y449855D01*
X276830Y449879D01*
X276876Y449897D01*
X276913Y449911D01*
X276941Y449925D01*
X276954Y449934D01*
X276964Y449938D01*
X276968D01*
X277019Y449980D01*
X277056Y450021D01*
X277070Y450035D01*
X277079Y450049D01*
X277088Y450058D01*
Y450063D01*
X277102Y450091D01*
X277111Y450123D01*
X277125Y450187D01*
Y450220D01*
X277130Y450238D01*
Y450261D01*
X277125Y450335D01*
X277111Y450399D01*
X277102Y450432D01*
X277097Y450455D01*
X277093Y450468D01*
Y450473D01*
X277438Y450432D01*
X277466Y450340D01*
X277475Y450298D01*
X277480Y450261D01*
Y450233D01*
X277485Y450210D01*
Y450192D01*
X277480Y450127D01*
X277471Y450072D01*
X277457Y450017D01*
X277438Y449975D01*
X277425Y449938D01*
X277411Y449911D01*
X277402Y449892D01*
X277397Y449888D01*
X277360Y449842D01*
X277319Y449795D01*
X277273Y449759D01*
X277231Y449722D01*
X277190Y449694D01*
X277157Y449676D01*
X277139Y449662D01*
X277130Y449657D01*
X277102Y449643D01*
X277070Y449625D01*
X276991Y449593D01*
X276913Y449560D01*
X276830Y449523D01*
X276752Y449496D01*
X276719Y449482D01*
X276692Y449473D01*
X276664Y449464D01*
X276646Y449454D01*
X276636Y449450D01*
X276632D01*
X274400Y448620D01*
Y448989D01*
X275682Y449459D01*
X275774Y449491D01*
X275862Y449519D01*
X275945Y449547D01*
X276019Y449570D01*
X276079Y449588D01*
X276129Y449597D01*
X276148Y449607D01*
X276162D01*
X276166Y449611D01*
X276171D01*
X276074Y449639D01*
X275982Y449666D01*
X275894Y449694D01*
X275820Y449717D01*
X275756Y449740D01*
X275705Y449759D01*
X275687Y449763D01*
X275673Y449768D01*
X275668Y449772D01*
X275664D01*
X274400Y450229D01*
Y450625D01*
X276600Y449791D01*
D02*
G37*
G36*
X275871Y446038D02*
X276595D01*
Y445665D01*
X275871D01*
Y445255D01*
X275530D01*
Y445665D01*
X273571D01*
Y445969D01*
X275530Y447352D01*
X275871D01*
Y446038D01*
D02*
G37*
G36*
X275733Y444849D02*
X275834Y444831D01*
X275931Y444803D01*
X276009Y444775D01*
X276079Y444747D01*
X276106Y444734D01*
X276129Y444720D01*
X276148Y444711D01*
X276162Y444701D01*
X276166Y444697D01*
X276171D01*
X276254Y444632D01*
X276327Y444558D01*
X276387Y444489D01*
X276438Y444416D01*
X276480Y444356D01*
X276507Y444305D01*
X276517Y444286D01*
X276526Y444273D01*
X276530Y444264D01*
Y444259D01*
X276567Y444148D01*
X276595Y444033D01*
X276618Y443918D01*
X276632Y443812D01*
X276636Y443761D01*
X276641Y443715D01*
Y443673D01*
X276646Y443641D01*
Y443572D01*
X276641Y443452D01*
X276627Y443346D01*
X276609Y443245D01*
X276586Y443162D01*
X276567Y443088D01*
X276558Y443060D01*
X276549Y443037D01*
X276540Y443019D01*
X276535Y443005D01*
X276530Y442996D01*
Y442991D01*
X276480Y442899D01*
X276429Y442816D01*
X276374Y442747D01*
X276318Y442692D01*
X276272Y442645D01*
X276235Y442618D01*
X276208Y442595D01*
X276198Y442590D01*
X276120Y442544D01*
X276037Y442512D01*
X275959Y442484D01*
X275889Y442470D01*
X275830Y442461D01*
X275783Y442452D01*
X275765D01*
X275751D01*
X275747D01*
X275742D01*
X275654Y442456D01*
X275571Y442470D01*
X275498Y442493D01*
X275438Y442516D01*
X275382Y442539D01*
X275346Y442562D01*
X275323Y442576D01*
X275313Y442581D01*
X275249Y442631D01*
X275189Y442692D01*
X275133Y442756D01*
X275087Y442821D01*
X275055Y442880D01*
X275027Y442927D01*
X275018Y442945D01*
X275009Y442954D01*
X275004Y442964D01*
Y442968D01*
X274991Y443005D01*
X274972Y443051D01*
X274954Y443097D01*
X274940Y443153D01*
X274908Y443263D01*
X274875Y443374D01*
X274852Y443475D01*
X274838Y443521D01*
X274829Y443563D01*
X274820Y443595D01*
X274815Y443618D01*
X274811Y443637D01*
Y443641D01*
X274788Y443729D01*
X274769Y443807D01*
X274751Y443876D01*
X274728Y443941D01*
X274709Y443996D01*
X274696Y444042D01*
X274677Y444084D01*
X274659Y444121D01*
X274645Y444153D01*
X274636Y444180D01*
X274622Y444199D01*
X274613Y444213D01*
X274599Y444236D01*
X274594Y444240D01*
X274553Y444277D01*
X274511Y444305D01*
X274465Y444328D01*
X274424Y444342D01*
X274387Y444351D01*
X274354Y444356D01*
X274336D01*
X274327D01*
X274258Y444347D01*
X274198Y444328D01*
X274142Y444305D01*
X274096Y444273D01*
X274055Y444245D01*
X274027Y444217D01*
X274009Y444199D01*
X274004Y444194D01*
X273981Y444162D01*
X273958Y444125D01*
X273926Y444042D01*
X273903Y443955D01*
X273889Y443867D01*
X273875Y443789D01*
Y443752D01*
X273870Y443724D01*
Y443664D01*
X273875Y443540D01*
X273893Y443434D01*
X273917Y443341D01*
X273944Y443268D01*
X273972Y443212D01*
X273995Y443171D01*
X274013Y443148D01*
X274018Y443139D01*
X274078Y443079D01*
X274147Y443028D01*
X274216Y442991D01*
X274285Y442964D01*
X274350Y442945D01*
X274400Y442936D01*
X274419Y442931D01*
X274433Y442927D01*
X274442D01*
X274447D01*
X274419Y442544D01*
X274322Y442553D01*
X274235Y442572D01*
X274152Y442599D01*
X274082Y442627D01*
X274027Y442650D01*
X273981Y442673D01*
X273953Y442692D01*
X273944Y442696D01*
X273870Y442751D01*
X273806Y442816D01*
X273750Y442880D01*
X273704Y442945D01*
X273672Y443005D01*
X273644Y443051D01*
X273635Y443070D01*
X273631Y443083D01*
X273626Y443088D01*
Y443093D01*
X273589Y443189D01*
X273562Y443291D01*
X273543Y443392D01*
X273529Y443484D01*
X273520Y443563D01*
Y443595D01*
X273515Y443627D01*
Y443683D01*
X273520Y443793D01*
X273534Y443899D01*
X273548Y443992D01*
X273566Y444074D01*
X273589Y444139D01*
X273598Y444167D01*
X273603Y444190D01*
X273612Y444213D01*
X273617Y444227D01*
X273621Y444231D01*
Y444236D01*
X273663Y444323D01*
X273714Y444402D01*
X273764Y444466D01*
X273810Y444517D01*
X273856Y444558D01*
X273893Y444591D01*
X273917Y444609D01*
X273921Y444614D01*
X273926D01*
X273999Y444655D01*
X274078Y444688D01*
X274147Y444711D01*
X274216Y444725D01*
X274271Y444734D01*
X274313Y444743D01*
X274331D01*
X274345D01*
X274350D01*
X274354D01*
X274428Y444738D01*
X274502Y444725D01*
X274567Y444711D01*
X274622Y444688D01*
X274668Y444669D01*
X274700Y444655D01*
X274723Y444641D01*
X274732Y444637D01*
X274792Y444591D01*
X274848Y444540D01*
X274894Y444489D01*
X274935Y444434D01*
X274968Y444388D01*
X274991Y444351D01*
X275009Y444323D01*
X275014Y444319D01*
Y444314D01*
X275032Y444282D01*
X275046Y444240D01*
X275078Y444153D01*
X275110Y444056D01*
X275143Y443959D01*
X275166Y443872D01*
X275175Y443835D01*
X275184Y443802D01*
X275193Y443775D01*
X275198Y443752D01*
X275203Y443738D01*
Y443733D01*
X275221Y443660D01*
X275239Y443590D01*
X275253Y443526D01*
X275267Y443471D01*
X275281Y443425D01*
X275295Y443378D01*
X275304Y443341D01*
X275313Y443305D01*
X275323Y443277D01*
X275332Y443254D01*
X275341Y443217D01*
X275346Y443199D01*
X275350Y443194D01*
X275378Y443129D01*
X275410Y443070D01*
X275438Y443023D01*
X275465Y442986D01*
X275493Y442959D01*
X275512Y442936D01*
X275525Y442927D01*
X275530Y442922D01*
X275571Y442894D01*
X275613Y442876D01*
X275654Y442857D01*
X275696Y442848D01*
X275728Y442844D01*
X275756Y442839D01*
X275774D01*
X275779D01*
X275830Y442844D01*
X275876Y442853D01*
X275922Y442867D01*
X275959Y442880D01*
X275991Y442899D01*
X276014Y442913D01*
X276032Y442922D01*
X276037Y442927D01*
X276079Y442964D01*
X276115Y443005D01*
X276148Y443047D01*
X276175Y443093D01*
X276198Y443129D01*
X276212Y443162D01*
X276221Y443180D01*
X276226Y443189D01*
X276249Y443258D01*
X276263Y443328D01*
X276277Y443392D01*
X276281Y443457D01*
X276286Y443507D01*
X276291Y443553D01*
Y443590D01*
X276286Y443683D01*
X276277Y443770D01*
X276263Y443853D01*
X276244Y443918D01*
X276231Y443978D01*
X276217Y444019D01*
X276208Y444047D01*
X276203Y444051D01*
Y444056D01*
X276166Y444125D01*
X276129Y444190D01*
X276088Y444240D01*
X276051Y444282D01*
X276019Y444319D01*
X275991Y444342D01*
X275973Y444356D01*
X275968Y444360D01*
X275908Y444393D01*
X275848Y444420D01*
X275783Y444439D01*
X275724Y444457D01*
X275668Y444466D01*
X275627Y444476D01*
X275599Y444480D01*
X275594D01*
X275590D01*
X275622Y444858D01*
X275733Y444849D01*
D02*
G37*
G36*
X275323Y442069D02*
X275452Y442060D01*
X275576Y442046D01*
X275687Y442028D01*
X275788Y442005D01*
X275880Y441982D01*
X275963Y441954D01*
X276037Y441926D01*
X276102Y441903D01*
X276157Y441876D01*
X276203Y441853D01*
X276240Y441829D01*
X276268Y441811D01*
X276286Y441797D01*
X276300Y441788D01*
X276304Y441783D01*
X276364Y441728D01*
X276415Y441668D01*
X276461Y441604D01*
X276503Y441539D01*
X276535Y441474D01*
X276563Y441414D01*
X276586Y441350D01*
X276604Y441290D01*
X276618Y441235D01*
X276627Y441184D01*
X276636Y441138D01*
X276641Y441101D01*
Y441069D01*
X276646Y441041D01*
Y441023D01*
X276641Y440926D01*
X276627Y440834D01*
X276604Y440751D01*
X276581Y440677D01*
X276558Y440622D01*
X276535Y440576D01*
X276521Y440548D01*
X276517Y440539D01*
X276461Y440460D01*
X276401Y440396D01*
X276341Y440336D01*
X276281Y440285D01*
X276226Y440248D01*
X276185Y440220D01*
X276166Y440211D01*
X276152Y440202D01*
X276148Y440198D01*
X276143D01*
X276051Y440156D01*
X275959Y440124D01*
X275867Y440105D01*
X275788Y440087D01*
X275714Y440078D01*
X275687D01*
X275659Y440073D01*
X275641D01*
X275627D01*
X275618D01*
X275613D01*
X275535Y440078D01*
X275456Y440082D01*
X275387Y440096D01*
X275318Y440114D01*
X275258Y440133D01*
X275198Y440156D01*
X275147Y440179D01*
X275097Y440202D01*
X275055Y440230D01*
X275018Y440253D01*
X274986Y440276D01*
X274958Y440294D01*
X274935Y440313D01*
X274921Y440327D01*
X274912Y440331D01*
X274908Y440336D01*
X274857Y440386D01*
X274815Y440437D01*
X274779Y440492D01*
X274746Y440548D01*
X274719Y440598D01*
X274700Y440654D01*
X274663Y440751D01*
X274645Y440838D01*
X274640Y440875D01*
X274636Y440907D01*
X274631Y440935D01*
Y440972D01*
X274636Y441050D01*
X274645Y441124D01*
X274663Y441193D01*
X274682Y441253D01*
X274700Y441304D01*
X274719Y441345D01*
X274728Y441368D01*
X274732Y441378D01*
X274774Y441447D01*
X274820Y441511D01*
X274871Y441567D01*
X274921Y441613D01*
X274968Y441654D01*
X275004Y441682D01*
X275027Y441700D01*
X275032Y441705D01*
X274954D01*
X274875Y441700D01*
X274802Y441696D01*
X274732Y441691D01*
X274673Y441682D01*
X274613Y441673D01*
X274562Y441664D01*
X274516Y441654D01*
X274474Y441645D01*
X274437Y441636D01*
X274405Y441627D01*
X274382Y441617D01*
X274364Y441613D01*
X274345Y441608D01*
X274341Y441604D01*
X274336D01*
X274248Y441562D01*
X274170Y441516D01*
X274106Y441470D01*
X274055Y441424D01*
X274013Y441387D01*
X273981Y441355D01*
X273963Y441336D01*
X273958Y441327D01*
X273926Y441272D01*
X273898Y441221D01*
X273880Y441166D01*
X273870Y441115D01*
X273861Y441073D01*
X273856Y441041D01*
Y441009D01*
X273861Y440931D01*
X273880Y440857D01*
X273907Y440792D01*
X273935Y440737D01*
X273967Y440695D01*
X273990Y440663D01*
X274009Y440640D01*
X274018Y440635D01*
X274059Y440603D01*
X274106Y440576D01*
X274212Y440529D01*
X274258Y440516D01*
X274294Y440502D01*
X274322Y440492D01*
X274327D01*
X274331D01*
X274304Y440124D01*
X274179Y440147D01*
X274069Y440188D01*
X273976Y440230D01*
X273898Y440280D01*
X273838Y440327D01*
X273792Y440363D01*
X273764Y440391D01*
X273755Y440396D01*
Y440400D01*
X273718Y440446D01*
X273686Y440492D01*
X273640Y440589D01*
X273603Y440686D01*
X273575Y440778D01*
X273562Y440861D01*
X273557Y440898D01*
Y440926D01*
X273552Y440953D01*
Y440986D01*
X273557Y441073D01*
X273566Y441156D01*
X273585Y441235D01*
X273608Y441308D01*
X273635Y441378D01*
X273663Y441438D01*
X273695Y441498D01*
X273727Y441548D01*
X273760Y441594D01*
X273792Y441636D01*
X273820Y441668D01*
X273847Y441700D01*
X273870Y441723D01*
X273889Y441737D01*
X273898Y441746D01*
X273903Y441751D01*
X273981Y441806D01*
X274073Y441857D01*
X274165Y441899D01*
X274271Y441935D01*
X274373Y441968D01*
X274479Y441995D01*
X274585Y442018D01*
X274691Y442032D01*
X274788Y442046D01*
X274880Y442055D01*
X274963Y442065D01*
X275037Y442069D01*
X275097Y442074D01*
X275143D01*
X275157D01*
X275170D01*
X275175D01*
X275180D01*
X275323Y442069D01*
D02*
G37*
G36*
X273921Y438782D02*
X276595D01*
Y438381D01*
X273921D01*
Y437385D01*
X273566D01*
Y439778D01*
X273921D01*
Y438782D01*
D02*
G37*
G36*
X276595Y436597D02*
X274018D01*
X276595Y435726D01*
Y435366D01*
X274059Y434481D01*
X276595D01*
Y434094D01*
X273566D01*
Y434638D01*
X275673Y435362D01*
X275788Y435398D01*
X275885Y435435D01*
X275968Y435463D01*
X276037Y435481D01*
X276088Y435500D01*
X276125Y435514D01*
X276148Y435518D01*
X276157Y435523D01*
X276097Y435541D01*
X276023Y435564D01*
X275950Y435588D01*
X275876Y435610D01*
X275811Y435634D01*
X275761Y435652D01*
X275737Y435657D01*
X275724Y435661D01*
X275714Y435666D01*
X275710D01*
X273566Y436385D01*
Y436984D01*
X276595D01*
Y436597D01*
D02*
G37*
G36*
Y433047D02*
X275359D01*
Y432273D01*
X275355Y432158D01*
X275350Y432052D01*
X275336Y431955D01*
X275318Y431863D01*
X275300Y431784D01*
X275276Y431710D01*
X275253Y431646D01*
X275226Y431591D01*
X275203Y431540D01*
X275180Y431498D01*
X275157Y431466D01*
X275138Y431434D01*
X275120Y431415D01*
X275106Y431402D01*
X275101Y431392D01*
X275097Y431388D01*
X275046Y431342D01*
X274991Y431305D01*
X274935Y431273D01*
X274880Y431245D01*
X274774Y431199D01*
X274668Y431171D01*
X274622Y431157D01*
X274580Y431153D01*
X274539Y431148D01*
X274506Y431143D01*
X274479Y431139D01*
X274460D01*
X274447D01*
X274442D01*
X274359Y431143D01*
X274281Y431153D01*
X274212Y431167D01*
X274152Y431185D01*
X274101Y431203D01*
X274064Y431217D01*
X274041Y431226D01*
X274032Y431231D01*
X273963Y431268D01*
X273907Y431309D01*
X273856Y431351D01*
X273815Y431388D01*
X273783Y431420D01*
X273760Y431448D01*
X273746Y431471D01*
X273741Y431475D01*
X273704Y431535D01*
X273672Y431600D01*
X273649Y431660D01*
X273631Y431720D01*
X273617Y431770D01*
X273608Y431812D01*
X273598Y431840D01*
Y431849D01*
X273589Y431913D01*
X273580Y431987D01*
X273575Y432065D01*
X273571Y432139D01*
X273566Y432208D01*
Y433448D01*
X276595D01*
Y433047D01*
D02*
G37*
G36*
X479679Y488048D02*
X423321D01*
Y498952D01*
X479679D01*
Y488048D01*
D02*
G37*
%LPC*%
G36*
X274903Y477460D02*
X273903D01*
Y476506D01*
X273907Y476386D01*
X273926Y476285D01*
X273944Y476202D01*
X273972Y476132D01*
X273995Y476082D01*
X274018Y476040D01*
X274036Y476022D01*
X274041Y476013D01*
X274096Y475962D01*
X274156Y475920D01*
X274216Y475893D01*
X274271Y475874D01*
X274322Y475865D01*
X274359Y475856D01*
X274387D01*
X274391D01*
X274396D01*
X274451Y475860D01*
X274502Y475870D01*
X274548Y475883D01*
X274585Y475897D01*
X274622Y475911D01*
X274645Y475925D01*
X274663Y475934D01*
X274668Y475939D01*
X274709Y475971D01*
X274746Y476008D01*
X274779Y476049D01*
X274806Y476086D01*
X274825Y476119D01*
X274838Y476146D01*
X274843Y476165D01*
X274848Y476174D01*
X274866Y476234D01*
X274880Y476303D01*
X274889Y476377D01*
X274894Y476446D01*
X274898Y476506D01*
X274903Y476556D01*
Y477460D01*
D02*
G37*
G36*
X275290Y474583D02*
X275189Y474570D01*
X275097Y474547D01*
X275018Y474514D01*
X274954Y474482D01*
X274898Y474450D01*
X274862Y474422D01*
X274838Y474404D01*
X274829Y474394D01*
X274769Y474325D01*
X274728Y474252D01*
X274696Y474182D01*
X274677Y474113D01*
X274663Y474053D01*
X274659Y474003D01*
X274654Y473984D01*
Y473961D01*
X274659Y473910D01*
X274663Y473860D01*
X274686Y473772D01*
X274723Y473694D01*
X274765Y473625D01*
X274806Y473574D01*
X274838Y473532D01*
X274866Y473509D01*
X274871Y473500D01*
X274875D01*
X274931Y473459D01*
X275000Y473431D01*
X275069Y473403D01*
X275133Y473385D01*
X275193Y473371D01*
X275244Y473362D01*
X275263D01*
X275276Y473357D01*
X275286D01*
X275290D01*
Y474583D01*
D02*
G37*
G36*
X275544Y470859D02*
X275521D01*
X275507D01*
X275502D01*
X275424D01*
X275350Y470849D01*
X275281Y470845D01*
X275217Y470831D01*
X275161Y470822D01*
X275106Y470808D01*
X275060Y470789D01*
X275018Y470776D01*
X274981Y470762D01*
X274949Y470743D01*
X274921Y470729D01*
X274898Y470720D01*
X274885Y470707D01*
X274871Y470702D01*
X274862Y470693D01*
X274825Y470660D01*
X274792Y470628D01*
X274746Y470559D01*
X274709Y470490D01*
X274682Y470425D01*
X274668Y470370D01*
X274663Y470324D01*
X274659Y470305D01*
Y470236D01*
X274668Y470190D01*
X274691Y470107D01*
X274728Y470033D01*
X274765Y469974D01*
X274802Y469923D01*
X274838Y469886D01*
X274862Y469863D01*
X274866Y469854D01*
X274871D01*
X274912Y469821D01*
X274958Y469794D01*
X275064Y469752D01*
X275175Y469720D01*
X275281Y469701D01*
X275382Y469688D01*
X275424Y469683D01*
X275461D01*
X275493Y469678D01*
X275516D01*
X275530D01*
X275535D01*
X275608D01*
X275677Y469688D01*
X275742Y469692D01*
X275802Y469706D01*
X275857Y469720D01*
X275908Y469734D01*
X275954Y469748D01*
X275991Y469761D01*
X276028Y469780D01*
X276060Y469794D01*
X276083Y469807D01*
X276106Y469821D01*
X276120Y469835D01*
X276134Y469840D01*
X276138Y469849D01*
X276143D01*
X276180Y469881D01*
X276208Y469913D01*
X276258Y469987D01*
X276291Y470056D01*
X276318Y470121D01*
X276332Y470176D01*
X276337Y470222D01*
X276341Y470241D01*
Y470264D01*
X276337Y470310D01*
X276332Y470352D01*
X276309Y470435D01*
X276277Y470504D01*
X276235Y470564D01*
X276198Y470614D01*
X276166Y470651D01*
X276143Y470674D01*
X276134Y470683D01*
X276092Y470716D01*
X276046Y470743D01*
X275950Y470785D01*
X275843Y470817D01*
X275742Y470835D01*
X275645Y470849D01*
X275608Y470854D01*
X275571D01*
X275544Y470859D01*
D02*
G37*
G36*
X275290Y468475D02*
X275189Y468461D01*
X275097Y468438D01*
X275018Y468406D01*
X274954Y468374D01*
X274898Y468341D01*
X274862Y468314D01*
X274838Y468295D01*
X274829Y468286D01*
X274769Y468217D01*
X274728Y468143D01*
X274696Y468074D01*
X274677Y468005D01*
X274663Y467945D01*
X274659Y467894D01*
X274654Y467876D01*
Y467853D01*
X274659Y467802D01*
X274663Y467751D01*
X274686Y467664D01*
X274723Y467586D01*
X274765Y467516D01*
X274806Y467466D01*
X274838Y467424D01*
X274866Y467401D01*
X274871Y467392D01*
X274875D01*
X274931Y467350D01*
X275000Y467323D01*
X275069Y467295D01*
X275133Y467277D01*
X275193Y467263D01*
X275244Y467254D01*
X275263D01*
X275276Y467249D01*
X275286D01*
X275290D01*
Y468475D01*
D02*
G37*
G36*
X275502Y463109D02*
X275479D01*
X275465D01*
X275461D01*
X275323Y463100D01*
X275198Y463082D01*
X275147Y463068D01*
X275097Y463054D01*
X275050Y463040D01*
X275014Y463022D01*
X274977Y463008D01*
X274944Y462994D01*
X274921Y462980D01*
X274898Y462966D01*
X274885Y462952D01*
X274871Y462948D01*
X274862Y462939D01*
X274825Y462906D01*
X274792Y462869D01*
X274746Y462800D01*
X274709Y462726D01*
X274682Y462662D01*
X274668Y462602D01*
X274663Y462556D01*
X274659Y462537D01*
Y462468D01*
X274668Y462422D01*
X274691Y462339D01*
X274723Y462265D01*
X274760Y462206D01*
X274802Y462155D01*
X274834Y462118D01*
X274857Y462095D01*
X274862Y462086D01*
X274866D01*
X274908Y462053D01*
X274949Y462026D01*
X275046Y461980D01*
X275147Y461947D01*
X275244Y461929D01*
X275336Y461915D01*
X275373Y461911D01*
X275410D01*
X275438Y461906D01*
X275456D01*
X275470D01*
X275475D01*
X275548D01*
X275622Y461915D01*
X275687Y461920D01*
X275747Y461934D01*
X275802Y461947D01*
X275853Y461961D01*
X275899Y461975D01*
X275940Y461994D01*
X275977Y462012D01*
X276009Y462026D01*
X276032Y462040D01*
X276056Y462053D01*
X276069Y462063D01*
X276083Y462072D01*
X276088Y462081D01*
X276092D01*
X276157Y462150D01*
X276203Y462219D01*
X276240Y462293D01*
X276263Y462358D01*
X276277Y462418D01*
X276281Y462468D01*
X276286Y462487D01*
Y462510D01*
X276281Y462556D01*
X276277Y462602D01*
X276254Y462685D01*
X276221Y462759D01*
X276185Y462819D01*
X276152Y462869D01*
X276120Y462906D01*
X276097Y462929D01*
X276088Y462939D01*
X276046Y462966D01*
X276005Y462994D01*
X275908Y463035D01*
X275802Y463068D01*
X275700Y463086D01*
X275608Y463100D01*
X275567Y463105D01*
X275530D01*
X275502Y463109D01*
D02*
G37*
G36*
X275290Y458365D02*
X275189Y458352D01*
X275097Y458329D01*
X275018Y458296D01*
X274954Y458264D01*
X274898Y458232D01*
X274862Y458204D01*
X274838Y458186D01*
X274829Y458177D01*
X274769Y458107D01*
X274728Y458034D01*
X274696Y457964D01*
X274677Y457895D01*
X274663Y457835D01*
X274659Y457785D01*
X274654Y457766D01*
Y457743D01*
X274659Y457692D01*
X274663Y457642D01*
X274686Y457554D01*
X274723Y457476D01*
X274765Y457407D01*
X274806Y457356D01*
X274838Y457314D01*
X274866Y457291D01*
X274871Y457282D01*
X274875D01*
X274931Y457241D01*
X275000Y457213D01*
X275069Y457185D01*
X275133Y457167D01*
X275193Y457153D01*
X275244Y457144D01*
X275263D01*
X275276Y457139D01*
X275286D01*
X275290D01*
Y458365D01*
D02*
G37*
G36*
X275544Y456047D02*
X275521D01*
X275507D01*
X275502D01*
X275424D01*
X275350Y456037D01*
X275281Y456033D01*
X275217Y456019D01*
X275161Y456010D01*
X275106Y455996D01*
X275060Y455977D01*
X275018Y455964D01*
X274981Y455950D01*
X274949Y455931D01*
X274921Y455918D01*
X274898Y455908D01*
X274885Y455895D01*
X274871Y455890D01*
X274862Y455881D01*
X274825Y455848D01*
X274792Y455816D01*
X274746Y455747D01*
X274709Y455678D01*
X274682Y455613D01*
X274668Y455558D01*
X274663Y455512D01*
X274659Y455493D01*
Y455424D01*
X274668Y455378D01*
X274691Y455295D01*
X274728Y455222D01*
X274765Y455162D01*
X274802Y455111D01*
X274838Y455074D01*
X274862Y455051D01*
X274866Y455042D01*
X274871D01*
X274912Y455009D01*
X274958Y454982D01*
X275064Y454940D01*
X275175Y454908D01*
X275281Y454889D01*
X275382Y454876D01*
X275424Y454871D01*
X275461D01*
X275493Y454867D01*
X275516D01*
X275530D01*
X275535D01*
X275608D01*
X275677Y454876D01*
X275742Y454880D01*
X275802Y454894D01*
X275857Y454908D01*
X275908Y454922D01*
X275954Y454936D01*
X275991Y454950D01*
X276028Y454968D01*
X276060Y454982D01*
X276083Y454996D01*
X276106Y455009D01*
X276120Y455023D01*
X276134Y455028D01*
X276138Y455037D01*
X276143D01*
X276180Y455069D01*
X276208Y455102D01*
X276258Y455175D01*
X276291Y455244D01*
X276318Y455309D01*
X276332Y455364D01*
X276337Y455410D01*
X276341Y455429D01*
Y455452D01*
X276337Y455498D01*
X276332Y455540D01*
X276309Y455622D01*
X276277Y455692D01*
X276235Y455752D01*
X276198Y455802D01*
X276166Y455839D01*
X276143Y455862D01*
X276134Y455871D01*
X276092Y455904D01*
X276046Y455931D01*
X275950Y455973D01*
X275843Y456005D01*
X275742Y456024D01*
X275645Y456037D01*
X275608Y456042D01*
X275571D01*
X275544Y456047D01*
D02*
G37*
G36*
X275548Y452437D02*
X275521D01*
X275502D01*
X275488D01*
X275484D01*
X275341Y452428D01*
X275217Y452409D01*
X275166Y452395D01*
X275115Y452382D01*
X275069Y452368D01*
X275027Y452349D01*
X274991Y452331D01*
X274958Y452317D01*
X274931Y452303D01*
X274912Y452289D01*
X274894Y452276D01*
X274880Y452271D01*
X274875Y452262D01*
X274871D01*
X274834Y452230D01*
X274797Y452193D01*
X274746Y452123D01*
X274705Y452050D01*
X274682Y451985D01*
X274663Y451930D01*
X274659Y451884D01*
X274654Y451865D01*
Y451796D01*
X274663Y451755D01*
X274686Y451676D01*
X274719Y451603D01*
X274756Y451543D01*
X274797Y451492D01*
X274829Y451460D01*
X274852Y451437D01*
X274857Y451427D01*
X274862D01*
X274903Y451395D01*
X274949Y451372D01*
X275050Y451331D01*
X275152Y451298D01*
X275258Y451280D01*
X275350Y451266D01*
X275392Y451262D01*
X275429D01*
X275456Y451257D01*
X275479D01*
X275493D01*
X275498D01*
X275576D01*
X275645Y451266D01*
X275710Y451275D01*
X275774Y451285D01*
X275830Y451298D01*
X275880Y451312D01*
X275926Y451331D01*
X275973Y451344D01*
X276009Y451363D01*
X276042Y451381D01*
X276069Y451395D01*
X276088Y451409D01*
X276106Y451418D01*
X276120Y451427D01*
X276125Y451437D01*
X276129D01*
X276166Y451469D01*
X276198Y451506D01*
X276254Y451575D01*
X276291Y451644D01*
X276314Y451713D01*
X276332Y451769D01*
X276337Y451815D01*
X276341Y451833D01*
Y451856D01*
X276337Y451911D01*
X276327Y451962D01*
X276314Y452013D01*
X276295Y452054D01*
X276249Y452137D01*
X276198Y452207D01*
X276148Y452262D01*
X276102Y452299D01*
X276083Y452313D01*
X276069Y452322D01*
X276060Y452331D01*
X276056D01*
X276019Y452349D01*
X275982Y452368D01*
X275894Y452391D01*
X275797Y452409D01*
X275705Y452423D01*
X275618Y452432D01*
X275581D01*
X275548Y452437D01*
D02*
G37*
G36*
X275530Y446988D02*
X274175Y446038D01*
X275530D01*
Y446988D01*
D02*
G37*
G36*
X275650Y441645D02*
X275627D01*
X275618D01*
X275512Y441636D01*
X275419Y441617D01*
X275336Y441590D01*
X275267Y441557D01*
X275217Y441525D01*
X275175Y441498D01*
X275152Y441479D01*
X275143Y441470D01*
X275083Y441401D01*
X275037Y441331D01*
X275004Y441258D01*
X274981Y441193D01*
X274968Y441133D01*
X274963Y441087D01*
X274958Y441069D01*
Y441046D01*
X274968Y440953D01*
X274986Y440871D01*
X275018Y440797D01*
X275050Y440737D01*
X275083Y440686D01*
X275115Y440649D01*
X275133Y440631D01*
X275143Y440622D01*
X275217Y440566D01*
X275295Y440525D01*
X275378Y440497D01*
X275456Y440474D01*
X275525Y440465D01*
X275558Y440460D01*
X275585D01*
X275604Y440456D01*
X275622D01*
X275631D01*
X275636D01*
X275751Y440465D01*
X275853Y440483D01*
X275945Y440511D01*
X276019Y440539D01*
X276074Y440571D01*
X276115Y440598D01*
X276143Y440617D01*
X276152Y440626D01*
X276217Y440691D01*
X276263Y440760D01*
X276295Y440829D01*
X276318Y440889D01*
X276332Y440949D01*
X276337Y440990D01*
X276341Y441009D01*
Y441032D01*
X276337Y441092D01*
X276327Y441147D01*
X276314Y441202D01*
X276295Y441249D01*
X276281Y441285D01*
X276268Y441313D01*
X276258Y441336D01*
X276254Y441341D01*
X276217Y441392D01*
X276171Y441438D01*
X276129Y441474D01*
X276083Y441507D01*
X276046Y441534D01*
X276014Y441553D01*
X275996Y441562D01*
X275986Y441567D01*
X275917Y441594D01*
X275853Y441613D01*
X275793Y441627D01*
X275733Y441636D01*
X275687Y441640D01*
X275650Y441645D01*
D02*
G37*
G36*
X275004Y433047D02*
X273921D01*
Y432185D01*
X273926Y432102D01*
X273930Y432038D01*
X273935Y431987D01*
X273939Y431950D01*
X273944Y431922D01*
X273949Y431909D01*
Y431904D01*
X273972Y431849D01*
X273995Y431798D01*
X274027Y431757D01*
X274055Y431720D01*
X274082Y431687D01*
X274106Y431669D01*
X274124Y431655D01*
X274129Y431650D01*
X274179Y431618D01*
X274235Y431595D01*
X274290Y431577D01*
X274341Y431568D01*
X274387Y431558D01*
X274424Y431554D01*
X274447D01*
X274456D01*
X274548Y431563D01*
X274631Y431581D01*
X274700Y431604D01*
X274756Y431637D01*
X274802Y431669D01*
X274834Y431692D01*
X274857Y431710D01*
X274862Y431720D01*
X274885Y431752D01*
X274908Y431789D01*
X274944Y431872D01*
X274968Y431964D01*
X274986Y432056D01*
X274995Y432139D01*
X275000Y432171D01*
Y432204D01*
X275004Y432231D01*
Y433047D01*
D02*
G37*
G36*
X447269Y495392D02*
X446521D01*
D01*
X446347D01*
X446521D01*
X445622Y492714D01*
Y492708D01*
X445616Y492697D01*
X445610Y492679D01*
X445605Y492650D01*
X445582Y492587D01*
X445553Y492506D01*
X445524Y492414D01*
X445495Y492322D01*
X445466Y492230D01*
X445443Y492155D01*
X445438Y492167D01*
X445432Y492195D01*
X445415Y492241D01*
X445392Y492305D01*
X445368Y492391D01*
X445334Y492495D01*
X445288Y492616D01*
X445242Y492760D01*
X444337Y495392D01*
X443658D01*
Y491608D01*
X444940D01*
X444142D01*
Y494776D01*
X445248Y491608D01*
X445697D01*
X446785Y494828D01*
Y491608D01*
X446228D01*
X447269D01*
Y495392D01*
D02*
G37*
G36*
X453628Y495409D02*
X452229D01*
X452194Y495404D01*
X452160D01*
X452113Y495398D01*
X452010Y495381D01*
X451895Y495346D01*
X451774Y495300D01*
X451653Y495242D01*
X451595Y495202D01*
X451537Y495156D01*
X451532D01*
X451526Y495145D01*
X451491Y495110D01*
X451445Y495052D01*
X451388Y494977D01*
X451324Y494879D01*
X451272Y494764D01*
X451221Y494626D01*
X451192Y494471D01*
X451653Y494436D01*
Y494442D01*
Y494448D01*
X451664Y494482D01*
X451681Y494528D01*
X451699Y494586D01*
X451756Y494718D01*
X451791Y494776D01*
X451831Y494828D01*
X451837Y494839D01*
X451866Y494862D01*
X451906Y494891D01*
X451958Y494931D01*
X452027Y494966D01*
X452108Y495001D01*
X452200Y495023D01*
X452298Y495029D01*
X452338D01*
X452378Y495023D01*
X452430Y495012D01*
X452494Y495001D01*
X452563Y494977D01*
X452626Y494943D01*
X452695Y494903D01*
X452707Y494897D01*
X452730Y494874D01*
X452770Y494833D01*
X452816Y494782D01*
X452874Y494718D01*
X452931Y494638D01*
X452989Y494540D01*
X453041Y494430D01*
Y494424D01*
X453047Y494419D01*
X453052Y494396D01*
X453058Y494373D01*
X453070Y494344D01*
X453081Y494304D01*
X453093Y494257D01*
X453104Y494206D01*
X453116Y494148D01*
X453127Y494085D01*
X453139Y494010D01*
X453150Y493935D01*
X453156Y493849D01*
X453162Y493756D01*
X453167Y493658D01*
Y493561D01*
X453162Y493566D01*
X453139Y493595D01*
X453104Y493641D01*
X453052Y493699D01*
X452995Y493762D01*
X452926Y493825D01*
X452845Y493883D01*
X452759Y493935D01*
X452747Y493941D01*
X452718Y493952D01*
X452666Y493975D01*
X452603Y493998D01*
X452528Y494021D01*
X452442Y494044D01*
X452350Y494056D01*
X452252Y494062D01*
X452206D01*
X452171Y494056D01*
X452131Y494050D01*
X452085Y494044D01*
X451975Y494021D01*
X451854Y493975D01*
X451785Y493952D01*
X451722Y493918D01*
X451653Y493877D01*
X451583Y493831D01*
X451520Y493779D01*
X451457Y493716D01*
X451451Y493710D01*
X451445Y493699D01*
X451428Y493681D01*
X451405Y493653D01*
X451382Y493618D01*
X451353Y493578D01*
X451324Y493532D01*
X451290Y493480D01*
X451261Y493417D01*
X451232Y493353D01*
X451203Y493278D01*
X451180Y493203D01*
X451157Y493117D01*
X451140Y493031D01*
X451134Y492933D01*
X451128Y492835D01*
Y492777D01*
X451134Y492743D01*
Y492708D01*
X451146Y492616D01*
X451169Y492518D01*
X451192Y492403D01*
X451232Y492287D01*
X451284Y492172D01*
Y492167D01*
X451290Y492161D01*
X451301Y492143D01*
X451313Y492121D01*
X451347Y492069D01*
X451393Y491999D01*
X451457Y491925D01*
X451532Y491850D01*
X451612Y491775D01*
X451710Y491706D01*
X451722Y491700D01*
X451756Y491683D01*
X451814Y491654D01*
X451883Y491625D01*
X451975Y491596D01*
X452079Y491568D01*
X452194Y491550D01*
X452315Y491544D01*
X452338D01*
X452373Y491550D01*
X452413D01*
X452459Y491556D01*
X452517Y491568D01*
X452580Y491579D01*
X452649Y491596D01*
X452724Y491619D01*
X452805Y491648D01*
X452879Y491683D01*
X452960Y491723D01*
X453041Y491775D01*
X453121Y491832D01*
X453196Y491896D01*
X453265Y491971D01*
X453271Y491976D01*
X453283Y491994D01*
X453300Y492017D01*
X453323Y492051D01*
X453352Y492097D01*
X453381Y492155D01*
X453415Y492224D01*
X453444Y492305D01*
X453479Y492397D01*
X453513Y492501D01*
X453542Y492616D01*
X453571Y492743D01*
X453594Y492881D01*
X453611Y493036D01*
X453623Y493198D01*
X453628Y493376D01*
Y493480D01*
X453623Y493555D01*
X453617Y493647D01*
X453605Y493751D01*
X453594Y493866D01*
X453577Y493987D01*
X453559Y494119D01*
X453530Y494252D01*
X453496Y494384D01*
X453455Y494511D01*
X453409Y494643D01*
X453358Y494759D01*
X453294Y494874D01*
X453225Y494972D01*
X453219Y494977D01*
X453208Y494989D01*
X453191Y495012D01*
X453162Y495041D01*
X453121Y495075D01*
X453081Y495110D01*
X453029Y495150D01*
X452972Y495191D01*
X452908Y495231D01*
X452833Y495271D01*
X452759Y495306D01*
X452672Y495340D01*
X452580Y495369D01*
X452482Y495392D01*
X452378Y495404D01*
X452269Y495409D01*
X453628D01*
D02*
G37*
G36*
X460223Y495386D02*
D01*
Y492938D01*
X458496Y495386D01*
X460223D01*
X457603D01*
X458115D01*
Y492938D01*
X457603D01*
Y491608D01*
Y492512D01*
X458115D01*
Y491608D01*
X458582D01*
Y492512D01*
X460223D01*
Y495386D01*
D02*
G37*
G36*
X429955Y495392D02*
X429206D01*
X428307Y492714D01*
Y492708D01*
X428302Y492697D01*
X428296Y492679D01*
X428290Y492650D01*
X428267Y492587D01*
X428238Y492506D01*
X428209Y492414D01*
X428181Y492322D01*
X428152Y492230D01*
X428129Y492155D01*
X428123Y492167D01*
X428117Y492195D01*
X428100Y492241D01*
X428077Y492305D01*
X428054Y492391D01*
X428019Y492495D01*
X427973Y492616D01*
X427927Y492760D01*
X427023Y495392D01*
X426343D01*
Y491608D01*
X429955D01*
Y495392D01*
D02*
G37*
G36*
X436222Y495456D02*
X436164D01*
X436124Y495450D01*
X436078Y495444D01*
X436020Y495438D01*
X435957Y495433D01*
X435887Y495421D01*
X435738Y495386D01*
X435576Y495335D01*
X435496Y495300D01*
X435415Y495260D01*
X435340Y495214D01*
X435265Y495162D01*
X435260Y495156D01*
X435248Y495150D01*
X435231Y495133D01*
X435202Y495110D01*
X435173Y495081D01*
X435133Y495041D01*
X435093Y495001D01*
X435052Y494954D01*
X435006Y494897D01*
X434966Y494839D01*
X434920Y494770D01*
X434874Y494695D01*
X434833Y494620D01*
X434793Y494534D01*
X434724Y494350D01*
X435219Y494234D01*
Y494240D01*
X435225Y494252D01*
X435231Y494275D01*
X435242Y494304D01*
X435260Y494338D01*
X435277Y494378D01*
X435317Y494465D01*
X435369Y494563D01*
X435438Y494666D01*
X435513Y494759D01*
X435605Y494839D01*
X435617Y494845D01*
X435651Y494868D01*
X435703Y494897D01*
X435778Y494937D01*
X435864Y494972D01*
X435974Y495001D01*
X436095Y495023D01*
X436233Y495029D01*
X436273D01*
X436302Y495023D01*
X436343D01*
X436383Y495018D01*
X436487Y495001D01*
X436602Y494977D01*
X436723Y494937D01*
X436844Y494885D01*
X436959Y494816D01*
X436965D01*
X436970Y494805D01*
X437005Y494776D01*
X437057Y494730D01*
X437120Y494666D01*
X437184Y494586D01*
X437253Y494494D01*
X437316Y494378D01*
X437368Y494252D01*
Y494246D01*
X437374Y494234D01*
X437379Y494217D01*
X437385Y494188D01*
X437397Y494160D01*
X437402Y494119D01*
X437425Y494027D01*
X437449Y493918D01*
X437466Y493797D01*
X437477Y493664D01*
X437483Y493526D01*
Y493520D01*
Y493503D01*
Y493480D01*
Y493445D01*
X437477Y493405D01*
Y493353D01*
X437471Y493301D01*
X437466Y493244D01*
X437449Y493111D01*
X437425Y492967D01*
X437391Y492823D01*
X437345Y492685D01*
Y492679D01*
X437339Y492668D01*
X437327Y492650D01*
X437316Y492627D01*
X437287Y492558D01*
X437241Y492483D01*
X437178Y492391D01*
X437103Y492305D01*
X437016Y492218D01*
X436913Y492143D01*
X436907D01*
X436901Y492138D01*
X436884Y492126D01*
X436861Y492115D01*
X436798Y492092D01*
X436717Y492057D01*
X436625Y492028D01*
X436515Y491999D01*
X436394Y491976D01*
X436268Y491971D01*
X436227D01*
X436199Y491976D01*
X436164D01*
X436118Y491982D01*
X436020Y491999D01*
X435911Y492028D01*
X435790Y492074D01*
X435674Y492132D01*
X435559Y492213D01*
X435553Y492218D01*
X435548Y492224D01*
X435513Y492259D01*
X435461Y492316D01*
X435398Y492391D01*
X435335Y492495D01*
X435265Y492616D01*
X435208Y492766D01*
X435162Y492933D01*
X434661Y492806D01*
Y492800D01*
X434666Y492777D01*
X434678Y492748D01*
X434689Y492702D01*
X434713Y492656D01*
X434735Y492593D01*
X434759Y492529D01*
X434793Y492460D01*
X434868Y492305D01*
X434972Y492149D01*
X435087Y491999D01*
X435156Y491930D01*
X435231Y491867D01*
X435237Y491861D01*
X435248Y491855D01*
X435271Y491838D01*
X435306Y491815D01*
X435346Y491792D01*
X435392Y491763D01*
X435444Y491735D01*
X435507Y491706D01*
X435576Y491677D01*
X435651Y491648D01*
X435738Y491619D01*
X435824Y491596D01*
X436014Y491556D01*
X436118Y491550D01*
X436227Y491544D01*
X434661D01*
D01*
X438001D01*
Y493583D01*
X437996Y493624D01*
Y493676D01*
X437990Y493739D01*
X437984Y493802D01*
X437973Y493877D01*
X437944Y494039D01*
X437909Y494211D01*
X437852Y494390D01*
X437777Y494557D01*
Y494563D01*
X437765Y494574D01*
X437754Y494597D01*
X437737Y494632D01*
X437713Y494666D01*
X437685Y494707D01*
X437610Y494805D01*
X437523Y494914D01*
X437414Y495023D01*
X437281Y495133D01*
X437137Y495225D01*
X437132D01*
X437120Y495237D01*
X437097Y495248D01*
X437063Y495260D01*
X437028Y495277D01*
X436982Y495300D01*
X436924Y495317D01*
X436867Y495340D01*
X436803Y495363D01*
X436734Y495381D01*
X436579Y495421D01*
X436406Y495444D01*
X436222Y495456D01*
D02*
G37*
G36*
X466680Y495392D02*
D01*
Y491717D01*
Y495392D01*
D02*
G37*
G36*
X476657D02*
X471795D01*
X472826Y491608D01*
X473969D01*
X473316D01*
X474111Y494488D01*
Y494494D01*
X474117Y494505D01*
X474122Y494522D01*
X474128Y494545D01*
X474145Y494609D01*
X474163Y494678D01*
X474186Y494759D01*
X474203Y494828D01*
X474220Y494891D01*
X474226Y494914D01*
X474232Y494931D01*
Y494920D01*
X474243Y494891D01*
X474255Y494839D01*
X474272Y494782D01*
X474289Y494707D01*
X474307Y494638D01*
X474330Y494563D01*
X474347Y494488D01*
X475142Y491608D01*
X475666D01*
X476657Y495392D01*
D02*
G37*
G36*
X471669D02*
X466807D01*
D01*
X467838Y491608D01*
X468981D01*
X468328D01*
X469123Y494488D01*
Y494494D01*
X469129Y494505D01*
X469134Y494522D01*
X469140Y494545D01*
X469157Y494609D01*
X469175Y494678D01*
X469198Y494759D01*
X469215Y494828D01*
X469232Y494891D01*
X469238Y494914D01*
X469244Y494931D01*
Y494920D01*
X469255Y494891D01*
X469267Y494839D01*
X469284Y494782D01*
X469301Y494707D01*
X469319Y494638D01*
X469342Y494563D01*
X469359Y494488D01*
X470154Y491608D01*
X470678D01*
X471669Y495392D01*
D02*
G37*
G36*
X466680D02*
X461819D01*
D01*
X462850Y491608D01*
X463993D01*
X463340D01*
X464135Y494488D01*
Y494494D01*
X464140Y494505D01*
X464146Y494522D01*
X464152Y494545D01*
X464169Y494609D01*
X464186Y494678D01*
X464209Y494759D01*
X464227Y494828D01*
X464244Y494891D01*
X464250Y494914D01*
X464256Y494931D01*
Y494920D01*
X464267Y494891D01*
X464279Y494839D01*
X464296Y494782D01*
X464313Y494707D01*
X464330Y494638D01*
X464353Y494563D01*
X464371Y494488D01*
X465166Y491608D01*
X465690D01*
X466680Y495392D01*
D02*
G37*
G36*
X461278Y492138D02*
X460748D01*
Y491608D01*
X461278D01*
Y492138D01*
D02*
G37*
G36*
X450760Y495392D02*
X447770D01*
Y494949D01*
X449015D01*
Y491608D01*
X447770D01*
X450760D01*
Y495392D01*
D02*
G37*
G36*
X442851D02*
X441302D01*
X441216Y495386D01*
X441123Y495381D01*
X441025Y495375D01*
X440933Y495363D01*
X440853Y495352D01*
X440841D01*
X440807Y495340D01*
X440755Y495329D01*
X440691Y495311D01*
X440617Y495289D01*
X440542Y495260D01*
X440461Y495219D01*
X440386Y495173D01*
X440380Y495167D01*
X440351Y495150D01*
X440317Y495121D01*
X440277Y495081D01*
X440231Y495029D01*
X440179Y494966D01*
X440127Y494897D01*
X440081Y494810D01*
X440075Y494799D01*
X440063Y494770D01*
X440046Y494724D01*
X440023Y494661D01*
X440000Y494586D01*
X439983Y494499D01*
X439971Y494401D01*
X439966Y494298D01*
Y494252D01*
X439971Y494217D01*
X439977Y494177D01*
X439983Y494125D01*
X439989Y494073D01*
X440006Y494016D01*
X440040Y493883D01*
X440098Y493751D01*
X440133Y493681D01*
X440173Y493612D01*
X440219Y493543D01*
X440277Y493480D01*
X440282Y493474D01*
X440294Y493468D01*
X440311Y493451D01*
X440334Y493428D01*
X440375Y493405D01*
X440415Y493376D01*
X440467Y493347D01*
X440530Y493319D01*
X440599Y493284D01*
X440680Y493255D01*
X440772Y493226D01*
X440870Y493203D01*
X440985Y493180D01*
X441106Y493163D01*
X441239Y493157D01*
X441383Y493152D01*
X442350D01*
Y491608D01*
X442851D01*
Y495392D01*
D02*
G37*
G36*
X439257Y492138D02*
X438727D01*
Y491608D01*
X439257D01*
Y492138D01*
D02*
G37*
G36*
X457107Y495456D02*
Y491544D01*
X455587D01*
X455627Y491550D01*
X455679D01*
X455736Y491556D01*
X455800Y491562D01*
X455932Y491579D01*
X456076Y491608D01*
X456220Y491642D01*
X456359Y491688D01*
X456364D01*
X456376Y491694D01*
X456393Y491706D01*
X456416Y491717D01*
X456480Y491752D01*
X456554Y491804D01*
X456647Y491867D01*
X456733Y491942D01*
X456825Y492034D01*
X456906Y492138D01*
Y492143D01*
X456912Y492149D01*
X456923Y492167D01*
X456935Y492190D01*
X456952Y492218D01*
X456969Y492253D01*
X457004Y492339D01*
X457038Y492437D01*
X457073Y492558D01*
X457096Y492685D01*
X457107Y492823D01*
X456635Y492864D01*
Y492858D01*
Y492852D01*
X456629Y492817D01*
X456618Y492766D01*
X456606Y492697D01*
X456583Y492622D01*
X456560Y492541D01*
X456526Y492466D01*
X456485Y492391D01*
X456480Y492385D01*
X456462Y492362D01*
X456433Y492328D01*
X456387Y492287D01*
X456335Y492241D01*
X456272Y492190D01*
X456191Y492143D01*
X456105Y492097D01*
X456099D01*
X456094Y492092D01*
X456059Y492080D01*
X456007Y492063D01*
X455932Y492046D01*
X455852Y492023D01*
X455748Y492005D01*
X455639Y491994D01*
X455523Y491988D01*
X455477D01*
X455420Y491994D01*
X455356Y491999D01*
X455276Y492005D01*
X455195Y492023D01*
X455109Y492040D01*
X455022Y492069D01*
X455011Y492074D01*
X454988Y492086D01*
X454947Y492103D01*
X454901Y492132D01*
X454844Y492167D01*
X454792Y492207D01*
X454740Y492253D01*
X454694Y492305D01*
X454688Y492311D01*
X454677Y492334D01*
X454659Y492362D01*
X454636Y492403D01*
X454619Y492449D01*
X454602Y492506D01*
X454590Y492564D01*
X454585Y492627D01*
Y492633D01*
Y492656D01*
X454590Y492691D01*
X454596Y492731D01*
X454607Y492783D01*
X454631Y492835D01*
X454654Y492887D01*
X454688Y492938D01*
X454694Y492944D01*
X454705Y492961D01*
X454734Y492984D01*
X454769Y493019D01*
X454815Y493054D01*
X454873Y493088D01*
X454947Y493128D01*
X455028Y493163D01*
X455034Y493169D01*
X455057Y493175D01*
X455103Y493186D01*
X455132Y493198D01*
X455166Y493209D01*
X455212Y493221D01*
X455258Y493232D01*
X455316Y493249D01*
X455374Y493267D01*
X455443Y493284D01*
X455523Y493301D01*
X455610Y493324D01*
X455702Y493347D01*
X455708D01*
X455725Y493353D01*
X455754Y493359D01*
X455788Y493370D01*
X455829Y493382D01*
X455875Y493393D01*
X455984Y493422D01*
X456105Y493463D01*
X456226Y493503D01*
X456335Y493543D01*
X456387Y493561D01*
X456428Y493583D01*
X456433D01*
X456439Y493589D01*
X456474Y493612D01*
X456520Y493641D01*
X456577Y493681D01*
X456647Y493733D01*
X456710Y493791D01*
X456773Y493860D01*
X456831Y493935D01*
X456837Y493946D01*
X456854Y493975D01*
X456871Y494016D01*
X456894Y494073D01*
X456923Y494142D01*
X456940Y494223D01*
X456958Y494315D01*
X456963Y494407D01*
Y494413D01*
Y494419D01*
Y494436D01*
Y494459D01*
X456952Y494511D01*
X456940Y494580D01*
X456923Y494666D01*
X456894Y494753D01*
X456854Y494851D01*
X456802Y494943D01*
Y494949D01*
X456796Y494954D01*
X456773Y494983D01*
X456733Y495029D01*
X456681Y495087D01*
X456618Y495145D01*
X456537Y495208D01*
X456439Y495271D01*
X456330Y495323D01*
X456324D01*
X456318Y495329D01*
X456301Y495335D01*
X456272Y495346D01*
X456243Y495352D01*
X456209Y495363D01*
X456128Y495392D01*
X456025Y495415D01*
X455909Y495433D01*
X455777Y495450D01*
X455639Y495456D01*
X455569D01*
X455529Y495450D01*
X455489D01*
X455391Y495438D01*
X455276Y495421D01*
X455149Y495398D01*
X455022Y495363D01*
X454901Y495317D01*
X454895D01*
X454890Y495311D01*
X454873Y495306D01*
X454849Y495294D01*
X454792Y495260D01*
X454717Y495219D01*
X454636Y495162D01*
X454556Y495093D01*
X454475Y495012D01*
X454406Y494920D01*
X454400Y494908D01*
X454377Y494874D01*
X454348Y494816D01*
X454319Y494747D01*
X454285Y494661D01*
X454250Y494557D01*
X454227Y494448D01*
X454216Y494327D01*
X454694Y494292D01*
Y494298D01*
Y494309D01*
X454700Y494327D01*
X454705Y494350D01*
X454717Y494413D01*
X454740Y494494D01*
X454775Y494580D01*
X454821Y494666D01*
X454884Y494753D01*
X454959Y494828D01*
X454970Y494833D01*
X454999Y494857D01*
X455051Y494885D01*
X455120Y494920D01*
X455212Y494954D01*
X455328Y494983D01*
X455460Y495006D01*
X455616Y495012D01*
X455690D01*
X455725Y495006D01*
X455771D01*
X455869Y494989D01*
X455978Y494972D01*
X456088Y494943D01*
X456191Y494903D01*
X456238Y494874D01*
X456278Y494845D01*
X456284Y494839D01*
X456307Y494816D01*
X456341Y494782D01*
X456376Y494730D01*
X456416Y494672D01*
X456445Y494603D01*
X456468Y494528D01*
X456480Y494442D01*
Y494430D01*
Y494407D01*
X456474Y494367D01*
X456462Y494321D01*
X456445Y494269D01*
X456416Y494211D01*
X456382Y494160D01*
X456335Y494108D01*
X456330Y494102D01*
X456301Y494085D01*
X456284Y494073D01*
X456261Y494056D01*
X456226Y494044D01*
X456186Y494027D01*
X456140Y494004D01*
X456088Y493981D01*
X456030Y493964D01*
X455961Y493941D01*
X455880Y493912D01*
X455794Y493889D01*
X455696Y493866D01*
X455587Y493837D01*
X455581D01*
X455558Y493831D01*
X455529Y493825D01*
X455489Y493814D01*
X455437Y493802D01*
X455379Y493785D01*
X455253Y493756D01*
X455114Y493716D01*
X454976Y493676D01*
X454907Y493658D01*
X454849Y493635D01*
X454792Y493612D01*
X454746Y493595D01*
X454740D01*
X454729Y493589D01*
X454717Y493578D01*
X454694Y493566D01*
X454636Y493532D01*
X454561Y493491D01*
X454481Y493434D01*
X454400Y493365D01*
X454325Y493290D01*
X454262Y493209D01*
X454256Y493198D01*
X454239Y493169D01*
X454210Y493123D01*
X454181Y493054D01*
X454152Y492979D01*
X454124Y492887D01*
X454106Y492783D01*
X454101Y492673D01*
Y492685D01*
Y492622D01*
X454112Y492564D01*
X454124Y492489D01*
X454141Y492403D01*
X454176Y492305D01*
X454216Y492201D01*
X454273Y492103D01*
X454279Y492092D01*
X454308Y492057D01*
X454343Y492011D01*
X454400Y491953D01*
X454469Y491884D01*
X454556Y491815D01*
X454659Y491752D01*
X454775Y491688D01*
X454780D01*
X454792Y491683D01*
X454809Y491677D01*
X454832Y491665D01*
X454861Y491654D01*
X454895Y491642D01*
X454988Y491619D01*
X455091Y491591D01*
X455218Y491568D01*
X455351Y491550D01*
X455500Y491544D01*
X454101D01*
X457107D01*
Y495456D01*
D02*
G37*
G36*
X453628Y493169D02*
Y491544D01*
D01*
D01*
Y493169D01*
D02*
G37*
G36*
X432391Y495456D02*
X430583D01*
X432339D01*
X432305Y495450D01*
X432259D01*
X432201Y495444D01*
X432143Y495433D01*
X432074Y495427D01*
X431930Y495392D01*
X431769Y495346D01*
X431608Y495289D01*
X431527Y495248D01*
X431447Y495202D01*
X431441D01*
X431429Y495190D01*
X431406Y495179D01*
X431377Y495156D01*
X431343Y495133D01*
X431303Y495098D01*
X431210Y495023D01*
X431107Y494926D01*
X430997Y494805D01*
X430899Y494666D01*
X430807Y494505D01*
Y494499D01*
X430796Y494482D01*
X430784Y494459D01*
X430773Y494424D01*
X430755Y494384D01*
X430738Y494332D01*
X430715Y494275D01*
X430692Y494211D01*
X430675Y494136D01*
X430652Y494062D01*
X430617Y493889D01*
X430594Y493699D01*
X430583Y493491D01*
Y493434D01*
X430588Y493393D01*
Y493342D01*
X430594Y493284D01*
X430600Y493221D01*
X430611Y493146D01*
X430640Y492984D01*
X430681Y492812D01*
X430738Y492633D01*
X430819Y492460D01*
Y492455D01*
X430830Y492443D01*
X430842Y492420D01*
X430859Y492385D01*
X430888Y492351D01*
X430917Y492305D01*
X430986Y492207D01*
X431078Y492097D01*
X431193Y491982D01*
X431326Y491873D01*
X431475Y491775D01*
X431481D01*
X431493Y491763D01*
X431516Y491752D01*
X431550Y491740D01*
X431591Y491723D01*
X431637Y491700D01*
X431688Y491683D01*
X431752Y491660D01*
X431884Y491619D01*
X432040Y491579D01*
X432213Y491556D01*
X432391Y491544D01*
X430583D01*
X434200D01*
Y493486D01*
X434194Y493537D01*
Y493601D01*
X434183Y493681D01*
X434171Y493774D01*
X434160Y493871D01*
X434136Y493987D01*
X434108Y494102D01*
X434079Y494223D01*
X434039Y494344D01*
X433987Y494465D01*
X433929Y494586D01*
X433866Y494707D01*
X433785Y494816D01*
X433699Y494920D01*
X433693Y494926D01*
X433676Y494943D01*
X433647Y494972D01*
X433607Y495006D01*
X433555Y495047D01*
X433497Y495087D01*
X433428Y495139D01*
X433347Y495190D01*
X433255Y495237D01*
X433157Y495289D01*
X433048Y495329D01*
X432933Y495375D01*
X432812Y495404D01*
X432679Y495433D01*
X432535Y495450D01*
X432391Y495456D01*
D02*
G37*
%LPD*%
G36*
X452396Y493647D02*
X452453Y493641D01*
X452528Y493624D01*
X452609Y493595D01*
X452701Y493555D01*
X452787Y493497D01*
X452874Y493422D01*
X452885Y493411D01*
X452908Y493382D01*
X452943Y493330D01*
X452983Y493267D01*
X453023Y493180D01*
X453058Y493077D01*
X453081Y492961D01*
X453093Y492829D01*
Y492817D01*
Y492789D01*
X453087Y492743D01*
X453081Y492685D01*
X453070Y492610D01*
X453052Y492535D01*
X453029Y492455D01*
X452995Y492368D01*
X452989Y492357D01*
X452977Y492334D01*
X452954Y492293D01*
X452920Y492247D01*
X452879Y492190D01*
X452833Y492138D01*
X452776Y492080D01*
X452712Y492034D01*
X452707Y492028D01*
X452678Y492017D01*
X452643Y491999D01*
X452597Y491982D01*
X452540Y491959D01*
X452471Y491942D01*
X452401Y491930D01*
X452327Y491925D01*
X452298D01*
X452275Y491930D01*
X452223Y491936D01*
X452148Y491953D01*
X452073Y491982D01*
X451987Y492023D01*
X451900Y492080D01*
X451820Y492161D01*
X451808Y492172D01*
X451785Y492207D01*
X451751Y492259D01*
X451710Y492328D01*
X451676Y492420D01*
X451641Y492535D01*
X451618Y492662D01*
X451607Y492806D01*
Y492812D01*
Y492823D01*
Y492846D01*
X451612Y492869D01*
Y492904D01*
X451618Y492944D01*
X451630Y493031D01*
X451658Y493128D01*
X451693Y493232D01*
X451745Y493330D01*
X451814Y493422D01*
X451825Y493434D01*
X451849Y493457D01*
X451895Y493497D01*
X451958Y493537D01*
X452033Y493578D01*
X452125Y493618D01*
X452229Y493641D01*
X452344Y493653D01*
X452373D01*
X452396Y493647D01*
D02*
G37*
G36*
X459768Y492938D02*
X458582D01*
Y494632D01*
X459768Y492938D01*
D02*
G37*
G36*
X429471Y491608D02*
X428382D01*
X429471Y494828D01*
Y491608D01*
D02*
G37*
G36*
X427933D02*
X426827D01*
Y494776D01*
X427933Y491608D01*
D02*
G37*
G36*
X438001Y491544D02*
X436285D01*
X436331Y491550D01*
X436383D01*
X436441Y491556D01*
X436510Y491568D01*
X436579Y491573D01*
X436740Y491608D01*
X436907Y491648D01*
X437068Y491712D01*
X437149Y491746D01*
X437224Y491792D01*
X437230Y491798D01*
X437241Y491804D01*
X437258Y491821D01*
X437287Y491838D01*
X437356Y491896D01*
X437437Y491976D01*
X437535Y492074D01*
X437627Y492201D01*
X437725Y492345D01*
X437806Y492512D01*
Y492518D01*
X437811Y492535D01*
X437823Y492558D01*
X437834Y492593D01*
X437852Y492639D01*
X437869Y492691D01*
X437886Y492748D01*
X437903Y492817D01*
X437921Y492886D01*
X437938Y492967D01*
X437973Y493140D01*
X437996Y493324D01*
X438001Y493526D01*
Y491544D01*
D02*
G37*
G36*
X475574Y492904D02*
Y492898D01*
X475568Y492887D01*
X475562Y492864D01*
X475557Y492840D01*
X475551Y492800D01*
X475539Y492760D01*
X475516Y492662D01*
X475493Y492547D01*
X475464Y492414D01*
X475441Y492276D01*
X475413Y492132D01*
Y492138D01*
X475407Y492161D01*
X475401Y492190D01*
X475390Y492230D01*
X475378Y492276D01*
X475367Y492328D01*
X475332Y492449D01*
X475303Y492570D01*
X475274Y492685D01*
X475263Y492731D01*
X475251Y492777D01*
X475246Y492812D01*
X475240Y492835D01*
X474520Y495392D01*
X476144D01*
X475574Y492904D01*
D02*
G37*
G36*
X473374Y493474D02*
Y493468D01*
X473362Y493439D01*
X473356Y493405D01*
X473339Y493353D01*
X473327Y493290D01*
X473305Y493215D01*
X473287Y493128D01*
X473264Y493036D01*
X473241Y492938D01*
X473218Y492835D01*
X473166Y492604D01*
X473120Y492368D01*
X473080Y492132D01*
Y492138D01*
X473074Y492149D01*
Y492167D01*
X473068Y492195D01*
X473057Y492230D01*
X473051Y492270D01*
X473039Y492316D01*
X473028Y492368D01*
X472999Y492489D01*
X472970Y492633D01*
X472930Y492789D01*
X472890Y492956D01*
X472302Y495392D01*
X473915D01*
X473374Y493474D01*
D02*
G37*
G36*
X470586Y492904D02*
Y492898D01*
X470580Y492887D01*
X470574Y492864D01*
X470569Y492840D01*
X470563Y492800D01*
X470551Y492760D01*
X470528Y492662D01*
X470505Y492547D01*
X470476Y492414D01*
X470453Y492276D01*
X470425Y492132D01*
Y492138D01*
X470419Y492161D01*
X470413Y492190D01*
X470401Y492230D01*
X470390Y492276D01*
X470378Y492328D01*
X470344Y492449D01*
X470315Y492570D01*
X470286Y492685D01*
X470275Y492731D01*
X470263Y492777D01*
X470257Y492812D01*
X470252Y492835D01*
X469532Y495392D01*
X471156D01*
X470586Y492904D01*
D02*
G37*
G36*
X468385Y493474D02*
Y493468D01*
X468374Y493439D01*
X468368Y493405D01*
X468351Y493353D01*
X468339Y493290D01*
X468316Y493215D01*
X468299Y493128D01*
X468276Y493036D01*
X468253Y492938D01*
X468230Y492835D01*
X468178Y492604D01*
X468132Y492368D01*
X468092Y492132D01*
Y492138D01*
X468086Y492149D01*
Y492167D01*
X468080Y492195D01*
X468069Y492230D01*
X468063Y492270D01*
X468051Y492316D01*
X468040Y492368D01*
X468011Y492489D01*
X467982Y492633D01*
X467942Y492789D01*
X467902Y492956D01*
X467314Y495392D01*
X468927D01*
X468385Y493474D01*
D02*
G37*
G36*
X465598Y492904D02*
Y492898D01*
X465592Y492887D01*
X465586Y492864D01*
X465580Y492840D01*
X465575Y492800D01*
X465563Y492760D01*
X465540Y492662D01*
X465517Y492547D01*
X465488Y492414D01*
X465465Y492276D01*
X465436Y492132D01*
Y492138D01*
X465431Y492161D01*
X465425Y492190D01*
X465413Y492230D01*
X465402Y492276D01*
X465390Y492328D01*
X465356Y492449D01*
X465327Y492570D01*
X465298Y492685D01*
X465287Y492731D01*
X465275Y492777D01*
X465269Y492812D01*
X465264Y492835D01*
X464543Y495392D01*
X466168D01*
X465598Y492904D01*
D02*
G37*
G36*
X463397Y493474D02*
Y493468D01*
X463386Y493439D01*
X463380Y493405D01*
X463363Y493353D01*
X463351Y493290D01*
X463328Y493215D01*
X463311Y493128D01*
X463288Y493036D01*
X463265Y492938D01*
X463242Y492835D01*
X463190Y492604D01*
X463144Y492368D01*
X463103Y492132D01*
Y492138D01*
X463098Y492149D01*
Y492167D01*
X463092Y492195D01*
X463081Y492230D01*
X463075Y492270D01*
X463063Y492316D01*
X463052Y492368D01*
X463023Y492489D01*
X462994Y492633D01*
X462954Y492789D01*
X462913Y492956D01*
X462326Y495392D01*
X463939D01*
X463397Y493474D01*
D02*
G37*
G36*
X450760Y491608D02*
X449516D01*
Y494949D01*
X450760D01*
Y491608D01*
D02*
G37*
G36*
X442350Y493595D02*
X441331D01*
X441296Y493601D01*
X441256D01*
X441216Y493607D01*
X441112Y493618D01*
X440997Y493641D01*
X440881Y493670D01*
X440778Y493716D01*
X440732Y493745D01*
X440691Y493774D01*
X440680Y493779D01*
X440657Y493808D01*
X440628Y493849D01*
X440588Y493906D01*
X440547Y493975D01*
X440519Y494062D01*
X440495Y494165D01*
X440484Y494280D01*
Y494292D01*
Y494321D01*
X440490Y494367D01*
X440501Y494424D01*
X440513Y494488D01*
X440536Y494557D01*
X440565Y494626D01*
X440605Y494689D01*
X440611Y494695D01*
X440628Y494718D01*
X440651Y494747D01*
X440691Y494782D01*
X440737Y494816D01*
X440789Y494857D01*
X440853Y494885D01*
X440922Y494914D01*
X440928D01*
X440945Y494920D01*
X440979Y494926D01*
X441025Y494931D01*
X441089Y494937D01*
X441169Y494943D01*
X441273Y494949D01*
X442350D01*
Y493595D01*
D02*
G37*
G36*
X432478Y495018D02*
X432524Y495012D01*
X432581Y495006D01*
X432639Y494995D01*
X432702Y494977D01*
X432846Y494931D01*
X432921Y494903D01*
X432996Y494868D01*
X433077Y494828D01*
X433151Y494776D01*
X433226Y494718D01*
X433301Y494655D01*
X433307Y494649D01*
X433319Y494638D01*
X433336Y494615D01*
X433359Y494586D01*
X433388Y494545D01*
X433422Y494494D01*
X433457Y494436D01*
X433491Y494367D01*
X433526Y494286D01*
X433561Y494200D01*
X433595Y494102D01*
X433624Y493987D01*
X433647Y493866D01*
X433664Y493739D01*
X433676Y493595D01*
X433681Y493439D01*
Y493434D01*
Y493411D01*
Y493376D01*
X433676Y493324D01*
X433670Y493267D01*
X433664Y493203D01*
X433653Y493128D01*
X433635Y493048D01*
X433595Y492875D01*
X433561Y492789D01*
X433526Y492697D01*
X433486Y492610D01*
X433439Y492524D01*
X433382Y492437D01*
X433319Y492362D01*
X433313Y492357D01*
X433301Y492345D01*
X433278Y492328D01*
X433249Y492299D01*
X433215Y492270D01*
X433175Y492241D01*
X433123Y492201D01*
X433065Y492167D01*
X433002Y492132D01*
X432933Y492097D01*
X432858Y492063D01*
X432771Y492034D01*
X432685Y492005D01*
X432593Y491988D01*
X432501Y491976D01*
X432397Y491971D01*
X432345D01*
X432305Y491976D01*
X432253Y491982D01*
X432201Y491994D01*
X432138Y492005D01*
X432069Y492023D01*
X431925Y492069D01*
X431844Y492097D01*
X431769Y492138D01*
X431688Y492184D01*
X431614Y492236D01*
X431539Y492293D01*
X431470Y492362D01*
X431464Y492368D01*
X431452Y492380D01*
X431435Y492403D01*
X431412Y492437D01*
X431383Y492478D01*
X431354Y492529D01*
X431320Y492587D01*
X431285Y492650D01*
X431251Y492731D01*
X431216Y492812D01*
X431187Y492904D01*
X431159Y493008D01*
X431136Y493117D01*
X431118Y493232D01*
X431107Y493359D01*
X431101Y493491D01*
Y493497D01*
Y493514D01*
Y493537D01*
Y493566D01*
X431107Y493607D01*
Y493658D01*
X431118Y493768D01*
X431141Y493889D01*
X431170Y494027D01*
X431210Y494165D01*
X431262Y494298D01*
Y494304D01*
X431268Y494315D01*
X431280Y494332D01*
X431291Y494355D01*
X431326Y494419D01*
X431377Y494494D01*
X431441Y494580D01*
X431521Y494672D01*
X431614Y494759D01*
X431717Y494833D01*
X431723D01*
X431729Y494839D01*
X431746Y494851D01*
X431769Y494862D01*
X431833Y494891D01*
X431913Y494931D01*
X432011Y494966D01*
X432126Y494995D01*
X432253Y495018D01*
X432391Y495023D01*
X432443D01*
X432478Y495018D01*
D02*
G37*
G36*
X434200Y491544D02*
X432443D01*
X432483Y491550D01*
X432529D01*
X432581Y491556D01*
X432645Y491568D01*
X432714Y491579D01*
X432858Y491608D01*
X433019Y491654D01*
X433186Y491717D01*
X433267Y491752D01*
X433347Y491798D01*
X433353Y491804D01*
X433365Y491809D01*
X433388Y491827D01*
X433417Y491844D01*
X433451Y491873D01*
X433491Y491902D01*
X433583Y491982D01*
X433687Y492086D01*
X433797Y492201D01*
X433895Y492345D01*
X433987Y492501D01*
Y492506D01*
X433998Y492524D01*
X434004Y492547D01*
X434021Y492581D01*
X434039Y492622D01*
X434056Y492668D01*
X434073Y492725D01*
X434090Y492789D01*
X434113Y492858D01*
X434131Y492927D01*
X434165Y493088D01*
X434188Y493261D01*
X434200Y493445D01*
Y491544D01*
D02*
G37*
D10*
X365764Y496312D02*
X366420Y496968D01*
X367732D01*
X368388Y496312D01*
Y493688D01*
X367732Y493032D01*
X366420D01*
X365764Y493688D01*
X364452Y496312D02*
X363796Y496968D01*
X362484D01*
X361828Y496312D01*
Y493688D01*
X362484Y493032D01*
X363796D01*
X364452Y493688D01*
Y496312D01*
X360516Y493032D02*
X359204D01*
X359860D01*
Y496968D01*
X360516Y496312D01*
X357236Y493032D02*
Y495656D01*
X355924Y496968D01*
X354612Y495656D01*
Y493032D01*
Y495000D01*
X357236D01*
X409468Y454715D02*
X405532D01*
Y452748D01*
X406188Y452092D01*
X407500D01*
X408156Y452748D01*
Y454715D01*
Y453404D02*
X409468Y452092D01*
X406188Y450780D02*
X405532Y450124D01*
Y448812D01*
X406188Y448156D01*
X408812D01*
X409468Y448812D01*
Y450124D01*
X408812Y450780D01*
X406188D01*
Y446844D02*
X405532Y446188D01*
Y444876D01*
X406188Y444220D01*
X406844D01*
X407500Y444876D01*
Y445532D01*
Y444876D01*
X408156Y444220D01*
X408812D01*
X409468Y444876D01*
Y446188D01*
X408812Y446844D01*
X409468Y442908D02*
X406844D01*
X405532Y441596D01*
X406844Y440284D01*
X409468D01*
X407500D01*
Y442908D01*
X413716Y479532D02*
Y483468D01*
X411748D01*
X411092Y482812D01*
Y481500D01*
X411748Y480844D01*
X413716D01*
X412404D02*
X411092Y479532D01*
X409780Y482812D02*
X409124Y483468D01*
X407812D01*
X407156Y482812D01*
Y480188D01*
X407812Y479532D01*
X409124D01*
X409780Y480188D01*
Y482812D01*
X403876Y479532D02*
Y483468D01*
X405844Y481500D01*
X403220D01*
X401908Y479532D02*
Y482156D01*
X400596Y483468D01*
X399285Y482156D01*
Y479532D01*
Y481500D01*
X401908D01*
X373715Y414532D02*
Y418468D01*
X371748D01*
X371092Y417812D01*
Y416500D01*
X371748Y415844D01*
X373715D01*
X372404D02*
X371092Y414532D01*
X369780Y417812D02*
X369124Y418468D01*
X367812D01*
X367156Y417812D01*
Y415188D01*
X367812Y414532D01*
X369124D01*
X369780Y415188D01*
Y417812D01*
X363220Y418468D02*
X365844D01*
Y416500D01*
X364532Y417156D01*
X363876D01*
X363220Y416500D01*
Y415188D01*
X363876Y414532D01*
X365188D01*
X365844Y415188D01*
X361908Y414532D02*
Y417156D01*
X360596Y418468D01*
X359284Y417156D01*
Y414532D01*
Y416500D01*
X361908D01*
X298188Y483592D02*
X297532Y484248D01*
Y485560D01*
X298188Y486215D01*
X300812D01*
X301468Y485560D01*
Y484248D01*
X300812Y483592D01*
X298188Y482280D02*
X297532Y481624D01*
Y480312D01*
X298188Y479656D01*
X300812D01*
X301468Y480312D01*
Y481624D01*
X300812Y482280D01*
X298188D01*
X301468Y475720D02*
Y478344D01*
X298844Y475720D01*
X298188D01*
X297532Y476376D01*
Y477688D01*
X298188Y478344D01*
X301468Y474408D02*
X298844D01*
X297532Y473096D01*
X298844Y471784D01*
X301468D01*
X299500D01*
Y474408D01*
X299032Y456855D02*
Y455544D01*
Y456199D01*
X302968D01*
Y456855D01*
Y455544D01*
Y453576D02*
X299032D01*
Y451608D01*
X299688Y450952D01*
X301000D01*
X301656Y451608D01*
Y453576D01*
Y452264D02*
X302968Y450952D01*
Y445704D02*
X299032D01*
Y443736D01*
X299688Y443080D01*
X301000D01*
X301656Y443736D01*
Y445704D01*
Y444392D02*
X302968Y443080D01*
X299032Y441768D02*
X302968Y439145D01*
X299032D02*
X302968Y441768D01*
X349468Y453387D02*
X345532D01*
Y451420D01*
X346188Y450764D01*
X347500D01*
X348156Y451420D01*
Y453387D01*
Y452076D02*
X349468Y450764D01*
X346188Y449452D02*
X345532Y448796D01*
Y447484D01*
X346188Y446828D01*
X348812D01*
X349468Y447484D01*
Y448796D01*
X348812Y449452D01*
X346188D01*
X349468Y445516D02*
Y444204D01*
Y444860D01*
X345532D01*
X346188Y445516D01*
X349468Y442236D02*
X346844D01*
X345532Y440924D01*
X346844Y439612D01*
X349468D01*
X347500D01*
Y442236D01*
X364468Y454215D02*
X360532D01*
Y452248D01*
X361188Y451592D01*
X362500D01*
X363156Y452248D01*
Y454215D01*
Y452904D02*
X364468Y451592D01*
X361188Y450280D02*
X360532Y449624D01*
Y448312D01*
X361188Y447656D01*
X363812D01*
X364468Y448312D01*
Y449624D01*
X363812Y450280D01*
X361188D01*
X364468Y443720D02*
Y446344D01*
X361844Y443720D01*
X361188D01*
X360532Y444376D01*
Y445688D01*
X361188Y446344D01*
X364468Y442408D02*
X361844D01*
X360532Y441096D01*
X361844Y439784D01*
X364468D01*
X362500D01*
Y442408D01*
X334532Y439904D02*
X338468D01*
Y437280D01*
X334532Y433344D02*
Y435968D01*
X338468D01*
Y433344D01*
X336500Y435968D02*
Y434656D01*
X334532Y432032D02*
X338468D01*
Y430064D01*
X337812Y429408D01*
X335188D01*
X334532Y430064D01*
Y432032D01*
X338468Y428096D02*
Y426785D01*
Y427440D01*
X334532D01*
X335188Y428096D01*
X380532Y441216D02*
X384468D01*
Y438592D01*
X380532Y434656D02*
Y437280D01*
X384468D01*
Y434656D01*
X382500Y437280D02*
Y435968D01*
X380532Y433344D02*
X384468D01*
Y431376D01*
X383812Y430720D01*
X381188D01*
X380532Y431376D01*
Y433344D01*
X384468Y426785D02*
Y429408D01*
X381844Y426785D01*
X381188D01*
X380532Y427440D01*
Y428752D01*
X381188Y429408D01*
X441032Y441216D02*
X444968D01*
Y438592D01*
X441032Y434656D02*
Y437280D01*
X444968D01*
Y434656D01*
X443000Y437280D02*
Y435968D01*
X441032Y433344D02*
X444968D01*
Y431376D01*
X444312Y430720D01*
X441688D01*
X441032Y431376D01*
Y433344D01*
X441688Y429408D02*
X441032Y428752D01*
Y427440D01*
X441688Y426785D01*
X442344D01*
X443000Y427440D01*
Y428096D01*
Y427440D01*
X443656Y426785D01*
X444312D01*
X444968Y427440D01*
Y428752D01*
X444312Y429408D01*
D14*
X486500Y401126D02*
G03*
X494374Y409000I0J7874D01*
G01*
X494424Y493057D02*
G03*
X487481Y500000I-6943J0D01*
G01*
X272400Y499974D02*
G03*
X264526Y492100I0J-7874D01*
G01*
X264500Y409000D02*
G03*
X272374Y401126I7874J0D01*
G01*
X486500Y401100D01*
Y401126D01*
X494374Y409000D02*
X494400Y408900D01*
Y492100D01*
X494402Y493045D01*
X494424Y493057D01*
X272500Y500000D02*
X487481D01*
X272400Y499974D02*
X272500Y500000D01*
X264500Y492200D02*
X264526Y492100D01*
X264500Y409000D02*
Y492200D01*
D36*
X470000Y415000D02*
D03*
M02*
