G04*
G04 #@! TF.GenerationSoftware,Altium Limited,Altium Designer,20.0.10 (225)*
G04*
G04 Layer_Color=2752767*
%FSLAX25Y25*%
%MOIN*%
G70*
G01*
G75*
%ADD14C,0.01181*%
%ADD39C,0.00200*%
%ADD40C,0.00267*%
D14*
X486500Y401126D02*
G03*
X494374Y409000I0J7874D01*
G01*
X494424Y493057D02*
G03*
X487481Y500000I-6943J0D01*
G01*
X272400Y499974D02*
G03*
X264526Y492100I0J-7874D01*
G01*
X264500Y409000D02*
G03*
X272374Y401126I7874J0D01*
G01*
X486500Y401100D01*
Y401126D01*
X494374Y409000D02*
X494400Y408900D01*
Y492100D01*
X494402Y493045D01*
X494424Y493057D01*
X272500Y500000D02*
X487481D01*
X272400Y499974D02*
X272500Y500000D01*
X264500Y492200D02*
X264526Y492100D01*
X264500Y409000D02*
Y492200D01*
D39*
X345700Y487500D02*
Y489100D01*
X347300D01*
Y487500D01*
X345700D01*
X375700D02*
Y489100D01*
X377300D01*
Y487500D01*
X375700D01*
X414700Y465600D02*
Y467200D01*
X416300D01*
Y465600D01*
X414700D01*
Y425600D02*
Y427200D01*
X416300D01*
Y425600D01*
X414700D01*
X390500Y487500D02*
Y489100D01*
X392100D01*
Y487500D01*
X390500D01*
X420500D02*
Y489100D01*
X422100D01*
Y487500D01*
X420500D01*
X350000Y408600D02*
Y410200D01*
X351600D01*
Y408600D01*
X350000D01*
X380000D02*
Y410200D01*
X381600D01*
Y408600D01*
X380000D01*
X312300Y459747D02*
X311500Y461347D01*
X313100D01*
X312300Y459747D01*
Y449747D02*
X311500Y451347D01*
X313100D01*
X312300Y449747D01*
Y439747D02*
X311500Y441347D01*
X313100D01*
X312300Y439747D01*
X353800Y465600D02*
Y467200D01*
X355400D01*
Y465600D01*
X353800D01*
Y425600D02*
Y427200D01*
X355400D01*
Y425600D01*
X353800D01*
X369400Y465600D02*
Y467200D01*
X371000D01*
Y465600D01*
X369400D01*
Y425600D02*
Y427200D01*
X371000D01*
Y425600D01*
X369400D01*
X336920Y445381D02*
X337320Y445781D01*
X337720D01*
X337320Y446181D01*
X337720Y446581D01*
X337320D01*
X336920Y446981D01*
X336520Y446581D01*
X336120D01*
X336520Y446181D01*
X336120Y445781D01*
X336520D01*
X336920Y445381D01*
Y455381D02*
X337320Y455781D01*
X337720D01*
X337320Y456181D01*
X337720Y456581D01*
X337320D01*
X336920Y456981D01*
X336520Y456581D01*
X336120D01*
X336520Y456181D01*
X336120Y455781D01*
X336520D01*
X336920Y455381D01*
X388888Y445381D02*
X389288Y445781D01*
X389688D01*
X389288Y446181D01*
X389688Y446581D01*
X389288D01*
X388888Y446981D01*
X388488Y446581D01*
X388088D01*
X388488Y446181D01*
X388088Y445781D01*
X388488D01*
X388888Y445381D01*
Y455381D02*
X389288Y455781D01*
X389688D01*
X389288Y456181D01*
X389688Y456581D01*
X389288D01*
X388888Y456981D01*
X388488Y456581D01*
X388088D01*
X388488Y456181D01*
X388088Y455781D01*
X388488D01*
X388888Y455381D01*
X442746Y445381D02*
X443147Y445781D01*
X443546D01*
X443147Y446181D01*
X443546Y446581D01*
X443147D01*
X442746Y446981D01*
X442346Y446581D01*
X441947D01*
X442346Y446181D01*
X441947Y445781D01*
X442346D01*
X442746Y445381D01*
Y455381D02*
X443147Y455781D01*
X443546D01*
X443147Y456181D01*
X443546Y456581D01*
X443147D01*
X442746Y456981D01*
X442346Y456581D01*
X441947D01*
X442346Y456181D01*
X441947Y455781D01*
X442346D01*
X442746Y455381D01*
X460137Y476896D02*
X460537Y477696D01*
X460137Y478496D01*
X460937Y478096D01*
X461737Y478496D01*
X461337Y477696D01*
X461737Y476896D01*
X460937Y477296D01*
X460137Y476896D01*
Y413904D02*
X460537Y414704D01*
X460137Y415504D01*
X460937Y415104D01*
X461737Y415504D01*
X461337Y414704D01*
X461737Y413904D01*
X460937Y414304D01*
X460137Y413904D01*
Y469022D02*
X460537Y469822D01*
X460137Y470622D01*
X460937Y470222D01*
X461737Y470622D01*
X461337Y469822D01*
X461737Y469022D01*
X460937Y469422D01*
X460137Y469022D01*
Y461148D02*
X460537Y461948D01*
X460137Y462748D01*
X460937Y462348D01*
X461737Y462748D01*
X461337Y461948D01*
X461737Y461148D01*
X460937Y461548D01*
X460137Y461148D01*
Y453274D02*
X460537Y454074D01*
X460137Y454874D01*
X460937Y454474D01*
X461737Y454874D01*
X461337Y454074D01*
X461737Y453274D01*
X460937Y453674D01*
X460137Y453274D01*
Y445400D02*
X460537Y446200D01*
X460137Y447000D01*
X460937Y446600D01*
X461737Y447000D01*
X461337Y446200D01*
X461737Y445400D01*
X460937Y445800D01*
X460137Y445400D01*
Y437526D02*
X460537Y438326D01*
X460137Y439126D01*
X460937Y438726D01*
X461737Y439126D01*
X461337Y438326D01*
X461737Y437526D01*
X460937Y437926D01*
X460137Y437526D01*
Y429652D02*
X460537Y430452D01*
X460137Y431252D01*
X460937Y430852D01*
X461737Y431252D01*
X461337Y430452D01*
X461737Y429652D01*
X460937Y430052D01*
X460137Y429652D01*
Y421778D02*
X460537Y422578D01*
X460137Y423378D01*
X460937Y422978D01*
X461737Y423378D01*
X461337Y422578D01*
X461737Y421778D01*
X460937Y422178D01*
X460137Y421778D01*
X482191Y487789D02*
Y487389D01*
X482991D01*
Y487789D01*
X483391D01*
Y488589D01*
X482991D01*
Y488989D01*
X482191D01*
Y488589D01*
X481790D01*
Y487789D01*
X482191D01*
X276138Y412509D02*
Y412110D01*
X276938D01*
Y412509D01*
X277338D01*
Y413309D01*
X276938D01*
Y413709D01*
X276138D01*
Y413309D01*
X275738D01*
Y412509D01*
X276138D01*
D40*
X322700Y487600D02*
G03*
X322700Y487600I-800J0D01*
G01*
Y473820D02*
G03*
X322700Y473820I-800J0D01*
G01*
M02*
