G04*
G04 #@! TF.GenerationSoftware,Altium Limited,Altium Designer,20.0.10 (225)*
G04*
G04 Layer_Physical_Order=1*
G04 Layer_Color=255*
%FSLAX25Y25*%
%MOIN*%
G70*
G01*
G75*
%ADD13C,0.01000*%
%ADD14C,0.01181*%
%ADD15R,0.04331X0.05315*%
%ADD18R,0.05118X0.05118*%
%ADD19C,0.05118*%
%ADD27C,0.03937*%
%ADD28C,0.05512*%
%ADD29C,0.06496*%
%ADD30R,0.06496X0.06496*%
%ADD31R,0.06102X0.06102*%
%ADD32C,0.06102*%
%ADD33C,0.06181*%
%ADD34R,0.06181X0.06181*%
%ADD35C,0.11811*%
G36*
X489506Y499733D02*
X490770Y499210D01*
X491907Y498450D01*
X492874Y497483D01*
X493634Y496346D01*
X494158Y495082D01*
X494424Y493741D01*
Y493057D01*
X494402Y493045D01*
X494400Y492100D01*
Y409003D01*
X494374Y409000D01*
X494374Y409000D01*
Y408224D01*
X494071Y406703D01*
X493478Y405270D01*
X492616Y403981D01*
X491519Y402884D01*
X490230Y402022D01*
X488797Y401429D01*
X487276Y401126D01*
X486500D01*
Y401126D01*
X486474Y401100D01*
X272374Y401126D01*
X271599D01*
X270077Y401429D01*
X268644Y402022D01*
X267355Y402884D01*
X266258Y403981D01*
X265396Y405270D01*
X264803Y406703D01*
X264500Y408224D01*
Y409000D01*
Y492097D01*
X264526Y492100D01*
X264526Y492100D01*
Y492875D01*
X264829Y494397D01*
X265422Y495830D01*
X266284Y497119D01*
X267381Y498216D01*
X268670Y499078D01*
X270103Y499671D01*
X271624Y499974D01*
X272400D01*
X272500Y500000D01*
X488165D01*
X489506Y499733D01*
D02*
G37*
%LPC*%
G36*
X347000Y492023D02*
Y488800D01*
X350222D01*
X350159Y489281D01*
X349781Y490194D01*
X349179Y490979D01*
X348394Y491581D01*
X347481Y491959D01*
X347000Y492023D01*
D02*
G37*
G36*
X346000D02*
X345519Y491959D01*
X344606Y491581D01*
X343821Y490979D01*
X343219Y490194D01*
X342841Y489281D01*
X342777Y488800D01*
X346000D01*
Y492023D01*
D02*
G37*
G36*
X325459Y491159D02*
X322400D01*
Y488100D01*
X325459D01*
Y491159D01*
D02*
G37*
G36*
X321400D02*
X318341D01*
Y488100D01*
X321400D01*
Y491159D01*
D02*
G37*
G36*
X350222Y487800D02*
X347000D01*
Y484578D01*
X347481Y484641D01*
X348394Y485019D01*
X349179Y485621D01*
X349781Y486406D01*
X350159Y487320D01*
X350222Y487800D01*
D02*
G37*
G36*
X346000D02*
X342777D01*
X342841Y487320D01*
X343219Y486406D01*
X343821Y485621D01*
X344606Y485019D01*
X345519Y484641D01*
X346000Y484578D01*
Y487800D01*
D02*
G37*
G36*
X421300Y492088D02*
X420320Y491959D01*
X419406Y491581D01*
X418621Y490979D01*
X418019Y490194D01*
X417641Y489281D01*
X417512Y488300D01*
X417641Y487320D01*
X418019Y486406D01*
X418621Y485621D01*
X419406Y485019D01*
X420320Y484641D01*
X421300Y484512D01*
X422281Y484641D01*
X423194Y485019D01*
X423979Y485621D01*
X424581Y486406D01*
X424959Y487320D01*
X425088Y488300D01*
X424959Y489281D01*
X424581Y490194D01*
X423979Y490979D01*
X423194Y491581D01*
X422281Y491959D01*
X421300Y492088D01*
D02*
G37*
G36*
X391300D02*
X390319Y491959D01*
X389406Y491581D01*
X388621Y490979D01*
X388019Y490194D01*
X387641Y489281D01*
X387512Y488300D01*
X387641Y487320D01*
X388019Y486406D01*
X388621Y485621D01*
X389406Y485019D01*
X390319Y484641D01*
X391300Y484512D01*
X392281Y484641D01*
X393194Y485019D01*
X393979Y485621D01*
X394581Y486406D01*
X394959Y487320D01*
X395088Y488300D01*
X394959Y489281D01*
X394581Y490194D01*
X393979Y490979D01*
X393194Y491581D01*
X392281Y491959D01*
X391300Y492088D01*
D02*
G37*
G36*
X325459Y487100D02*
X322400D01*
Y484041D01*
X325459D01*
Y487100D01*
D02*
G37*
G36*
X321400D02*
X318341D01*
Y484041D01*
X321400D01*
Y487100D01*
D02*
G37*
G36*
X376500Y492088D02*
X375519Y491959D01*
X374606Y491581D01*
X373821Y490979D01*
X373219Y490194D01*
X372841Y489281D01*
X372712Y488300D01*
X372841Y487320D01*
X373205Y486441D01*
Y484245D01*
X372453Y483494D01*
X367020D01*
Y484457D01*
X358646D01*
Y480800D01*
Y477142D01*
X367020D01*
Y477506D01*
X373694D01*
X374469Y477608D01*
X375191Y477907D01*
X375811Y478383D01*
X378316Y480888D01*
X378792Y481508D01*
X379091Y482230D01*
X379193Y483005D01*
Y485640D01*
X379781Y486406D01*
X380159Y487320D01*
X380288Y488300D01*
X380159Y489281D01*
X379781Y490194D01*
X379179Y490979D01*
X378394Y491581D01*
X377481Y491959D01*
X376500Y492088D01*
D02*
G37*
G36*
X357646Y484457D02*
X354980D01*
Y481300D01*
X357646D01*
Y484457D01*
D02*
G37*
G36*
X482590Y495128D02*
X481237Y494995D01*
X479935Y494600D01*
X478735Y493959D01*
X477684Y493095D01*
X476821Y492044D01*
X476180Y490844D01*
X475785Y489543D01*
X475652Y488189D01*
X475785Y486835D01*
X476180Y485534D01*
X476821Y484334D01*
X477684Y483282D01*
X478735Y482419D01*
X479935Y481778D01*
X481237Y481383D01*
X482590Y481250D01*
X483944Y481383D01*
X485246Y481778D01*
X486446Y482419D01*
X487497Y483282D01*
X488360Y484334D01*
X489001Y485534D01*
X489396Y486835D01*
X489530Y488189D01*
X489396Y489543D01*
X489001Y490844D01*
X488360Y492044D01*
X487497Y493095D01*
X486446Y493959D01*
X485246Y494600D01*
X483944Y494995D01*
X482590Y495128D01*
D02*
G37*
G36*
X461437Y481756D02*
Y478196D01*
X464997D01*
X464922Y478764D01*
X464510Y479759D01*
X463854Y480614D01*
X463000Y481269D01*
X462005Y481681D01*
X461437Y481756D01*
D02*
G37*
G36*
X460437D02*
X459869Y481681D01*
X458874Y481269D01*
X458020Y480614D01*
X457364Y479759D01*
X456952Y478764D01*
X456877Y478196D01*
X460437D01*
Y481756D01*
D02*
G37*
G36*
X357646Y480300D02*
X354980D01*
Y477142D01*
X357646D01*
Y480300D01*
D02*
G37*
G36*
X321900Y477410D02*
X320971Y477288D01*
X320105Y476929D01*
X319362Y476359D01*
X318791Y475615D01*
X318433Y474750D01*
X318310Y473820D01*
X318433Y472891D01*
X318791Y472026D01*
X319362Y471282D01*
X320105Y470712D01*
X320971Y470353D01*
X321900Y470231D01*
X322829Y470353D01*
X323695Y470712D01*
X324438Y471282D01*
X325009Y472026D01*
X325367Y472891D01*
X325490Y473820D01*
X325367Y474750D01*
X325009Y475615D01*
X324438Y476359D01*
X323695Y476929D01*
X322829Y477288D01*
X321900Y477410D01*
D02*
G37*
G36*
X415500Y470188D02*
X414520Y470059D01*
X413606Y469681D01*
X412821Y469079D01*
X412219Y468294D01*
X411841Y467381D01*
X411712Y466400D01*
X411841Y465419D01*
X412219Y464506D01*
X412821Y463721D01*
X413606Y463119D01*
X414520Y462741D01*
X415500Y462612D01*
X416480Y462741D01*
X417394Y463119D01*
X418179Y463721D01*
X418781Y464506D01*
X419159Y465419D01*
X419288Y466400D01*
X419159Y467381D01*
X418781Y468294D01*
X418179Y469079D01*
X417394Y469681D01*
X416480Y470059D01*
X415500Y470188D01*
D02*
G37*
G36*
X370200D02*
X369219Y470059D01*
X368306Y469681D01*
X367521Y469079D01*
X366919Y468294D01*
X366541Y467381D01*
X366412Y466400D01*
X366541Y465419D01*
X366919Y464506D01*
X367521Y463721D01*
X368306Y463119D01*
X369219Y462741D01*
X370200Y462612D01*
X371181Y462741D01*
X372094Y463119D01*
X372879Y463721D01*
X373481Y464506D01*
X373859Y465419D01*
X373988Y466400D01*
X373859Y467381D01*
X373481Y468294D01*
X372879Y469079D01*
X372094Y469681D01*
X371181Y470059D01*
X370200Y470188D01*
D02*
G37*
G36*
X354600D02*
X353620Y470059D01*
X352706Y469681D01*
X351921Y469079D01*
X351319Y468294D01*
X350941Y467381D01*
X350812Y466400D01*
X350941Y465419D01*
X351319Y464506D01*
X351921Y463721D01*
X352706Y463119D01*
X353620Y462741D01*
X354600Y462612D01*
X355580Y462741D01*
X356494Y463119D01*
X357279Y463721D01*
X357881Y464506D01*
X358259Y465419D01*
X358388Y466400D01*
X358259Y467381D01*
X357881Y468294D01*
X357279Y469079D01*
X356494Y469681D01*
X355580Y470059D01*
X354600Y470188D01*
D02*
G37*
G36*
X312300Y464832D02*
X311191Y464686D01*
X310158Y464258D01*
X309270Y463577D01*
X308589Y462690D01*
X308161Y461656D01*
X308015Y460547D01*
X308161Y459438D01*
X308589Y458405D01*
X309270Y457517D01*
X310158Y456837D01*
X311191Y456409D01*
X312300Y456263D01*
X313409Y456409D01*
X314442Y456837D01*
X315330Y457517D01*
X316011Y458405D01*
X316439Y459438D01*
X316585Y460547D01*
X316439Y461656D01*
X316011Y462690D01*
X315330Y463577D01*
X314442Y464258D01*
X313409Y464686D01*
X312300Y464832D01*
D02*
G37*
G36*
X442746Y460267D02*
X441689Y460128D01*
X440703Y459720D01*
X439857Y459070D01*
X439208Y458224D01*
X438799Y457239D01*
X438660Y456181D01*
X438799Y455124D01*
X439208Y454138D01*
X439857Y453292D01*
X440703Y452642D01*
X441689Y452234D01*
X442746Y452095D01*
X443804Y452234D01*
X444790Y452642D01*
X445636Y453292D01*
X446285Y454138D01*
X446693Y455124D01*
X446833Y456181D01*
X446693Y457239D01*
X446285Y458224D01*
X445636Y459070D01*
X444790Y459720D01*
X443804Y460128D01*
X442746Y460267D01*
D02*
G37*
G36*
X388888D02*
X387831Y460128D01*
X386845Y459720D01*
X385999Y459070D01*
X385349Y458224D01*
X384941Y457239D01*
X384802Y456181D01*
X384941Y455124D01*
X385349Y454138D01*
X385999Y453292D01*
X386845Y452642D01*
X387831Y452234D01*
X388888Y452095D01*
X389946Y452234D01*
X390931Y452642D01*
X391777Y453292D01*
X392427Y454138D01*
X392835Y455124D01*
X392974Y456181D01*
X392835Y457239D01*
X392427Y458224D01*
X391777Y459070D01*
X390931Y459720D01*
X389946Y460128D01*
X388888Y460267D01*
D02*
G37*
G36*
X336920D02*
X335862Y460128D01*
X334877Y459720D01*
X334030Y459070D01*
X333381Y458224D01*
X332973Y457239D01*
X332834Y456181D01*
X332973Y455124D01*
X333381Y454138D01*
X334030Y453292D01*
X334877Y452642D01*
X335862Y452234D01*
X336920Y452095D01*
X337977Y452234D01*
X338963Y452642D01*
X339809Y453292D01*
X340458Y454138D01*
X340867Y455124D01*
X341006Y456181D01*
X340867Y457239D01*
X340458Y458224D01*
X339809Y459070D01*
X338963Y459720D01*
X337977Y460128D01*
X336920Y460267D01*
D02*
G37*
G36*
X312800Y454766D02*
Y451047D01*
X316519D01*
X316439Y451656D01*
X316011Y452690D01*
X315330Y453577D01*
X314442Y454258D01*
X313409Y454686D01*
X312800Y454766D01*
D02*
G37*
G36*
X311800D02*
X311191Y454686D01*
X310158Y454258D01*
X309270Y453577D01*
X308589Y452690D01*
X308161Y451656D01*
X308081Y451047D01*
X311800D01*
Y454766D01*
D02*
G37*
G36*
X316519Y450047D02*
X312800D01*
Y446328D01*
X313409Y446409D01*
X314442Y446837D01*
X315330Y447517D01*
X316011Y448405D01*
X316439Y449438D01*
X316519Y450047D01*
D02*
G37*
G36*
X311800D02*
X308081D01*
X308161Y449438D01*
X308589Y448405D01*
X309270Y447517D01*
X310158Y446837D01*
X311191Y446409D01*
X311800Y446328D01*
Y450047D01*
D02*
G37*
G36*
X446798Y450232D02*
X438695D01*
Y442130D01*
X446798D01*
Y450232D01*
D02*
G37*
G36*
X392939D02*
X384837D01*
Y442130D01*
X392939D01*
Y450232D01*
D02*
G37*
G36*
X340971D02*
X332869D01*
Y442130D01*
X340971D01*
Y450232D01*
D02*
G37*
G36*
X464997Y477196D02*
X456877D01*
X456952Y476628D01*
X457364Y475633D01*
X458020Y474779D01*
X458874Y474123D01*
X459149Y474009D01*
Y473509D01*
X458874Y473395D01*
X458020Y472740D01*
X457364Y471885D01*
X456952Y470890D01*
X456811Y469822D01*
X456952Y468754D01*
X457364Y467759D01*
X458020Y466905D01*
X458874Y466249D01*
X459149Y466135D01*
Y465635D01*
X458874Y465521D01*
X458020Y464865D01*
X457364Y464011D01*
X456952Y463016D01*
X456811Y461948D01*
X456952Y460880D01*
X457364Y459885D01*
X458020Y459031D01*
X458874Y458375D01*
X459149Y458261D01*
Y457761D01*
X458874Y457647D01*
X458020Y456991D01*
X457364Y456137D01*
X456952Y455142D01*
X456811Y454074D01*
X456952Y453006D01*
X457364Y452011D01*
X458020Y451157D01*
X458874Y450501D01*
X459149Y450387D01*
Y449887D01*
X458874Y449773D01*
X458020Y449117D01*
X457364Y448263D01*
X456952Y447268D01*
X456811Y446200D01*
X456952Y445132D01*
X457364Y444137D01*
X458020Y443283D01*
X458874Y442627D01*
X459149Y442513D01*
Y442013D01*
X458874Y441899D01*
X458020Y441243D01*
X457364Y440389D01*
X456952Y439394D01*
X456877Y438826D01*
X464997D01*
X464922Y439394D01*
X464510Y440389D01*
X463854Y441243D01*
X463000Y441899D01*
X462725Y442013D01*
Y442513D01*
X463000Y442627D01*
X463854Y443283D01*
X464510Y444137D01*
X464922Y445132D01*
X465063Y446200D01*
X464922Y447268D01*
X464510Y448263D01*
X463854Y449117D01*
X463000Y449773D01*
X462725Y449887D01*
Y450387D01*
X463000Y450501D01*
X463854Y451157D01*
X464510Y452011D01*
X464922Y453006D01*
X465063Y454074D01*
X464922Y455142D01*
X464510Y456137D01*
X463854Y456991D01*
X463000Y457647D01*
X462725Y457761D01*
Y458261D01*
X463000Y458375D01*
X463854Y459031D01*
X464510Y459885D01*
X464922Y460880D01*
X465063Y461948D01*
X464922Y463016D01*
X464510Y464011D01*
X463854Y464865D01*
X463000Y465521D01*
X462725Y465635D01*
Y466135D01*
X463000Y466249D01*
X463854Y466905D01*
X464510Y467759D01*
X464922Y468754D01*
X465063Y469822D01*
X464922Y470890D01*
X464510Y471885D01*
X463854Y472740D01*
X463000Y473395D01*
X462725Y473509D01*
Y474009D01*
X463000Y474123D01*
X463854Y474779D01*
X464510Y475633D01*
X464922Y476628D01*
X464997Y477196D01*
D02*
G37*
G36*
X316548Y444795D02*
X308052D01*
Y436299D01*
X316548D01*
Y444795D01*
D02*
G37*
G36*
X415500Y430188D02*
X414520Y430059D01*
X413606Y429681D01*
X412821Y429079D01*
X412219Y428294D01*
X411841Y427381D01*
X411712Y426400D01*
X411841Y425420D01*
X412219Y424506D01*
X412821Y423721D01*
X413606Y423119D01*
X414520Y422741D01*
X415500Y422612D01*
X416480Y422741D01*
X417394Y423119D01*
X418179Y423721D01*
X418781Y424506D01*
X419159Y425420D01*
X419288Y426400D01*
X419159Y427381D01*
X418781Y428294D01*
X418179Y429079D01*
X417394Y429681D01*
X416480Y430059D01*
X415500Y430188D01*
D02*
G37*
G36*
X370200D02*
X369219Y430059D01*
X368306Y429681D01*
X367521Y429079D01*
X366919Y428294D01*
X366541Y427381D01*
X366412Y426400D01*
X366541Y425420D01*
X366919Y424506D01*
X367521Y423721D01*
X368306Y423119D01*
X369219Y422741D01*
X370200Y422612D01*
X371181Y422741D01*
X372094Y423119D01*
X372879Y423721D01*
X373481Y424506D01*
X373859Y425420D01*
X373988Y426400D01*
X373859Y427381D01*
X373481Y428294D01*
X372879Y429079D01*
X372094Y429681D01*
X371181Y430059D01*
X370200Y430188D01*
D02*
G37*
G36*
X354600D02*
X353620Y430059D01*
X352706Y429681D01*
X351921Y429079D01*
X351319Y428294D01*
X350941Y427381D01*
X350812Y426400D01*
X350941Y425420D01*
X351319Y424506D01*
X351921Y423721D01*
X352706Y423119D01*
X353620Y422741D01*
X354600Y422612D01*
X355580Y422741D01*
X356494Y423119D01*
X357279Y423721D01*
X357881Y424506D01*
X358259Y425420D01*
X358388Y426400D01*
X358259Y427381D01*
X357881Y428294D01*
X357279Y429079D01*
X356494Y429681D01*
X355580Y430059D01*
X354600Y430188D01*
D02*
G37*
G36*
X464997Y437826D02*
X456877D01*
X456952Y437258D01*
X457364Y436263D01*
X458020Y435409D01*
X458874Y434753D01*
X459149Y434639D01*
Y434139D01*
X458874Y434025D01*
X458020Y433369D01*
X457364Y432515D01*
X456952Y431520D01*
X456811Y430452D01*
X456952Y429384D01*
X457364Y428389D01*
X458020Y427534D01*
X458874Y426879D01*
X459149Y426765D01*
Y426265D01*
X458874Y426151D01*
X458020Y425495D01*
X457364Y424641D01*
X456952Y423646D01*
X456811Y422578D01*
X456952Y421510D01*
X457364Y420515D01*
X458020Y419661D01*
X458497Y419295D01*
X458327Y418794D01*
X456847D01*
Y410613D01*
X465028D01*
Y418794D01*
X463547D01*
X463377Y419295D01*
X463854Y419661D01*
X464510Y420515D01*
X464922Y421510D01*
X465063Y422578D01*
X464922Y423646D01*
X464510Y424641D01*
X463854Y425495D01*
X463000Y426151D01*
X462725Y426265D01*
Y426765D01*
X463000Y426879D01*
X463854Y427534D01*
X464510Y428389D01*
X464922Y429384D01*
X465063Y430452D01*
X464922Y431520D01*
X464510Y432515D01*
X463854Y433369D01*
X463000Y434025D01*
X462725Y434139D01*
Y434639D01*
X463000Y434753D01*
X463854Y435409D01*
X464510Y436263D01*
X464922Y437258D01*
X464997Y437826D01*
D02*
G37*
G36*
X276538Y419848D02*
X275184Y419715D01*
X273882Y419320D01*
X272683Y418679D01*
X271631Y417816D01*
X270768Y416764D01*
X270127Y415565D01*
X269732Y414263D01*
X269599Y412910D01*
X269732Y411556D01*
X270127Y410254D01*
X270768Y409054D01*
X271631Y408003D01*
X272683Y407140D01*
X273882Y406499D01*
X275184Y406104D01*
X276538Y405970D01*
X277891Y406104D01*
X279193Y406499D01*
X280393Y407140D01*
X281444Y408003D01*
X282307Y409054D01*
X282948Y410254D01*
X283343Y411556D01*
X283477Y412910D01*
X283343Y414263D01*
X282948Y415565D01*
X282307Y416764D01*
X281444Y417816D01*
X280393Y418679D01*
X279193Y419320D01*
X277891Y419715D01*
X276538Y419848D01*
D02*
G37*
G36*
X380800Y413188D02*
X379819Y413059D01*
X378906Y412681D01*
X378121Y412079D01*
X377519Y411294D01*
X377141Y410381D01*
X377012Y409400D01*
X377141Y408420D01*
X377519Y407506D01*
X378121Y406721D01*
X378906Y406119D01*
X379819Y405741D01*
X380800Y405612D01*
X381781Y405741D01*
X382694Y406119D01*
X383479Y406721D01*
X384081Y407506D01*
X384459Y408420D01*
X384588Y409400D01*
X384459Y410381D01*
X384081Y411294D01*
X383479Y412079D01*
X382694Y412681D01*
X381781Y413059D01*
X380800Y413188D01*
D02*
G37*
G36*
X350800D02*
X349819Y413059D01*
X348906Y412681D01*
X348121Y412079D01*
X347519Y411294D01*
X347141Y410381D01*
X347012Y409400D01*
X347141Y408420D01*
X347519Y407506D01*
X348121Y406721D01*
X348906Y406119D01*
X349819Y405741D01*
X350800Y405612D01*
X351781Y405741D01*
X352694Y406119D01*
X353479Y406721D01*
X354081Y407506D01*
X354459Y408420D01*
X354588Y409400D01*
X354459Y410381D01*
X354081Y411294D01*
X353479Y412079D01*
X352694Y412681D01*
X351781Y413059D01*
X350800Y413188D01*
D02*
G37*
%LPD*%
D13*
X391300Y488300D02*
X391500Y488500D01*
D14*
X486500Y401126D02*
G03*
X494374Y409000I0J7874D01*
G01*
X494424Y493057D02*
G03*
X487481Y500000I-6943J0D01*
G01*
X272400Y499974D02*
G03*
X264526Y492100I0J-7874D01*
G01*
X264500Y409000D02*
G03*
X272374Y401126I7874J0D01*
G01*
X486500Y401100D01*
Y401126D01*
X494374Y409000D02*
X494400Y408900D01*
Y492100D01*
X494402Y493045D01*
X494424Y493057D01*
X272500Y500000D02*
X487481D01*
X272400Y499974D02*
X272500Y500000D01*
X264500Y492200D02*
X264526Y492100D01*
X264500Y409000D02*
Y492200D01*
D15*
X358146Y480800D02*
D03*
X363854D02*
D03*
D18*
X321900Y487600D02*
D03*
D19*
Y473820D02*
D03*
D27*
X376199Y488199D02*
X376500Y488500D01*
X364051Y480500D02*
X373694D01*
X376199Y483005D02*
Y488199D01*
X373694Y480500D02*
X376199Y483005D01*
X363854Y480697D02*
Y480800D01*
Y480697D02*
X364051Y480500D01*
D28*
X346500Y488300D02*
D03*
X376500D02*
D03*
X415500Y466400D02*
D03*
Y426400D02*
D03*
X391300Y488300D02*
D03*
X421300D02*
D03*
X350800Y409400D02*
D03*
X380800D02*
D03*
X354600Y466400D02*
D03*
Y426400D02*
D03*
X370200Y466400D02*
D03*
Y426400D02*
D03*
D29*
X312300Y460547D02*
D03*
Y450547D02*
D03*
D30*
Y440547D02*
D03*
D31*
X336920Y446181D02*
D03*
X388888D02*
D03*
X442746D02*
D03*
D32*
X336920Y456181D02*
D03*
X388888D02*
D03*
X442746D02*
D03*
D33*
X460937Y477696D02*
D03*
Y469822D02*
D03*
Y461948D02*
D03*
Y454074D02*
D03*
Y446200D02*
D03*
Y438326D02*
D03*
Y430452D02*
D03*
Y422578D02*
D03*
D34*
Y414704D02*
D03*
D35*
X482590Y488189D02*
D03*
X276538Y412910D02*
D03*
M02*
