G04*
G04 #@! TF.GenerationSoftware,Altium Limited,Altium Designer,20.0.10 (225)*
G04*
G04 Layer_Color=32768*
%FSLAX25Y25*%
%MOIN*%
G70*
G01*
G75*
%ADD12C,0.00787*%
%ADD14C,0.01181*%
%ADD37C,0.00394*%
%ADD38C,0.00197*%
D12*
X321900Y463584D02*
G03*
X321900Y497836I0J17126D01*
G01*
D02*
G03*
X321900Y463584I0J-17126D01*
G01*
D14*
X486500Y401126D02*
G03*
X494374Y409000I0J7874D01*
G01*
X494424Y493057D02*
G03*
X487481Y500000I-6943J0D01*
G01*
X272400Y499974D02*
G03*
X264526Y492100I0J-7874D01*
G01*
X264500Y409000D02*
G03*
X272374Y401126I7874J0D01*
G01*
X486500Y401100D01*
Y401126D01*
X494374Y409000D02*
X494400Y408900D01*
Y492100D01*
X494402Y493045D01*
X494424Y493057D01*
X272500Y500000D02*
X487481D01*
X272400Y499974D02*
X272500Y500000D01*
X264500Y492200D02*
X264526Y492100D01*
X264500Y409000D02*
Y492200D01*
D37*
X359032Y480800D02*
X362968D01*
X361000Y478831D02*
Y482768D01*
X310332Y450547D02*
X314268D01*
X312300Y448579D02*
Y452516D01*
X336920Y449213D02*
Y453150D01*
X334951Y451181D02*
X338888D01*
X388888Y449213D02*
Y453150D01*
X386920Y451181D02*
X390857D01*
X442746Y449213D02*
Y453150D01*
X440778Y451181D02*
X444715D01*
D38*
X355685Y477454D02*
Y484146D01*
X366315Y477454D02*
Y484146D01*
X355685D02*
X366315D01*
X355685Y477454D02*
X366315D01*
X306395Y436905D02*
Y464189D01*
X326080D01*
X306395Y436905D02*
X326080D01*
Y464189D01*
M02*
