%TF.GenerationSoftware,Altium Limited,Altium Designer,20.0.10 (225)*%
G04 Layer_Color=16711935*
%FSLAX26Y26*%
%MOIN*%
%TF.FileFunction,Soldermask,Bot*%
%TF.Part,Single*%
G01*
G75*
%TA.AperFunction,ComponentPad*%
%ADD14R,0.051181X0.051181*%
%ADD15C,0.051181*%
%ADD25C,0.063118*%
%ADD26C,0.072961*%
%ADD27R,0.072961X0.072961*%
%ADD28R,0.069024X0.069024*%
%ADD29C,0.069024*%
%TA.AperFunction,ViaPad*%
%ADD30C,0.069811*%
%ADD31R,0.069811X0.069811*%
%ADD32C,0.126110*%
D14*
X3219000Y4876000D02*
D03*
D15*
Y4738205D02*
D03*
D25*
X3465000Y4883000D02*
D03*
X3765000D02*
D03*
X4155000Y4664000D02*
D03*
Y4264000D02*
D03*
X3913000Y4883000D02*
D03*
X4213000D02*
D03*
X3508000Y4094000D02*
D03*
X3808000D02*
D03*
X3546000Y4664000D02*
D03*
Y4264000D02*
D03*
X3702000Y4664000D02*
D03*
Y4264000D02*
D03*
D26*
X3123000Y4605472D02*
D03*
Y4505472D02*
D03*
D27*
Y4405472D02*
D03*
D28*
X3369197Y4461811D02*
D03*
X3888882D02*
D03*
X4427465D02*
D03*
D29*
X3369197Y4561811D02*
D03*
X3888882D02*
D03*
X4427465D02*
D03*
D30*
X4609370Y4776961D02*
D03*
Y4698220D02*
D03*
Y4619480D02*
D03*
Y4540740D02*
D03*
Y4462000D02*
D03*
Y4383260D02*
D03*
Y4304520D02*
D03*
Y4225779D02*
D03*
D31*
Y4147039D02*
D03*
D32*
X4825905Y4881890D02*
D03*
X2765378Y4129095D02*
D03*
%TF.MD5,1f4dfa37010b0c49ad5afade80aee0af*%
M02*
