%TF.GenerationSoftware,Altium Limited,Altium Designer,20.0.10 (225)*%
G04 Layer_Color=2752767*
%FSLAX26Y26*%
%MOIN*%
%TF.FileFunction,Drawing*%
%TF.Part,Single*%
G01*
G75*
%TA.AperFunction,NonConductor*%
%ADD58C,0.005000*%
%ADD59C,0.006667*%
D58*
X3445000Y4863000D02*
Y4903000D01*
X3485000D01*
Y4863000D01*
X3445000D01*
X3745000D02*
Y4903000D01*
X3785000D01*
Y4863000D01*
X3745000D01*
X4135000Y4644000D02*
Y4684000D01*
X4175000D01*
Y4644000D01*
X4135000D01*
Y4244000D02*
Y4284000D01*
X4175000D01*
Y4244000D01*
X4135000D01*
X3893000Y4863000D02*
Y4903000D01*
X3933000D01*
Y4863000D01*
X3893000D01*
X4193000D02*
Y4903000D01*
X4233000D01*
Y4863000D01*
X4193000D01*
X3488000Y4074000D02*
Y4114000D01*
X3528000D01*
Y4074000D01*
X3488000D01*
X3788000D02*
Y4114000D01*
X3828000D01*
Y4074000D01*
X3788000D01*
X3123000Y4585472D02*
X3103000Y4625472D01*
X3143000D01*
X3123000Y4585472D01*
Y4485472D02*
X3103000Y4525472D01*
X3143000D01*
X3123000Y4485472D01*
Y4385472D02*
X3103000Y4425472D01*
X3143000D01*
X3123000Y4385472D01*
X3526000Y4644000D02*
Y4684000D01*
X3566000D01*
Y4644000D01*
X3526000D01*
Y4244000D02*
Y4284000D01*
X3566000D01*
Y4244000D01*
X3526000D01*
X3682000Y4644000D02*
Y4684000D01*
X3722000D01*
Y4644000D01*
X3682000D01*
Y4244000D02*
Y4284000D01*
X3722000D01*
Y4244000D01*
X3682000D01*
X3369197Y4441811D02*
X3379197Y4451811D01*
X3389197D01*
X3379197Y4461811D01*
X3389197Y4471811D01*
X3379197D01*
X3369197Y4481811D01*
X3359197Y4471811D01*
X3349197D01*
X3359197Y4461811D01*
X3349197Y4451811D01*
X3359197D01*
X3369197Y4441811D01*
Y4541811D02*
X3379197Y4551811D01*
X3389197D01*
X3379197Y4561811D01*
X3389197Y4571811D01*
X3379197D01*
X3369197Y4581811D01*
X3359197Y4571811D01*
X3349197D01*
X3359197Y4561811D01*
X3349197Y4551811D01*
X3359197D01*
X3369197Y4541811D01*
X3888882Y4441811D02*
X3898882Y4451811D01*
X3908882D01*
X3898882Y4461811D01*
X3908882Y4471811D01*
X3898882D01*
X3888882Y4481811D01*
X3878882Y4471811D01*
X3868882D01*
X3878882Y4461811D01*
X3868882Y4451811D01*
X3878882D01*
X3888882Y4441811D01*
Y4541811D02*
X3898882Y4551811D01*
X3908882D01*
X3898882Y4561811D01*
X3908882Y4571811D01*
X3898882D01*
X3888882Y4581811D01*
X3878882Y4571811D01*
X3868882D01*
X3878882Y4561811D01*
X3868882Y4551811D01*
X3878882D01*
X3888882Y4541811D01*
X4427465Y4441811D02*
X4437465Y4451811D01*
X4447465D01*
X4437465Y4461811D01*
X4447465Y4471811D01*
X4437465D01*
X4427465Y4481811D01*
X4417465Y4471811D01*
X4407465D01*
X4417465Y4461811D01*
X4407465Y4451811D01*
X4417465D01*
X4427465Y4441811D01*
Y4541811D02*
X4437465Y4551811D01*
X4447465D01*
X4437465Y4561811D01*
X4447465Y4571811D01*
X4437465D01*
X4427465Y4581811D01*
X4417465Y4571811D01*
X4407465D01*
X4417465Y4561811D01*
X4407465Y4551811D01*
X4417465D01*
X4427465Y4541811D01*
X4589370Y4756961D02*
X4599370Y4776961D01*
X4589370Y4796961D01*
X4609370Y4786961D01*
X4629370Y4796961D01*
X4619370Y4776961D01*
X4629370Y4756961D01*
X4609370Y4766961D01*
X4589370Y4756961D01*
Y4127039D02*
X4599370Y4147039D01*
X4589370Y4167039D01*
X4609370Y4157039D01*
X4629370Y4167039D01*
X4619370Y4147039D01*
X4629370Y4127039D01*
X4609370Y4137039D01*
X4589370Y4127039D01*
Y4678220D02*
X4599370Y4698220D01*
X4589370Y4718220D01*
X4609370Y4708220D01*
X4629370Y4718220D01*
X4619370Y4698220D01*
X4629370Y4678220D01*
X4609370Y4688220D01*
X4589370Y4678220D01*
Y4599480D02*
X4599370Y4619480D01*
X4589370Y4639480D01*
X4609370Y4629480D01*
X4629370Y4639480D01*
X4619370Y4619480D01*
X4629370Y4599480D01*
X4609370Y4609480D01*
X4589370Y4599480D01*
Y4520740D02*
X4599370Y4540740D01*
X4589370Y4560740D01*
X4609370Y4550740D01*
X4629370Y4560740D01*
X4619370Y4540740D01*
X4629370Y4520740D01*
X4609370Y4530740D01*
X4589370Y4520740D01*
Y4442000D02*
X4599370Y4462000D01*
X4589370Y4482000D01*
X4609370Y4472000D01*
X4629370Y4482000D01*
X4619370Y4462000D01*
X4629370Y4442000D01*
X4609370Y4452000D01*
X4589370Y4442000D01*
Y4363260D02*
X4599370Y4383260D01*
X4589370Y4403260D01*
X4609370Y4393260D01*
X4629370Y4403260D01*
X4619370Y4383260D01*
X4629370Y4363260D01*
X4609370Y4373260D01*
X4589370Y4363260D01*
Y4284520D02*
X4599370Y4304520D01*
X4589370Y4324520D01*
X4609370Y4314520D01*
X4629370Y4324520D01*
X4619370Y4304520D01*
X4629370Y4284520D01*
X4609370Y4294520D01*
X4589370Y4284520D01*
Y4205779D02*
X4599370Y4225779D01*
X4589370Y4245779D01*
X4609370Y4235779D01*
X4629370Y4245779D01*
X4619370Y4225779D01*
X4629370Y4205779D01*
X4609370Y4215779D01*
X4589370Y4205779D01*
X4815905Y4871890D02*
Y4861890D01*
X4835905D01*
Y4871890D01*
X4845905D01*
Y4891890D01*
X4835905D01*
Y4901890D01*
X4815905D01*
Y4891890D01*
X4805905D01*
Y4871890D01*
X4815905D01*
X2755378Y4119095D02*
Y4109095D01*
X2775378D01*
Y4119095D01*
X2785378D01*
Y4139095D01*
X2775378D01*
Y4149095D01*
X2755378D01*
Y4139095D01*
X2745378D01*
Y4119095D01*
X2755378D01*
D59*
X3239000Y4876000D02*
G03*
X3239000Y4876000I-20000J0D01*
G01*
Y4738205D02*
G03*
X3239000Y4738205I-20000J0D01*
G01*
%TF.MD5,a296c447a940624e9628f6b278507091*%
M02*
