%TF.GenerationSoftware,Altium Limited,Altium Designer,20.0.10 (225)*%
G04 Layer_Color=255*
%FSLAX26Y26*%
%MOIN*%
%TF.FileFunction,Pads,Bot*%
%TF.Part,Single*%
G01*
G75*
%TA.AperFunction,ComponentPad*%
%ADD13C,0.055118*%
%ADD14R,0.051181X0.051181*%
%ADD15C,0.051181*%
%ADD16C,0.064961*%
%ADD17R,0.064961X0.064961*%
%ADD18R,0.061024X0.061024*%
%ADD19C,0.061024*%
%TA.AperFunction,ViaPad*%
%ADD20C,0.061811*%
%ADD21R,0.061811X0.061811*%
%ADD22C,0.118110*%
D13*
X3465000Y4883000D02*
D03*
X3765000D02*
D03*
X4155000Y4664000D02*
D03*
Y4264000D02*
D03*
X3913000Y4883000D02*
D03*
X4213000D02*
D03*
X3508000Y4094000D02*
D03*
X3808000D02*
D03*
X3546000Y4664000D02*
D03*
Y4264000D02*
D03*
X3702000Y4664000D02*
D03*
Y4264000D02*
D03*
D14*
X3219000Y4876000D02*
D03*
D15*
Y4738205D02*
D03*
D16*
X3123000Y4605472D02*
D03*
Y4505472D02*
D03*
D17*
Y4405472D02*
D03*
D18*
X3369197Y4461811D02*
D03*
X3888882D02*
D03*
X4427465D02*
D03*
D19*
X3369197Y4561811D02*
D03*
X3888882D02*
D03*
X4427465D02*
D03*
D20*
X4609370Y4776961D02*
D03*
Y4698220D02*
D03*
Y4619480D02*
D03*
Y4540740D02*
D03*
Y4462000D02*
D03*
Y4383260D02*
D03*
Y4304520D02*
D03*
Y4225779D02*
D03*
D21*
Y4147039D02*
D03*
D22*
X4825905Y4881890D02*
D03*
X2765378Y4129095D02*
D03*
%TF.MD5,e927bcbfe529eb58f6988e1b8f3a4675*%
M02*
