%TF.GenerationSoftware,Altium Limited,Altium Designer,20.0.10 (225)*%
G04 Layer_Color=65535*
%FSLAX26Y26*%
%MOIN*%
%TF.FileFunction,Legend,Top*%
%TF.Part,Single*%
G01*
G75*
%TA.AperFunction,NonConductor*%
%ADD23C,0.005906*%
%ADD33C,0.009842*%
%ADD34C,0.007874*%
%ADD35C,0.010000*%
G36*
X4532450Y4124227D02*
X4526124D01*
Y4164370D01*
X4526046Y4164292D01*
X4525734Y4163980D01*
X4525187Y4163589D01*
X4524484Y4163043D01*
X4523625Y4162340D01*
X4522609Y4161637D01*
X4521438Y4160778D01*
X4520110Y4159997D01*
X4520032D01*
X4519954Y4159919D01*
X4519485Y4159606D01*
X4518783Y4159216D01*
X4517923Y4158747D01*
X4516908Y4158200D01*
X4515815Y4157732D01*
X4514643Y4157185D01*
X4513550Y4156717D01*
Y4162886D01*
X4513628D01*
X4513784Y4162965D01*
X4514097Y4163121D01*
X4514409Y4163355D01*
X4514878Y4163589D01*
X4515424Y4163824D01*
X4516674Y4164527D01*
X4518080Y4165386D01*
X4519642Y4166401D01*
X4521204Y4167573D01*
X4522688Y4168822D01*
X4522766Y4168900D01*
X4522844Y4168978D01*
X4523312Y4169447D01*
X4524015Y4170150D01*
X4524874Y4171009D01*
X4525812Y4172102D01*
X4526749Y4173274D01*
X4527608Y4174523D01*
X4528311Y4175773D01*
X4532450D01*
Y4124227D01*
D02*
G37*
G36*
X4796787Y4880482D02*
X4233213D01*
Y4989518D01*
X4796787D01*
Y4880482D01*
D02*
G37*
G36*
X4471609Y4028798D02*
X3998391D01*
Y4111203D01*
X4471609D01*
Y4028798D01*
D02*
G37*
G36*
X4519078Y4812124D02*
X4519469D01*
X4520015Y4812046D01*
X4521265Y4811890D01*
X4522671Y4811500D01*
X4524155Y4811031D01*
X4525795Y4810406D01*
X4527357Y4809469D01*
X4527435D01*
X4527513Y4809313D01*
X4527747Y4809157D01*
X4528060Y4809001D01*
X4528762Y4808376D01*
X4529700Y4807517D01*
X4530715Y4806345D01*
X4531808Y4805096D01*
X4532824Y4803533D01*
X4533683Y4801737D01*
Y4801659D01*
X4533761Y4801503D01*
X4533917Y4801190D01*
X4533995Y4800800D01*
X4534230Y4800331D01*
X4534386Y4799707D01*
X4534542Y4798926D01*
X4534776Y4798066D01*
X4535011Y4797129D01*
X4535167Y4796036D01*
X4535401Y4794864D01*
X4535557Y4793615D01*
X4535635Y4792209D01*
X4535792Y4790725D01*
X4535870Y4789085D01*
Y4787367D01*
Y4787289D01*
Y4786898D01*
Y4786430D01*
Y4785727D01*
X4535792Y4784946D01*
Y4783930D01*
X4535713Y4782915D01*
X4535635Y4781744D01*
X4535323Y4779244D01*
X4534932Y4776589D01*
X4534386Y4774012D01*
X4534073Y4772840D01*
X4533683Y4771669D01*
Y4771591D01*
X4533605Y4771434D01*
X4533449Y4771122D01*
X4533292Y4770731D01*
X4533058Y4770185D01*
X4532824Y4769638D01*
X4532121Y4768389D01*
X4531184Y4766905D01*
X4530090Y4765421D01*
X4528841Y4764015D01*
X4527357Y4762765D01*
X4527279D01*
X4527200Y4762609D01*
X4526966Y4762531D01*
X4526576Y4762297D01*
X4526185Y4762062D01*
X4525717Y4761828D01*
X4524545Y4761281D01*
X4523061Y4760735D01*
X4521421Y4760266D01*
X4519469Y4759954D01*
X4517438Y4759797D01*
X4516891D01*
X4516423Y4759876D01*
X4515954D01*
X4515329Y4759954D01*
X4513923Y4760188D01*
X4512361Y4760578D01*
X4510721Y4761203D01*
X4509159Y4761984D01*
X4507597Y4763078D01*
X4507519Y4763156D01*
X4507441Y4763234D01*
X4506973Y4763703D01*
X4506348Y4764484D01*
X4505567Y4765499D01*
X4504786Y4766827D01*
X4504083Y4768467D01*
X4503458Y4770341D01*
X4503068Y4772528D01*
X4509081Y4772996D01*
Y4772918D01*
Y4772840D01*
X4509159Y4772606D01*
X4509238Y4772293D01*
X4509394Y4771512D01*
X4509706Y4770653D01*
X4510097Y4769638D01*
X4510565Y4768623D01*
X4511190Y4767608D01*
X4511971Y4766827D01*
X4512049Y4766748D01*
X4512361Y4766514D01*
X4512830Y4766202D01*
X4513533Y4765889D01*
X4514314Y4765577D01*
X4515251Y4765265D01*
X4516345Y4765030D01*
X4517594Y4764952D01*
X4518063D01*
X4518609Y4765030D01*
X4519312Y4765108D01*
X4520093Y4765265D01*
X4520953Y4765499D01*
X4521812Y4765811D01*
X4522671Y4766280D01*
X4522749Y4766358D01*
X4523061Y4766514D01*
X4523452Y4766827D01*
X4523920Y4767217D01*
X4524545Y4767686D01*
X4525092Y4768310D01*
X4525717Y4769013D01*
X4526263Y4769794D01*
X4526341Y4769872D01*
X4526498Y4770185D01*
X4526732Y4770731D01*
X4527122Y4771434D01*
X4527435Y4772293D01*
X4527825Y4773309D01*
X4528216Y4774480D01*
X4528606Y4775808D01*
Y4775886D01*
X4528684Y4775964D01*
Y4776199D01*
X4528762Y4776433D01*
X4528919Y4777214D01*
X4529075Y4778229D01*
X4529231Y4779401D01*
X4529387Y4780650D01*
X4529543Y4782056D01*
Y4783540D01*
Y4783618D01*
Y4783852D01*
Y4784243D01*
Y4784789D01*
X4529465Y4784633D01*
X4529153Y4784321D01*
X4528762Y4783696D01*
X4528138Y4783071D01*
X4527435Y4782290D01*
X4526498Y4781431D01*
X4525482Y4780650D01*
X4524311Y4779869D01*
X4524155Y4779791D01*
X4523764Y4779557D01*
X4523061Y4779323D01*
X4522202Y4779010D01*
X4521187Y4778620D01*
X4520015Y4778385D01*
X4518688Y4778151D01*
X4517282Y4778073D01*
X4516657D01*
X4516188Y4778151D01*
X4515642Y4778229D01*
X4515017Y4778307D01*
X4513533Y4778620D01*
X4511815Y4779166D01*
X4510956Y4779557D01*
X4510019Y4780025D01*
X4509159Y4780572D01*
X4508222Y4781197D01*
X4507363Y4781900D01*
X4506504Y4782681D01*
X4506426Y4782759D01*
X4506348Y4782915D01*
X4506114Y4783149D01*
X4505801Y4783540D01*
X4505489Y4784008D01*
X4505098Y4784555D01*
X4504708Y4785180D01*
X4504317Y4785961D01*
X4503927Y4786742D01*
X4503536Y4787679D01*
X4503146Y4788694D01*
X4502833Y4789788D01*
X4502521Y4790959D01*
X4502287Y4792131D01*
X4502208Y4793459D01*
X4502130Y4794864D01*
Y4794943D01*
Y4795177D01*
Y4795645D01*
X4502208Y4796192D01*
X4502287Y4796817D01*
X4502365Y4797598D01*
X4502521Y4798457D01*
X4502677Y4799394D01*
X4503224Y4801347D01*
X4503614Y4802440D01*
X4504083Y4803455D01*
X4504551Y4804549D01*
X4505176Y4805564D01*
X4505879Y4806501D01*
X4506660Y4807439D01*
X4506738Y4807517D01*
X4506895Y4807673D01*
X4507129Y4807907D01*
X4507519Y4808220D01*
X4507910Y4808532D01*
X4508457Y4808922D01*
X4509081Y4809391D01*
X4509862Y4809860D01*
X4510643Y4810250D01*
X4511502Y4810719D01*
X4513455Y4811500D01*
X4514548Y4811734D01*
X4515720Y4811968D01*
X4516969Y4812124D01*
X4518219Y4812203D01*
X4518688D01*
X4519078Y4812124D01*
D02*
G37*
G36*
X3023198Y4085236D02*
X3023475D01*
X3023844Y4085190D01*
X3024674Y4085052D01*
X3025596Y4084775D01*
X3026564Y4084406D01*
X3027532Y4083945D01*
X3027993Y4083623D01*
X3028454Y4083254D01*
X3028500D01*
X3028546Y4083162D01*
X3028823Y4082885D01*
X3029191Y4082424D01*
X3029652Y4081825D01*
X3030160Y4081041D01*
X3030574Y4080119D01*
X3030989Y4079013D01*
X3031220Y4077768D01*
X3027532Y4077491D01*
Y4077537D01*
Y4077584D01*
X3027440Y4077860D01*
X3027301Y4078229D01*
X3027163Y4078690D01*
X3026702Y4079750D01*
X3026425Y4080211D01*
X3026103Y4080626D01*
X3026057Y4080718D01*
X3025826Y4080903D01*
X3025503Y4081133D01*
X3025088Y4081456D01*
X3024535Y4081733D01*
X3023890Y4082009D01*
X3023152Y4082193D01*
X3022369Y4082240D01*
X3022046D01*
X3021723Y4082193D01*
X3021308Y4082101D01*
X3020801Y4082009D01*
X3020248Y4081825D01*
X3019741Y4081548D01*
X3019188Y4081225D01*
X3019095Y4081179D01*
X3018911Y4080995D01*
X3018588Y4080672D01*
X3018220Y4080257D01*
X3017759Y4079750D01*
X3017298Y4079105D01*
X3016837Y4078321D01*
X3016422Y4077445D01*
Y4077399D01*
X3016376Y4077353D01*
X3016329Y4077169D01*
X3016283Y4076984D01*
X3016191Y4076754D01*
X3016099Y4076431D01*
X3016007Y4076062D01*
X3015915Y4075647D01*
X3015822Y4075186D01*
X3015730Y4074679D01*
X3015638Y4074080D01*
X3015546Y4073481D01*
X3015500Y4072789D01*
X3015454Y4072052D01*
X3015407Y4071268D01*
Y4070484D01*
X3015454Y4070530D01*
X3015638Y4070761D01*
X3015915Y4071130D01*
X3016329Y4071590D01*
X3016791Y4072098D01*
X3017344Y4072605D01*
X3017989Y4073066D01*
X3018681Y4073481D01*
X3018773Y4073527D01*
X3019003Y4073619D01*
X3019418Y4073803D01*
X3019925Y4073988D01*
X3020525Y4074172D01*
X3021216Y4074356D01*
X3021954Y4074449D01*
X3022737Y4074495D01*
X3023106D01*
X3023383Y4074449D01*
X3023706Y4074403D01*
X3024074Y4074356D01*
X3024950Y4074172D01*
X3025918Y4073803D01*
X3026472Y4073619D01*
X3026979Y4073342D01*
X3027532Y4073020D01*
X3028085Y4072651D01*
X3028592Y4072236D01*
X3029099Y4071729D01*
X3029145Y4071683D01*
X3029191Y4071590D01*
X3029330Y4071452D01*
X3029514Y4071222D01*
X3029698Y4070945D01*
X3029929Y4070622D01*
X3030160Y4070254D01*
X3030436Y4069839D01*
X3030667Y4069332D01*
X3030897Y4068825D01*
X3031128Y4068225D01*
X3031312Y4067626D01*
X3031496Y4066934D01*
X3031635Y4066243D01*
X3031681Y4065459D01*
X3031727Y4064675D01*
Y4064629D01*
Y4064537D01*
Y4064399D01*
Y4064215D01*
X3031681Y4063938D01*
Y4063661D01*
X3031589Y4062924D01*
X3031404Y4062140D01*
X3031220Y4061218D01*
X3030897Y4060296D01*
X3030482Y4059374D01*
Y4059328D01*
X3030436Y4059282D01*
X3030344Y4059144D01*
X3030252Y4058959D01*
X3029975Y4058544D01*
X3029606Y4057991D01*
X3029099Y4057392D01*
X3028500Y4056792D01*
X3027854Y4056193D01*
X3027071Y4055640D01*
X3026979Y4055594D01*
X3026702Y4055456D01*
X3026241Y4055225D01*
X3025688Y4054994D01*
X3024950Y4054764D01*
X3024120Y4054534D01*
X3023198Y4054395D01*
X3022230Y4054349D01*
X3022046D01*
X3021769Y4054395D01*
X3021447D01*
X3021078Y4054441D01*
X3020617Y4054534D01*
X3020110Y4054626D01*
X3019557Y4054764D01*
X3018957Y4054948D01*
X3018312Y4055179D01*
X3017713Y4055456D01*
X3017067Y4055778D01*
X3016422Y4056193D01*
X3015776Y4056654D01*
X3015177Y4057161D01*
X3014624Y4057760D01*
X3014578Y4057807D01*
X3014485Y4057945D01*
X3014347Y4058129D01*
X3014163Y4058406D01*
X3013932Y4058775D01*
X3013702Y4059236D01*
X3013425Y4059789D01*
X3013195Y4060434D01*
X3012918Y4061172D01*
X3012642Y4062002D01*
X3012411Y4062924D01*
X3012180Y4063938D01*
X3011996Y4065044D01*
X3011858Y4066289D01*
X3011766Y4067580D01*
X3011720Y4069009D01*
Y4069055D01*
Y4069101D01*
Y4069239D01*
Y4069378D01*
Y4069839D01*
X3011766Y4070438D01*
X3011812Y4071176D01*
X3011904Y4072005D01*
X3011996Y4072927D01*
X3012134Y4073896D01*
X3012273Y4074956D01*
X3012503Y4076016D01*
X3012780Y4077076D01*
X3013102Y4078091D01*
X3013471Y4079151D01*
X3013886Y4080073D01*
X3014393Y4080995D01*
X3014947Y4081779D01*
X3014993Y4081825D01*
X3015085Y4081917D01*
X3015223Y4082101D01*
X3015454Y4082332D01*
X3015776Y4082608D01*
X3016099Y4082885D01*
X3016514Y4083208D01*
X3016975Y4083530D01*
X3017482Y4083853D01*
X3018081Y4084176D01*
X3018681Y4084452D01*
X3019372Y4084729D01*
X3020110Y4084959D01*
X3020893Y4085144D01*
X3021723Y4085236D01*
X3022599Y4085282D01*
X3022922D01*
X3023198Y4085236D01*
D02*
G37*
G36*
X3128076Y4085236D02*
X3128675Y4085144D01*
X3129367Y4085006D01*
X3130150Y4084821D01*
X3130934Y4084545D01*
X3131718Y4084176D01*
X3131764D01*
X3131810Y4084130D01*
X3132087Y4083992D01*
X3132455Y4083761D01*
X3132916Y4083438D01*
X3133423Y4083023D01*
X3133977Y4082516D01*
X3134484Y4081917D01*
X3134945Y4081272D01*
X3134991Y4081179D01*
X3135129Y4080949D01*
X3135314Y4080580D01*
X3135498Y4080119D01*
X3135682Y4079520D01*
X3135867Y4078874D01*
X3136005Y4078183D01*
X3136051Y4077399D01*
Y4077307D01*
Y4077077D01*
X3136005Y4076708D01*
X3135913Y4076247D01*
X3135775Y4075693D01*
X3135590Y4075094D01*
X3135360Y4074449D01*
X3134991Y4073849D01*
X3134945Y4073757D01*
X3134807Y4073573D01*
X3134530Y4073296D01*
X3134207Y4072927D01*
X3133746Y4072513D01*
X3133239Y4072098D01*
X3132594Y4071637D01*
X3131856Y4071268D01*
X3131902D01*
X3131994Y4071222D01*
X3132133D01*
X3132317Y4071130D01*
X3132778Y4070991D01*
X3133377Y4070715D01*
X3134023Y4070392D01*
X3134714Y4069931D01*
X3135406Y4069378D01*
X3136005Y4068686D01*
X3136051Y4068594D01*
X3136236Y4068318D01*
X3136466Y4067903D01*
X3136789Y4067349D01*
X3137065Y4066658D01*
X3137296Y4065828D01*
X3137480Y4064860D01*
X3137526Y4063800D01*
Y4063754D01*
Y4063615D01*
Y4063431D01*
X3137480Y4063154D01*
X3137434Y4062785D01*
X3137388Y4062417D01*
X3137296Y4061956D01*
X3137158Y4061495D01*
X3136835Y4060434D01*
X3136604Y4059835D01*
X3136282Y4059282D01*
X3135959Y4058729D01*
X3135590Y4058175D01*
X3135129Y4057622D01*
X3134622Y4057069D01*
X3134576Y4057023D01*
X3134484Y4056931D01*
X3134345Y4056839D01*
X3134115Y4056654D01*
X3133838Y4056424D01*
X3133470Y4056193D01*
X3133055Y4055963D01*
X3132640Y4055732D01*
X3132133Y4055456D01*
X3131579Y4055225D01*
X3130980Y4054995D01*
X3130335Y4054764D01*
X3129643Y4054580D01*
X3128906Y4054488D01*
X3128122Y4054395D01*
X3127338Y4054349D01*
X3126970D01*
X3126693Y4054395D01*
X3126324Y4054441D01*
X3125955Y4054488D01*
X3125494Y4054534D01*
X3125033Y4054626D01*
X3123973Y4054902D01*
X3122867Y4055363D01*
X3122313Y4055594D01*
X3121806Y4055917D01*
X3121253Y4056285D01*
X3120746Y4056700D01*
X3120700Y4056746D01*
X3120654Y4056793D01*
X3120515Y4056931D01*
X3120331Y4057115D01*
X3120147Y4057392D01*
X3119916Y4057668D01*
X3119640Y4057991D01*
X3119409Y4058360D01*
X3118856Y4059282D01*
X3118395Y4060342D01*
X3117980Y4061541D01*
X3117842Y4062186D01*
X3117749Y4062878D01*
X3121484Y4063385D01*
Y4063339D01*
X3121530Y4063247D01*
Y4063062D01*
X3121622Y4062878D01*
X3121760Y4062325D01*
X3121991Y4061633D01*
X3122267Y4060895D01*
X3122636Y4060112D01*
X3123097Y4059420D01*
X3123604Y4058821D01*
X3123696Y4058775D01*
X3123881Y4058590D01*
X3124204Y4058406D01*
X3124664Y4058129D01*
X3125172Y4057899D01*
X3125817Y4057668D01*
X3126555Y4057484D01*
X3127338Y4057438D01*
X3127615D01*
X3127799Y4057484D01*
X3128260Y4057530D01*
X3128860Y4057668D01*
X3129597Y4057899D01*
X3130335Y4058175D01*
X3131072Y4058637D01*
X3131764Y4059236D01*
X3131856Y4059328D01*
X3132041Y4059559D01*
X3132317Y4059927D01*
X3132686Y4060481D01*
X3133009Y4061126D01*
X3133285Y4061910D01*
X3133470Y4062785D01*
X3133562Y4063754D01*
Y4063800D01*
Y4063846D01*
Y4063984D01*
X3133516Y4064169D01*
X3133470Y4064630D01*
X3133331Y4065229D01*
X3133147Y4065874D01*
X3132824Y4066612D01*
X3132409Y4067303D01*
X3131856Y4067949D01*
X3131764Y4068041D01*
X3131579Y4068225D01*
X3131211Y4068456D01*
X3130704Y4068778D01*
X3130104Y4069101D01*
X3129367Y4069332D01*
X3128583Y4069516D01*
X3127661Y4069608D01*
X3127246D01*
X3126923Y4069562D01*
X3126555Y4069516D01*
X3126094Y4069470D01*
X3125586Y4069378D01*
X3125033Y4069240D01*
X3125448Y4072513D01*
X3125679D01*
X3125863Y4072466D01*
X3126462D01*
X3126877Y4072513D01*
X3127477Y4072605D01*
X3128122Y4072743D01*
X3128814Y4072974D01*
X3129551Y4073250D01*
X3130289Y4073665D01*
X3130381Y4073711D01*
X3130611Y4073896D01*
X3130888Y4074218D01*
X3131257Y4074633D01*
X3131626Y4075140D01*
X3131902Y4075786D01*
X3132133Y4076569D01*
X3132225Y4077491D01*
Y4077537D01*
Y4077584D01*
Y4077814D01*
X3132133Y4078183D01*
X3132041Y4078690D01*
X3131902Y4079197D01*
X3131626Y4079750D01*
X3131303Y4080350D01*
X3130842Y4080857D01*
X3130796Y4080903D01*
X3130611Y4081087D01*
X3130289Y4081318D01*
X3129874Y4081548D01*
X3129367Y4081825D01*
X3128767Y4082009D01*
X3128076Y4082194D01*
X3127292Y4082240D01*
X3126923D01*
X3126508Y4082148D01*
X3126048Y4082055D01*
X3125448Y4081917D01*
X3124849Y4081640D01*
X3124250Y4081318D01*
X3123650Y4080857D01*
X3123604Y4080811D01*
X3123420Y4080626D01*
X3123189Y4080303D01*
X3122913Y4079843D01*
X3122590Y4079289D01*
X3122313Y4078598D01*
X3122037Y4077768D01*
X3121852Y4076800D01*
X3118118Y4077445D01*
Y4077491D01*
X3118164Y4077630D01*
X3118211Y4077814D01*
X3118257Y4078045D01*
X3118349Y4078367D01*
X3118441Y4078736D01*
X3118764Y4079566D01*
X3119133Y4080488D01*
X3119686Y4081456D01*
X3120331Y4082378D01*
X3121161Y4083208D01*
X3121207Y4083254D01*
X3121253Y4083300D01*
X3121391Y4083392D01*
X3121622Y4083530D01*
X3121852Y4083669D01*
X3122129Y4083853D01*
X3122820Y4084268D01*
X3123696Y4084637D01*
X3124757Y4084960D01*
X3125909Y4085190D01*
X3126555Y4085282D01*
X3127615D01*
X3128076Y4085236D01*
D02*
G37*
G36*
X2971751Y4081133D02*
X2959673D01*
X2958013Y4072974D01*
X2958059Y4073020D01*
X2958151Y4073066D01*
X2958290Y4073158D01*
X2958474Y4073296D01*
X2958751Y4073434D01*
X2959027Y4073573D01*
X2959765Y4073942D01*
X2960595Y4074310D01*
X2961563Y4074587D01*
X2962623Y4074818D01*
X2963729Y4074910D01*
X2964098D01*
X2964375Y4074864D01*
X2964744Y4074818D01*
X2965112Y4074771D01*
X2965573Y4074679D01*
X2966034Y4074587D01*
X2967095Y4074218D01*
X2967648Y4074034D01*
X2968201Y4073757D01*
X2968800Y4073434D01*
X2969354Y4073066D01*
X2969907Y4072651D01*
X2970414Y4072144D01*
X2970460Y4072098D01*
X2970552Y4072005D01*
X2970691Y4071867D01*
X2970829Y4071637D01*
X2971059Y4071360D01*
X2971290Y4071037D01*
X2971520Y4070669D01*
X2971797Y4070254D01*
X2972073Y4069747D01*
X2972304Y4069239D01*
X2972535Y4068640D01*
X2972765Y4068041D01*
X2972903Y4067349D01*
X2973042Y4066658D01*
X2973134Y4065874D01*
X2973180Y4065090D01*
Y4065044D01*
Y4064906D01*
Y4064675D01*
X2973134Y4064399D01*
X2973088Y4064030D01*
X2973042Y4063615D01*
X2972995Y4063154D01*
X2972903Y4062647D01*
X2972581Y4061541D01*
X2972166Y4060388D01*
X2971889Y4059743D01*
X2971566Y4059144D01*
X2971198Y4058544D01*
X2970783Y4057991D01*
X2970737Y4057945D01*
X2970644Y4057853D01*
X2970460Y4057668D01*
X2970229Y4057438D01*
X2969953Y4057161D01*
X2969584Y4056838D01*
X2969169Y4056516D01*
X2968662Y4056193D01*
X2968155Y4055824D01*
X2967556Y4055502D01*
X2966864Y4055179D01*
X2966173Y4054902D01*
X2965389Y4054672D01*
X2964605Y4054487D01*
X2963729Y4054395D01*
X2962807Y4054349D01*
X2962392D01*
X2962116Y4054395D01*
X2961793Y4054441D01*
X2961378Y4054487D01*
X2960917Y4054534D01*
X2960410Y4054626D01*
X2959350Y4054902D01*
X2958244Y4055317D01*
X2957690Y4055594D01*
X2957137Y4055916D01*
X2956584Y4056239D01*
X2956077Y4056654D01*
X2956031Y4056700D01*
X2955985Y4056746D01*
X2955846Y4056885D01*
X2955662Y4057069D01*
X2955477Y4057300D01*
X2955247Y4057576D01*
X2955017Y4057899D01*
X2954740Y4058268D01*
X2954233Y4059144D01*
X2953726Y4060204D01*
X2953357Y4061402D01*
X2953219Y4062094D01*
X2953126Y4062785D01*
X2957045Y4063062D01*
Y4063016D01*
Y4062924D01*
X2957091Y4062785D01*
X2957137Y4062601D01*
X2957275Y4062094D01*
X2957460Y4061448D01*
X2957690Y4060757D01*
X2958059Y4060066D01*
X2958474Y4059374D01*
X2959027Y4058775D01*
X2959119Y4058729D01*
X2959304Y4058544D01*
X2959626Y4058360D01*
X2960088Y4058083D01*
X2960641Y4057853D01*
X2961286Y4057622D01*
X2962024Y4057438D01*
X2962807Y4057392D01*
X2963084D01*
X2963268Y4057438D01*
X2963776Y4057484D01*
X2964421Y4057622D01*
X2965112Y4057899D01*
X2965896Y4058222D01*
X2966634Y4058729D01*
X2967003Y4059005D01*
X2967371Y4059374D01*
Y4059420D01*
X2967463Y4059466D01*
X2967648Y4059743D01*
X2967971Y4060204D01*
X2968293Y4060803D01*
X2968616Y4061587D01*
X2968939Y4062509D01*
X2969123Y4063569D01*
X2969215Y4064768D01*
Y4064814D01*
Y4064906D01*
Y4065090D01*
X2969169Y4065275D01*
Y4065551D01*
X2969123Y4065874D01*
X2968985Y4066612D01*
X2968800Y4067395D01*
X2968478Y4068225D01*
X2968017Y4069055D01*
X2967417Y4069793D01*
X2967325Y4069885D01*
X2967095Y4070069D01*
X2966726Y4070392D01*
X2966173Y4070715D01*
X2965527Y4071037D01*
X2964698Y4071360D01*
X2963776Y4071544D01*
X2962761Y4071637D01*
X2962439D01*
X2962116Y4071590D01*
X2961655Y4071544D01*
X2961148Y4071406D01*
X2960595Y4071268D01*
X2960041Y4071037D01*
X2959488Y4070761D01*
X2959442Y4070715D01*
X2959258Y4070622D01*
X2958981Y4070438D01*
X2958658Y4070207D01*
X2958336Y4069885D01*
X2957967Y4069516D01*
X2957598Y4069101D01*
X2957275Y4068640D01*
X2953772Y4069147D01*
X2956722Y4084683D01*
X2971751D01*
Y4081133D01*
D02*
G37*
G36*
X3104934Y4085236D02*
X3105302Y4085190D01*
X3105717Y4085144D01*
X3106178Y4085098D01*
X3106686Y4084960D01*
X3107792Y4084683D01*
X3108944Y4084268D01*
X3109544Y4083992D01*
X3110097Y4083669D01*
X3110604Y4083254D01*
X3111111Y4082839D01*
X3111157Y4082793D01*
X3111203Y4082747D01*
X3111342Y4082608D01*
X3111526Y4082424D01*
X3111710Y4082148D01*
X3111941Y4081871D01*
X3112402Y4081179D01*
X3112863Y4080303D01*
X3113278Y4079289D01*
X3113601Y4078137D01*
X3113647Y4077491D01*
X3113693Y4076846D01*
Y4076754D01*
Y4076523D01*
X3113647Y4076155D01*
X3113601Y4075693D01*
X3113508Y4075140D01*
X3113370Y4074541D01*
X3113186Y4073896D01*
X3112909Y4073250D01*
X3112863Y4073158D01*
X3112771Y4072927D01*
X3112586Y4072605D01*
X3112310Y4072144D01*
X3111987Y4071591D01*
X3111572Y4070945D01*
X3111019Y4070300D01*
X3110420Y4069562D01*
X3110327Y4069470D01*
X3110097Y4069193D01*
X3109682Y4068778D01*
X3109405Y4068502D01*
X3109083Y4068179D01*
X3108714Y4067810D01*
X3108253Y4067396D01*
X3107792Y4066981D01*
X3107285Y4066474D01*
X3106732Y4065966D01*
X3106086Y4065413D01*
X3105441Y4064860D01*
X3104703Y4064215D01*
X3104657Y4064169D01*
X3104565Y4064076D01*
X3104381Y4063938D01*
X3104150Y4063754D01*
X3103597Y4063293D01*
X3102905Y4062693D01*
X3102214Y4062048D01*
X3101476Y4061403D01*
X3100877Y4060849D01*
X3100646Y4060619D01*
X3100416Y4060388D01*
X3100370Y4060342D01*
X3100278Y4060204D01*
X3100093Y4060019D01*
X3099863Y4059743D01*
X3099356Y4059144D01*
X3098849Y4058406D01*
X3113739D01*
Y4054856D01*
X3093685D01*
Y4054902D01*
Y4055087D01*
Y4055363D01*
X3093731Y4055686D01*
X3093778Y4056055D01*
X3093824Y4056470D01*
X3093962Y4056931D01*
X3094100Y4057392D01*
Y4057438D01*
X3094146Y4057484D01*
X3094238Y4057761D01*
X3094423Y4058129D01*
X3094700Y4058683D01*
X3095022Y4059282D01*
X3095483Y4059973D01*
X3095944Y4060665D01*
X3096544Y4061403D01*
Y4061449D01*
X3096636Y4061495D01*
X3096866Y4061771D01*
X3097235Y4062186D01*
X3097788Y4062739D01*
X3098480Y4063385D01*
X3099309Y4064169D01*
X3100324Y4065044D01*
X3101430Y4066012D01*
X3101476Y4066059D01*
X3101661Y4066197D01*
X3101891Y4066381D01*
X3102214Y4066704D01*
X3102629Y4067027D01*
X3103090Y4067442D01*
X3104104Y4068318D01*
X3105210Y4069378D01*
X3106317Y4070438D01*
X3106870Y4070945D01*
X3107331Y4071452D01*
X3107746Y4071959D01*
X3108115Y4072420D01*
Y4072466D01*
X3108207Y4072513D01*
X3108299Y4072651D01*
X3108391Y4072835D01*
X3108668Y4073296D01*
X3108990Y4073896D01*
X3109313Y4074587D01*
X3109590Y4075325D01*
X3109774Y4076155D01*
X3109866Y4076938D01*
Y4076984D01*
Y4077030D01*
X3109820Y4077307D01*
X3109774Y4077722D01*
X3109682Y4078229D01*
X3109452Y4078828D01*
X3109175Y4079428D01*
X3108806Y4080073D01*
X3108253Y4080672D01*
X3108161Y4080718D01*
X3107976Y4080903D01*
X3107608Y4081133D01*
X3107146Y4081456D01*
X3106547Y4081733D01*
X3105856Y4081963D01*
X3105026Y4082148D01*
X3104104Y4082194D01*
X3103827D01*
X3103643Y4082148D01*
X3103182Y4082101D01*
X3102583Y4082009D01*
X3101891Y4081779D01*
X3101153Y4081502D01*
X3100462Y4081087D01*
X3099817Y4080534D01*
X3099771Y4080442D01*
X3099586Y4080257D01*
X3099309Y4079889D01*
X3099033Y4079381D01*
X3098710Y4078736D01*
X3098480Y4077999D01*
X3098295Y4077123D01*
X3098203Y4076108D01*
X3094377Y4076523D01*
Y4076569D01*
Y4076708D01*
X3094423Y4076938D01*
X3094469Y4077215D01*
X3094561Y4077584D01*
X3094607Y4077999D01*
X3094884Y4078921D01*
X3095253Y4079981D01*
X3095760Y4081041D01*
X3096451Y4082101D01*
X3096820Y4082562D01*
X3097281Y4083023D01*
X3097327Y4083070D01*
X3097419Y4083116D01*
X3097558Y4083254D01*
X3097742Y4083392D01*
X3098019Y4083530D01*
X3098341Y4083761D01*
X3098710Y4083945D01*
X3099125Y4084176D01*
X3099586Y4084360D01*
X3100093Y4084591D01*
X3100693Y4084775D01*
X3101292Y4084914D01*
X3102675Y4085190D01*
X3103412Y4085236D01*
X3104196Y4085282D01*
X3104611D01*
X3104934Y4085236D01*
D02*
G37*
G36*
X3057912Y4085236D02*
X3058280Y4085190D01*
X3058695Y4085144D01*
X3059156Y4085098D01*
X3059664Y4084959D01*
X3060770Y4084683D01*
X3061922Y4084268D01*
X3062522Y4083991D01*
X3063075Y4083669D01*
X3063582Y4083254D01*
X3064089Y4082839D01*
X3064135Y4082793D01*
X3064181Y4082747D01*
X3064320Y4082608D01*
X3064504Y4082424D01*
X3064688Y4082147D01*
X3064919Y4081871D01*
X3065380Y4081179D01*
X3065841Y4080303D01*
X3066256Y4079289D01*
X3066579Y4078137D01*
X3066625Y4077491D01*
X3066671Y4076846D01*
Y4076754D01*
Y4076523D01*
X3066625Y4076154D01*
X3066579Y4075693D01*
X3066486Y4075140D01*
X3066348Y4074541D01*
X3066164Y4073896D01*
X3065887Y4073250D01*
X3065841Y4073158D01*
X3065749Y4072927D01*
X3065564Y4072605D01*
X3065288Y4072144D01*
X3064965Y4071590D01*
X3064550Y4070945D01*
X3063997Y4070300D01*
X3063398Y4069562D01*
X3063305Y4069470D01*
X3063075Y4069193D01*
X3062660Y4068778D01*
X3062383Y4068502D01*
X3062061Y4068179D01*
X3061692Y4067810D01*
X3061231Y4067395D01*
X3060770Y4066981D01*
X3060263Y4066473D01*
X3059710Y4065966D01*
X3059064Y4065413D01*
X3058419Y4064860D01*
X3057681Y4064215D01*
X3057635Y4064168D01*
X3057543Y4064076D01*
X3057358Y4063938D01*
X3057128Y4063753D01*
X3056575Y4063293D01*
X3055883Y4062693D01*
X3055192Y4062048D01*
X3054454Y4061402D01*
X3053855Y4060849D01*
X3053624Y4060619D01*
X3053394Y4060388D01*
X3053348Y4060342D01*
X3053256Y4060204D01*
X3053071Y4060019D01*
X3052841Y4059743D01*
X3052334Y4059144D01*
X3051827Y4058406D01*
X3066717D01*
Y4054856D01*
X3046663D01*
Y4054902D01*
Y4055087D01*
Y4055363D01*
X3046709Y4055686D01*
X3046756Y4056055D01*
X3046802Y4056470D01*
X3046940Y4056931D01*
X3047078Y4057392D01*
Y4057438D01*
X3047124Y4057484D01*
X3047216Y4057760D01*
X3047401Y4058129D01*
X3047677Y4058682D01*
X3048000Y4059282D01*
X3048461Y4059973D01*
X3048922Y4060665D01*
X3049521Y4061402D01*
Y4061448D01*
X3049614Y4061495D01*
X3049844Y4061771D01*
X3050213Y4062186D01*
X3050766Y4062739D01*
X3051458Y4063385D01*
X3052287Y4064168D01*
X3053302Y4065044D01*
X3054408Y4066012D01*
X3054454Y4066059D01*
X3054639Y4066197D01*
X3054869Y4066381D01*
X3055192Y4066704D01*
X3055607Y4067027D01*
X3056068Y4067441D01*
X3057082Y4068317D01*
X3058188Y4069378D01*
X3059295Y4070438D01*
X3059848Y4070945D01*
X3060309Y4071452D01*
X3060724Y4071959D01*
X3061093Y4072420D01*
Y4072466D01*
X3061185Y4072512D01*
X3061277Y4072651D01*
X3061369Y4072835D01*
X3061646Y4073296D01*
X3061968Y4073896D01*
X3062291Y4074587D01*
X3062568Y4075325D01*
X3062752Y4076154D01*
X3062844Y4076938D01*
Y4076984D01*
Y4077030D01*
X3062798Y4077307D01*
X3062752Y4077722D01*
X3062660Y4078229D01*
X3062430Y4078828D01*
X3062153Y4079427D01*
X3061784Y4080073D01*
X3061231Y4080672D01*
X3061139Y4080718D01*
X3060954Y4080903D01*
X3060586Y4081133D01*
X3060124Y4081456D01*
X3059525Y4081733D01*
X3058834Y4081963D01*
X3058004Y4082147D01*
X3057082Y4082193D01*
X3056805D01*
X3056621Y4082147D01*
X3056160Y4082101D01*
X3055561Y4082009D01*
X3054869Y4081779D01*
X3054131Y4081502D01*
X3053440Y4081087D01*
X3052795Y4080534D01*
X3052749Y4080442D01*
X3052564Y4080257D01*
X3052287Y4079889D01*
X3052011Y4079381D01*
X3051688Y4078736D01*
X3051458Y4077998D01*
X3051273Y4077122D01*
X3051181Y4076108D01*
X3047355Y4076523D01*
Y4076569D01*
Y4076708D01*
X3047401Y4076938D01*
X3047447Y4077215D01*
X3047539Y4077584D01*
X3047585Y4077998D01*
X3047862Y4078920D01*
X3048231Y4079981D01*
X3048738Y4081041D01*
X3049429Y4082101D01*
X3049798Y4082562D01*
X3050259Y4083023D01*
X3050305Y4083069D01*
X3050397Y4083115D01*
X3050536Y4083254D01*
X3050720Y4083392D01*
X3050997Y4083530D01*
X3051319Y4083761D01*
X3051688Y4083945D01*
X3052103Y4084176D01*
X3052564Y4084360D01*
X3053071Y4084591D01*
X3053671Y4084775D01*
X3054270Y4084913D01*
X3055653Y4085190D01*
X3056390Y4085236D01*
X3057174Y4085282D01*
X3057589D01*
X3057912Y4085236D01*
D02*
G37*
G36*
X2943630Y4054856D02*
X2939896D01*
Y4078552D01*
X2939850Y4078506D01*
X2939665Y4078321D01*
X2939343Y4078091D01*
X2938928Y4077768D01*
X2938421Y4077353D01*
X2937821Y4076938D01*
X2937130Y4076431D01*
X2936346Y4075970D01*
X2936300D01*
X2936254Y4075924D01*
X2935977Y4075740D01*
X2935562Y4075509D01*
X2935055Y4075232D01*
X2934456Y4074910D01*
X2933811Y4074633D01*
X2933119Y4074310D01*
X2932474Y4074034D01*
Y4077676D01*
X2932520D01*
X2932612Y4077722D01*
X2932796Y4077814D01*
X2932981Y4077952D01*
X2933257Y4078091D01*
X2933580Y4078229D01*
X2934318Y4078644D01*
X2935147Y4079151D01*
X2936069Y4079750D01*
X2936991Y4080442D01*
X2937867Y4081179D01*
X2937913Y4081225D01*
X2937959Y4081271D01*
X2938236Y4081548D01*
X2938651Y4081963D01*
X2939158Y4082470D01*
X2939711Y4083115D01*
X2940265Y4083807D01*
X2940772Y4084545D01*
X2941186Y4085282D01*
X2943630D01*
Y4054856D01*
D02*
G37*
G36*
X3081423Y4085236D02*
X3081976Y4085144D01*
X3082621Y4085052D01*
X3083359Y4084867D01*
X3084097Y4084591D01*
X3084788Y4084268D01*
X3084880Y4084222D01*
X3085111Y4084084D01*
X3085433Y4083853D01*
X3085894Y4083577D01*
X3086355Y4083162D01*
X3086863Y4082655D01*
X3087370Y4082101D01*
X3087831Y4081456D01*
X3087877Y4081364D01*
X3088015Y4081133D01*
X3088245Y4080718D01*
X3088522Y4080211D01*
X3088799Y4079566D01*
X3089121Y4078782D01*
X3089444Y4077906D01*
X3089721Y4076938D01*
Y4076892D01*
X3089767Y4076800D01*
Y4076662D01*
X3089813Y4076431D01*
X3089905Y4076201D01*
X3089951Y4075878D01*
X3089997Y4075463D01*
X3090090Y4075048D01*
X3090136Y4074541D01*
X3090182Y4074034D01*
X3090274Y4073435D01*
X3090320Y4072789D01*
X3090366Y4072098D01*
Y4071406D01*
X3090412Y4069793D01*
Y4069747D01*
Y4069562D01*
Y4069286D01*
Y4068917D01*
X3090366Y4068456D01*
Y4067949D01*
X3090320Y4067349D01*
X3090274Y4066704D01*
X3090136Y4065321D01*
X3089951Y4063892D01*
X3089675Y4062463D01*
X3089490Y4061817D01*
X3089306Y4061172D01*
Y4061126D01*
X3089260Y4061034D01*
X3089214Y4060849D01*
X3089121Y4060619D01*
X3088983Y4060342D01*
X3088845Y4060066D01*
X3088476Y4059328D01*
X3088015Y4058498D01*
X3087462Y4057668D01*
X3086816Y4056839D01*
X3086033Y4056101D01*
X3085987D01*
X3085941Y4056009D01*
X3085802Y4055963D01*
X3085664Y4055824D01*
X3085157Y4055548D01*
X3084557Y4055225D01*
X3083728Y4054902D01*
X3082806Y4054626D01*
X3081745Y4054441D01*
X3080547Y4054349D01*
X3080132D01*
X3079809Y4054395D01*
X3079440Y4054441D01*
X3079026Y4054534D01*
X3078564Y4054626D01*
X3078057Y4054718D01*
X3076951Y4055087D01*
X3076352Y4055363D01*
X3075798Y4055640D01*
X3075199Y4056009D01*
X3074646Y4056424D01*
X3074139Y4056885D01*
X3073632Y4057438D01*
X3073586Y4057484D01*
X3073494Y4057622D01*
X3073355Y4057853D01*
X3073171Y4058175D01*
X3072940Y4058590D01*
X3072710Y4059097D01*
X3072433Y4059697D01*
X3072157Y4060434D01*
X3071880Y4061218D01*
X3071603Y4062140D01*
X3071373Y4063154D01*
X3071142Y4064261D01*
X3070958Y4065505D01*
X3070820Y4066796D01*
X3070727Y4068271D01*
X3070681Y4069793D01*
Y4069839D01*
Y4070023D01*
Y4070300D01*
Y4070669D01*
X3070727Y4071130D01*
Y4071637D01*
X3070774Y4072236D01*
X3070820Y4072881D01*
X3070958Y4074264D01*
X3071142Y4075693D01*
X3071373Y4077122D01*
X3071557Y4077768D01*
X3071742Y4078413D01*
Y4078459D01*
X3071788Y4078552D01*
X3071880Y4078736D01*
X3071972Y4078967D01*
X3072064Y4079243D01*
X3072203Y4079566D01*
X3072572Y4080303D01*
X3073032Y4081133D01*
X3073586Y4081963D01*
X3074231Y4082747D01*
X3075015Y4083484D01*
X3075061D01*
X3075107Y4083577D01*
X3075245Y4083669D01*
X3075430Y4083761D01*
X3075891Y4084038D01*
X3076536Y4084406D01*
X3077320Y4084729D01*
X3078288Y4085006D01*
X3079348Y4085190D01*
X3080547Y4085282D01*
X3080962D01*
X3081423Y4085236D01*
D02*
G37*
G36*
X3036613Y4054349D02*
X3033663D01*
X3042422Y4085651D01*
X3045372D01*
X3036613Y4054349D01*
D02*
G37*
G36*
X2999134Y4085236D02*
X2999687Y4085144D01*
X3000333Y4085052D01*
X3001070Y4084867D01*
X3001808Y4084591D01*
X3002499Y4084268D01*
X3002592Y4084222D01*
X3002822Y4084084D01*
X3003145Y4083853D01*
X3003606Y4083577D01*
X3004067Y4083162D01*
X3004574Y4082655D01*
X3005081Y4082101D01*
X3005542Y4081456D01*
X3005588Y4081364D01*
X3005727Y4081133D01*
X3005957Y4080718D01*
X3006234Y4080211D01*
X3006510Y4079566D01*
X3006833Y4078782D01*
X3007156Y4077906D01*
X3007432Y4076938D01*
Y4076892D01*
X3007478Y4076800D01*
Y4076662D01*
X3007524Y4076431D01*
X3007617Y4076200D01*
X3007663Y4075878D01*
X3007709Y4075463D01*
X3007801Y4075048D01*
X3007847Y4074541D01*
X3007893Y4074034D01*
X3007985Y4073434D01*
X3008032Y4072789D01*
X3008078Y4072098D01*
Y4071406D01*
X3008124Y4069793D01*
Y4069747D01*
Y4069562D01*
Y4069285D01*
Y4068917D01*
X3008078Y4068456D01*
Y4067949D01*
X3008032Y4067349D01*
X3007985Y4066704D01*
X3007847Y4065321D01*
X3007663Y4063892D01*
X3007386Y4062463D01*
X3007202Y4061817D01*
X3007017Y4061172D01*
Y4061126D01*
X3006971Y4061034D01*
X3006925Y4060849D01*
X3006833Y4060619D01*
X3006695Y4060342D01*
X3006556Y4060066D01*
X3006188Y4059328D01*
X3005727Y4058498D01*
X3005173Y4057668D01*
X3004528Y4056838D01*
X3003744Y4056101D01*
X3003698D01*
X3003652Y4056009D01*
X3003514Y4055963D01*
X3003375Y4055824D01*
X3002868Y4055548D01*
X3002269Y4055225D01*
X3001439Y4054902D01*
X3000517Y4054626D01*
X2999457Y4054441D01*
X2998258Y4054349D01*
X2997843D01*
X2997521Y4054395D01*
X2997152Y4054441D01*
X2996737Y4054534D01*
X2996276Y4054626D01*
X2995769Y4054718D01*
X2994662Y4055087D01*
X2994063Y4055363D01*
X2993510Y4055640D01*
X2992911Y4056009D01*
X2992358Y4056424D01*
X2991850Y4056885D01*
X2991343Y4057438D01*
X2991297Y4057484D01*
X2991205Y4057622D01*
X2991067Y4057853D01*
X2990882Y4058175D01*
X2990652Y4058590D01*
X2990421Y4059097D01*
X2990145Y4059697D01*
X2989868Y4060434D01*
X2989591Y4061218D01*
X2989315Y4062140D01*
X2989084Y4063154D01*
X2988854Y4064261D01*
X2988669Y4065505D01*
X2988531Y4066796D01*
X2988439Y4068271D01*
X2988393Y4069793D01*
Y4069839D01*
Y4070023D01*
Y4070300D01*
Y4070669D01*
X2988439Y4071130D01*
Y4071637D01*
X2988485Y4072236D01*
X2988531Y4072881D01*
X2988669Y4074264D01*
X2988854Y4075693D01*
X2989084Y4077122D01*
X2989269Y4077768D01*
X2989453Y4078413D01*
Y4078459D01*
X2989499Y4078552D01*
X2989591Y4078736D01*
X2989684Y4078966D01*
X2989776Y4079243D01*
X2989914Y4079566D01*
X2990283Y4080303D01*
X2990744Y4081133D01*
X2991297Y4081963D01*
X2991943Y4082747D01*
X2992726Y4083484D01*
X2992772D01*
X2992818Y4083577D01*
X2992957Y4083669D01*
X2993141Y4083761D01*
X2993602Y4084037D01*
X2994248Y4084406D01*
X2995031Y4084729D01*
X2995999Y4085006D01*
X2997060Y4085190D01*
X2998258Y4085282D01*
X2998673D01*
X2999134Y4085236D01*
D02*
G37*
G36*
X2977836Y4054349D02*
X2974886D01*
X2983645Y4085651D01*
X2986595D01*
X2977836Y4054349D01*
D02*
G37*
%LPC*%
G36*
X4488994Y4954555D02*
X4458926D01*
X4473614D01*
X4472232Y4954498D01*
X4470907Y4954325D01*
X4469755Y4954152D01*
X4468718Y4953922D01*
X4467912Y4953634D01*
X4467566Y4953518D01*
X4467278Y4953461D01*
X4466990Y4953346D01*
X4466818Y4953288D01*
X4466760Y4953230D01*
X4466702D01*
X4465608Y4952712D01*
X4464629Y4952078D01*
X4463822Y4951445D01*
X4463189Y4950869D01*
X4462670Y4950293D01*
X4462267Y4949832D01*
X4462037Y4949544D01*
X4461979Y4949486D01*
Y4949429D01*
X4461461Y4948507D01*
X4461058Y4947528D01*
X4460770Y4946664D01*
X4460597Y4945800D01*
X4460482Y4945109D01*
X4460366Y4944590D01*
Y4944360D01*
Y4944187D01*
Y4944130D01*
Y4944072D01*
X4460424Y4943150D01*
X4460597Y4942229D01*
X4460770Y4941422D01*
X4461058Y4940731D01*
X4461288Y4940155D01*
X4461461Y4939752D01*
X4461634Y4939464D01*
X4461691Y4939349D01*
X4462267Y4938600D01*
X4462901Y4937909D01*
X4463534Y4937333D01*
X4464226Y4936814D01*
X4464802Y4936411D01*
X4465262Y4936123D01*
X4465608Y4935893D01*
X4465666Y4935835D01*
X4465723D01*
X4466126Y4935605D01*
X4466645Y4935432D01*
X4467739Y4935029D01*
X4468949Y4934626D01*
X4470158Y4934222D01*
X4471253Y4933934D01*
X4471714Y4933819D01*
X4472117Y4933704D01*
X4472462Y4933589D01*
X4472750Y4933531D01*
X4472923Y4933474D01*
X4472981D01*
X4473902Y4933243D01*
X4474766Y4933013D01*
X4475573Y4932840D01*
X4476264Y4932667D01*
X4476840Y4932494D01*
X4477416Y4932322D01*
X4477877Y4932206D01*
X4478338Y4932091D01*
X4478683Y4931976D01*
X4478971Y4931861D01*
X4479432Y4931746D01*
X4479662Y4931688D01*
X4479720Y4931630D01*
X4480526Y4931285D01*
X4481275Y4930882D01*
X4481851Y4930536D01*
X4482312Y4930190D01*
X4482658Y4929845D01*
X4482946Y4929614D01*
X4483061Y4929442D01*
X4483118Y4929384D01*
X4483464Y4928866D01*
X4483694Y4928347D01*
X4483925Y4927829D01*
X4484040Y4927310D01*
X4484098Y4926907D01*
X4484155Y4926562D01*
Y4926331D01*
Y4926274D01*
X4484098Y4925640D01*
X4483982Y4925064D01*
X4483810Y4924488D01*
X4483637Y4924027D01*
X4483406Y4923624D01*
X4483234Y4923336D01*
X4483118Y4923106D01*
X4483061Y4923048D01*
X4482600Y4922530D01*
X4482082Y4922069D01*
X4481563Y4921666D01*
X4480987Y4921320D01*
X4480526Y4921032D01*
X4480123Y4920859D01*
X4479893Y4920744D01*
X4479778Y4920686D01*
X4478914Y4920398D01*
X4478050Y4920226D01*
X4477243Y4920053D01*
X4476437Y4919995D01*
X4475803Y4919938D01*
X4475227Y4919880D01*
X4474766D01*
X4473614Y4919938D01*
X4472520Y4920053D01*
X4471483Y4920226D01*
X4470677Y4920456D01*
X4469928Y4920629D01*
X4469410Y4920802D01*
X4469064Y4920917D01*
X4469006Y4920974D01*
X4468949D01*
X4468085Y4921435D01*
X4467278Y4921896D01*
X4466645Y4922414D01*
X4466126Y4922875D01*
X4465666Y4923278D01*
X4465378Y4923624D01*
X4465205Y4923854D01*
X4465147Y4923912D01*
X4464744Y4924661D01*
X4464398Y4925410D01*
X4464168Y4926216D01*
X4463938Y4926965D01*
X4463822Y4927656D01*
X4463707Y4928174D01*
X4463650Y4928520D01*
Y4928578D01*
Y4928635D01*
X4458926Y4928232D01*
D01*
X4459042Y4926850D01*
X4459272Y4925582D01*
X4459618Y4924373D01*
X4459963Y4923394D01*
X4460309Y4922530D01*
X4460482Y4922184D01*
X4460654Y4921896D01*
X4460770Y4921666D01*
X4460885Y4921493D01*
X4460942Y4921435D01*
Y4921378D01*
X4461749Y4920341D01*
X4462670Y4919419D01*
X4463534Y4918670D01*
X4464456Y4918037D01*
X4465205Y4917518D01*
X4465838Y4917173D01*
X4466069Y4917058D01*
X4466242Y4916942D01*
X4466357Y4916885D01*
X4466414D01*
X4467797Y4916424D01*
X4469237Y4916078D01*
X4470677Y4915790D01*
X4472002Y4915618D01*
X4472635Y4915560D01*
X4473211Y4915502D01*
X4473730D01*
X4474133Y4915445D01*
X4474997D01*
X4476494Y4915502D01*
X4477819Y4915675D01*
X4479086Y4915906D01*
X4480123Y4916194D01*
X4481045Y4916424D01*
X4481390Y4916539D01*
X4481678Y4916654D01*
X4481909Y4916770D01*
X4482082Y4916827D01*
X4482197Y4916885D01*
X4482254D01*
X4483406Y4917518D01*
X4484443Y4918152D01*
X4485307Y4918843D01*
X4485998Y4919534D01*
X4486574Y4920110D01*
X4486920Y4920571D01*
X4487208Y4920917D01*
X4487266Y4921032D01*
X4487842Y4922011D01*
X4488245Y4923048D01*
X4488590Y4924027D01*
X4488763Y4924891D01*
X4488878Y4925640D01*
X4488994Y4926216D01*
Y4925640D01*
Y4926216D01*
Y4926734D01*
X4488936Y4927829D01*
X4488763Y4928866D01*
X4488475Y4929787D01*
X4488187Y4930536D01*
X4487899Y4931227D01*
X4487611Y4931688D01*
X4487438Y4931976D01*
X4487381Y4932091D01*
X4486747Y4932898D01*
X4485998Y4933646D01*
X4485192Y4934338D01*
X4484386Y4934914D01*
X4483637Y4935317D01*
X4483061Y4935662D01*
X4482830Y4935778D01*
X4482715Y4935893D01*
X4482600Y4935950D01*
X4482542D01*
X4482082Y4936123D01*
X4481506Y4936354D01*
X4480930Y4936584D01*
X4480238Y4936757D01*
X4478856Y4937160D01*
X4477474Y4937563D01*
X4476206Y4937851D01*
X4475630Y4938024D01*
X4475112Y4938139D01*
X4474709Y4938254D01*
X4474421Y4938312D01*
X4474190Y4938370D01*
X4474133D01*
X4473038Y4938658D01*
X4472059Y4938888D01*
X4471195Y4939118D01*
X4470389Y4939406D01*
X4469698Y4939637D01*
X4469122Y4939810D01*
X4468603Y4940040D01*
X4468142Y4940270D01*
X4467739Y4940443D01*
X4467394Y4940558D01*
X4467163Y4940731D01*
X4466990Y4940846D01*
X4466702Y4941019D01*
X4466645Y4941077D01*
X4466184Y4941595D01*
X4465838Y4942114D01*
X4465550Y4942690D01*
X4465378Y4943208D01*
X4465262Y4943669D01*
X4465205Y4944072D01*
Y4944302D01*
Y4944418D01*
X4465320Y4945282D01*
X4465550Y4946030D01*
X4465838Y4946722D01*
X4466242Y4947298D01*
X4466587Y4947816D01*
X4466933Y4948162D01*
X4467163Y4948392D01*
X4467221Y4948450D01*
X4467624Y4948738D01*
X4468085Y4949026D01*
X4469122Y4949429D01*
X4470216Y4949717D01*
X4471310Y4949890D01*
X4472290Y4950062D01*
X4472750D01*
X4473096Y4950120D01*
X4473845D01*
X4475400Y4950062D01*
X4476725Y4949832D01*
X4477877Y4949544D01*
X4478798Y4949198D01*
X4479490Y4948853D01*
X4480008Y4948565D01*
X4480296Y4948334D01*
X4480411Y4948277D01*
X4481160Y4947528D01*
X4481794Y4946664D01*
X4482254Y4945800D01*
X4482600Y4944936D01*
X4482830Y4944130D01*
X4482946Y4943496D01*
X4483003Y4943266D01*
X4483061Y4943093D01*
Y4942978D01*
Y4942920D01*
X4487842Y4943266D01*
X4487726Y4944475D01*
X4487496Y4945570D01*
X4487150Y4946606D01*
X4486805Y4947470D01*
X4486517Y4948162D01*
X4486229Y4948738D01*
X4485998Y4949083D01*
X4485941Y4949198D01*
X4485250Y4950120D01*
X4484443Y4950926D01*
X4483637Y4951618D01*
X4482830Y4952194D01*
X4482082Y4952597D01*
X4481506Y4952942D01*
X4481275Y4953058D01*
X4481102Y4953115D01*
X4481045Y4953173D01*
X4480987D01*
X4479778Y4953634D01*
X4478510Y4953979D01*
X4477243Y4954210D01*
X4476091Y4954382D01*
X4475112Y4954498D01*
X4474709D01*
X4474306Y4954555D01*
X4488994D01*
D02*
G37*
G36*
X4724174Y4954555D02*
Y4934914D01*
X4724059Y4936987D01*
X4723829Y4938888D01*
X4723483Y4940616D01*
X4723253Y4941365D01*
X4723080Y4942114D01*
X4722850Y4942747D01*
X4722619Y4943323D01*
X4722446Y4943842D01*
X4722274Y4944245D01*
X4722158Y4944591D01*
X4722043Y4944821D01*
X4721928Y4944994D01*
Y4945051D01*
X4721006Y4946664D01*
X4720027Y4948047D01*
X4718933Y4949256D01*
X4717896Y4950235D01*
X4716974Y4950984D01*
X4716571Y4951330D01*
X4716226Y4951560D01*
X4715938Y4951791D01*
X4715707Y4951906D01*
X4715592Y4952021D01*
X4715534D01*
X4714728Y4952482D01*
X4713922Y4952885D01*
X4712309Y4953461D01*
X4710696Y4953922D01*
X4709256Y4954267D01*
X4708565Y4954325D01*
X4707989Y4954440D01*
X4707413Y4954498D01*
X4706952D01*
X4706606Y4954555D01*
X4706088D01*
X4704648Y4954498D01*
X4703208Y4954325D01*
X4701883Y4954037D01*
X4700674Y4953749D01*
X4699522Y4953288D01*
X4698427Y4952885D01*
X4697448Y4952367D01*
X4696526Y4951906D01*
X4695720Y4951387D01*
X4695029Y4950869D01*
X4694453Y4950466D01*
X4693934Y4950062D01*
X4693531Y4949717D01*
X4693243Y4949429D01*
X4693070Y4949256D01*
X4693013Y4949199D01*
X4692149Y4948162D01*
X4691342Y4947067D01*
X4690709Y4945858D01*
X4690133Y4944648D01*
X4689614Y4943439D01*
X4689211Y4942229D01*
X4688923Y4941019D01*
X4688635Y4939867D01*
X4688405Y4938715D01*
X4688290Y4937736D01*
X4688174Y4936815D01*
X4688059Y4936008D01*
Y4935374D01*
X4688002Y4934856D01*
Y4934453D01*
X4688117Y4932610D01*
X4688347Y4930882D01*
X4688693Y4929269D01*
X4688866Y4928578D01*
X4689096Y4927886D01*
X4689269Y4927253D01*
X4689442Y4926677D01*
X4689614Y4926216D01*
X4689787Y4925813D01*
X4689960Y4925467D01*
X4690018Y4925237D01*
X4690133Y4925064D01*
Y4925007D01*
X4691054Y4923451D01*
X4692034Y4922011D01*
X4693128Y4920859D01*
X4694165Y4919823D01*
X4695086Y4919016D01*
X4695490Y4918728D01*
X4695835Y4918440D01*
X4696123Y4918267D01*
X4696354Y4918095D01*
X4696469Y4918037D01*
X4696526Y4917979D01*
X4697333Y4917519D01*
X4698139Y4917173D01*
X4699810Y4916539D01*
X4701422Y4916078D01*
X4702862Y4915791D01*
X4703554Y4915675D01*
X4704187Y4915560D01*
X4704706Y4915502D01*
X4705166D01*
X4705570Y4915445D01*
X4724174D01*
Y4954555D01*
D02*
G37*
G36*
X4518715Y4954094D02*
X4493717D01*
D01*
X4507310D01*
X4506216Y4954037D01*
X4505179Y4953922D01*
X4504200Y4953691D01*
X4503278Y4953403D01*
X4502414Y4953058D01*
X4501666Y4952712D01*
X4500917Y4952309D01*
X4500283Y4951906D01*
X4499707Y4951502D01*
X4499189Y4951099D01*
X4498786Y4950754D01*
X4498382Y4950408D01*
X4498094Y4950120D01*
X4497922Y4949890D01*
X4497806Y4949774D01*
X4497749Y4949717D01*
X4497058Y4948738D01*
X4496424Y4947586D01*
X4495906Y4946434D01*
X4495445Y4945109D01*
X4495042Y4943842D01*
X4494696Y4942517D01*
X4494408Y4941192D01*
X4494235Y4939867D01*
X4494062Y4938658D01*
X4493947Y4937506D01*
X4493832Y4936469D01*
X4493774Y4935547D01*
X4493717Y4934798D01*
D01*
Y4933762D01*
X4493774Y4931976D01*
X4493890Y4930363D01*
X4494062Y4928808D01*
X4494293Y4927426D01*
X4494581Y4926158D01*
X4494869Y4925006D01*
X4495214Y4923970D01*
X4495560Y4923048D01*
X4495848Y4922242D01*
X4496194Y4921550D01*
X4496482Y4920974D01*
X4496770Y4920514D01*
X4497000Y4920168D01*
X4497173Y4919938D01*
X4497288Y4919765D01*
X4497346Y4919707D01*
X4498037Y4918958D01*
X4498786Y4918325D01*
X4499592Y4917749D01*
X4500398Y4917230D01*
X4501205Y4916827D01*
X4501954Y4916482D01*
X4502760Y4916194D01*
X4503509Y4915963D01*
X4504200Y4915790D01*
X4504834Y4915675D01*
X4505410Y4915560D01*
X4505870Y4915502D01*
X4506274D01*
X4506619Y4915445D01*
X4506850D01*
X4508059Y4915502D01*
X4509211Y4915675D01*
X4510248Y4915963D01*
X4511170Y4916251D01*
X4511861Y4916539D01*
X4512437Y4916827D01*
X4512782Y4917000D01*
X4512898Y4917058D01*
X4513877Y4917749D01*
X4514683Y4918498D01*
X4515432Y4919246D01*
X4516066Y4919995D01*
X4516526Y4920686D01*
X4516872Y4921205D01*
X4516987Y4921435D01*
X4517102Y4921608D01*
X4517160Y4921666D01*
Y4921723D01*
X4517678Y4922875D01*
X4518082Y4924027D01*
X4518312Y4925179D01*
X4518542Y4926158D01*
X4518658Y4927080D01*
Y4927426D01*
X4518715Y4927771D01*
Y4915445D01*
D01*
D01*
Y4954094D01*
D02*
G37*
G36*
X4593422Y4953922D02*
X4566534D01*
X4586626D01*
X4577582Y4927599D01*
X4577122Y4926158D01*
X4576661Y4924949D01*
X4576315Y4923912D01*
X4576085Y4923048D01*
X4575854Y4922414D01*
X4575682Y4921954D01*
X4575624Y4921666D01*
X4575566Y4921551D01*
X4575336Y4922299D01*
X4575048Y4923221D01*
X4574760Y4924142D01*
X4574472Y4925064D01*
X4574184Y4925870D01*
X4573954Y4926504D01*
X4573896Y4926792D01*
X4573838Y4926965D01*
X4573781Y4927080D01*
Y4927138D01*
X4564795Y4953922D01*
X4557307D01*
Y4916078D01*
X4562146D01*
Y4948277D01*
X4573032Y4916078D01*
X4567717D01*
X4580600D01*
X4577525D01*
X4588584Y4947758D01*
Y4916078D01*
X4593422D01*
Y4953922D01*
D02*
G37*
G36*
X4766568D02*
X4730453D01*
Y4916078D01*
X4735291D01*
Y4948277D01*
X4746178Y4916078D01*
X4750670D01*
X4761730Y4947758D01*
Y4916078D01*
X4766568D01*
Y4953922D01*
D02*
G37*
G36*
X4642728Y4921378D02*
X4637429D01*
Y4916078D01*
X4642728D01*
Y4921378D01*
D02*
G37*
G36*
X4630344Y4953922D02*
X4601486D01*
Y4916078D01*
X4606498D01*
Y4931515D01*
X4616174D01*
X4617614Y4931573D01*
X4618939Y4931631D01*
X4620149Y4931803D01*
X4621301Y4932034D01*
X4622280Y4932264D01*
X4623202Y4932552D01*
X4624008Y4932840D01*
X4624699Y4933186D01*
X4625333Y4933474D01*
X4625851Y4933762D01*
X4626254Y4934050D01*
X4626658Y4934280D01*
X4626888Y4934511D01*
X4627061Y4934683D01*
X4627176Y4934741D01*
X4627234Y4934798D01*
X4627810Y4935432D01*
X4628270Y4936123D01*
X4628674Y4936815D01*
X4629019Y4937506D01*
X4629595Y4938831D01*
X4629941Y4940155D01*
X4630114Y4940731D01*
X4630171Y4941250D01*
X4630229Y4941768D01*
X4630286Y4942171D01*
X4630344Y4942517D01*
Y4942978D01*
X4630286Y4944015D01*
X4630171Y4944994D01*
X4629998Y4945858D01*
X4629768Y4946606D01*
X4629538Y4947240D01*
X4629365Y4947701D01*
X4629250Y4947989D01*
X4629192Y4948104D01*
X4628731Y4948968D01*
X4628213Y4949659D01*
X4627694Y4950293D01*
X4627234Y4950811D01*
X4626830Y4951215D01*
X4626485Y4951502D01*
X4626197Y4951675D01*
X4626139Y4951733D01*
X4625390Y4952194D01*
X4624584Y4952597D01*
X4623835Y4952885D01*
X4623086Y4953115D01*
X4622453Y4953288D01*
X4621934Y4953403D01*
X4621589Y4953519D01*
X4621474D01*
X4620667Y4953634D01*
X4619746Y4953749D01*
X4618766Y4953806D01*
X4617845Y4953864D01*
X4616981Y4953922D01*
X4630344D01*
D01*
D02*
G37*
G36*
X4552296D02*
X4522402D01*
Y4916078D01*
Y4949486D01*
X4534843D01*
Y4916078D01*
X4539854D01*
Y4949486D01*
X4552296D01*
Y4953922D01*
D02*
G37*
G36*
X4453973Y4953864D02*
X4427765D01*
D01*
X4445045D01*
X4427765Y4929384D01*
Y4916078D01*
Y4925122D01*
X4444181D01*
Y4916078D01*
X4448846D01*
Y4925122D01*
X4453973D01*
Y4953864D01*
D02*
G37*
G36*
X4422523Y4921378D02*
X4417224D01*
Y4916078D01*
X4422523D01*
Y4921378D01*
D02*
G37*
G36*
X4411810Y4953922D02*
X4363195D01*
D01*
X4373102Y4916078D01*
X4378344D01*
X4386293Y4944878D01*
X4386466Y4945627D01*
X4386696Y4946376D01*
X4386869Y4947067D01*
X4387042Y4947816D01*
X4387214Y4948392D01*
X4387330Y4948910D01*
X4387445Y4949198D01*
Y4949314D01*
X4387502Y4949141D01*
X4387560Y4948910D01*
X4387733Y4948277D01*
X4387906Y4947586D01*
X4388136Y4946779D01*
X4388309Y4946088D01*
X4388482Y4945454D01*
X4388539Y4945224D01*
X4388597Y4945051D01*
X4388654Y4944936D01*
Y4944878D01*
X4396603Y4916078D01*
X4401499D01*
X4411810Y4953922D01*
D01*
D02*
G37*
G36*
X4361928D02*
X4313314D01*
D01*
X4323221Y4916078D01*
X4328462D01*
X4336411Y4944878D01*
X4336584Y4945627D01*
X4336814Y4946376D01*
X4336987Y4947067D01*
X4337160Y4947816D01*
X4337333Y4948392D01*
X4337448Y4948910D01*
X4337563Y4949198D01*
Y4949314D01*
X4337621Y4949141D01*
X4337678Y4948910D01*
X4337851Y4948277D01*
X4338024Y4947586D01*
X4338254Y4946779D01*
X4338427Y4946088D01*
X4338600Y4945454D01*
X4338658Y4945224D01*
X4338715Y4945051D01*
X4338773Y4944936D01*
Y4944878D01*
X4346722Y4916078D01*
X4351618D01*
X4361928Y4953922D01*
D01*
D02*
G37*
G36*
X4312046D02*
X4263432D01*
D01*
X4273339Y4916078D01*
X4278581D01*
X4286530Y4944878D01*
X4286702Y4945627D01*
X4286933Y4946376D01*
X4287106Y4947067D01*
X4287278Y4947816D01*
X4287451Y4948392D01*
X4287566Y4948910D01*
X4287682Y4949198D01*
Y4949314D01*
X4287739Y4949141D01*
X4287797Y4948910D01*
X4287970Y4948277D01*
X4288142Y4947586D01*
X4288373Y4946779D01*
X4288546Y4946088D01*
X4288718Y4945454D01*
X4288776Y4945224D01*
X4288834Y4945051D01*
X4288891Y4944936D01*
Y4944878D01*
X4296840Y4916078D01*
X4301736D01*
X4312046Y4953922D01*
D01*
D02*
G37*
G36*
X4683394Y4954555D02*
X4649986D01*
X4667784D01*
X4665941Y4954440D01*
X4664213Y4954210D01*
X4662658Y4953806D01*
X4661966Y4953634D01*
X4661333Y4953403D01*
X4660757Y4953173D01*
X4660181Y4953000D01*
X4659720Y4952770D01*
X4659374Y4952597D01*
X4659029Y4952482D01*
X4658798Y4952367D01*
X4658683Y4952251D01*
X4658626D01*
X4657186Y4951330D01*
X4655861Y4950235D01*
X4654766Y4949141D01*
X4653902Y4948047D01*
X4653154Y4947067D01*
X4652866Y4946664D01*
X4652635Y4946319D01*
X4652462Y4945973D01*
X4652347Y4945743D01*
X4652232Y4945627D01*
Y4945570D01*
X4651483Y4943899D01*
X4650907Y4942114D01*
X4650562Y4940386D01*
X4650274Y4938773D01*
X4650158Y4938024D01*
X4650101Y4937391D01*
X4650043Y4936757D01*
Y4936239D01*
X4649986Y4935835D01*
Y4935259D01*
X4650043Y4933243D01*
X4650274Y4931400D01*
X4650619Y4929672D01*
X4650792Y4928866D01*
X4650965Y4928175D01*
X4651138Y4927483D01*
X4651310Y4926907D01*
X4651483Y4926389D01*
X4651656Y4925928D01*
X4651771Y4925583D01*
X4651886Y4925352D01*
X4651944Y4925179D01*
Y4925122D01*
X4652750Y4923451D01*
X4653730Y4922011D01*
X4654651Y4920744D01*
X4655630Y4919765D01*
X4656437Y4918958D01*
X4657128Y4918382D01*
X4657416Y4918210D01*
X4657589Y4918037D01*
X4657704Y4917979D01*
X4657762Y4917922D01*
X4658510Y4917461D01*
X4659317Y4917115D01*
X4660930Y4916482D01*
X4662600Y4916078D01*
X4664213Y4915733D01*
X4664904Y4915675D01*
X4665595Y4915560D01*
X4666171Y4915502D01*
X4666690D01*
X4667150Y4915445D01*
X4667726D01*
X4668821Y4915502D01*
X4669858Y4915560D01*
X4671758Y4915963D01*
X4672622Y4916194D01*
X4673486Y4916482D01*
X4674235Y4916770D01*
X4674926Y4917058D01*
X4675560Y4917346D01*
X4676078Y4917634D01*
X4676539Y4917922D01*
X4676942Y4918152D01*
X4677288Y4918382D01*
X4677518Y4918555D01*
X4677634Y4918613D01*
X4677691Y4918671D01*
X4678440Y4919304D01*
X4679131Y4919995D01*
X4680283Y4921493D01*
X4681320Y4923048D01*
X4682069Y4924603D01*
X4682414Y4925294D01*
X4682645Y4925928D01*
X4682875Y4926562D01*
X4683106Y4927023D01*
X4683221Y4927483D01*
X4683336Y4927771D01*
X4683394Y4928002D01*
Y4915445D01*
D01*
Y4954555D01*
D02*
G37*
G36*
X4488994Y4925640D02*
Y4915445D01*
D01*
D01*
Y4925640D01*
D02*
G37*
%LPD*%
G36*
X4707470Y4950178D02*
X4708738Y4949947D01*
X4709890Y4949659D01*
X4710869Y4949314D01*
X4711675Y4948910D01*
X4712309Y4948623D01*
X4712539Y4948507D01*
X4712712Y4948392D01*
X4712770Y4948334D01*
X4712827D01*
X4713864Y4947586D01*
X4714786Y4946722D01*
X4715592Y4945800D01*
X4716226Y4944936D01*
X4716744Y4944187D01*
X4717090Y4943554D01*
X4717205Y4943323D01*
X4717320Y4943150D01*
X4717378Y4943035D01*
Y4942978D01*
X4717896Y4941653D01*
X4718299Y4940270D01*
X4718587Y4938888D01*
X4718818Y4937678D01*
X4718933Y4936584D01*
Y4936066D01*
X4718990Y4935663D01*
Y4935374D01*
Y4935144D01*
Y4934971D01*
Y4934914D01*
X4718933Y4933589D01*
X4718818Y4932322D01*
X4718645Y4931170D01*
X4718414Y4930075D01*
X4718126Y4929038D01*
X4717838Y4928117D01*
X4717493Y4927310D01*
X4717147Y4926504D01*
X4716802Y4925870D01*
X4716456Y4925294D01*
X4716168Y4924776D01*
X4715880Y4924373D01*
X4715650Y4924027D01*
X4715477Y4923797D01*
X4715362Y4923682D01*
X4715304Y4923624D01*
X4714613Y4922933D01*
X4713864Y4922357D01*
X4713115Y4921838D01*
X4712309Y4921378D01*
X4711560Y4920975D01*
X4710754Y4920686D01*
X4709314Y4920226D01*
X4708622Y4920053D01*
X4707989Y4919938D01*
X4707470Y4919823D01*
X4706952Y4919765D01*
X4706549Y4919707D01*
X4706030D01*
X4704994Y4919765D01*
X4704072Y4919880D01*
X4703150Y4920053D01*
X4702286Y4920341D01*
X4701422Y4920629D01*
X4700674Y4920975D01*
X4699982Y4921320D01*
X4699349Y4921666D01*
X4698773Y4922011D01*
X4698254Y4922414D01*
X4697851Y4922703D01*
X4697506Y4922990D01*
X4697218Y4923279D01*
X4696987Y4923451D01*
X4696872Y4923566D01*
X4696814Y4923624D01*
X4696181Y4924373D01*
X4695605Y4925237D01*
X4695144Y4926101D01*
X4694741Y4926965D01*
X4694395Y4927886D01*
X4694050Y4928751D01*
X4693646Y4930479D01*
X4693474Y4931285D01*
X4693358Y4932034D01*
X4693301Y4932667D01*
X4693243Y4933243D01*
X4693186Y4933762D01*
Y4934107D01*
Y4934338D01*
Y4934395D01*
X4693243Y4935950D01*
X4693358Y4937391D01*
X4693531Y4938658D01*
X4693762Y4939867D01*
X4694050Y4941019D01*
X4694395Y4941998D01*
X4694741Y4942863D01*
X4695086Y4943669D01*
X4695432Y4944360D01*
X4695778Y4944936D01*
X4696123Y4945454D01*
X4696411Y4945858D01*
X4696642Y4946146D01*
X4696814Y4946376D01*
X4696930Y4946491D01*
X4696987Y4946549D01*
X4697736Y4947182D01*
X4698485Y4947758D01*
X4699234Y4948277D01*
X4700040Y4948680D01*
X4700789Y4949026D01*
X4701538Y4949314D01*
X4702978Y4949775D01*
X4703611Y4949947D01*
X4704187Y4950062D01*
X4704763Y4950120D01*
X4705224Y4950178D01*
X4705570Y4950235D01*
X4706088D01*
X4707470Y4950178D01*
D02*
G37*
G36*
X4724174Y4915445D02*
X4706088D01*
X4707874Y4915560D01*
X4709602Y4915791D01*
X4711157Y4916194D01*
X4712482Y4916597D01*
X4713115Y4916827D01*
X4713634Y4917000D01*
X4714094Y4917230D01*
X4714498Y4917403D01*
X4714843Y4917519D01*
X4715074Y4917634D01*
X4715189Y4917749D01*
X4715246D01*
X4716744Y4918728D01*
X4718069Y4919823D01*
X4719221Y4920975D01*
X4720142Y4922069D01*
X4720834Y4923048D01*
X4721122Y4923509D01*
X4721410Y4923855D01*
X4721582Y4924200D01*
X4721698Y4924431D01*
X4721813Y4924546D01*
Y4924603D01*
X4722619Y4926331D01*
X4723195Y4928117D01*
X4723598Y4929845D01*
X4723886Y4931458D01*
X4724002Y4932207D01*
X4724059Y4932840D01*
X4724117Y4933416D01*
Y4933935D01*
X4724174Y4934338D01*
Y4915445D01*
D02*
G37*
G36*
X4518715Y4928347D02*
X4518658Y4929326D01*
X4518600Y4930306D01*
X4518427Y4931170D01*
X4518197Y4932034D01*
X4517966Y4932782D01*
X4517678Y4933531D01*
X4517390Y4934165D01*
X4517102Y4934798D01*
X4516757Y4935317D01*
X4516469Y4935778D01*
X4516181Y4936181D01*
X4515950Y4936526D01*
X4515720Y4936814D01*
X4515547Y4936987D01*
X4515490Y4937102D01*
X4515432Y4937160D01*
X4514798Y4937794D01*
X4514165Y4938312D01*
X4513474Y4938773D01*
X4512782Y4939176D01*
X4512149Y4939522D01*
X4511458Y4939752D01*
X4510248Y4940213D01*
X4509154Y4940443D01*
X4508693Y4940501D01*
X4508290Y4940558D01*
X4507944Y4940616D01*
X4507483D01*
X4506504Y4940558D01*
X4505582Y4940443D01*
X4504718Y4940213D01*
X4503970Y4939982D01*
X4503336Y4939752D01*
X4502818Y4939522D01*
X4502530Y4939406D01*
X4502414Y4939349D01*
X4501550Y4938830D01*
X4500744Y4938254D01*
X4500053Y4937621D01*
X4499477Y4936987D01*
X4498958Y4936411D01*
X4498613Y4935950D01*
X4498382Y4935662D01*
X4498325Y4935605D01*
Y4936584D01*
X4498382Y4937563D01*
X4498440Y4938485D01*
X4498498Y4939349D01*
X4498613Y4940098D01*
X4498728Y4940846D01*
X4498843Y4941480D01*
X4498958Y4942056D01*
X4499074Y4942574D01*
X4499189Y4943035D01*
X4499304Y4943438D01*
X4499419Y4943726D01*
X4499477Y4943957D01*
X4499534Y4944187D01*
X4499592Y4944245D01*
Y4944302D01*
X4500110Y4945397D01*
X4500686Y4946376D01*
X4501262Y4947182D01*
X4501838Y4947816D01*
X4502299Y4948334D01*
X4502702Y4948738D01*
X4502933Y4948968D01*
X4503048Y4949026D01*
X4503739Y4949429D01*
X4504373Y4949774D01*
X4505064Y4950005D01*
X4505698Y4950120D01*
X4506216Y4950235D01*
X4506619Y4950293D01*
X4507022D01*
X4508002Y4950235D01*
X4508923Y4950005D01*
X4509730Y4949659D01*
X4510421Y4949314D01*
X4510939Y4948910D01*
X4511342Y4948622D01*
X4511630Y4948392D01*
X4511688Y4948277D01*
X4512091Y4947758D01*
X4512437Y4947182D01*
X4513013Y4945858D01*
X4513186Y4945282D01*
X4513358Y4944821D01*
X4513474Y4944475D01*
Y4944418D01*
Y4944360D01*
X4518082Y4944706D01*
X4517794Y4946261D01*
X4517275Y4947643D01*
X4516757Y4948795D01*
X4516123Y4949774D01*
X4515547Y4950523D01*
X4515086Y4951099D01*
X4514741Y4951445D01*
X4514683Y4951560D01*
X4514626D01*
X4514050Y4952021D01*
X4513474Y4952424D01*
X4512264Y4953000D01*
X4511054Y4953461D01*
X4509902Y4953806D01*
X4508866Y4953979D01*
X4508405Y4954037D01*
X4508059D01*
X4507714Y4954094D01*
X4518715D01*
Y4928347D01*
D02*
G37*
G36*
X4507714Y4936411D02*
X4508750Y4936181D01*
X4509672Y4935778D01*
X4510421Y4935374D01*
X4511054Y4934971D01*
X4511515Y4934568D01*
X4511746Y4934338D01*
X4511861Y4934222D01*
X4512552Y4933301D01*
X4513070Y4932322D01*
X4513416Y4931285D01*
X4513704Y4930306D01*
X4513819Y4929442D01*
X4513877Y4929038D01*
Y4928693D01*
X4513934Y4928462D01*
Y4928232D01*
Y4928117D01*
Y4928059D01*
X4513819Y4926619D01*
X4513589Y4925352D01*
X4513243Y4924200D01*
X4512898Y4923278D01*
X4512494Y4922587D01*
X4512149Y4922069D01*
X4511918Y4921723D01*
X4511803Y4921608D01*
X4510997Y4920802D01*
X4510133Y4920226D01*
X4509269Y4919822D01*
X4508520Y4919534D01*
X4507771Y4919362D01*
X4507253Y4919304D01*
X4507022Y4919246D01*
X4506734D01*
X4505986Y4919304D01*
X4505294Y4919419D01*
X4504603Y4919592D01*
X4504027Y4919822D01*
X4503566Y4919995D01*
X4503221Y4920168D01*
X4502933Y4920283D01*
X4502875Y4920341D01*
X4502242Y4920802D01*
X4501666Y4921378D01*
X4501205Y4921896D01*
X4500802Y4922472D01*
X4500456Y4922933D01*
X4500226Y4923336D01*
X4500110Y4923566D01*
X4500053Y4923682D01*
X4499707Y4924546D01*
X4499477Y4925352D01*
X4499304Y4926101D01*
X4499189Y4926850D01*
X4499131Y4927426D01*
X4499074Y4927886D01*
Y4928174D01*
Y4928290D01*
X4499189Y4929614D01*
X4499419Y4930766D01*
X4499765Y4931803D01*
X4500168Y4932667D01*
X4500571Y4933301D01*
X4500917Y4933819D01*
X4501147Y4934107D01*
X4501262Y4934222D01*
X4502126Y4934971D01*
X4502990Y4935547D01*
X4503912Y4935950D01*
X4504718Y4936238D01*
X4505467Y4936411D01*
X4506043Y4936469D01*
X4506274Y4936526D01*
X4506562D01*
X4507714Y4936411D01*
D02*
G37*
G36*
X4750728Y4927599D02*
X4750267Y4926158D01*
X4749806Y4924949D01*
X4749461Y4923912D01*
X4749230Y4923048D01*
X4749000Y4922414D01*
X4748827Y4921954D01*
X4748770Y4921666D01*
X4748712Y4921551D01*
X4748482Y4922299D01*
X4748194Y4923221D01*
X4747906Y4924142D01*
X4747618Y4925064D01*
X4747330Y4925870D01*
X4747099Y4926504D01*
X4747042Y4926792D01*
X4746984Y4926965D01*
X4746926Y4927080D01*
Y4927138D01*
X4737941Y4953922D01*
X4759771D01*
X4750728Y4927599D01*
D02*
G37*
G36*
X4618306Y4949429D02*
X4619112Y4949371D01*
X4619746Y4949314D01*
X4620206Y4949256D01*
X4620552Y4949199D01*
X4620725Y4949141D01*
X4620782D01*
X4621474Y4948853D01*
X4622107Y4948565D01*
X4622626Y4948162D01*
X4623086Y4947816D01*
X4623490Y4947471D01*
X4623720Y4947182D01*
X4623893Y4946952D01*
X4623950Y4946895D01*
X4624354Y4946261D01*
X4624642Y4945570D01*
X4624872Y4944878D01*
X4624987Y4944245D01*
X4625102Y4943669D01*
X4625160Y4943208D01*
Y4942920D01*
Y4942805D01*
X4625045Y4941653D01*
X4624814Y4940616D01*
X4624526Y4939752D01*
X4624123Y4939061D01*
X4623720Y4938485D01*
X4623432Y4938082D01*
X4623202Y4937794D01*
X4623086Y4937736D01*
X4622683Y4937448D01*
X4622222Y4937160D01*
X4621186Y4936699D01*
X4620034Y4936411D01*
X4618882Y4936181D01*
X4617845Y4936066D01*
X4617442Y4936008D01*
X4617038D01*
X4616693Y4935950D01*
X4606498D01*
Y4949486D01*
X4617269D01*
X4618306Y4949429D01*
D02*
G37*
G36*
X4453973Y4929384D02*
X4448846D01*
Y4953864D01*
X4453973D01*
Y4929384D01*
D02*
G37*
G36*
X4444181D02*
X4432315D01*
X4444181Y4946318D01*
Y4929384D01*
D02*
G37*
G36*
X4400866Y4929557D02*
X4400462Y4927886D01*
X4400059Y4926331D01*
X4399771Y4924891D01*
X4399483Y4923682D01*
X4399368Y4923163D01*
X4399253Y4922702D01*
X4399195Y4922299D01*
X4399080Y4921954D01*
X4399022Y4921666D01*
Y4921493D01*
X4398965Y4921378D01*
Y4921320D01*
X4398562Y4923682D01*
X4398101Y4926043D01*
X4397582Y4928347D01*
X4397352Y4929384D01*
X4397122Y4930363D01*
X4396891Y4931285D01*
X4396718Y4932149D01*
X4396488Y4932898D01*
X4396373Y4933531D01*
X4396200Y4934050D01*
X4396142Y4934395D01*
X4396027Y4934683D01*
Y4934741D01*
X4390613Y4953922D01*
X4406741D01*
X4400866Y4929557D01*
D02*
G37*
G36*
X4377365Y4928347D02*
X4377307Y4928117D01*
X4377250Y4927771D01*
X4377134Y4927310D01*
X4377019Y4926850D01*
X4376731Y4925698D01*
X4376443Y4924488D01*
X4376098Y4923278D01*
X4375982Y4922760D01*
X4375867Y4922299D01*
X4375752Y4921896D01*
X4375694Y4921608D01*
X4375637Y4921378D01*
Y4921320D01*
X4375349Y4922760D01*
X4375118Y4924142D01*
X4374830Y4925467D01*
X4374600Y4926619D01*
X4374370Y4927598D01*
X4374254Y4928002D01*
X4374197Y4928405D01*
X4374139Y4928635D01*
X4374082Y4928866D01*
X4374024Y4928981D01*
Y4929038D01*
X4368322Y4953922D01*
X4384565D01*
X4377365Y4928347D01*
D02*
G37*
G36*
X4350984Y4929557D02*
X4350581Y4927886D01*
X4350178Y4926331D01*
X4349890Y4924891D01*
X4349602Y4923682D01*
X4349486Y4923163D01*
X4349371Y4922702D01*
X4349314Y4922299D01*
X4349198Y4921954D01*
X4349141Y4921666D01*
Y4921493D01*
X4349083Y4921378D01*
Y4921320D01*
X4348680Y4923682D01*
X4348219Y4926043D01*
X4347701Y4928347D01*
X4347470Y4929384D01*
X4347240Y4930363D01*
X4347010Y4931285D01*
X4346837Y4932149D01*
X4346606Y4932898D01*
X4346491Y4933531D01*
X4346318Y4934050D01*
X4346261Y4934395D01*
X4346146Y4934683D01*
Y4934741D01*
X4340731Y4953922D01*
X4356859D01*
X4350984Y4929557D01*
D02*
G37*
G36*
X4327483Y4928347D02*
X4327426Y4928117D01*
X4327368Y4927771D01*
X4327253Y4927310D01*
X4327138Y4926850D01*
X4326850Y4925698D01*
X4326562Y4924488D01*
X4326216Y4923278D01*
X4326101Y4922760D01*
X4325986Y4922299D01*
X4325870Y4921896D01*
X4325813Y4921608D01*
X4325755Y4921378D01*
Y4921320D01*
X4325467Y4922760D01*
X4325237Y4924142D01*
X4324949Y4925467D01*
X4324718Y4926619D01*
X4324488Y4927598D01*
X4324373Y4928002D01*
X4324315Y4928405D01*
X4324258Y4928635D01*
X4324200Y4928866D01*
X4324142Y4928981D01*
Y4929038D01*
X4318440Y4953922D01*
X4334683D01*
X4327483Y4928347D01*
D02*
G37*
G36*
X4301102Y4929557D02*
X4300699Y4927886D01*
X4300296Y4926331D01*
X4300008Y4924891D01*
X4299720Y4923682D01*
X4299605Y4923163D01*
X4299490Y4922702D01*
X4299432Y4922299D01*
X4299317Y4921954D01*
X4299259Y4921666D01*
Y4921493D01*
X4299202Y4921378D01*
Y4921320D01*
X4298798Y4923682D01*
X4298338Y4926043D01*
X4297819Y4928347D01*
X4297589Y4929384D01*
X4297358Y4930363D01*
X4297128Y4931285D01*
X4296955Y4932149D01*
X4296725Y4932898D01*
X4296610Y4933531D01*
X4296437Y4934050D01*
X4296379Y4934395D01*
X4296264Y4934683D01*
Y4934741D01*
X4290850Y4953922D01*
X4306978D01*
X4301102Y4929557D01*
D02*
G37*
G36*
X4277602Y4928347D02*
X4277544Y4928117D01*
X4277486Y4927771D01*
X4277371Y4927310D01*
X4277256Y4926850D01*
X4276968Y4925698D01*
X4276680Y4924488D01*
X4276334Y4923278D01*
X4276219Y4922760D01*
X4276104Y4922299D01*
X4275989Y4921896D01*
X4275931Y4921608D01*
X4275874Y4921378D01*
Y4921320D01*
X4275586Y4922760D01*
X4275355Y4924142D01*
X4275067Y4925467D01*
X4274837Y4926619D01*
X4274606Y4927598D01*
X4274491Y4928002D01*
X4274434Y4928405D01*
X4274376Y4928635D01*
X4274318Y4928866D01*
X4274261Y4928981D01*
Y4929038D01*
X4268558Y4953922D01*
X4284802D01*
X4277602Y4928347D01*
D02*
G37*
G36*
X4683394Y4928059D02*
X4678382Y4929327D01*
X4677922Y4927656D01*
X4677346Y4926158D01*
X4676654Y4924949D01*
X4676021Y4923912D01*
X4675387Y4923163D01*
X4674869Y4922587D01*
X4674523Y4922242D01*
X4674466Y4922184D01*
X4674408Y4922127D01*
X4673256Y4921320D01*
X4672104Y4920744D01*
X4670894Y4920283D01*
X4669800Y4919995D01*
X4668821Y4919823D01*
X4668360Y4919765D01*
X4668014D01*
X4667726Y4919707D01*
X4667323D01*
X4666056Y4919765D01*
X4664846Y4919995D01*
X4663752Y4920283D01*
X4662830Y4920571D01*
X4662024Y4920917D01*
X4661390Y4921147D01*
X4661160Y4921262D01*
X4660987Y4921378D01*
X4660930Y4921435D01*
X4660872D01*
X4659835Y4922184D01*
X4658971Y4923048D01*
X4658222Y4923912D01*
X4657589Y4924834D01*
X4657128Y4925583D01*
X4656840Y4926274D01*
X4656725Y4926504D01*
X4656610Y4926677D01*
X4656552Y4926792D01*
Y4926850D01*
X4656091Y4928232D01*
X4655746Y4929672D01*
X4655515Y4931112D01*
X4655342Y4932437D01*
X4655285Y4933013D01*
X4655227Y4933531D01*
Y4934050D01*
X4655170Y4934453D01*
Y4934798D01*
Y4935029D01*
Y4935202D01*
Y4935259D01*
X4655227Y4936642D01*
X4655342Y4937967D01*
X4655515Y4939176D01*
X4655746Y4940270D01*
X4655976Y4941192D01*
X4656034Y4941595D01*
X4656149Y4941883D01*
X4656206Y4942171D01*
X4656264Y4942344D01*
X4656322Y4942459D01*
Y4942517D01*
X4656840Y4943784D01*
X4657474Y4944936D01*
X4658165Y4945858D01*
X4658798Y4946664D01*
X4659432Y4947298D01*
X4659950Y4947758D01*
X4660296Y4948047D01*
X4660354Y4948162D01*
X4660411D01*
X4661563Y4948853D01*
X4662773Y4949371D01*
X4663982Y4949775D01*
X4665134Y4950005D01*
X4666171Y4950178D01*
X4666574Y4950235D01*
X4666978D01*
X4667266Y4950293D01*
X4667669D01*
X4669051Y4950235D01*
X4670261Y4950005D01*
X4671355Y4949717D01*
X4672219Y4949371D01*
X4672968Y4948968D01*
X4673486Y4948680D01*
X4673832Y4948450D01*
X4673947Y4948392D01*
X4674869Y4947586D01*
X4675618Y4946664D01*
X4676309Y4945627D01*
X4676827Y4944648D01*
X4677230Y4943784D01*
X4677403Y4943381D01*
X4677576Y4943035D01*
X4677691Y4942747D01*
X4677749Y4942517D01*
X4677806Y4942402D01*
Y4942344D01*
X4682760Y4943496D01*
X4682069Y4945339D01*
X4681666Y4946203D01*
X4681262Y4946952D01*
X4680802Y4947701D01*
X4680341Y4948392D01*
X4679938Y4948968D01*
X4679477Y4949544D01*
X4679074Y4950005D01*
X4678670Y4950408D01*
X4678267Y4950811D01*
X4677979Y4951099D01*
X4677691Y4951330D01*
X4677518Y4951502D01*
X4677403Y4951560D01*
X4677346Y4951618D01*
X4676597Y4952136D01*
X4675848Y4952597D01*
X4675042Y4953000D01*
X4674235Y4953346D01*
X4672622Y4953864D01*
X4671125Y4954210D01*
X4670434Y4954325D01*
X4669800Y4954382D01*
X4669224Y4954440D01*
X4668763Y4954498D01*
X4668360Y4954555D01*
X4683394D01*
Y4928059D01*
D02*
G37*
%LPC*%
G36*
X4398440Y4089325D02*
X4395387D01*
X4394869Y4088403D01*
X4394235Y4087482D01*
X4393544Y4086618D01*
X4392853Y4085811D01*
X4392219Y4085178D01*
X4391701Y4084659D01*
X4391355Y4084314D01*
X4391298Y4084256D01*
X4391240Y4084198D01*
X4390146Y4083277D01*
X4388994Y4082413D01*
X4387842Y4081664D01*
X4386805Y4081030D01*
X4385883Y4080512D01*
X4385480Y4080339D01*
X4385134Y4080166D01*
X4384904Y4079994D01*
X4384674Y4079878D01*
X4384558Y4079821D01*
X4384501D01*
Y4089325D01*
D01*
Y4051309D01*
X4398440D01*
Y4089325D01*
D02*
G37*
G36*
X4222184Y4089325D02*
X4219131D01*
X4218613Y4088403D01*
X4217979Y4087482D01*
X4217288Y4086618D01*
X4216597Y4085811D01*
X4215963Y4085178D01*
X4215445Y4084659D01*
X4215099Y4084314D01*
X4215042Y4084256D01*
X4214984Y4084198D01*
X4213890Y4083277D01*
X4212738Y4082413D01*
X4211586Y4081664D01*
X4210549Y4081030D01*
X4209627Y4080512D01*
X4209224Y4080339D01*
X4208878Y4080166D01*
X4208648Y4079994D01*
X4208418Y4079878D01*
X4208302Y4079821D01*
X4208245D01*
Y4089325D01*
D01*
Y4051309D01*
X4222184D01*
Y4089325D01*
D02*
G37*
G36*
X4171726Y4089152D02*
X4166254D01*
X4158651Y4079014D01*
X4158018Y4078208D01*
X4157442Y4077459D01*
X4156923Y4076710D01*
X4156520Y4076077D01*
X4156174Y4075558D01*
X4155886Y4075155D01*
X4155714Y4074925D01*
X4155656Y4074810D01*
X4155253Y4075501D01*
X4154850Y4076192D01*
X4154331Y4076998D01*
X4153813Y4077747D01*
X4153410Y4078381D01*
X4153006Y4078899D01*
X4152776Y4079302D01*
X4152661Y4079360D01*
Y4079418D01*
X4145749Y4089152D01*
X4157829D01*
X4138088D01*
X4139816D01*
X4152718Y4070893D01*
X4138088Y4051309D01*
X4144078D01*
X4153640Y4064384D01*
X4153870Y4064730D01*
X4154158Y4065133D01*
X4154792Y4065997D01*
X4155080Y4066458D01*
X4155253Y4066803D01*
X4155426Y4067034D01*
X4155483Y4067091D01*
X4156059Y4066227D01*
X4156520Y4065536D01*
X4156750Y4065190D01*
X4156923Y4064960D01*
X4156981Y4064845D01*
X4157038Y4064787D01*
X4166600Y4051309D01*
X4172763D01*
X4158536Y4071123D01*
X4171726Y4089152D01*
D02*
G37*
G36*
X4335944Y4089325D02*
X4335541D01*
X4334446Y4089267D01*
X4333410Y4089152D01*
X4332430Y4088922D01*
X4331509Y4088634D01*
X4330645Y4088288D01*
X4329896Y4087943D01*
X4329147Y4087539D01*
X4328514Y4087136D01*
X4327938Y4086733D01*
X4327419Y4086330D01*
X4327016Y4085984D01*
X4326613Y4085639D01*
X4326325Y4085351D01*
X4326152Y4085120D01*
X4326037Y4085005D01*
X4325979Y4084947D01*
X4325288Y4083968D01*
X4324654Y4082816D01*
X4324136Y4081664D01*
X4323675Y4080339D01*
X4323272Y4079072D01*
X4322926Y4077747D01*
X4322638Y4076423D01*
X4322466Y4075098D01*
X4322293Y4073888D01*
X4322178Y4072736D01*
X4322062Y4071699D01*
X4322005Y4070778D01*
X4321947Y4070029D01*
Y4089325D01*
D01*
D01*
Y4050675D01*
Y4068992D01*
X4322005Y4067206D01*
X4322120Y4065594D01*
X4322293Y4064039D01*
X4322523Y4062656D01*
X4322811Y4061389D01*
X4323099Y4060237D01*
X4323445Y4059200D01*
X4323790Y4058278D01*
X4324078Y4057472D01*
X4324424Y4056781D01*
X4324712Y4056205D01*
X4325000Y4055744D01*
X4325230Y4055398D01*
X4325403Y4055168D01*
X4325518Y4054995D01*
X4325576Y4054938D01*
X4326267Y4054189D01*
X4327016Y4053555D01*
X4327822Y4052979D01*
X4328629Y4052461D01*
X4329435Y4052058D01*
X4330184Y4051712D01*
X4330990Y4051424D01*
X4331739Y4051194D01*
X4332430Y4051021D01*
X4333064Y4050906D01*
X4333640Y4050791D01*
X4334101Y4050733D01*
X4334504D01*
X4334850Y4050675D01*
X4321947D01*
X4346946D01*
D01*
X4335080D01*
X4336290Y4050733D01*
X4337442Y4050906D01*
X4338478Y4051194D01*
X4339400Y4051482D01*
X4340091Y4051770D01*
X4340667Y4052058D01*
X4341013Y4052231D01*
X4341128Y4052288D01*
X4342107Y4052979D01*
X4342914Y4053728D01*
X4343662Y4054477D01*
X4344296Y4055226D01*
X4344757Y4055917D01*
X4345102Y4056435D01*
X4345218Y4056666D01*
X4345333Y4056838D01*
X4345390Y4056896D01*
Y4056954D01*
X4345909Y4058106D01*
X4346312Y4059258D01*
X4346542Y4060410D01*
X4346773Y4061389D01*
X4346888Y4062311D01*
Y4062656D01*
X4346946Y4063002D01*
Y4063578D01*
X4346888Y4064557D01*
X4346830Y4065536D01*
X4346658Y4066400D01*
X4346427Y4067264D01*
X4346197Y4068013D01*
X4345909Y4068762D01*
X4345621Y4069395D01*
X4345333Y4070029D01*
X4344987Y4070547D01*
X4344699Y4071008D01*
X4344411Y4071411D01*
X4344181Y4071757D01*
X4343950Y4072045D01*
X4343778Y4072218D01*
X4343720Y4072333D01*
X4343662Y4072390D01*
X4343029Y4073024D01*
X4342395Y4073543D01*
X4341704Y4074003D01*
X4341013Y4074407D01*
X4340379Y4074752D01*
X4339688Y4074983D01*
X4338478Y4075443D01*
X4337384Y4075674D01*
X4336923Y4075731D01*
X4336520Y4075789D01*
X4336174Y4075847D01*
X4335714D01*
X4334734Y4075789D01*
X4333813Y4075674D01*
X4332949Y4075443D01*
X4332200Y4075213D01*
X4331566Y4074983D01*
X4331048Y4074752D01*
X4330760Y4074637D01*
X4330645Y4074579D01*
X4329781Y4074061D01*
X4328974Y4073485D01*
X4328283Y4072851D01*
X4327707Y4072218D01*
X4327189Y4071642D01*
X4326843Y4071181D01*
X4326613Y4070893D01*
X4326555Y4070835D01*
Y4071814D01*
X4326613Y4072794D01*
X4326670Y4073715D01*
X4326728Y4074579D01*
X4326843Y4075328D01*
X4326958Y4076077D01*
X4327074Y4076711D01*
X4327189Y4077287D01*
X4327304Y4077805D01*
X4327419Y4078266D01*
X4327534Y4078669D01*
X4327650Y4078957D01*
X4327707Y4079187D01*
X4327765Y4079418D01*
X4327822Y4079475D01*
Y4079533D01*
X4328341Y4080627D01*
X4328917Y4081606D01*
X4329493Y4082413D01*
X4330069Y4083046D01*
X4330530Y4083565D01*
X4330933Y4083968D01*
X4331163Y4084198D01*
X4331278Y4084256D01*
X4331970Y4084659D01*
X4332603Y4085005D01*
X4333294Y4085235D01*
X4333928Y4085351D01*
X4334446Y4085466D01*
X4334850Y4085523D01*
X4335253D01*
X4336232Y4085466D01*
X4337154Y4085235D01*
X4337960Y4084890D01*
X4338651Y4084544D01*
X4339170Y4084141D01*
X4339573Y4083853D01*
X4339861Y4083622D01*
X4339918Y4083507D01*
X4340322Y4082989D01*
X4340667Y4082413D01*
X4341243Y4081088D01*
X4341416Y4080512D01*
X4341589Y4080051D01*
X4341704Y4079706D01*
Y4079648D01*
Y4079590D01*
X4346312Y4079936D01*
X4346024Y4081491D01*
X4345506Y4082874D01*
X4344987Y4084026D01*
X4344354Y4085005D01*
X4343778Y4085754D01*
X4343317Y4086330D01*
X4342971Y4086675D01*
X4342914Y4086791D01*
X4342856D01*
X4342280Y4087251D01*
X4341704Y4087655D01*
X4340494Y4088231D01*
X4339285Y4088691D01*
X4338133Y4089037D01*
X4337096Y4089210D01*
X4336635Y4089267D01*
X4336290D01*
X4335944Y4089325D01*
D02*
G37*
G36*
X4200066Y4089325D02*
X4188661D01*
X4187566Y4089267D01*
X4186530Y4089152D01*
X4185550Y4088922D01*
X4184629Y4088634D01*
X4183765Y4088288D01*
X4183016Y4087942D01*
X4182267Y4087539D01*
X4181634Y4087136D01*
X4181058Y4086733D01*
X4180539Y4086330D01*
X4180136Y4085984D01*
X4179733Y4085638D01*
X4179445Y4085350D01*
X4179272Y4085120D01*
X4179157Y4085005D01*
X4179099Y4084947D01*
X4178408Y4083968D01*
X4177774Y4082816D01*
X4177256Y4081664D01*
X4176795Y4080339D01*
X4176392Y4079072D01*
X4176046Y4077747D01*
X4175758Y4076422D01*
X4175586Y4075098D01*
X4175413Y4073888D01*
X4175298Y4072736D01*
X4175182Y4071699D01*
X4175125Y4070778D01*
X4175067Y4070029D01*
Y4089325D01*
D01*
D01*
Y4050675D01*
Y4068992D01*
X4175125Y4067206D01*
X4175240Y4065594D01*
X4175413Y4064038D01*
X4175643Y4062656D01*
X4175931Y4061389D01*
X4176219Y4060237D01*
X4176565Y4059200D01*
X4176910Y4058278D01*
X4177198Y4057472D01*
X4177544Y4056781D01*
X4177832Y4056205D01*
X4178120Y4055744D01*
X4178350Y4055398D01*
X4178523Y4055168D01*
X4178638Y4054995D01*
X4178696Y4054938D01*
X4179387Y4054189D01*
X4180136Y4053555D01*
X4180942Y4052979D01*
X4181749Y4052461D01*
X4182555Y4052058D01*
X4183304Y4051712D01*
X4184110Y4051424D01*
X4184859Y4051194D01*
X4185550Y4051021D01*
X4186184Y4050906D01*
X4186760Y4050790D01*
X4187221Y4050733D01*
X4187624D01*
X4187970Y4050675D01*
X4188200D01*
X4189410Y4050733D01*
X4190562Y4050906D01*
X4191598Y4051194D01*
X4192520Y4051482D01*
X4193211Y4051770D01*
X4193787Y4052058D01*
X4194133Y4052230D01*
X4194248Y4052288D01*
X4195227Y4052979D01*
X4196034Y4053728D01*
X4196782Y4054477D01*
X4197416Y4055226D01*
X4197877Y4055917D01*
X4198222Y4056435D01*
X4198338Y4056666D01*
X4198453Y4056838D01*
X4198510Y4056896D01*
Y4056954D01*
X4199029Y4058106D01*
X4199432Y4059258D01*
X4199662Y4060410D01*
X4199893Y4061389D01*
X4200008Y4062310D01*
Y4062656D01*
X4200066Y4063002D01*
Y4063578D01*
X4200008Y4064557D01*
X4199950Y4065536D01*
X4199778Y4066400D01*
X4199547Y4067264D01*
X4199317Y4068013D01*
X4199029Y4068762D01*
X4198741Y4069395D01*
X4198453Y4070029D01*
X4198107Y4070547D01*
X4197819Y4071008D01*
X4197531Y4071411D01*
X4197301Y4071757D01*
X4197070Y4072045D01*
X4196898Y4072218D01*
X4196840Y4072333D01*
X4196782Y4072390D01*
X4196149Y4073024D01*
X4195515Y4073542D01*
X4194824Y4074003D01*
X4194133Y4074406D01*
X4193499Y4074752D01*
X4192808Y4074982D01*
X4191598Y4075443D01*
X4190504Y4075674D01*
X4190043Y4075731D01*
X4189640Y4075789D01*
X4189294Y4075846D01*
X4188834D01*
X4187854Y4075789D01*
X4186933Y4075674D01*
X4186069Y4075443D01*
X4185320Y4075213D01*
X4184686Y4074982D01*
X4184168Y4074752D01*
X4183880Y4074637D01*
X4183765Y4074579D01*
X4182901Y4074061D01*
X4182094Y4073485D01*
X4181403Y4072851D01*
X4180827Y4072218D01*
X4180309Y4071642D01*
X4179963Y4071181D01*
X4179733Y4070893D01*
X4179675Y4070835D01*
Y4071814D01*
X4179733Y4072794D01*
X4179790Y4073715D01*
X4179848Y4074579D01*
X4179963Y4075328D01*
X4180078Y4076077D01*
X4180194Y4076710D01*
X4180309Y4077286D01*
X4180424Y4077805D01*
X4180539Y4078266D01*
X4180654Y4078669D01*
X4180770Y4078957D01*
X4180827Y4079187D01*
X4180885Y4079418D01*
X4180942Y4079475D01*
Y4079533D01*
X4181461Y4080627D01*
X4182037Y4081606D01*
X4182613Y4082413D01*
X4183189Y4083046D01*
X4183650Y4083565D01*
X4184053Y4083968D01*
X4184283Y4084198D01*
X4184398Y4084256D01*
X4185090Y4084659D01*
X4185723Y4085005D01*
X4186414Y4085235D01*
X4187048Y4085350D01*
X4187566Y4085466D01*
X4187970Y4085523D01*
X4188373D01*
X4189352Y4085466D01*
X4190274Y4085235D01*
X4191080Y4084890D01*
X4191771Y4084544D01*
X4192290Y4084141D01*
X4192693Y4083853D01*
X4192981Y4083622D01*
X4193038Y4083507D01*
X4193442Y4082989D01*
X4193787Y4082413D01*
X4194363Y4081088D01*
X4194536Y4080512D01*
X4194709Y4080051D01*
X4194824Y4079706D01*
Y4079648D01*
Y4079590D01*
X4199432Y4079936D01*
X4199144Y4081491D01*
X4198626Y4082874D01*
X4198107Y4084026D01*
X4197474Y4085005D01*
X4196898Y4085754D01*
X4196437Y4086330D01*
X4196091Y4086675D01*
X4196034Y4086790D01*
X4195976D01*
X4195400Y4087251D01*
X4194824Y4087654D01*
X4193614Y4088230D01*
X4192405Y4088691D01*
X4191253Y4089037D01*
X4190216Y4089210D01*
X4189755Y4089267D01*
X4189410D01*
X4189064Y4089325D01*
X4200066D01*
D02*
G37*
G36*
X4282952Y4089094D02*
X4279150D01*
X4261870Y4064614D01*
D01*
Y4051309D01*
Y4060352D01*
X4278286D01*
Y4051309D01*
X4261870D01*
X4288078Y4051309D01*
X4282952Y4051309D01*
Y4060352D01*
X4288078Y4060352D01*
Y4064615D01*
D01*
X4282952Y4064614D01*
Y4089094D01*
D02*
G37*
G36*
X4099784Y4089152D02*
Y4055744D01*
X4076571D01*
Y4068646D01*
X4097480D01*
Y4073082D01*
X4076571D01*
Y4084717D01*
X4098920D01*
Y4089152D01*
X4071560D01*
Y4051309D01*
X4099784D01*
Y4089152D01*
D02*
G37*
G36*
X4305013Y4089325D02*
X4292802D01*
Y4050675D01*
Y4076538D01*
X4292859Y4075501D01*
X4292917Y4074522D01*
X4293090Y4073658D01*
X4293320Y4072794D01*
X4293550Y4071987D01*
X4293838Y4071238D01*
X4294126Y4070547D01*
X4294414Y4069971D01*
X4294702Y4069395D01*
X4294990Y4068934D01*
X4295278Y4068531D01*
X4295509Y4068186D01*
X4295739Y4067898D01*
X4295912Y4067725D01*
X4295970Y4067610D01*
X4296027Y4067552D01*
X4296661Y4066976D01*
X4297294Y4066458D01*
X4297986Y4065997D01*
X4298619Y4065594D01*
X4299310Y4065248D01*
X4299944Y4064960D01*
X4301211Y4064557D01*
X4302306Y4064327D01*
X4302766Y4064269D01*
X4303170Y4064211D01*
X4303515Y4064154D01*
X4303976D01*
X4305013Y4064211D01*
X4305992Y4064384D01*
X4306856Y4064557D01*
X4307605Y4064845D01*
X4308238Y4065075D01*
X4308757Y4065248D01*
X4309045Y4065421D01*
X4309160Y4065479D01*
X4310024Y4066055D01*
X4310773Y4066631D01*
X4311464Y4067264D01*
X4311982Y4067840D01*
X4312443Y4068301D01*
X4312731Y4068762D01*
X4312962Y4068992D01*
X4313019Y4069107D01*
Y4068704D01*
Y4068416D01*
Y4068243D01*
Y4068186D01*
Y4067091D01*
X4312904Y4066055D01*
X4312789Y4065133D01*
X4312674Y4064269D01*
X4312558Y4063520D01*
X4312443Y4062944D01*
X4312386Y4062771D01*
Y4062599D01*
X4312328Y4062541D01*
Y4062483D01*
X4312040Y4061504D01*
X4311752Y4060640D01*
X4311464Y4059891D01*
X4311234Y4059258D01*
X4310946Y4058739D01*
X4310773Y4058336D01*
X4310658Y4058106D01*
X4310600Y4058048D01*
X4310197Y4057472D01*
X4309736Y4056954D01*
X4309333Y4056493D01*
X4308872Y4056147D01*
X4308526Y4055859D01*
X4308238Y4055629D01*
X4308008Y4055514D01*
X4307950Y4055456D01*
X4307317Y4055110D01*
X4306683Y4054880D01*
X4306050Y4054707D01*
X4305474Y4054592D01*
X4304955Y4054535D01*
X4304552Y4054477D01*
X4304206D01*
X4303285Y4054535D01*
X4302478Y4054707D01*
X4301787Y4054938D01*
X4301211Y4055168D01*
X4300693Y4055398D01*
X4300347Y4055629D01*
X4300117Y4055802D01*
X4300059Y4055859D01*
X4299483Y4056435D01*
X4299022Y4057184D01*
X4298677Y4057933D01*
X4298389Y4058682D01*
X4298158Y4059315D01*
X4298043Y4059891D01*
X4297986Y4060122D01*
X4297928Y4060294D01*
Y4060352D01*
Y4060410D01*
X4293493Y4060064D01*
X4293781Y4058451D01*
X4294242Y4057069D01*
X4294760Y4055859D01*
X4295336Y4054880D01*
X4295912Y4054131D01*
X4296373Y4053555D01*
X4296718Y4053210D01*
X4296776Y4053152D01*
X4296834Y4053095D01*
X4297986Y4052288D01*
X4299138Y4051712D01*
X4300347Y4051251D01*
X4301499Y4050963D01*
X4302536Y4050791D01*
X4302997Y4050733D01*
X4303342D01*
X4303688Y4050675D01*
X4292802D01*
X4304091D01*
X4305589Y4050791D01*
X4307029Y4051021D01*
X4308238Y4051367D01*
X4309333Y4051770D01*
X4310197Y4052173D01*
X4310542Y4052346D01*
X4310830Y4052519D01*
X4311118Y4052691D01*
X4311291Y4052749D01*
X4311349Y4052864D01*
X4311406D01*
X4312501Y4053786D01*
X4313422Y4054823D01*
X4314229Y4055917D01*
X4314920Y4057011D01*
X4315438Y4057933D01*
X4315611Y4058336D01*
X4315784Y4058739D01*
X4315899Y4059027D01*
X4316014Y4059258D01*
X4316072Y4059373D01*
Y4059430D01*
X4316360Y4060294D01*
X4316590Y4061159D01*
X4316994Y4063059D01*
X4317282Y4065018D01*
X4317512Y4066861D01*
X4317570Y4067725D01*
X4317627Y4068474D01*
Y4069222D01*
X4317685Y4069798D01*
Y4072275D01*
X4317627Y4073485D01*
X4317512Y4074579D01*
X4317454Y4075616D01*
X4317339Y4076538D01*
X4317166Y4077402D01*
X4317051Y4078208D01*
X4316878Y4078899D01*
X4316706Y4079533D01*
X4316590Y4080109D01*
X4316475Y4080570D01*
X4316302Y4080915D01*
X4316245Y4081203D01*
X4316130Y4081434D01*
X4316072Y4081549D01*
Y4081606D01*
X4315438Y4082931D01*
X4314690Y4084083D01*
X4313883Y4085005D01*
X4313134Y4085869D01*
X4312443Y4086503D01*
X4311925Y4086963D01*
X4311694Y4087079D01*
X4311522Y4087194D01*
X4311464Y4087309D01*
X4311406D01*
X4310254Y4088000D01*
X4309045Y4088461D01*
X4307950Y4088807D01*
X4306914Y4089095D01*
X4305992Y4089210D01*
X4305589Y4089267D01*
X4305301D01*
X4305013Y4089325D01*
D02*
G37*
G36*
X4259106Y4088576D02*
X4234050D01*
X4238542D01*
X4234856Y4069165D01*
X4239234Y4068531D01*
X4239637Y4069107D01*
X4240098Y4069626D01*
X4240558Y4070086D01*
X4240962Y4070490D01*
X4241365Y4070778D01*
X4241710Y4071008D01*
X4241941Y4071123D01*
X4241998Y4071181D01*
X4242690Y4071526D01*
X4243381Y4071814D01*
X4244072Y4071987D01*
X4244706Y4072160D01*
X4245282Y4072218D01*
X4245685Y4072275D01*
X4246088D01*
X4247355Y4072160D01*
X4248507Y4071930D01*
X4249544Y4071526D01*
X4250350Y4071123D01*
X4251042Y4070720D01*
X4251502Y4070317D01*
X4251790Y4070086D01*
X4251906Y4069971D01*
X4252654Y4069050D01*
X4253230Y4068013D01*
X4253634Y4066976D01*
X4253864Y4065997D01*
X4254037Y4065075D01*
X4254094Y4064672D01*
Y4064326D01*
X4254152Y4064096D01*
Y4063866D01*
Y4063750D01*
Y4063693D01*
X4254037Y4062195D01*
X4253806Y4060870D01*
X4253403Y4059718D01*
X4253000Y4058739D01*
X4252597Y4057990D01*
X4252194Y4057414D01*
X4251963Y4057069D01*
X4251848Y4057011D01*
Y4056954D01*
X4251387Y4056493D01*
X4250926Y4056147D01*
X4250005Y4055514D01*
X4249026Y4055110D01*
X4248162Y4054765D01*
X4247355Y4054592D01*
X4246722Y4054534D01*
X4246491Y4054477D01*
X4246146D01*
X4245166Y4054534D01*
X4244245Y4054765D01*
X4243438Y4055053D01*
X4242747Y4055341D01*
X4242171Y4055686D01*
X4241768Y4055917D01*
X4241538Y4056147D01*
X4241422Y4056205D01*
X4240731Y4056954D01*
X4240213Y4057818D01*
X4239752Y4058682D01*
X4239464Y4059546D01*
X4239234Y4060352D01*
X4239061Y4060986D01*
X4239003Y4061216D01*
X4238946Y4061389D01*
Y4061504D01*
Y4061562D01*
X4234050Y4061216D01*
X4234165Y4060352D01*
X4234338Y4059488D01*
X4234798Y4057990D01*
X4235432Y4056666D01*
X4236066Y4055571D01*
X4236411Y4055110D01*
X4236699Y4054707D01*
X4236987Y4054362D01*
X4237218Y4054074D01*
X4237448Y4053843D01*
X4237621Y4053670D01*
X4237678Y4053613D01*
X4237736Y4053555D01*
X4238370Y4053037D01*
X4239061Y4052634D01*
X4239752Y4052230D01*
X4240443Y4051885D01*
X4241826Y4051366D01*
X4243150Y4051021D01*
X4243784Y4050906D01*
X4244360Y4050848D01*
X4244878Y4050790D01*
X4245282Y4050733D01*
X4245627Y4050675D01*
X4246146D01*
X4247298Y4050733D01*
X4248392Y4050848D01*
X4249371Y4051078D01*
X4250350Y4051366D01*
X4251214Y4051712D01*
X4252078Y4052115D01*
X4252827Y4052518D01*
X4253461Y4052979D01*
X4254094Y4053382D01*
X4254613Y4053786D01*
X4255074Y4054189D01*
X4255419Y4054534D01*
X4255707Y4054822D01*
X4255938Y4055053D01*
X4256053Y4055168D01*
X4256110Y4055226D01*
X4256629Y4055917D01*
X4257090Y4056666D01*
X4257493Y4057414D01*
X4257838Y4058221D01*
X4258357Y4059661D01*
X4258760Y4061043D01*
X4258875Y4061677D01*
X4258933Y4062253D01*
X4258990Y4062771D01*
X4259048Y4063232D01*
X4259106Y4063578D01*
Y4064096D01*
X4259048Y4065075D01*
X4258933Y4066054D01*
X4258760Y4066918D01*
X4258587Y4067782D01*
X4258299Y4068531D01*
X4258011Y4069280D01*
X4257723Y4069914D01*
X4257378Y4070547D01*
X4257032Y4071066D01*
X4256744Y4071526D01*
X4256456Y4071930D01*
X4256168Y4072275D01*
X4255995Y4072563D01*
X4255822Y4072736D01*
X4255707Y4072851D01*
X4255650Y4072909D01*
X4255016Y4073542D01*
X4254325Y4074061D01*
X4253634Y4074522D01*
X4252885Y4074925D01*
X4252194Y4075270D01*
X4251502Y4075501D01*
X4250178Y4075962D01*
X4249602Y4076077D01*
X4249026Y4076192D01*
X4248565Y4076250D01*
X4248104Y4076307D01*
X4247758Y4076365D01*
X4247298D01*
X4245915Y4076250D01*
X4244590Y4075962D01*
X4243381Y4075616D01*
X4242344Y4075155D01*
X4241422Y4074694D01*
X4241077Y4074522D01*
X4240731Y4074349D01*
X4240501Y4074176D01*
X4240328Y4074061D01*
X4240213Y4074003D01*
X4240155Y4073946D01*
X4242229Y4084141D01*
X4257320D01*
Y4088576D01*
X4259106D01*
D02*
G37*
G36*
X4137858Y4089152D02*
X4102549D01*
X4117006D01*
X4102549Y4051309D01*
X4107848D01*
X4111938Y4062771D01*
X4127835D01*
X4132213Y4051309D01*
X4137858D01*
X4122478Y4089152D01*
X4137858D01*
D02*
G37*
G36*
X4364398Y4089325D02*
X4351554D01*
Y4050675D01*
Y4069971D01*
X4351611Y4068070D01*
X4351726Y4066227D01*
X4351899Y4064615D01*
X4352130Y4063059D01*
X4352418Y4061677D01*
X4352706Y4060410D01*
X4353051Y4059258D01*
X4353397Y4058278D01*
X4353742Y4057357D01*
X4354088Y4056608D01*
X4354376Y4055974D01*
X4354664Y4055456D01*
X4354894Y4055053D01*
X4355067Y4054765D01*
X4355182Y4054592D01*
X4355240Y4054535D01*
X4355874Y4053843D01*
X4356507Y4053267D01*
X4357198Y4052749D01*
X4357947Y4052288D01*
X4358638Y4051943D01*
X4359387Y4051597D01*
X4360770Y4051136D01*
X4361403Y4051021D01*
X4361979Y4050906D01*
X4362498Y4050791D01*
X4362958Y4050733D01*
X4363362Y4050675D01*
X4363880D01*
X4365378Y4050791D01*
X4366702Y4051021D01*
X4367854Y4051367D01*
X4368891Y4051770D01*
X4369640Y4052173D01*
X4370274Y4052519D01*
X4370446Y4052691D01*
X4370619Y4052749D01*
X4370677Y4052864D01*
X4370734D01*
X4371714Y4053786D01*
X4372520Y4054823D01*
X4373211Y4055859D01*
X4373787Y4056896D01*
X4374248Y4057818D01*
X4374421Y4058163D01*
X4374594Y4058509D01*
X4374709Y4058797D01*
X4374766Y4059027D01*
X4374824Y4059142D01*
Y4059200D01*
X4375054Y4060006D01*
X4375285Y4060813D01*
X4375630Y4062599D01*
X4375861Y4064384D01*
X4376034Y4066112D01*
X4376091Y4066919D01*
X4376149Y4067667D01*
Y4068301D01*
X4376206Y4068877D01*
Y4069971D01*
X4376149Y4071987D01*
Y4072851D01*
X4376091Y4073715D01*
X4376034Y4074522D01*
X4375918Y4075271D01*
X4375861Y4075904D01*
X4375803Y4076538D01*
X4375688Y4077056D01*
X4375630Y4077575D01*
X4375573Y4077978D01*
X4375458Y4078266D01*
X4375400Y4078554D01*
Y4078727D01*
X4375342Y4078842D01*
Y4078899D01*
X4374997Y4080109D01*
X4374594Y4081203D01*
X4374190Y4082182D01*
X4373845Y4082989D01*
X4373499Y4083622D01*
X4373211Y4084141D01*
X4373038Y4084429D01*
X4372981Y4084544D01*
X4372405Y4085351D01*
X4371771Y4086042D01*
X4371138Y4086675D01*
X4370562Y4087194D01*
X4369986Y4087539D01*
X4369582Y4087827D01*
X4369294Y4088000D01*
X4369179Y4088058D01*
X4368315Y4088461D01*
X4367394Y4088807D01*
X4366472Y4089037D01*
X4365666Y4089152D01*
X4364974Y4089267D01*
X4364398Y4089325D01*
D02*
G37*
%LPD*%
G36*
X4393774Y4051309D02*
X4384501D01*
Y4075271D01*
X4385307Y4075616D01*
X4386171Y4076019D01*
X4386978Y4076365D01*
X4387726Y4076768D01*
X4388360Y4077114D01*
X4388878Y4077402D01*
X4389224Y4077632D01*
X4389282Y4077690D01*
X4389339D01*
X4390318Y4078266D01*
X4391182Y4078899D01*
X4391931Y4079418D01*
X4392565Y4079936D01*
X4393083Y4080339D01*
X4393486Y4080627D01*
X4393717Y4080858D01*
X4393774Y4080915D01*
Y4051309D01*
D02*
G37*
G36*
X4217518Y4051309D02*
X4208245D01*
Y4075270D01*
X4209051Y4075616D01*
X4209915Y4076019D01*
X4210722Y4076365D01*
X4211470Y4076768D01*
X4212104Y4077114D01*
X4212622Y4077402D01*
X4212968Y4077632D01*
X4213026Y4077690D01*
X4213083D01*
X4214062Y4078266D01*
X4214926Y4078899D01*
X4215675Y4079418D01*
X4216309Y4079936D01*
X4216827Y4080339D01*
X4217230Y4080627D01*
X4217461Y4080858D01*
X4217518Y4080915D01*
Y4051309D01*
D02*
G37*
G36*
X4335944Y4071642D02*
X4336981Y4071411D01*
X4337902Y4071008D01*
X4338651Y4070605D01*
X4339285Y4070202D01*
X4339746Y4069798D01*
X4339976Y4069568D01*
X4340091Y4069453D01*
X4340782Y4068531D01*
X4341301Y4067552D01*
X4341646Y4066515D01*
X4341934Y4065536D01*
X4342050Y4064672D01*
X4342107Y4064269D01*
Y4063923D01*
X4342165Y4063693D01*
Y4063463D01*
Y4063347D01*
Y4063290D01*
X4342050Y4061850D01*
X4341819Y4060582D01*
X4341474Y4059430D01*
X4341128Y4058509D01*
X4340725Y4057818D01*
X4340379Y4057299D01*
X4340149Y4056954D01*
X4340034Y4056838D01*
X4339227Y4056032D01*
X4338363Y4055456D01*
X4337499Y4055053D01*
X4336750Y4054765D01*
X4336002Y4054592D01*
X4335483Y4054535D01*
X4335253Y4054477D01*
X4334965D01*
X4334216Y4054535D01*
X4333525Y4054650D01*
X4332834Y4054823D01*
X4332258Y4055053D01*
X4331797Y4055226D01*
X4331451Y4055398D01*
X4331163Y4055514D01*
X4331106Y4055571D01*
X4330472Y4056032D01*
X4329896Y4056608D01*
X4329435Y4057126D01*
X4329032Y4057702D01*
X4328686Y4058163D01*
X4328456Y4058566D01*
X4328341Y4058797D01*
X4328283Y4058912D01*
X4327938Y4059776D01*
X4327707Y4060582D01*
X4327534Y4061331D01*
X4327419Y4062080D01*
X4327362Y4062656D01*
X4327304Y4063117D01*
Y4063405D01*
Y4063520D01*
X4327419Y4064845D01*
X4327650Y4065997D01*
X4327995Y4067034D01*
X4328398Y4067898D01*
X4328802Y4068531D01*
X4329147Y4069050D01*
X4329378Y4069338D01*
X4329493Y4069453D01*
X4330357Y4070202D01*
X4331221Y4070778D01*
X4332142Y4071181D01*
X4332949Y4071469D01*
X4333698Y4071642D01*
X4334274Y4071699D01*
X4334504Y4071757D01*
X4334792D01*
X4335944Y4071642D01*
D02*
G37*
G36*
X4189064Y4071642D02*
X4190101Y4071411D01*
X4191022Y4071008D01*
X4191771Y4070605D01*
X4192405Y4070202D01*
X4192866Y4069798D01*
X4193096Y4069568D01*
X4193211Y4069453D01*
X4193902Y4068531D01*
X4194421Y4067552D01*
X4194766Y4066515D01*
X4195054Y4065536D01*
X4195170Y4064672D01*
X4195227Y4064269D01*
Y4063923D01*
X4195285Y4063693D01*
Y4063462D01*
Y4063347D01*
Y4063290D01*
X4195170Y4061850D01*
X4194939Y4060582D01*
X4194594Y4059430D01*
X4194248Y4058509D01*
X4193845Y4057818D01*
X4193499Y4057299D01*
X4193269Y4056954D01*
X4193154Y4056838D01*
X4192347Y4056032D01*
X4191483Y4055456D01*
X4190619Y4055053D01*
X4189870Y4054765D01*
X4189122Y4054592D01*
X4188603Y4054534D01*
X4188373Y4054477D01*
X4188085D01*
X4187336Y4054534D01*
X4186645Y4054650D01*
X4185954Y4054822D01*
X4185378Y4055053D01*
X4184917Y4055226D01*
X4184571Y4055398D01*
X4184283Y4055514D01*
X4184226Y4055571D01*
X4183592Y4056032D01*
X4183016Y4056608D01*
X4182555Y4057126D01*
X4182152Y4057702D01*
X4181806Y4058163D01*
X4181576Y4058566D01*
X4181461Y4058797D01*
X4181403Y4058912D01*
X4181058Y4059776D01*
X4180827Y4060582D01*
X4180654Y4061331D01*
X4180539Y4062080D01*
X4180482Y4062656D01*
X4180424Y4063117D01*
Y4063405D01*
Y4063520D01*
X4180539Y4064845D01*
X4180770Y4065997D01*
X4181115Y4067034D01*
X4181518Y4067898D01*
X4181922Y4068531D01*
X4182267Y4069050D01*
X4182498Y4069338D01*
X4182613Y4069453D01*
X4183477Y4070202D01*
X4184341Y4070778D01*
X4185262Y4071181D01*
X4186069Y4071469D01*
X4186818Y4071642D01*
X4187394Y4071699D01*
X4187624Y4071757D01*
X4187912D01*
X4189064Y4071642D01*
D02*
G37*
G36*
X4278286Y4064614D02*
X4266421D01*
X4278286Y4081549D01*
Y4064614D01*
D02*
G37*
G36*
X4303746Y4089267D02*
X4302824Y4089152D01*
X4301960Y4088979D01*
X4301154Y4088807D01*
X4299714Y4088231D01*
X4299080Y4087885D01*
X4298504Y4087597D01*
X4297928Y4087251D01*
X4297467Y4086906D01*
X4297064Y4086618D01*
X4296776Y4086387D01*
X4296488Y4086157D01*
X4296315Y4085984D01*
X4296200Y4085869D01*
X4296142Y4085811D01*
X4295566Y4085120D01*
X4295048Y4084429D01*
X4294587Y4083680D01*
X4294242Y4082874D01*
X4293896Y4082125D01*
X4293608Y4081318D01*
X4293205Y4079878D01*
X4293090Y4079187D01*
X4292974Y4078554D01*
X4292917Y4077978D01*
X4292859Y4077517D01*
X4292802Y4077114D01*
Y4089325D01*
X4304667D01*
X4303746Y4089267D01*
D02*
G37*
G36*
X4306338Y4085351D02*
X4307317Y4085120D01*
X4308181Y4084717D01*
X4308930Y4084314D01*
X4309563Y4083853D01*
X4309966Y4083450D01*
X4310254Y4083219D01*
X4310370Y4083104D01*
X4311061Y4082125D01*
X4311579Y4081088D01*
X4311982Y4080051D01*
X4312213Y4079015D01*
X4312386Y4078093D01*
X4312443Y4077747D01*
Y4077402D01*
X4312501Y4077114D01*
Y4076883D01*
Y4076768D01*
Y4076711D01*
X4312386Y4075328D01*
X4312155Y4074061D01*
X4311810Y4073024D01*
X4311464Y4072102D01*
X4311061Y4071411D01*
X4310715Y4070893D01*
X4310485Y4070605D01*
X4310370Y4070490D01*
X4309563Y4069741D01*
X4308699Y4069165D01*
X4307778Y4068819D01*
X4306971Y4068531D01*
X4306222Y4068358D01*
X4305646Y4068301D01*
X4305416Y4068243D01*
X4305128D01*
X4303976Y4068358D01*
X4302939Y4068589D01*
X4302018Y4068934D01*
X4301211Y4069395D01*
X4300578Y4069798D01*
X4300117Y4070144D01*
X4299829Y4070374D01*
X4299714Y4070490D01*
X4299022Y4071411D01*
X4298504Y4072333D01*
X4298101Y4073312D01*
X4297870Y4074291D01*
X4297698Y4075098D01*
X4297640Y4075789D01*
X4297582Y4076019D01*
Y4076192D01*
Y4076307D01*
Y4076365D01*
X4297698Y4077805D01*
X4297928Y4079072D01*
X4298274Y4080224D01*
X4298734Y4081146D01*
X4299138Y4081894D01*
X4299483Y4082470D01*
X4299714Y4082816D01*
X4299829Y4082931D01*
X4300290Y4083392D01*
X4300750Y4083795D01*
X4301672Y4084371D01*
X4302536Y4084832D01*
X4303400Y4085178D01*
X4304149Y4085351D01*
X4304725Y4085408D01*
X4304955Y4085466D01*
X4305243D01*
X4306338Y4085351D01*
D02*
G37*
G36*
X4120002Y4083968D02*
X4120405Y4082643D01*
X4120866Y4081318D01*
X4121326Y4080051D01*
X4121672Y4078957D01*
X4121845Y4078496D01*
X4122018Y4078093D01*
X4122133Y4077747D01*
X4122248Y4077517D01*
X4122306Y4077344D01*
Y4077286D01*
X4126222Y4066861D01*
X4113378D01*
X4117525Y4077920D01*
X4117986Y4079245D01*
X4118389Y4080570D01*
X4118734Y4081779D01*
X4119022Y4082931D01*
X4119253Y4083853D01*
X4119368Y4084256D01*
X4119483Y4084602D01*
X4119541Y4084890D01*
Y4085062D01*
X4119598Y4085178D01*
Y4085235D01*
X4120002Y4083968D01*
D02*
G37*
G36*
X4362382Y4089210D02*
X4361058Y4088979D01*
X4359848Y4088634D01*
X4358869Y4088231D01*
X4358062Y4087770D01*
X4357486Y4087424D01*
X4357256Y4087309D01*
X4357083Y4087194D01*
X4357026Y4087079D01*
X4356968D01*
X4355989Y4086157D01*
X4355182Y4085178D01*
X4354491Y4084141D01*
X4353915Y4083104D01*
X4353454Y4082182D01*
X4353282Y4081779D01*
X4353166Y4081434D01*
X4353051Y4081146D01*
X4352936Y4080915D01*
X4352878Y4080800D01*
Y4080742D01*
X4352648Y4079936D01*
X4352418Y4079130D01*
X4352130Y4077344D01*
X4351899Y4075559D01*
X4351726Y4073831D01*
X4351669Y4073024D01*
X4351611Y4072275D01*
Y4071642D01*
X4351554Y4071066D01*
Y4089325D01*
X4363880D01*
X4362382Y4089210D01*
D02*
G37*
G36*
X4364398Y4085408D02*
X4364974Y4085351D01*
X4366011Y4085005D01*
X4366933Y4084486D01*
X4367739Y4083910D01*
X4368373Y4083334D01*
X4368834Y4082816D01*
X4369122Y4082470D01*
X4369237Y4082413D01*
Y4082355D01*
X4369640Y4081722D01*
X4369986Y4080973D01*
X4370274Y4080109D01*
X4370504Y4079130D01*
X4370907Y4077114D01*
X4371138Y4075040D01*
X4371253Y4074003D01*
X4371310Y4073082D01*
X4371368Y4072218D01*
Y4071469D01*
X4371426Y4070835D01*
Y4070374D01*
Y4070086D01*
Y4069971D01*
Y4068301D01*
X4371310Y4066746D01*
X4371253Y4065363D01*
X4371080Y4064096D01*
X4370907Y4062944D01*
X4370734Y4061907D01*
X4370562Y4061043D01*
X4370331Y4060237D01*
X4370101Y4059603D01*
X4369928Y4059027D01*
X4369755Y4058509D01*
X4369582Y4058163D01*
X4369467Y4057875D01*
X4369352Y4057702D01*
X4369237Y4057587D01*
Y4057530D01*
X4368834Y4057011D01*
X4368373Y4056550D01*
X4367912Y4056090D01*
X4367451Y4055744D01*
X4366587Y4055226D01*
X4365723Y4054880D01*
X4364974Y4054650D01*
X4364398Y4054535D01*
X4364168Y4054477D01*
X4363880D01*
X4363304Y4054535D01*
X4362728Y4054592D01*
X4361691Y4054938D01*
X4360770Y4055456D01*
X4359963Y4056032D01*
X4359330Y4056550D01*
X4358869Y4057069D01*
X4358581Y4057414D01*
X4358466Y4057472D01*
Y4057530D01*
X4358120Y4058163D01*
X4357774Y4058970D01*
X4357486Y4059834D01*
X4357256Y4060755D01*
X4356853Y4062829D01*
X4356622Y4064903D01*
X4356507Y4065882D01*
X4356450Y4066861D01*
X4356392Y4067725D01*
Y4068474D01*
X4356334Y4069107D01*
Y4069568D01*
Y4069856D01*
Y4069971D01*
Y4071642D01*
X4356450Y4073197D01*
X4356565Y4074579D01*
X4356680Y4075847D01*
X4356910Y4077056D01*
X4357083Y4078093D01*
X4357314Y4079015D01*
X4357544Y4079821D01*
X4357717Y4080512D01*
X4357947Y4081146D01*
X4358178Y4081606D01*
X4358350Y4082010D01*
X4358466Y4082298D01*
X4358581Y4082528D01*
X4358696Y4082643D01*
Y4082701D01*
X4359042Y4083162D01*
X4359445Y4083622D01*
X4360309Y4084314D01*
X4361173Y4084774D01*
X4361979Y4085120D01*
X4362728Y4085351D01*
X4363304Y4085408D01*
X4363534Y4085466D01*
X4363822D01*
X4364398Y4085408D01*
D02*
G37*
%LPC*%
G36*
X4519000Y4806970D02*
X4518609D01*
X4518297Y4806892D01*
X4517516Y4806814D01*
X4516501Y4806579D01*
X4515329Y4806111D01*
X4514158Y4805486D01*
X4512908Y4804705D01*
X4512283Y4804158D01*
X4511659Y4803533D01*
X4511502Y4803377D01*
X4511190Y4802909D01*
X4510721Y4802128D01*
X4510175Y4801112D01*
X4509550Y4799863D01*
X4509081Y4798301D01*
X4508769Y4796583D01*
X4508613Y4794630D01*
Y4794552D01*
Y4794396D01*
Y4794162D01*
X4508691Y4793849D01*
X4508769Y4792912D01*
X4509003Y4791819D01*
X4509316Y4790491D01*
X4509862Y4789163D01*
X4510565Y4787913D01*
X4511502Y4786664D01*
X4511659Y4786508D01*
X4512049Y4786195D01*
X4512674Y4785727D01*
X4513533Y4785180D01*
X4514626Y4784555D01*
X4515876Y4784087D01*
X4517282Y4783774D01*
X4518844Y4783618D01*
X4519234D01*
X4519547Y4783696D01*
X4520328Y4783774D01*
X4521343Y4784008D01*
X4522436Y4784399D01*
X4523686Y4784868D01*
X4524858Y4785649D01*
X4525951Y4786664D01*
X4526107Y4786820D01*
X4526419Y4787211D01*
X4526888Y4787913D01*
X4527435Y4788851D01*
X4527903Y4790100D01*
X4528372Y4791506D01*
X4528684Y4793224D01*
X4528841Y4795099D01*
Y4795177D01*
Y4795333D01*
Y4795645D01*
X4528762Y4796036D01*
Y4796505D01*
X4528684Y4796973D01*
X4528450Y4798223D01*
X4528138Y4799628D01*
X4527591Y4801034D01*
X4526888Y4802440D01*
X4525951Y4803768D01*
X4525795Y4803924D01*
X4525404Y4804236D01*
X4524858Y4804783D01*
X4523998Y4805408D01*
X4522983Y4805955D01*
X4521812Y4806501D01*
X4520484Y4806814D01*
X4519000Y4806970D01*
D02*
G37*
G36*
X3022000Y4071222D02*
X3021769D01*
X3021585Y4071176D01*
X3021124Y4071130D01*
X3020525Y4070991D01*
X3019879Y4070761D01*
X3019142Y4070438D01*
X3018450Y4069977D01*
X3017759Y4069378D01*
X3017666Y4069285D01*
X3017482Y4069055D01*
X3017205Y4068640D01*
X3016883Y4068133D01*
X3016560Y4067441D01*
X3016283Y4066612D01*
X3016099Y4065690D01*
X3016007Y4064629D01*
Y4064537D01*
Y4064307D01*
X3016053Y4063938D01*
X3016099Y4063477D01*
X3016191Y4062878D01*
X3016329Y4062278D01*
X3016514Y4061633D01*
X3016791Y4060941D01*
X3016837Y4060849D01*
X3016929Y4060665D01*
X3017113Y4060342D01*
X3017390Y4059973D01*
X3017713Y4059512D01*
X3018081Y4059097D01*
X3018542Y4058636D01*
X3019049Y4058268D01*
X3019095Y4058222D01*
X3019326Y4058129D01*
X3019603Y4057991D01*
X3019971Y4057853D01*
X3020432Y4057668D01*
X3020986Y4057530D01*
X3021539Y4057438D01*
X3022138Y4057392D01*
X3022369D01*
X3022553Y4057438D01*
X3022968Y4057484D01*
X3023567Y4057622D01*
X3024166Y4057853D01*
X3024858Y4058175D01*
X3025550Y4058636D01*
X3026195Y4059282D01*
X3026287Y4059374D01*
X3026472Y4059651D01*
X3026748Y4060066D01*
X3027071Y4060619D01*
X3027347Y4061356D01*
X3027624Y4062278D01*
X3027808Y4063293D01*
X3027901Y4064445D01*
Y4064491D01*
Y4064583D01*
Y4064768D01*
X3027854Y4064952D01*
Y4065229D01*
X3027808Y4065551D01*
X3027716Y4066243D01*
X3027486Y4067027D01*
X3027209Y4067856D01*
X3026794Y4068640D01*
X3026241Y4069378D01*
X3026149Y4069470D01*
X3025964Y4069654D01*
X3025596Y4069977D01*
X3025088Y4070300D01*
X3024489Y4070622D01*
X3023752Y4070945D01*
X3022922Y4071130D01*
X3022000Y4071222D01*
D02*
G37*
G36*
X3080501Y4082194D02*
X3080270D01*
X3080086Y4082148D01*
X3079625Y4082101D01*
X3079026Y4081917D01*
X3078380Y4081640D01*
X3077689Y4081272D01*
X3076997Y4080718D01*
X3076674Y4080350D01*
X3076398Y4079981D01*
Y4079935D01*
X3076306Y4079843D01*
X3076213Y4079658D01*
X3076121Y4079428D01*
X3075983Y4079105D01*
X3075798Y4078736D01*
X3075614Y4078229D01*
X3075476Y4077676D01*
X3075291Y4077030D01*
X3075107Y4076293D01*
X3074969Y4075463D01*
X3074784Y4074495D01*
X3074692Y4073481D01*
X3074600Y4072374D01*
X3074508Y4071130D01*
Y4069793D01*
Y4069700D01*
Y4069470D01*
Y4069101D01*
X3074554Y4068594D01*
Y4067995D01*
X3074600Y4067303D01*
X3074646Y4066520D01*
X3074738Y4065736D01*
X3074923Y4064076D01*
X3075245Y4062417D01*
X3075430Y4061679D01*
X3075660Y4060988D01*
X3075937Y4060342D01*
X3076213Y4059835D01*
Y4059789D01*
X3076306Y4059743D01*
X3076536Y4059466D01*
X3076905Y4059051D01*
X3077412Y4058637D01*
X3078057Y4058175D01*
X3078795Y4057761D01*
X3079625Y4057484D01*
X3080086Y4057438D01*
X3080547Y4057392D01*
X3080777D01*
X3080962Y4057438D01*
X3081423Y4057530D01*
X3082022Y4057715D01*
X3082713Y4057991D01*
X3083405Y4058406D01*
X3083774Y4058683D01*
X3084143Y4059051D01*
X3084511Y4059420D01*
X3084834Y4059835D01*
Y4059881D01*
X3084926Y4059973D01*
X3085019Y4060112D01*
X3085111Y4060342D01*
X3085249Y4060619D01*
X3085387Y4061034D01*
X3085526Y4061495D01*
X3085710Y4062002D01*
X3085894Y4062647D01*
X3086033Y4063339D01*
X3086171Y4064169D01*
X3086309Y4065090D01*
X3086448Y4066105D01*
X3086494Y4067211D01*
X3086586Y4068456D01*
Y4069793D01*
Y4069885D01*
Y4070115D01*
Y4070484D01*
X3086540Y4070991D01*
Y4071591D01*
X3086494Y4072282D01*
X3086448Y4073020D01*
X3086355Y4073849D01*
X3086171Y4075509D01*
X3085848Y4077123D01*
X3085664Y4077906D01*
X3085433Y4078598D01*
X3085157Y4079197D01*
X3084834Y4079704D01*
Y4079750D01*
X3084742Y4079796D01*
X3084511Y4080073D01*
X3084143Y4080488D01*
X3083635Y4080949D01*
X3082990Y4081410D01*
X3082253Y4081825D01*
X3081423Y4082101D01*
X3080962Y4082148D01*
X3080501Y4082194D01*
D02*
G37*
G36*
X2998212Y4082193D02*
X2997982D01*
X2997797Y4082147D01*
X2997336Y4082101D01*
X2996737Y4081917D01*
X2996092Y4081640D01*
X2995400Y4081271D01*
X2994709Y4080718D01*
X2994386Y4080349D01*
X2994109Y4079981D01*
Y4079935D01*
X2994017Y4079842D01*
X2993925Y4079658D01*
X2993833Y4079427D01*
X2993694Y4079105D01*
X2993510Y4078736D01*
X2993326Y4078229D01*
X2993187Y4077676D01*
X2993003Y4077030D01*
X2992818Y4076293D01*
X2992680Y4075463D01*
X2992496Y4074495D01*
X2992404Y4073481D01*
X2992311Y4072374D01*
X2992219Y4071130D01*
Y4069793D01*
Y4069700D01*
Y4069470D01*
Y4069101D01*
X2992265Y4068594D01*
Y4067995D01*
X2992311Y4067303D01*
X2992358Y4066519D01*
X2992450Y4065736D01*
X2992634Y4064076D01*
X2992957Y4062417D01*
X2993141Y4061679D01*
X2993372Y4060988D01*
X2993648Y4060342D01*
X2993925Y4059835D01*
Y4059789D01*
X2994017Y4059743D01*
X2994248Y4059466D01*
X2994616Y4059051D01*
X2995124Y4058636D01*
X2995769Y4058175D01*
X2996506Y4057760D01*
X2997336Y4057484D01*
X2997797Y4057438D01*
X2998258Y4057392D01*
X2998489D01*
X2998673Y4057438D01*
X2999134Y4057530D01*
X2999733Y4057714D01*
X3000425Y4057991D01*
X3001117Y4058406D01*
X3001485Y4058682D01*
X3001854Y4059051D01*
X3002223Y4059420D01*
X3002546Y4059835D01*
Y4059881D01*
X3002638Y4059973D01*
X3002730Y4060112D01*
X3002822Y4060342D01*
X3002961Y4060619D01*
X3003099Y4061034D01*
X3003237Y4061495D01*
X3003421Y4062002D01*
X3003606Y4062647D01*
X3003744Y4063339D01*
X3003883Y4064168D01*
X3004021Y4065090D01*
X3004159Y4066105D01*
X3004205Y4067211D01*
X3004297Y4068456D01*
Y4069793D01*
Y4069885D01*
Y4070115D01*
Y4070484D01*
X3004251Y4070991D01*
Y4071590D01*
X3004205Y4072282D01*
X3004159Y4073020D01*
X3004067Y4073849D01*
X3003883Y4075509D01*
X3003560Y4077122D01*
X3003375Y4077906D01*
X3003145Y4078598D01*
X3002868Y4079197D01*
X3002546Y4079704D01*
Y4079750D01*
X3002453Y4079796D01*
X3002223Y4080073D01*
X3001854Y4080488D01*
X3001347Y4080949D01*
X3000702Y4081410D01*
X2999964Y4081825D01*
X2999134Y4082101D01*
X2998673Y4082147D01*
X2998212Y4082193D01*
D02*
G37*
%LPD*%
D23*
X3386323Y4807102D02*
G03*
X3386323Y4807102I-167323J0D01*
G01*
X3544404Y4898119D02*
X3550964Y4904679D01*
X3564083D01*
X3570643Y4898119D01*
Y4871881D01*
X3564083Y4865321D01*
X3550964D01*
X3544404Y4871881D01*
Y4898119D01*
X3583762Y4865321D02*
Y4871881D01*
X3590321D01*
Y4865321D01*
X3583762D01*
X3616560D02*
X3629679D01*
X3623119D01*
Y4904679D01*
X3616560Y4898119D01*
X3649357Y4891560D02*
Y4871881D01*
X3655917Y4865321D01*
X3675596D01*
Y4891560D01*
X3557363Y4758119D02*
X3550803Y4764679D01*
X3537684D01*
X3531125Y4758119D01*
Y4731881D01*
X3537684Y4725321D01*
X3550803D01*
X3557363Y4731881D01*
X3570482Y4758119D02*
X3577042Y4764679D01*
X3590161D01*
X3596720Y4758119D01*
Y4731881D01*
X3590161Y4725321D01*
X3577042D01*
X3570482Y4731881D01*
Y4758119D01*
X3609839Y4725321D02*
X3622959D01*
X3616399D01*
Y4764679D01*
X3609839Y4758119D01*
X3642637Y4764679D02*
Y4725321D01*
X3662316D01*
X3668875Y4731881D01*
Y4738440D01*
X3662316Y4745000D01*
X3642637D01*
X3662316D01*
X3668875Y4751560D01*
Y4758119D01*
X3662316Y4764679D01*
X3642637D01*
X3544404Y4958119D02*
X3550964Y4964679D01*
X3564083D01*
X3570643Y4958119D01*
Y4931881D01*
X3564083Y4925321D01*
X3550964D01*
X3544404Y4931881D01*
Y4958119D01*
X3583762Y4925321D02*
Y4931881D01*
X3590321D01*
Y4925321D01*
X3583762D01*
X3616560D02*
X3629679D01*
X3623119D01*
Y4964679D01*
X3616560Y4958119D01*
X3649357Y4951560D02*
Y4931881D01*
X3655917Y4925321D01*
X3675596D01*
Y4951560D01*
X4169679Y4434083D02*
Y4447202D01*
Y4440643D01*
X4130321D01*
X4136881Y4434083D01*
Y4466881D02*
X4130321Y4473440D01*
Y4486560D01*
X4136881Y4493119D01*
X4163119D01*
X4169679Y4486560D01*
Y4473440D01*
X4163119Y4466881D01*
X4136881D01*
X4169679Y4506238D02*
X4130321D01*
X4156560D02*
X4143440Y4525917D01*
X4156560Y4506238D02*
X4169679Y4525917D01*
X3987845Y4898119D02*
X3994404Y4904679D01*
X4007523D01*
X4014083Y4898119D01*
Y4891560D01*
X4007523Y4885000D01*
X4000964D01*
X4007523D01*
X4014083Y4878440D01*
Y4871881D01*
X4007523Y4865321D01*
X3994404D01*
X3987845Y4871881D01*
X4027202Y4898119D02*
X4033762Y4904679D01*
X4046881D01*
X4053440Y4898119D01*
Y4891560D01*
X4046881Y4885000D01*
X4040321D01*
X4046881D01*
X4053440Y4878440D01*
Y4871881D01*
X4046881Y4865321D01*
X4033762D01*
X4027202Y4871881D01*
X4066560Y4898119D02*
X4073119Y4904679D01*
X4086238D01*
X4092798Y4898119D01*
Y4871881D01*
X4086238Y4865321D01*
X4073119D01*
X4066560Y4871881D01*
Y4898119D01*
X4105917Y4865321D02*
Y4904679D01*
X4125596D01*
X4132155Y4898119D01*
Y4885000D01*
X4125596Y4878440D01*
X4105917D01*
X4119036D02*
X4132155Y4865321D01*
X3591125Y4075321D02*
X3604244D01*
X3597684D01*
Y4114679D01*
X3591125Y4108119D01*
X3623922D02*
X3630482Y4114679D01*
X3643601D01*
X3650161Y4108119D01*
Y4081881D01*
X3643601Y4075321D01*
X3630482D01*
X3623922Y4081881D01*
Y4108119D01*
X3663280D02*
X3669839Y4114679D01*
X3682959D01*
X3689518Y4108119D01*
Y4081881D01*
X3682959Y4075321D01*
X3669839D01*
X3663280Y4081881D01*
Y4108119D01*
X3702637Y4075321D02*
Y4114679D01*
X3722316D01*
X3728875Y4108119D01*
Y4095000D01*
X3722316Y4088440D01*
X3702637D01*
X3715756D02*
X3728875Y4075321D01*
X3324679Y4744083D02*
Y4717845D01*
X3298440Y4744083D01*
X3291881D01*
X3285321Y4737523D01*
Y4724404D01*
X3291881Y4717845D01*
X3324679Y4783440D02*
Y4757202D01*
X3298440Y4783440D01*
X3291881D01*
X3285321Y4776881D01*
Y4763762D01*
X3291881Y4757202D01*
Y4796560D02*
X3285321Y4803119D01*
Y4816238D01*
X3291881Y4822798D01*
X3318119D01*
X3324679Y4816238D01*
Y4803119D01*
X3318119Y4796560D01*
X3291881D01*
X3298440Y4835917D02*
X3318119D01*
X3324679Y4842476D01*
Y4862155D01*
X3298440D01*
X3564679Y4434083D02*
Y4447202D01*
Y4440643D01*
X3525321D01*
X3531881Y4434083D01*
Y4466881D02*
X3525321Y4473440D01*
Y4486560D01*
X3531881Y4493119D01*
X3558119D01*
X3564679Y4486560D01*
Y4473440D01*
X3558119Y4466881D01*
X3531881D01*
X3564679Y4506238D02*
X3525321D01*
X3551560D02*
X3538441Y4525917D01*
X3551560Y4506238D02*
X3564679Y4525917D01*
X3724679Y4434083D02*
Y4447202D01*
Y4440643D01*
X3685321D01*
X3691881Y4434083D01*
Y4466881D02*
X3685321Y4473440D01*
Y4486560D01*
X3691881Y4493119D01*
X3718119D01*
X3724679Y4486560D01*
Y4473440D01*
X3718119Y4466881D01*
X3691881D01*
X3724679Y4506238D02*
X3685321D01*
X3711560D02*
X3698441Y4525917D01*
X3711560Y4506238D02*
X3724679Y4525917D01*
D33*
X3127921Y4351338D02*
G03*
X3127921Y4351338I-4921J0D01*
G01*
D34*
X3323436Y4555100D02*
G03*
X3322918Y4469076I45761J-43289D01*
G01*
X3415476D02*
G03*
X3414958Y4555100I-46279J42735D01*
G01*
X3843121D02*
G03*
X3842603Y4469076I45761J-43289D01*
G01*
X3935161D02*
G03*
X3934643Y4555100I-46279J42735D01*
G01*
X4381704D02*
G03*
X4381186Y4469076I45761J-43289D01*
G01*
X4473743D02*
G03*
X4473225Y4555100I-46279J42735D01*
G01*
X3715000Y4883000D02*
X3724000D01*
X3506000D02*
X3515000D01*
X3715000Y4853000D02*
Y4883000D01*
X3515000Y4853000D02*
X3715000D01*
X3515000D02*
Y4913000D01*
X3715000D01*
Y4883000D02*
Y4913000D01*
X4155000Y4584000D02*
Y4624000D01*
Y4304000D02*
Y4344000D01*
X4195000D02*
Y4584000D01*
X4115000D02*
X4195000D01*
X4115000Y4344000D02*
Y4584000D01*
Y4344000D02*
X4195000D01*
X4163000Y4883000D02*
X4172000D01*
X3954000D02*
X3963000D01*
X4163000Y4853000D02*
Y4883000D01*
X3963000Y4853000D02*
X4163000D01*
X3963000D02*
Y4913000D01*
X4163000D01*
Y4883000D02*
Y4913000D01*
X3758000Y4094000D02*
X3767000D01*
X3549000D02*
X3558000D01*
X3758000Y4064000D02*
Y4094000D01*
X3558000Y4064000D02*
X3758000D01*
X3558000D02*
Y4124000D01*
X3758000D01*
Y4094000D02*
Y4124000D01*
X3121559Y4938008D02*
X3318409D01*
X3067882Y4407047D02*
Y4603898D01*
X3074772D01*
X3067882Y4407047D02*
X3074772D01*
X3256858Y4426732D02*
Y4584213D01*
X3178118D02*
X3256858D01*
X3178121Y4426735D02*
X3256861D01*
X3171228Y4603898D02*
X3178118D01*
X3171228Y4407047D02*
X3178118D01*
Y4584213D02*
Y4603898D01*
X3178121Y4407050D02*
Y4426735D01*
X3546000Y4584000D02*
Y4624000D01*
Y4304000D02*
Y4344000D01*
X3586000D02*
Y4584000D01*
X3506000D02*
X3586000D01*
X3506000Y4344000D02*
Y4584000D01*
Y4344000D02*
X3586000D01*
X3702000Y4584000D02*
Y4624000D01*
Y4304000D02*
Y4344000D01*
X3742000D02*
Y4584000D01*
X3662000D02*
X3742000D01*
X3662000Y4344000D02*
Y4584000D01*
Y4344000D02*
X3742000D01*
X3359197Y4395551D02*
X3379197D01*
X3369197Y4375551D02*
Y4415551D01*
X3379197Y4395551D02*
X3389197D01*
X3349197D02*
X3359197D01*
X3878882D02*
X3898882D01*
X3888882Y4375551D02*
Y4415551D01*
X3898882Y4395551D02*
X3908882D01*
X3868882D02*
X3878882D01*
X4417465D02*
X4437465D01*
X4427465Y4375551D02*
Y4415551D01*
X4437465Y4395551D02*
X4447465D01*
X4407465D02*
X4417465D01*
D35*
X4865000Y4011260D02*
G03*
X4943740Y4090000I0J78740D01*
G01*
X2645000D02*
G03*
X2723740Y4011260I78740J0D01*
G01*
X4944244Y4930567D02*
G03*
X4874811Y5000000I-69433J0D01*
G01*
X2724000Y4999740D02*
G03*
X2645260Y4921000I0J-78740D01*
G01*
X3113000Y4933000D02*
X3321000D01*
X3127477Y4944401D02*
X3310477D01*
X3191405Y4969146D02*
X3247000D01*
X3168405Y4964146D02*
X3269000D01*
X3153405Y4958146D02*
X3284000D01*
X3138405Y4951146D02*
X3300000D01*
X3127000Y4944000D02*
X3310000D01*
X2645000Y4087000D02*
Y4922000D01*
X2724000Y4011000D02*
X4865000D01*
X4944000Y4089000D02*
Y4920000D01*
Y4921000D02*
X4944015Y4930454D01*
X2725000Y5000000D02*
X4874811D01*
%TF.MD5,c0cab673e0d298321a655462fc275f20*%
M02*
