M48
;Layer_Color=9474304
;FILE_FORMAT=2:5
INCH,LZ
;TYPE=PLATED
T1F00S00C0.03150
T2F00S00C0.03346
T3F00S00C0.04016
T4F00S00C0.04134
T5F00S00C0.04528
T6F00S00C0.11811
%
T01
X03219Y047382
Y04876
T02
X03508Y04094
X03546Y04264
X03702
X03808Y04094
X04155Y04264
Y04664
X03702
X03546
X03465Y04883
X03765
X03913
X04213
T03
X0460937Y0414704
Y0422578
Y0430452
Y0438326
Y04462
Y0454074
Y0461948
Y0469822
Y0477696
T04
X033692Y0446181
Y0456181
X0388888
Y0446181
X0442746
Y0456181
T05
X03123Y0440547
Y0450547
Y0460547
T06
X0276538Y041291
X048259Y0488189
M30
